%TF.GenerationSoftware,KiCad,Pcbnew,(5.1.10)-1*%
%TF.CreationDate,2022-01-13T09:31:49+07:00*%
%TF.ProjectId,Atuph2,41747570-6832-42e6-9b69-6361645f7063,rev?*%
%TF.SameCoordinates,Original*%
%TF.FileFunction,Copper,L2,Bot*%
%TF.FilePolarity,Positive*%
%FSLAX46Y46*%
G04 Gerber Fmt 4.6, Leading zero omitted, Abs format (unit mm)*
G04 Created by KiCad (PCBNEW (5.1.10)-1) date 2022-01-13 09:31:49*
%MOMM*%
%LPD*%
G01*
G04 APERTURE LIST*
%TA.AperFunction,ComponentPad*%
%ADD10O,1.700000X1.700000*%
%TD*%
%TA.AperFunction,ComponentPad*%
%ADD11R,1.700000X1.700000*%
%TD*%
%TA.AperFunction,ComponentPad*%
%ADD12R,3.048000X3.048000*%
%TD*%
%TA.AperFunction,ComponentPad*%
%ADD13C,6.000000*%
%TD*%
%TA.AperFunction,ComponentPad*%
%ADD14O,1.600000X1.600000*%
%TD*%
%TA.AperFunction,ComponentPad*%
%ADD15R,1.600000X1.600000*%
%TD*%
%TA.AperFunction,Conductor*%
%ADD16C,0.300000*%
%TD*%
%TA.AperFunction,Conductor*%
%ADD17C,1.000000*%
%TD*%
%TA.AperFunction,Conductor*%
%ADD18C,0.100000*%
%TD*%
G04 APERTURE END LIST*
D10*
%TO.P,L3,6*%
%TO.N,GND*%
X138012000Y-123698000D03*
%TO.P,L3,4*%
%TO.N,Net-(L1-Pad6)*%
X138012000Y-128778000D03*
%TO.P,L3,2*%
%TO.N,+4V*%
X138012000Y-133858000D03*
D11*
%TO.P,L3,1*%
%TO.N,Net-(L3-Pad1)*%
X138012000Y-136398000D03*
D10*
%TO.P,L3,5*%
%TO.N,Net-(A1-Pad18)*%
X138012000Y-126238000D03*
%TO.P,L3,3*%
%TO.N,Net-(L3-Pad3)*%
X138012000Y-131318000D03*
%TO.P,L3,12*%
%TO.N,Net-(L3-Pad12)*%
X163232000Y-121158000D03*
%TO.P,L3,10*%
%TO.N,Net-(L3-Pad10)*%
X163232000Y-126238000D03*
%TO.P,L3,8*%
%TO.N,Net-(L3-Pad8)*%
X163232000Y-131318000D03*
D11*
%TO.P,L3,7*%
%TO.N,Net-(L3-Pad7)*%
X163232000Y-133858000D03*
D10*
%TO.P,L3,11*%
%TO.N,Net-(L3-Pad11)*%
X163232000Y-123698000D03*
%TO.P,L3,9*%
%TO.N,Net-(L3-Pad9)*%
X163232000Y-128778000D03*
%TD*%
D12*
%TO.P,L2,1*%
%TO.N,+12V*%
X71510000Y-140150000D03*
%TO.P,L2,2*%
%TO.N,GND1*%
X88510000Y-140150000D03*
%TO.P,L2,4*%
%TO.N,GND*%
X88510000Y-101150000D03*
%TO.P,L2,3*%
%TO.N,+4V*%
X71510000Y-101150000D03*
%TD*%
D10*
%TO.P,L1,2*%
%TO.N,Net-(L1-Pad2)*%
X141732000Y-112014000D03*
D11*
%TO.P,L1,1*%
%TO.N,Net-(L1-Pad1)*%
X141732000Y-114554000D03*
D10*
%TO.P,L1,5*%
%TO.N,Net-(J2-Pad4)*%
X141732000Y-104394000D03*
%TO.P,L1,3*%
%TO.N,GND*%
X141732000Y-109474000D03*
%TO.P,L1,6*%
%TO.N,Net-(L1-Pad6)*%
X141732000Y-101854000D03*
%TO.P,L1,4*%
%TO.N,Net-(J2-Pad3)*%
X141732000Y-106934000D03*
%TO.P,L1,9*%
%TO.N,GND*%
X151892000Y-109474000D03*
%TO.P,L1,11*%
%TO.N,Net-(A1-Pad16)*%
X151892000Y-104394000D03*
D11*
%TO.P,L1,7*%
%TO.N,Net-(L1-Pad7)*%
X151892000Y-114554000D03*
D10*
%TO.P,L1,12*%
%TO.N,Net-(A1-Pad17)*%
X151892000Y-101854000D03*
%TO.P,L1,8*%
%TO.N,Net-(L1-Pad8)*%
X151892000Y-112014000D03*
%TO.P,L1,10*%
%TO.N,Net-(A1-Pad15)*%
X151892000Y-106934000D03*
%TD*%
%TO.P,J2,15*%
%TO.N,Net-(J2-Pad15)*%
X121560000Y-104014000D03*
%TO.P,J2,14*%
%TO.N,Net-(J2-Pad14)*%
X121560000Y-106554000D03*
%TO.P,J2,13*%
%TO.N,Net-(J2-Pad13)*%
X121560000Y-109094000D03*
%TO.P,J2,12*%
%TO.N,Net-(J2-Pad12)*%
X121560000Y-111634000D03*
%TO.P,J2,11*%
%TO.N,Net-(J2-Pad11)*%
X121560000Y-114174000D03*
%TO.P,J2,10*%
%TO.N,Net-(J2-Pad10)*%
X121560000Y-116714000D03*
%TO.P,J2,9*%
%TO.N,Net-(J2-Pad9)*%
X121560000Y-119254000D03*
%TO.P,J2,8*%
%TO.N,Net-(J2-Pad8)*%
X121560000Y-121794000D03*
%TO.P,J2,7*%
%TO.N,Net-(J2-Pad7)*%
X121560000Y-124334000D03*
%TO.P,J2,6*%
%TO.N,Net-(J2-Pad6)*%
X121560000Y-126874000D03*
%TO.P,J2,5*%
%TO.N,Net-(J2-Pad5)*%
X121560000Y-129414000D03*
%TO.P,J2,4*%
%TO.N,Net-(J2-Pad4)*%
X121560000Y-131954000D03*
%TO.P,J2,3*%
%TO.N,Net-(J2-Pad3)*%
X121560000Y-134494000D03*
%TO.P,J2,2*%
%TO.N,Net-(J2-Pad2)*%
X121560000Y-137034000D03*
D11*
%TO.P,J2,1*%
%TO.N,Net-(J2-Pad1)*%
X121560000Y-139574000D03*
%TD*%
D10*
%TO.P,J1,15*%
%TO.N,+3V3*%
X98000000Y-139574000D03*
%TO.P,J1,14*%
%TO.N,GND*%
X98000000Y-137034000D03*
%TO.P,J1,13*%
%TO.N,Net-(J1-Pad13)*%
X98000000Y-134494000D03*
%TO.P,J1,12*%
%TO.N,Net-(J1-Pad12)*%
X98000000Y-131954000D03*
%TO.P,J1,11*%
%TO.N,Net-(J1-Pad11)*%
X98000000Y-129414000D03*
%TO.P,J1,10*%
%TO.N,Net-(J1-Pad10)*%
X98000000Y-126874000D03*
%TO.P,J1,9*%
%TO.N,Net-(J1-Pad9)*%
X98000000Y-124334000D03*
%TO.P,J1,8*%
%TO.N,Net-(J1-Pad8)*%
X98000000Y-121794000D03*
%TO.P,J1,7*%
%TO.N,Net-(J1-Pad7)*%
X98000000Y-119254000D03*
%TO.P,J1,6*%
%TO.N,Net-(J1-Pad6)*%
X98000000Y-116714000D03*
%TO.P,J1,5*%
%TO.N,Net-(J1-Pad5)*%
X98000000Y-114174000D03*
%TO.P,J1,4*%
%TO.N,Net-(J1-Pad4)*%
X98000000Y-111634000D03*
%TO.P,J1,3*%
%TO.N,Net-(J1-Pad3)*%
X98000000Y-109094000D03*
%TO.P,J1,2*%
%TO.N,Net-(J1-Pad2)*%
X98000000Y-106554000D03*
D11*
%TO.P,J1,1*%
%TO.N,Net-(J1-Pad1)*%
X98000000Y-104014000D03*
%TD*%
D13*
%TO.P,H4,1*%
%TO.N,N/C*%
X207474000Y-148014000D03*
%TD*%
%TO.P,H3,1*%
%TO.N,N/C*%
X62474000Y-148014000D03*
%TD*%
%TO.P,H2,1*%
%TO.N,N/C*%
X62474000Y-36014000D03*
%TD*%
%TO.P,H1,1*%
%TO.N,N/C*%
X207474000Y-37014000D03*
%TD*%
D11*
%TO.P,D2,2*%
%TO.N,+5V*%
X145594000Y-90424000D03*
%TO.P,D2,1*%
%TO.N,GND*%
X145594000Y-93472000D03*
%TO.P,D2,3*%
%TO.N,Net-(A1-Pad10)*%
X145594000Y-87376000D03*
D13*
%TO.P,D2,7*%
%TO.N,N/C*%
X164592000Y-100330000D03*
%TO.P,D2,6*%
X164592000Y-80548000D03*
%TO.P,D2,4*%
X194614000Y-100360000D03*
%TO.P,D2,5*%
X194564000Y-80518000D03*
%TD*%
D11*
%TO.P,D1,3*%
%TO.N,Net-(A1-Pad9)*%
X145356000Y-55118000D03*
%TO.P,D1,2*%
%TO.N,+5V*%
X145356000Y-58166000D03*
%TO.P,D1,1*%
%TO.N,GND*%
X145356000Y-61214000D03*
D13*
%TO.P,D1,5*%
%TO.N,N/C*%
X198356000Y-46166000D03*
%TO.P,D1,6*%
X164356000Y-46166000D03*
%TO.P,D1,7*%
X164356000Y-70166000D03*
%TO.P,D1,4*%
X198356000Y-70166000D03*
%TD*%
D14*
%TO.P,A1,20*%
%TO.N,Net-(A1-Pad20)*%
X121173000Y-42698000D03*
%TO.P,A1,28*%
%TO.N,Net-(A1-Pad28)*%
X99333000Y-42698000D03*
%TO.P,A1,24*%
%TO.N,Net-(A1-Pad24)*%
X109493000Y-42698000D03*
%TO.P,A1,29*%
%TO.N,Net-(A1-Pad29)*%
X96793000Y-42698000D03*
%TO.P,A1,30*%
%TO.N,Net-(A1-Pad30)*%
X94253000Y-42698000D03*
%TO.P,A1,15*%
%TO.N,Net-(A1-Pad15)*%
X133873000Y-42698000D03*
%TO.P,A1,22*%
%TO.N,Net-(A1-Pad22)*%
X116093000Y-42698000D03*
%TO.P,A1,21*%
%TO.N,Net-(A1-Pad21)*%
X118633000Y-42698000D03*
%TO.P,A1,18*%
%TO.N,Net-(A1-Pad18)*%
X126253000Y-42698000D03*
%TO.P,A1,16*%
%TO.N,Net-(A1-Pad16)*%
X131333000Y-42698000D03*
%TO.P,A1,17*%
%TO.N,Net-(A1-Pad17)*%
X128793000Y-42698000D03*
%TO.P,A1,19*%
%TO.N,Net-(A1-Pad19)*%
X123713000Y-42698000D03*
%TO.P,A1,31*%
%TO.N,Net-(A1-Pad31)*%
X91713000Y-42698000D03*
%TO.P,A1,32*%
%TO.N,Net-(A1-Pad32)*%
X89173000Y-42698000D03*
%TO.P,A1,26*%
%TO.N,Net-(A1-Pad26)*%
X104413000Y-42698000D03*
%TO.P,A1,25*%
%TO.N,Net-(A1-Pad25)*%
X106953000Y-42698000D03*
%TO.P,A1,23*%
%TO.N,Net-(A1-Pad23)*%
X112033000Y-42698000D03*
%TO.P,A1,27*%
%TO.N,Net-(A1-Pad27)*%
X101873000Y-42698000D03*
%TO.P,A1,2*%
%TO.N,Net-(A1-Pad2)*%
X100853000Y-85878000D03*
%TO.P,A1,8*%
%TO.N,+12V*%
X116093000Y-85878000D03*
D15*
%TO.P,A1,1*%
%TO.N,Net-(A1-Pad1)*%
X98313000Y-85878000D03*
D14*
%TO.P,A1,6*%
%TO.N,GND*%
X111013000Y-85878000D03*
%TO.P,A1,3*%
%TO.N,Net-(A1-Pad3)*%
X103393000Y-85878000D03*
%TO.P,A1,7*%
%TO.N,GND1*%
X113553000Y-85878000D03*
%TO.P,A1,14*%
%TO.N,Net-(A1-Pad14)*%
X133873000Y-85878000D03*
%TO.P,A1,4*%
%TO.N,+3V3*%
X105933000Y-85878000D03*
%TO.P,A1,5*%
%TO.N,+5V*%
X108473000Y-85878000D03*
%TO.P,A1,11*%
%TO.N,Net-(A1-Pad11)*%
X126253000Y-85878000D03*
%TO.P,A1,9*%
%TO.N,Net-(A1-Pad9)*%
X121173000Y-85878000D03*
%TO.P,A1,10*%
%TO.N,Net-(A1-Pad10)*%
X123713000Y-85878000D03*
%TO.P,A1,12*%
%TO.N,Net-(A1-Pad12)*%
X128793000Y-85878000D03*
%TO.P,A1,13*%
%TO.N,Net-(A1-Pad13)*%
X131333000Y-85878000D03*
%TD*%
D16*
%TO.N,Net-(A1-Pad15)*%
X133873000Y-42698000D02*
X155220000Y-42698000D01*
X155220000Y-42698000D02*
X157480000Y-44958000D01*
X157480000Y-44958000D02*
X157480000Y-104902000D01*
X155448000Y-106934000D02*
X151892000Y-106934000D01*
X157480000Y-104902000D02*
X155448000Y-106934000D01*
%TO.N,Net-(A1-Pad18)*%
X126253000Y-42698000D02*
X126253000Y-46497000D01*
X126253000Y-46497000D02*
X130048000Y-50292000D01*
X130048000Y-50292000D02*
X149098000Y-50292000D01*
X149098000Y-50292000D02*
X150622000Y-51816000D01*
X150622000Y-51816000D02*
X150622000Y-95758000D01*
X150622000Y-95758000D02*
X147320000Y-99060000D01*
X147320000Y-99060000D02*
X147320000Y-122428000D01*
X143510000Y-126238000D02*
X138012000Y-126238000D01*
X147320000Y-122428000D02*
X143510000Y-126238000D01*
%TO.N,Net-(A1-Pad16)*%
X153924000Y-104394000D02*
X151892000Y-104394000D01*
X154940000Y-103378000D02*
X153924000Y-104394000D01*
X154940000Y-46990000D02*
X154940000Y-103378000D01*
X153416000Y-45466000D02*
X154940000Y-46990000D01*
X134101000Y-45466000D02*
X153416000Y-45466000D01*
X131333000Y-42698000D02*
X134101000Y-45466000D01*
%TO.N,Net-(A1-Pad17)*%
X128793000Y-42698000D02*
X128793000Y-44973000D01*
X128793000Y-44973000D02*
X131318000Y-47498000D01*
X131318000Y-47498000D02*
X151384000Y-47498000D01*
X151384000Y-47498000D02*
X152654000Y-48768000D01*
X152654000Y-101092000D02*
X151892000Y-101854000D01*
X152654000Y-48768000D02*
X152654000Y-101092000D01*
D17*
%TO.N,+12V*%
X71510000Y-140150000D02*
X71510000Y-135754000D01*
X71510000Y-135754000D02*
X77216000Y-130048000D01*
X77216000Y-130048000D02*
X77216000Y-89662000D01*
X77216000Y-89662000D02*
X90170000Y-76708000D01*
X90170000Y-76708000D02*
X111506000Y-76708000D01*
X116093000Y-81295000D02*
X116093000Y-85878000D01*
X111506000Y-76708000D02*
X116093000Y-81295000D01*
%TO.N,GND1*%
X88510000Y-140150000D02*
X88510000Y-134230000D01*
X88510000Y-134230000D02*
X84836000Y-130556000D01*
X84836000Y-130556000D02*
X84836000Y-91440000D01*
X84836000Y-91440000D02*
X94996000Y-81280000D01*
X94996000Y-81280000D02*
X110744000Y-81280000D01*
X113553000Y-84089000D02*
X113553000Y-85878000D01*
X110744000Y-81280000D02*
X113553000Y-84089000D01*
D16*
%TO.N,+3V3*%
X105933000Y-85878000D02*
X105933000Y-135367000D01*
X101726000Y-139574000D02*
X98474000Y-139574000D01*
X105933000Y-135367000D02*
X101726000Y-139574000D01*
%TO.N,+5V*%
X108473000Y-85878000D02*
X108473000Y-87391000D01*
X111506000Y-90424000D02*
X145340000Y-90424000D01*
X108473000Y-87391000D02*
X111506000Y-90424000D01*
X146102000Y-58166000D02*
X146304000Y-58166000D01*
X146880000Y-58166000D02*
X148336000Y-58166000D01*
X148336000Y-58166000D02*
X149606000Y-59436000D01*
X149606000Y-59436000D02*
X149606000Y-89154000D01*
X148336000Y-90424000D02*
X146864000Y-90424000D01*
X149606000Y-89154000D02*
X148336000Y-90424000D01*
%TO.N,Net-(A1-Pad9)*%
X121173000Y-85878000D02*
X121173000Y-84567000D01*
X121173000Y-84567000D02*
X122936000Y-82804000D01*
X122936000Y-82804000D02*
X140716000Y-82804000D01*
X140716000Y-82804000D02*
X143002000Y-80518000D01*
X143002000Y-80518000D02*
X143002000Y-57658000D01*
X145542000Y-55118000D02*
X146880000Y-55118000D01*
X143002000Y-57658000D02*
X145542000Y-55118000D01*
%TO.N,Net-(A1-Pad10)*%
X123713000Y-85878000D02*
X123713000Y-87137000D01*
X123713000Y-87137000D02*
X125222000Y-88646000D01*
X145594000Y-88646000D02*
X146864000Y-87376000D01*
X125222000Y-88646000D02*
X145594000Y-88646000D01*
%TO.N,Net-(J2-Pad4)*%
X136144000Y-104394000D02*
X141732000Y-104394000D01*
X121560000Y-131954000D02*
X123824000Y-131954000D01*
X123824000Y-131954000D02*
X125730000Y-130048000D01*
X125730000Y-130048000D02*
X125730000Y-106680000D01*
X128016000Y-104394000D02*
X141732000Y-104394000D01*
X125730000Y-106680000D02*
X128016000Y-104394000D01*
%TO.N,Net-(J2-Pad3)*%
X136906000Y-106934000D02*
X141732000Y-106934000D01*
X121560000Y-134494000D02*
X124840000Y-134494000D01*
X124840000Y-134494000D02*
X129032000Y-130302000D01*
X129032000Y-130302000D02*
X129032000Y-109474000D01*
X131572000Y-106934000D02*
X141732000Y-106934000D01*
X129032000Y-109474000D02*
X131572000Y-106934000D01*
%TO.N,Net-(L1-Pad6)*%
X141732000Y-101854000D02*
X143256000Y-101854000D01*
X143256000Y-101854000D02*
X144272000Y-102870000D01*
X144272000Y-102870000D02*
X144272000Y-116840000D01*
X144272000Y-116840000D02*
X141732000Y-119380000D01*
X141732000Y-119380000D02*
X137160000Y-119380000D01*
X137160000Y-119380000D02*
X134366000Y-122174000D01*
X134366000Y-122174000D02*
X134366000Y-127762000D01*
X135382000Y-128778000D02*
X138012000Y-128778000D01*
X134366000Y-127762000D02*
X135382000Y-128778000D01*
D17*
%TO.N,+4V*%
X136809919Y-133858000D02*
X138012000Y-133858000D01*
X134874000Y-141478000D02*
X134874000Y-135793919D01*
X131318000Y-145034000D02*
X134874000Y-141478000D01*
X70104000Y-145034000D02*
X131318000Y-145034000D01*
X67056000Y-103124000D02*
X67056000Y-141986000D01*
X134874000Y-135793919D02*
X136809919Y-133858000D01*
X69030000Y-101150000D02*
X67056000Y-103124000D01*
X67056000Y-141986000D02*
X70104000Y-145034000D01*
X71510000Y-101150000D02*
X69030000Y-101150000D01*
%TD*%
D16*
%TO.N,GND*%
X210791000Y-35463133D02*
X210715677Y-35281287D01*
X210315354Y-34682161D01*
X209805839Y-34172646D01*
X209206713Y-33772323D01*
X208540999Y-33496575D01*
X207834282Y-33356000D01*
X207113718Y-33356000D01*
X206407001Y-33496575D01*
X205741287Y-33772323D01*
X205142161Y-34172646D01*
X204632646Y-34682161D01*
X204232323Y-35281287D01*
X203956575Y-35947001D01*
X203816000Y-36653718D01*
X203816000Y-37374282D01*
X203956575Y-38080999D01*
X204232323Y-38746713D01*
X204632646Y-39345839D01*
X205142161Y-39855354D01*
X205741287Y-40255677D01*
X206407001Y-40531425D01*
X207113718Y-40672000D01*
X207834282Y-40672000D01*
X208540999Y-40531425D01*
X209206713Y-40255677D01*
X209805839Y-39855354D01*
X210315354Y-39345839D01*
X210715677Y-38746713D01*
X210791000Y-38564867D01*
X210791001Y-146463135D01*
X210715677Y-146281287D01*
X210315354Y-145682161D01*
X209805839Y-145172646D01*
X209206713Y-144772323D01*
X208540999Y-144496575D01*
X207834282Y-144356000D01*
X207113718Y-144356000D01*
X206407001Y-144496575D01*
X205741287Y-144772323D01*
X205142161Y-145172646D01*
X204632646Y-145682161D01*
X204232323Y-146281287D01*
X203956575Y-146947001D01*
X203816000Y-147653718D01*
X203816000Y-148374282D01*
X203956575Y-149080999D01*
X204232323Y-149746713D01*
X204632646Y-150345839D01*
X205142161Y-150855354D01*
X205741287Y-151255677D01*
X205923133Y-151331000D01*
X64024867Y-151331000D01*
X64206713Y-151255677D01*
X64805839Y-150855354D01*
X65315354Y-150345839D01*
X65715677Y-149746713D01*
X65991425Y-149080999D01*
X66132000Y-148374282D01*
X66132000Y-147653718D01*
X65991425Y-146947001D01*
X65715677Y-146281287D01*
X65315354Y-145682161D01*
X64805839Y-145172646D01*
X64206713Y-144772323D01*
X63540999Y-144496575D01*
X62834282Y-144356000D01*
X62113718Y-144356000D01*
X61407001Y-144496575D01*
X60741287Y-144772323D01*
X60142161Y-145172646D01*
X59632646Y-145682161D01*
X59232323Y-146281287D01*
X59157000Y-146463133D01*
X59157000Y-103124000D01*
X65892397Y-103124000D01*
X65898000Y-103180887D01*
X65898001Y-141929103D01*
X65892397Y-141986000D01*
X65914756Y-142213008D01*
X65980971Y-142431291D01*
X66046042Y-142553029D01*
X66088500Y-142632463D01*
X66233209Y-142808792D01*
X66277397Y-142845056D01*
X69244944Y-145812604D01*
X69281208Y-145856792D01*
X69325396Y-145893056D01*
X69457536Y-146001501D01*
X69658708Y-146109029D01*
X69876992Y-146175245D01*
X70047111Y-146192000D01*
X70047113Y-146192000D01*
X70104000Y-146197603D01*
X70160887Y-146192000D01*
X131261113Y-146192000D01*
X131318000Y-146197603D01*
X131374887Y-146192000D01*
X131374889Y-146192000D01*
X131545008Y-146175245D01*
X131763292Y-146109029D01*
X131964463Y-146001501D01*
X132140792Y-145856792D01*
X132177061Y-145812598D01*
X135652599Y-142337060D01*
X135696792Y-142300792D01*
X135841501Y-142124463D01*
X135949029Y-141923292D01*
X136015245Y-141705008D01*
X136032000Y-141534889D01*
X136032000Y-141534888D01*
X136037603Y-141478001D01*
X136032000Y-141421114D01*
X136032000Y-136273578D01*
X136500817Y-135804761D01*
X136500817Y-137248000D01*
X136513521Y-137376990D01*
X136551147Y-137501024D01*
X136612246Y-137615334D01*
X136694473Y-137715527D01*
X136794666Y-137797754D01*
X136908976Y-137858853D01*
X137033010Y-137896479D01*
X137162000Y-137909183D01*
X138862000Y-137909183D01*
X138990990Y-137896479D01*
X139115024Y-137858853D01*
X139229334Y-137797754D01*
X139329527Y-137715527D01*
X139411754Y-137615334D01*
X139472853Y-137501024D01*
X139510479Y-137376990D01*
X139523183Y-137248000D01*
X139523183Y-135548000D01*
X139510479Y-135419010D01*
X139472853Y-135294976D01*
X139411754Y-135180666D01*
X139329527Y-135080473D01*
X139229334Y-134998246D01*
X139115024Y-134937147D01*
X139077017Y-134925617D01*
X139183340Y-134819294D01*
X139348373Y-134572306D01*
X139462049Y-134297868D01*
X139520000Y-134006525D01*
X139520000Y-133709475D01*
X139462049Y-133418132D01*
X139348373Y-133143694D01*
X139257705Y-133008000D01*
X161720817Y-133008000D01*
X161720817Y-134708000D01*
X161733521Y-134836990D01*
X161771147Y-134961024D01*
X161832246Y-135075334D01*
X161914473Y-135175527D01*
X162014666Y-135257754D01*
X162128976Y-135318853D01*
X162253010Y-135356479D01*
X162382000Y-135369183D01*
X164082000Y-135369183D01*
X164210990Y-135356479D01*
X164335024Y-135318853D01*
X164449334Y-135257754D01*
X164549527Y-135175527D01*
X164631754Y-135075334D01*
X164692853Y-134961024D01*
X164730479Y-134836990D01*
X164743183Y-134708000D01*
X164743183Y-133008000D01*
X164730479Y-132879010D01*
X164692853Y-132754976D01*
X164631754Y-132640666D01*
X164549527Y-132540473D01*
X164449334Y-132458246D01*
X164335024Y-132397147D01*
X164297017Y-132385617D01*
X164403340Y-132279294D01*
X164568373Y-132032306D01*
X164682049Y-131757868D01*
X164740000Y-131466525D01*
X164740000Y-131169475D01*
X164682049Y-130878132D01*
X164568373Y-130603694D01*
X164403340Y-130356706D01*
X164193294Y-130146660D01*
X164045640Y-130048000D01*
X164193294Y-129949340D01*
X164403340Y-129739294D01*
X164568373Y-129492306D01*
X164682049Y-129217868D01*
X164740000Y-128926525D01*
X164740000Y-128629475D01*
X164682049Y-128338132D01*
X164568373Y-128063694D01*
X164403340Y-127816706D01*
X164193294Y-127606660D01*
X164045640Y-127508000D01*
X164193294Y-127409340D01*
X164403340Y-127199294D01*
X164568373Y-126952306D01*
X164682049Y-126677868D01*
X164740000Y-126386525D01*
X164740000Y-126089475D01*
X164682049Y-125798132D01*
X164568373Y-125523694D01*
X164403340Y-125276706D01*
X164193294Y-125066660D01*
X164045640Y-124968000D01*
X164193294Y-124869340D01*
X164403340Y-124659294D01*
X164568373Y-124412306D01*
X164682049Y-124137868D01*
X164740000Y-123846525D01*
X164740000Y-123549475D01*
X164682049Y-123258132D01*
X164568373Y-122983694D01*
X164403340Y-122736706D01*
X164193294Y-122526660D01*
X164045640Y-122428000D01*
X164193294Y-122329340D01*
X164403340Y-122119294D01*
X164568373Y-121872306D01*
X164682049Y-121597868D01*
X164740000Y-121306525D01*
X164740000Y-121009475D01*
X164682049Y-120718132D01*
X164568373Y-120443694D01*
X164403340Y-120196706D01*
X164193294Y-119986660D01*
X163946306Y-119821627D01*
X163671868Y-119707951D01*
X163380525Y-119650000D01*
X163083475Y-119650000D01*
X162792132Y-119707951D01*
X162517694Y-119821627D01*
X162270706Y-119986660D01*
X162060660Y-120196706D01*
X161895627Y-120443694D01*
X161781951Y-120718132D01*
X161724000Y-121009475D01*
X161724000Y-121306525D01*
X161781951Y-121597868D01*
X161895627Y-121872306D01*
X162060660Y-122119294D01*
X162270706Y-122329340D01*
X162418360Y-122428000D01*
X162270706Y-122526660D01*
X162060660Y-122736706D01*
X161895627Y-122983694D01*
X161781951Y-123258132D01*
X161724000Y-123549475D01*
X161724000Y-123846525D01*
X161781951Y-124137868D01*
X161895627Y-124412306D01*
X162060660Y-124659294D01*
X162270706Y-124869340D01*
X162418360Y-124968000D01*
X162270706Y-125066660D01*
X162060660Y-125276706D01*
X161895627Y-125523694D01*
X161781951Y-125798132D01*
X161724000Y-126089475D01*
X161724000Y-126386525D01*
X161781951Y-126677868D01*
X161895627Y-126952306D01*
X162060660Y-127199294D01*
X162270706Y-127409340D01*
X162418360Y-127508000D01*
X162270706Y-127606660D01*
X162060660Y-127816706D01*
X161895627Y-128063694D01*
X161781951Y-128338132D01*
X161724000Y-128629475D01*
X161724000Y-128926525D01*
X161781951Y-129217868D01*
X161895627Y-129492306D01*
X162060660Y-129739294D01*
X162270706Y-129949340D01*
X162418360Y-130048000D01*
X162270706Y-130146660D01*
X162060660Y-130356706D01*
X161895627Y-130603694D01*
X161781951Y-130878132D01*
X161724000Y-131169475D01*
X161724000Y-131466525D01*
X161781951Y-131757868D01*
X161895627Y-132032306D01*
X162060660Y-132279294D01*
X162166983Y-132385617D01*
X162128976Y-132397147D01*
X162014666Y-132458246D01*
X161914473Y-132540473D01*
X161832246Y-132640666D01*
X161771147Y-132754976D01*
X161733521Y-132879010D01*
X161720817Y-133008000D01*
X139257705Y-133008000D01*
X139183340Y-132896706D01*
X138973294Y-132686660D01*
X138825640Y-132588000D01*
X138973294Y-132489340D01*
X139183340Y-132279294D01*
X139348373Y-132032306D01*
X139462049Y-131757868D01*
X139520000Y-131466525D01*
X139520000Y-131169475D01*
X139462049Y-130878132D01*
X139348373Y-130603694D01*
X139183340Y-130356706D01*
X138973294Y-130146660D01*
X138825640Y-130048000D01*
X138973294Y-129949340D01*
X139183340Y-129739294D01*
X139348373Y-129492306D01*
X139462049Y-129217868D01*
X139520000Y-128926525D01*
X139520000Y-128629475D01*
X139462049Y-128338132D01*
X139348373Y-128063694D01*
X139183340Y-127816706D01*
X138973294Y-127606660D01*
X138825640Y-127508000D01*
X138973294Y-127409340D01*
X139183340Y-127199294D01*
X139285768Y-127046000D01*
X143470320Y-127046000D01*
X143510000Y-127049908D01*
X143549680Y-127046000D01*
X143549688Y-127046000D01*
X143668396Y-127034308D01*
X143820704Y-126988106D01*
X143961072Y-126913078D01*
X144084106Y-126812106D01*
X144109411Y-126781272D01*
X147863283Y-123027402D01*
X147894106Y-123002106D01*
X147919402Y-122971283D01*
X147919406Y-122971279D01*
X147958120Y-122924105D01*
X147995078Y-122879072D01*
X148070106Y-122738704D01*
X148116308Y-122586396D01*
X148128000Y-122467688D01*
X148128000Y-122467680D01*
X148131908Y-122428000D01*
X148128000Y-122388320D01*
X148128000Y-113704000D01*
X150380817Y-113704000D01*
X150380817Y-115404000D01*
X150393521Y-115532990D01*
X150431147Y-115657024D01*
X150492246Y-115771334D01*
X150574473Y-115871527D01*
X150674666Y-115953754D01*
X150788976Y-116014853D01*
X150913010Y-116052479D01*
X151042000Y-116065183D01*
X152742000Y-116065183D01*
X152870990Y-116052479D01*
X152995024Y-116014853D01*
X153109334Y-115953754D01*
X153209527Y-115871527D01*
X153291754Y-115771334D01*
X153352853Y-115657024D01*
X153390479Y-115532990D01*
X153403183Y-115404000D01*
X153403183Y-113704000D01*
X153390479Y-113575010D01*
X153352853Y-113450976D01*
X153291754Y-113336666D01*
X153209527Y-113236473D01*
X153109334Y-113154246D01*
X152995024Y-113093147D01*
X152957017Y-113081617D01*
X153063340Y-112975294D01*
X153228373Y-112728306D01*
X153342049Y-112453868D01*
X153400000Y-112162525D01*
X153400000Y-111865475D01*
X153342049Y-111574132D01*
X153228373Y-111299694D01*
X153063340Y-111052706D01*
X152853294Y-110842660D01*
X152700332Y-110740454D01*
X152766728Y-110702383D01*
X152989566Y-110508129D01*
X153170225Y-110274134D01*
X153301763Y-110009390D01*
X153361619Y-109812061D01*
X153231469Y-109578000D01*
X151996000Y-109578000D01*
X151996000Y-109598000D01*
X151788000Y-109598000D01*
X151788000Y-109578000D01*
X150552531Y-109578000D01*
X150422381Y-109812061D01*
X150482237Y-110009390D01*
X150613775Y-110274134D01*
X150794434Y-110508129D01*
X151017272Y-110702383D01*
X151083668Y-110740454D01*
X150930706Y-110842660D01*
X150720660Y-111052706D01*
X150555627Y-111299694D01*
X150441951Y-111574132D01*
X150384000Y-111865475D01*
X150384000Y-112162525D01*
X150441951Y-112453868D01*
X150555627Y-112728306D01*
X150720660Y-112975294D01*
X150826983Y-113081617D01*
X150788976Y-113093147D01*
X150674666Y-113154246D01*
X150574473Y-113236473D01*
X150492246Y-113336666D01*
X150431147Y-113450976D01*
X150393521Y-113575010D01*
X150380817Y-113704000D01*
X148128000Y-113704000D01*
X148128000Y-99394683D01*
X151165278Y-96357406D01*
X151196106Y-96332106D01*
X151297078Y-96209072D01*
X151372106Y-96068704D01*
X151418308Y-95916396D01*
X151430000Y-95797688D01*
X151430000Y-95797681D01*
X151433908Y-95758001D01*
X151430000Y-95718321D01*
X151430000Y-51855677D01*
X151433908Y-51815999D01*
X151430000Y-51776321D01*
X151430000Y-51776312D01*
X151418308Y-51657604D01*
X151372106Y-51505296D01*
X151297078Y-51364928D01*
X151196106Y-51241894D01*
X151165279Y-51216595D01*
X149697411Y-49748728D01*
X149672106Y-49717894D01*
X149549072Y-49616922D01*
X149408704Y-49541894D01*
X149256396Y-49495692D01*
X149137688Y-49484000D01*
X149137680Y-49484000D01*
X149098000Y-49480092D01*
X149058320Y-49484000D01*
X130382684Y-49484000D01*
X127061000Y-46162317D01*
X127061000Y-43911634D01*
X127182421Y-43830503D01*
X127385503Y-43627421D01*
X127523000Y-43421642D01*
X127660497Y-43627421D01*
X127863579Y-43830503D01*
X127985001Y-43911634D01*
X127985001Y-44933310D01*
X127981092Y-44973000D01*
X127996692Y-45131396D01*
X128038345Y-45268704D01*
X128042895Y-45283704D01*
X128117923Y-45424072D01*
X128218895Y-45547106D01*
X128249723Y-45572406D01*
X130718594Y-48041278D01*
X130743894Y-48072106D01*
X130866928Y-48173078D01*
X131007296Y-48248106D01*
X131113401Y-48280293D01*
X131159603Y-48294308D01*
X131174879Y-48295813D01*
X131278312Y-48306000D01*
X131278319Y-48306000D01*
X131317999Y-48309908D01*
X131357679Y-48306000D01*
X151049317Y-48306000D01*
X151846000Y-49102684D01*
X151846001Y-100346000D01*
X151743475Y-100346000D01*
X151452132Y-100403951D01*
X151177694Y-100517627D01*
X150930706Y-100682660D01*
X150720660Y-100892706D01*
X150555627Y-101139694D01*
X150441951Y-101414132D01*
X150384000Y-101705475D01*
X150384000Y-102002525D01*
X150441951Y-102293868D01*
X150555627Y-102568306D01*
X150720660Y-102815294D01*
X150930706Y-103025340D01*
X151078360Y-103124000D01*
X150930706Y-103222660D01*
X150720660Y-103432706D01*
X150555627Y-103679694D01*
X150441951Y-103954132D01*
X150384000Y-104245475D01*
X150384000Y-104542525D01*
X150441951Y-104833868D01*
X150555627Y-105108306D01*
X150720660Y-105355294D01*
X150930706Y-105565340D01*
X151078360Y-105664000D01*
X150930706Y-105762660D01*
X150720660Y-105972706D01*
X150555627Y-106219694D01*
X150441951Y-106494132D01*
X150384000Y-106785475D01*
X150384000Y-107082525D01*
X150441951Y-107373868D01*
X150555627Y-107648306D01*
X150720660Y-107895294D01*
X150930706Y-108105340D01*
X151083668Y-108207546D01*
X151017272Y-108245617D01*
X150794434Y-108439871D01*
X150613775Y-108673866D01*
X150482237Y-108938610D01*
X150422381Y-109135939D01*
X150552531Y-109370000D01*
X151788000Y-109370000D01*
X151788000Y-109350000D01*
X151996000Y-109350000D01*
X151996000Y-109370000D01*
X153231469Y-109370000D01*
X153361619Y-109135939D01*
X153301763Y-108938610D01*
X153170225Y-108673866D01*
X152989566Y-108439871D01*
X152766728Y-108245617D01*
X152700332Y-108207546D01*
X152853294Y-108105340D01*
X153063340Y-107895294D01*
X153165768Y-107742000D01*
X155408320Y-107742000D01*
X155448000Y-107745908D01*
X155487680Y-107742000D01*
X155487688Y-107742000D01*
X155606396Y-107730308D01*
X155758704Y-107684106D01*
X155899072Y-107609078D01*
X156022106Y-107508106D01*
X156047411Y-107477272D01*
X158023278Y-105501406D01*
X158054106Y-105476106D01*
X158155078Y-105353072D01*
X158230106Y-105212704D01*
X158263096Y-105103951D01*
X158276308Y-105060397D01*
X158284690Y-104975294D01*
X158288000Y-104941688D01*
X158288000Y-104941680D01*
X158291908Y-104902000D01*
X158288000Y-104862320D01*
X158288000Y-99969718D01*
X160934000Y-99969718D01*
X160934000Y-100690282D01*
X161074575Y-101396999D01*
X161350323Y-102062713D01*
X161750646Y-102661839D01*
X162260161Y-103171354D01*
X162859287Y-103571677D01*
X163525001Y-103847425D01*
X164231718Y-103988000D01*
X164952282Y-103988000D01*
X165658999Y-103847425D01*
X166324713Y-103571677D01*
X166923839Y-103171354D01*
X167433354Y-102661839D01*
X167833677Y-102062713D01*
X168109425Y-101396999D01*
X168250000Y-100690282D01*
X168250000Y-99999718D01*
X190956000Y-99999718D01*
X190956000Y-100720282D01*
X191096575Y-101426999D01*
X191372323Y-102092713D01*
X191772646Y-102691839D01*
X192282161Y-103201354D01*
X192881287Y-103601677D01*
X193547001Y-103877425D01*
X194253718Y-104018000D01*
X194974282Y-104018000D01*
X195680999Y-103877425D01*
X196346713Y-103601677D01*
X196945839Y-103201354D01*
X197455354Y-102691839D01*
X197855677Y-102092713D01*
X198131425Y-101426999D01*
X198272000Y-100720282D01*
X198272000Y-99999718D01*
X198131425Y-99293001D01*
X197855677Y-98627287D01*
X197455354Y-98028161D01*
X196945839Y-97518646D01*
X196346713Y-97118323D01*
X195680999Y-96842575D01*
X194974282Y-96702000D01*
X194253718Y-96702000D01*
X193547001Y-96842575D01*
X192881287Y-97118323D01*
X192282161Y-97518646D01*
X191772646Y-98028161D01*
X191372323Y-98627287D01*
X191096575Y-99293001D01*
X190956000Y-99999718D01*
X168250000Y-99999718D01*
X168250000Y-99969718D01*
X168109425Y-99263001D01*
X167833677Y-98597287D01*
X167433354Y-97998161D01*
X166923839Y-97488646D01*
X166324713Y-97088323D01*
X165658999Y-96812575D01*
X164952282Y-96672000D01*
X164231718Y-96672000D01*
X163525001Y-96812575D01*
X162859287Y-97088323D01*
X162260161Y-97488646D01*
X161750646Y-97998161D01*
X161350323Y-98597287D01*
X161074575Y-99263001D01*
X160934000Y-99969718D01*
X158288000Y-99969718D01*
X158288000Y-80187718D01*
X160934000Y-80187718D01*
X160934000Y-80908282D01*
X161074575Y-81614999D01*
X161350323Y-82280713D01*
X161750646Y-82879839D01*
X162260161Y-83389354D01*
X162859287Y-83789677D01*
X163525001Y-84065425D01*
X164231718Y-84206000D01*
X164952282Y-84206000D01*
X165658999Y-84065425D01*
X166324713Y-83789677D01*
X166923839Y-83389354D01*
X167433354Y-82879839D01*
X167833677Y-82280713D01*
X168109425Y-81614999D01*
X168250000Y-80908282D01*
X168250000Y-80187718D01*
X168244033Y-80157718D01*
X190906000Y-80157718D01*
X190906000Y-80878282D01*
X191046575Y-81584999D01*
X191322323Y-82250713D01*
X191722646Y-82849839D01*
X192232161Y-83359354D01*
X192831287Y-83759677D01*
X193497001Y-84035425D01*
X194203718Y-84176000D01*
X194924282Y-84176000D01*
X195630999Y-84035425D01*
X196296713Y-83759677D01*
X196895839Y-83359354D01*
X197405354Y-82849839D01*
X197805677Y-82250713D01*
X198081425Y-81584999D01*
X198222000Y-80878282D01*
X198222000Y-80157718D01*
X198081425Y-79451001D01*
X197805677Y-78785287D01*
X197405354Y-78186161D01*
X196895839Y-77676646D01*
X196296713Y-77276323D01*
X195630999Y-77000575D01*
X194924282Y-76860000D01*
X194203718Y-76860000D01*
X193497001Y-77000575D01*
X192831287Y-77276323D01*
X192232161Y-77676646D01*
X191722646Y-78186161D01*
X191322323Y-78785287D01*
X191046575Y-79451001D01*
X190906000Y-80157718D01*
X168244033Y-80157718D01*
X168109425Y-79481001D01*
X167833677Y-78815287D01*
X167433354Y-78216161D01*
X166923839Y-77706646D01*
X166324713Y-77306323D01*
X165658999Y-77030575D01*
X164952282Y-76890000D01*
X164231718Y-76890000D01*
X163525001Y-77030575D01*
X162859287Y-77306323D01*
X162260161Y-77706646D01*
X161750646Y-78216161D01*
X161350323Y-78815287D01*
X161074575Y-79481001D01*
X160934000Y-80187718D01*
X158288000Y-80187718D01*
X158288000Y-69805718D01*
X160698000Y-69805718D01*
X160698000Y-70526282D01*
X160838575Y-71232999D01*
X161114323Y-71898713D01*
X161514646Y-72497839D01*
X162024161Y-73007354D01*
X162623287Y-73407677D01*
X163289001Y-73683425D01*
X163995718Y-73824000D01*
X164716282Y-73824000D01*
X165422999Y-73683425D01*
X166088713Y-73407677D01*
X166687839Y-73007354D01*
X167197354Y-72497839D01*
X167597677Y-71898713D01*
X167873425Y-71232999D01*
X168014000Y-70526282D01*
X168014000Y-69805718D01*
X194698000Y-69805718D01*
X194698000Y-70526282D01*
X194838575Y-71232999D01*
X195114323Y-71898713D01*
X195514646Y-72497839D01*
X196024161Y-73007354D01*
X196623287Y-73407677D01*
X197289001Y-73683425D01*
X197995718Y-73824000D01*
X198716282Y-73824000D01*
X199422999Y-73683425D01*
X200088713Y-73407677D01*
X200687839Y-73007354D01*
X201197354Y-72497839D01*
X201597677Y-71898713D01*
X201873425Y-71232999D01*
X202014000Y-70526282D01*
X202014000Y-69805718D01*
X201873425Y-69099001D01*
X201597677Y-68433287D01*
X201197354Y-67834161D01*
X200687839Y-67324646D01*
X200088713Y-66924323D01*
X199422999Y-66648575D01*
X198716282Y-66508000D01*
X197995718Y-66508000D01*
X197289001Y-66648575D01*
X196623287Y-66924323D01*
X196024161Y-67324646D01*
X195514646Y-67834161D01*
X195114323Y-68433287D01*
X194838575Y-69099001D01*
X194698000Y-69805718D01*
X168014000Y-69805718D01*
X167873425Y-69099001D01*
X167597677Y-68433287D01*
X167197354Y-67834161D01*
X166687839Y-67324646D01*
X166088713Y-66924323D01*
X165422999Y-66648575D01*
X164716282Y-66508000D01*
X163995718Y-66508000D01*
X163289001Y-66648575D01*
X162623287Y-66924323D01*
X162024161Y-67324646D01*
X161514646Y-67834161D01*
X161114323Y-68433287D01*
X160838575Y-69099001D01*
X160698000Y-69805718D01*
X158288000Y-69805718D01*
X158288000Y-45805718D01*
X160698000Y-45805718D01*
X160698000Y-46526282D01*
X160838575Y-47232999D01*
X161114323Y-47898713D01*
X161514646Y-48497839D01*
X162024161Y-49007354D01*
X162623287Y-49407677D01*
X163289001Y-49683425D01*
X163995718Y-49824000D01*
X164716282Y-49824000D01*
X165422999Y-49683425D01*
X166088713Y-49407677D01*
X166687839Y-49007354D01*
X167197354Y-48497839D01*
X167597677Y-47898713D01*
X167873425Y-47232999D01*
X168014000Y-46526282D01*
X168014000Y-45805718D01*
X194698000Y-45805718D01*
X194698000Y-46526282D01*
X194838575Y-47232999D01*
X195114323Y-47898713D01*
X195514646Y-48497839D01*
X196024161Y-49007354D01*
X196623287Y-49407677D01*
X197289001Y-49683425D01*
X197995718Y-49824000D01*
X198716282Y-49824000D01*
X199422999Y-49683425D01*
X200088713Y-49407677D01*
X200687839Y-49007354D01*
X201197354Y-48497839D01*
X201597677Y-47898713D01*
X201873425Y-47232999D01*
X202014000Y-46526282D01*
X202014000Y-45805718D01*
X201873425Y-45099001D01*
X201597677Y-44433287D01*
X201197354Y-43834161D01*
X200687839Y-43324646D01*
X200088713Y-42924323D01*
X199422999Y-42648575D01*
X198716282Y-42508000D01*
X197995718Y-42508000D01*
X197289001Y-42648575D01*
X196623287Y-42924323D01*
X196024161Y-43324646D01*
X195514646Y-43834161D01*
X195114323Y-44433287D01*
X194838575Y-45099001D01*
X194698000Y-45805718D01*
X168014000Y-45805718D01*
X167873425Y-45099001D01*
X167597677Y-44433287D01*
X167197354Y-43834161D01*
X166687839Y-43324646D01*
X166088713Y-42924323D01*
X165422999Y-42648575D01*
X164716282Y-42508000D01*
X163995718Y-42508000D01*
X163289001Y-42648575D01*
X162623287Y-42924323D01*
X162024161Y-43324646D01*
X161514646Y-43834161D01*
X161114323Y-44433287D01*
X160838575Y-45099001D01*
X160698000Y-45805718D01*
X158288000Y-45805718D01*
X158288000Y-44997680D01*
X158291908Y-44958000D01*
X158288000Y-44918320D01*
X158288000Y-44918312D01*
X158276308Y-44799604D01*
X158230106Y-44647296D01*
X158155078Y-44506928D01*
X158094642Y-44433287D01*
X158079406Y-44414721D01*
X158079402Y-44414717D01*
X158054106Y-44383894D01*
X158023284Y-44358599D01*
X155819411Y-42154728D01*
X155794106Y-42123894D01*
X155671072Y-42022922D01*
X155530704Y-41947894D01*
X155378396Y-41901692D01*
X155259688Y-41890000D01*
X155259680Y-41890000D01*
X155220000Y-41886092D01*
X155180320Y-41890000D01*
X135086634Y-41890000D01*
X135005503Y-41768579D01*
X134802421Y-41565497D01*
X134563622Y-41405937D01*
X134298283Y-41296030D01*
X134016601Y-41240000D01*
X133729399Y-41240000D01*
X133447717Y-41296030D01*
X133182378Y-41405937D01*
X132943579Y-41565497D01*
X132740497Y-41768579D01*
X132603000Y-41974358D01*
X132465503Y-41768579D01*
X132262421Y-41565497D01*
X132023622Y-41405937D01*
X131758283Y-41296030D01*
X131476601Y-41240000D01*
X131189399Y-41240000D01*
X130907717Y-41296030D01*
X130642378Y-41405937D01*
X130403579Y-41565497D01*
X130200497Y-41768579D01*
X130063000Y-41974358D01*
X129925503Y-41768579D01*
X129722421Y-41565497D01*
X129483622Y-41405937D01*
X129218283Y-41296030D01*
X128936601Y-41240000D01*
X128649399Y-41240000D01*
X128367717Y-41296030D01*
X128102378Y-41405937D01*
X127863579Y-41565497D01*
X127660497Y-41768579D01*
X127523000Y-41974358D01*
X127385503Y-41768579D01*
X127182421Y-41565497D01*
X126943622Y-41405937D01*
X126678283Y-41296030D01*
X126396601Y-41240000D01*
X126109399Y-41240000D01*
X125827717Y-41296030D01*
X125562378Y-41405937D01*
X125323579Y-41565497D01*
X125120497Y-41768579D01*
X124983000Y-41974358D01*
X124845503Y-41768579D01*
X124642421Y-41565497D01*
X124403622Y-41405937D01*
X124138283Y-41296030D01*
X123856601Y-41240000D01*
X123569399Y-41240000D01*
X123287717Y-41296030D01*
X123022378Y-41405937D01*
X122783579Y-41565497D01*
X122580497Y-41768579D01*
X122443000Y-41974358D01*
X122305503Y-41768579D01*
X122102421Y-41565497D01*
X121863622Y-41405937D01*
X121598283Y-41296030D01*
X121316601Y-41240000D01*
X121029399Y-41240000D01*
X120747717Y-41296030D01*
X120482378Y-41405937D01*
X120243579Y-41565497D01*
X120040497Y-41768579D01*
X119903000Y-41974358D01*
X119765503Y-41768579D01*
X119562421Y-41565497D01*
X119323622Y-41405937D01*
X119058283Y-41296030D01*
X118776601Y-41240000D01*
X118489399Y-41240000D01*
X118207717Y-41296030D01*
X117942378Y-41405937D01*
X117703579Y-41565497D01*
X117500497Y-41768579D01*
X117363000Y-41974358D01*
X117225503Y-41768579D01*
X117022421Y-41565497D01*
X116783622Y-41405937D01*
X116518283Y-41296030D01*
X116236601Y-41240000D01*
X115949399Y-41240000D01*
X115667717Y-41296030D01*
X115402378Y-41405937D01*
X115163579Y-41565497D01*
X114960497Y-41768579D01*
X114800937Y-42007378D01*
X114691030Y-42272717D01*
X114635000Y-42554399D01*
X114635000Y-42841601D01*
X114691030Y-43123283D01*
X114800937Y-43388622D01*
X114960497Y-43627421D01*
X115163579Y-43830503D01*
X115402378Y-43990063D01*
X115667717Y-44099970D01*
X115949399Y-44156000D01*
X116236601Y-44156000D01*
X116518283Y-44099970D01*
X116783622Y-43990063D01*
X117022421Y-43830503D01*
X117225503Y-43627421D01*
X117363000Y-43421642D01*
X117500497Y-43627421D01*
X117703579Y-43830503D01*
X117942378Y-43990063D01*
X118207717Y-44099970D01*
X118489399Y-44156000D01*
X118776601Y-44156000D01*
X119058283Y-44099970D01*
X119323622Y-43990063D01*
X119562421Y-43830503D01*
X119765503Y-43627421D01*
X119903000Y-43421642D01*
X120040497Y-43627421D01*
X120243579Y-43830503D01*
X120482378Y-43990063D01*
X120747717Y-44099970D01*
X121029399Y-44156000D01*
X121316601Y-44156000D01*
X121598283Y-44099970D01*
X121863622Y-43990063D01*
X122102421Y-43830503D01*
X122305503Y-43627421D01*
X122443000Y-43421642D01*
X122580497Y-43627421D01*
X122783579Y-43830503D01*
X123022378Y-43990063D01*
X123287717Y-44099970D01*
X123569399Y-44156000D01*
X123856601Y-44156000D01*
X124138283Y-44099970D01*
X124403622Y-43990063D01*
X124642421Y-43830503D01*
X124845503Y-43627421D01*
X124983000Y-43421642D01*
X125120497Y-43627421D01*
X125323579Y-43830503D01*
X125445000Y-43911634D01*
X125445001Y-46457310D01*
X125441092Y-46497000D01*
X125456692Y-46655396D01*
X125484752Y-46747895D01*
X125502895Y-46807704D01*
X125577923Y-46948072D01*
X125678895Y-47071106D01*
X125709723Y-47096406D01*
X129448594Y-50835278D01*
X129473894Y-50866106D01*
X129596928Y-50967078D01*
X129737296Y-51042106D01*
X129889604Y-51088308D01*
X130008312Y-51100000D01*
X130008321Y-51100000D01*
X130047999Y-51103908D01*
X130087677Y-51100000D01*
X148763317Y-51100000D01*
X149814000Y-52150684D01*
X149814000Y-58501316D01*
X148935411Y-57622728D01*
X148910106Y-57591894D01*
X148787072Y-57490922D01*
X148646704Y-57415894D01*
X148494396Y-57369692D01*
X148375688Y-57358000D01*
X148375680Y-57358000D01*
X148336000Y-57354092D01*
X148296320Y-57358000D01*
X146867183Y-57358000D01*
X146867183Y-57316000D01*
X146854479Y-57187010D01*
X146816853Y-57062976D01*
X146755754Y-56948666D01*
X146673527Y-56848473D01*
X146573334Y-56766246D01*
X146459024Y-56705147D01*
X146334990Y-56667521D01*
X146206000Y-56654817D01*
X145147867Y-56654817D01*
X145173501Y-56629183D01*
X146206000Y-56629183D01*
X146334990Y-56616479D01*
X146459024Y-56578853D01*
X146573334Y-56517754D01*
X146673527Y-56435527D01*
X146755754Y-56335334D01*
X146816853Y-56221024D01*
X146854479Y-56096990D01*
X146867183Y-55968000D01*
X146867183Y-55926000D01*
X146919688Y-55926000D01*
X147038396Y-55914308D01*
X147190704Y-55868106D01*
X147331072Y-55793078D01*
X147454106Y-55692106D01*
X147555078Y-55569072D01*
X147630106Y-55428704D01*
X147676308Y-55276396D01*
X147691909Y-55118000D01*
X147676308Y-54959604D01*
X147630106Y-54807296D01*
X147555078Y-54666928D01*
X147454106Y-54543894D01*
X147331072Y-54442922D01*
X147190704Y-54367894D01*
X147038396Y-54321692D01*
X146919688Y-54310000D01*
X146867183Y-54310000D01*
X146867183Y-54268000D01*
X146854479Y-54139010D01*
X146816853Y-54014976D01*
X146755754Y-53900666D01*
X146673527Y-53800473D01*
X146573334Y-53718246D01*
X146459024Y-53657147D01*
X146334990Y-53619521D01*
X146206000Y-53606817D01*
X144506000Y-53606817D01*
X144377010Y-53619521D01*
X144252976Y-53657147D01*
X144138666Y-53718246D01*
X144038473Y-53800473D01*
X143956246Y-53900666D01*
X143895147Y-54014976D01*
X143857521Y-54139010D01*
X143844817Y-54268000D01*
X143844817Y-55672499D01*
X142458723Y-57058594D01*
X142427895Y-57083894D01*
X142326923Y-57206928D01*
X142268623Y-57316000D01*
X142251895Y-57347296D01*
X142205692Y-57499604D01*
X142190092Y-57658000D01*
X142194001Y-57697690D01*
X142194000Y-80183316D01*
X140381317Y-81996000D01*
X122975680Y-81996000D01*
X122936000Y-81992092D01*
X122896320Y-81996000D01*
X122896312Y-81996000D01*
X122777604Y-82007692D01*
X122625296Y-82053894D01*
X122484928Y-82128922D01*
X122392721Y-82204594D01*
X122392717Y-82204598D01*
X122361894Y-82229894D01*
X122336598Y-82260717D01*
X120629723Y-83967594D01*
X120598895Y-83992894D01*
X120497923Y-84115928D01*
X120465814Y-84176000D01*
X120422895Y-84256296D01*
X120376692Y-84408604D01*
X120361092Y-84567000D01*
X120365001Y-84606690D01*
X120365001Y-84664366D01*
X120243579Y-84745497D01*
X120040497Y-84948579D01*
X119880937Y-85187378D01*
X119771030Y-85452717D01*
X119715000Y-85734399D01*
X119715000Y-86021601D01*
X119771030Y-86303283D01*
X119880937Y-86568622D01*
X120040497Y-86807421D01*
X120243579Y-87010503D01*
X120482378Y-87170063D01*
X120747717Y-87279970D01*
X121029399Y-87336000D01*
X121316601Y-87336000D01*
X121598283Y-87279970D01*
X121863622Y-87170063D01*
X122102421Y-87010503D01*
X122305503Y-86807421D01*
X122443000Y-86601642D01*
X122580497Y-86807421D01*
X122783579Y-87010503D01*
X122905001Y-87091634D01*
X122905001Y-87097310D01*
X122901092Y-87137000D01*
X122916692Y-87295396D01*
X122941144Y-87376001D01*
X122962895Y-87447704D01*
X123037923Y-87588072D01*
X123138895Y-87711106D01*
X123169723Y-87736406D01*
X124622594Y-89189278D01*
X124647894Y-89220106D01*
X124770928Y-89321078D01*
X124911296Y-89396106D01*
X125017401Y-89428293D01*
X125063603Y-89442308D01*
X125078879Y-89443813D01*
X125182312Y-89454000D01*
X125182319Y-89454000D01*
X125221999Y-89457908D01*
X125261679Y-89454000D01*
X144094636Y-89454000D01*
X144082817Y-89574000D01*
X144082817Y-89616000D01*
X111840685Y-89616000D01*
X109302171Y-87077488D01*
X109402421Y-87010503D01*
X109605503Y-86807421D01*
X109749627Y-86591724D01*
X109827354Y-86726540D01*
X110015678Y-86941544D01*
X110242328Y-87115676D01*
X110498595Y-87242245D01*
X110682780Y-87298112D01*
X110909000Y-87167312D01*
X110909000Y-85982000D01*
X110889000Y-85982000D01*
X110889000Y-85774000D01*
X110909000Y-85774000D01*
X110909000Y-84588688D01*
X110682780Y-84457888D01*
X110498595Y-84513755D01*
X110242328Y-84640324D01*
X110015678Y-84814456D01*
X109827354Y-85029460D01*
X109749627Y-85164276D01*
X109605503Y-84948579D01*
X109402421Y-84745497D01*
X109163622Y-84585937D01*
X108898283Y-84476030D01*
X108616601Y-84420000D01*
X108329399Y-84420000D01*
X108047717Y-84476030D01*
X107782378Y-84585937D01*
X107543579Y-84745497D01*
X107340497Y-84948579D01*
X107203000Y-85154358D01*
X107065503Y-84948579D01*
X106862421Y-84745497D01*
X106623622Y-84585937D01*
X106358283Y-84476030D01*
X106076601Y-84420000D01*
X105789399Y-84420000D01*
X105507717Y-84476030D01*
X105242378Y-84585937D01*
X105003579Y-84745497D01*
X104800497Y-84948579D01*
X104663000Y-85154358D01*
X104525503Y-84948579D01*
X104322421Y-84745497D01*
X104083622Y-84585937D01*
X103818283Y-84476030D01*
X103536601Y-84420000D01*
X103249399Y-84420000D01*
X102967717Y-84476030D01*
X102702378Y-84585937D01*
X102463579Y-84745497D01*
X102260497Y-84948579D01*
X102123000Y-85154358D01*
X101985503Y-84948579D01*
X101782421Y-84745497D01*
X101543622Y-84585937D01*
X101278283Y-84476030D01*
X100996601Y-84420000D01*
X100709399Y-84420000D01*
X100427717Y-84476030D01*
X100162378Y-84585937D01*
X99923579Y-84745497D01*
X99751840Y-84917236D01*
X99723853Y-84824976D01*
X99662754Y-84710666D01*
X99580527Y-84610473D01*
X99480334Y-84528246D01*
X99366024Y-84467147D01*
X99241990Y-84429521D01*
X99113000Y-84416817D01*
X97513000Y-84416817D01*
X97384010Y-84429521D01*
X97259976Y-84467147D01*
X97145666Y-84528246D01*
X97045473Y-84610473D01*
X96963246Y-84710666D01*
X96902147Y-84824976D01*
X96864521Y-84949010D01*
X96851817Y-85078000D01*
X96851817Y-86678000D01*
X96864521Y-86806990D01*
X96902147Y-86931024D01*
X96963246Y-87045334D01*
X97045473Y-87145527D01*
X97145666Y-87227754D01*
X97259976Y-87288853D01*
X97384010Y-87326479D01*
X97513000Y-87339183D01*
X99113000Y-87339183D01*
X99241990Y-87326479D01*
X99366024Y-87288853D01*
X99480334Y-87227754D01*
X99580527Y-87145527D01*
X99662754Y-87045334D01*
X99723853Y-86931024D01*
X99751840Y-86838764D01*
X99923579Y-87010503D01*
X100162378Y-87170063D01*
X100427717Y-87279970D01*
X100709399Y-87336000D01*
X100996601Y-87336000D01*
X101278283Y-87279970D01*
X101543622Y-87170063D01*
X101782421Y-87010503D01*
X101985503Y-86807421D01*
X102123000Y-86601642D01*
X102260497Y-86807421D01*
X102463579Y-87010503D01*
X102702378Y-87170063D01*
X102967717Y-87279970D01*
X103249399Y-87336000D01*
X103536601Y-87336000D01*
X103818283Y-87279970D01*
X104083622Y-87170063D01*
X104322421Y-87010503D01*
X104525503Y-86807421D01*
X104663000Y-86601642D01*
X104800497Y-86807421D01*
X105003579Y-87010503D01*
X105125000Y-87091634D01*
X105125001Y-135032315D01*
X101391317Y-138766000D01*
X99273768Y-138766000D01*
X99171340Y-138612706D01*
X98961294Y-138402660D01*
X98808332Y-138300454D01*
X98874728Y-138262383D01*
X99097566Y-138068129D01*
X99278225Y-137834134D01*
X99409763Y-137569390D01*
X99469619Y-137372061D01*
X99339469Y-137138000D01*
X98104000Y-137138000D01*
X98104000Y-137158000D01*
X97896000Y-137158000D01*
X97896000Y-137138000D01*
X96660531Y-137138000D01*
X96530381Y-137372061D01*
X96590237Y-137569390D01*
X96721775Y-137834134D01*
X96902434Y-138068129D01*
X97125272Y-138262383D01*
X97191668Y-138300454D01*
X97038706Y-138402660D01*
X96828660Y-138612706D01*
X96663627Y-138859694D01*
X96549951Y-139134132D01*
X96492000Y-139425475D01*
X96492000Y-139722525D01*
X96549951Y-140013868D01*
X96663627Y-140288306D01*
X96828660Y-140535294D01*
X97038706Y-140745340D01*
X97285694Y-140910373D01*
X97560132Y-141024049D01*
X97851475Y-141082000D01*
X98148525Y-141082000D01*
X98439868Y-141024049D01*
X98714306Y-140910373D01*
X98961294Y-140745340D01*
X99171340Y-140535294D01*
X99273768Y-140382000D01*
X101686320Y-140382000D01*
X101726000Y-140385908D01*
X101765680Y-140382000D01*
X101765688Y-140382000D01*
X101884396Y-140370308D01*
X102036704Y-140324106D01*
X102177072Y-140249078D01*
X102300106Y-140148106D01*
X102325411Y-140117272D01*
X106476278Y-135966406D01*
X106507106Y-135941106D01*
X106608078Y-135818072D01*
X106683106Y-135677704D01*
X106729308Y-135525396D01*
X106741000Y-135406688D01*
X106741000Y-135406679D01*
X106744908Y-135367001D01*
X106741000Y-135327323D01*
X106741000Y-94322000D01*
X144082816Y-94322000D01*
X144095520Y-94450991D01*
X144133146Y-94575024D01*
X144194246Y-94689334D01*
X144276472Y-94789528D01*
X144376666Y-94871754D01*
X144490976Y-94932854D01*
X144615009Y-94970480D01*
X144744000Y-94983184D01*
X145325500Y-94980000D01*
X145490000Y-94815500D01*
X145490000Y-93576000D01*
X145698000Y-93576000D01*
X145698000Y-94815500D01*
X145862500Y-94980000D01*
X146444000Y-94983184D01*
X146572991Y-94970480D01*
X146697024Y-94932854D01*
X146811334Y-94871754D01*
X146911528Y-94789528D01*
X146993754Y-94689334D01*
X147054854Y-94575024D01*
X147092480Y-94450991D01*
X147105184Y-94322000D01*
X147102000Y-93740500D01*
X146937500Y-93576000D01*
X145698000Y-93576000D01*
X145490000Y-93576000D01*
X144250500Y-93576000D01*
X144086000Y-93740500D01*
X144082816Y-94322000D01*
X106741000Y-94322000D01*
X106741000Y-92622000D01*
X144082816Y-92622000D01*
X144086000Y-93203500D01*
X144250500Y-93368000D01*
X145490000Y-93368000D01*
X145490000Y-92128500D01*
X145698000Y-92128500D01*
X145698000Y-93368000D01*
X146937500Y-93368000D01*
X147102000Y-93203500D01*
X147105184Y-92622000D01*
X147092480Y-92493009D01*
X147054854Y-92368976D01*
X146993754Y-92254666D01*
X146911528Y-92154472D01*
X146811334Y-92072246D01*
X146697024Y-92011146D01*
X146572991Y-91973520D01*
X146444000Y-91960816D01*
X145862500Y-91964000D01*
X145698000Y-92128500D01*
X145490000Y-92128500D01*
X145325500Y-91964000D01*
X144744000Y-91960816D01*
X144615009Y-91973520D01*
X144490976Y-92011146D01*
X144376666Y-92072246D01*
X144276472Y-92154472D01*
X144194246Y-92254666D01*
X144133146Y-92368976D01*
X144095520Y-92493009D01*
X144082816Y-92622000D01*
X106741000Y-92622000D01*
X106741000Y-87091634D01*
X106862421Y-87010503D01*
X107065503Y-86807421D01*
X107203000Y-86601642D01*
X107340497Y-86807421D01*
X107543579Y-87010503D01*
X107665001Y-87091634D01*
X107665001Y-87351310D01*
X107661092Y-87391000D01*
X107676692Y-87549396D01*
X107718345Y-87686705D01*
X107722895Y-87701704D01*
X107797923Y-87842072D01*
X107898895Y-87965106D01*
X107929723Y-87990406D01*
X110906598Y-90967283D01*
X110931894Y-90998106D01*
X110962717Y-91023402D01*
X110962721Y-91023406D01*
X111003218Y-91056641D01*
X111054928Y-91099078D01*
X111195296Y-91174106D01*
X111347604Y-91220308D01*
X111466312Y-91232000D01*
X111466320Y-91232000D01*
X111506000Y-91235908D01*
X111545680Y-91232000D01*
X144082817Y-91232000D01*
X144082817Y-91274000D01*
X144095521Y-91402990D01*
X144133147Y-91527024D01*
X144194246Y-91641334D01*
X144276473Y-91741527D01*
X144376666Y-91823754D01*
X144490976Y-91884853D01*
X144615010Y-91922479D01*
X144744000Y-91935183D01*
X146444000Y-91935183D01*
X146572990Y-91922479D01*
X146697024Y-91884853D01*
X146811334Y-91823754D01*
X146911527Y-91741527D01*
X146993754Y-91641334D01*
X147054853Y-91527024D01*
X147092479Y-91402990D01*
X147105183Y-91274000D01*
X147105183Y-91232000D01*
X148296320Y-91232000D01*
X148336000Y-91235908D01*
X148375680Y-91232000D01*
X148375688Y-91232000D01*
X148494396Y-91220308D01*
X148646704Y-91174106D01*
X148787072Y-91099078D01*
X148910106Y-90998106D01*
X148935411Y-90967272D01*
X149814001Y-90088683D01*
X149814001Y-95423315D01*
X146776728Y-98460589D01*
X146745894Y-98485894D01*
X146644922Y-98608929D01*
X146569894Y-98749297D01*
X146523692Y-98901605D01*
X146512000Y-99020313D01*
X146512000Y-99020320D01*
X146508092Y-99060000D01*
X146512000Y-99099680D01*
X146512001Y-122093314D01*
X143175317Y-125430000D01*
X139285768Y-125430000D01*
X139183340Y-125276706D01*
X138973294Y-125066660D01*
X138820332Y-124964454D01*
X138886728Y-124926383D01*
X139109566Y-124732129D01*
X139290225Y-124498134D01*
X139421763Y-124233390D01*
X139481619Y-124036061D01*
X139351469Y-123802000D01*
X138116000Y-123802000D01*
X138116000Y-123822000D01*
X137908000Y-123822000D01*
X137908000Y-123802000D01*
X136672531Y-123802000D01*
X136542381Y-124036061D01*
X136602237Y-124233390D01*
X136733775Y-124498134D01*
X136914434Y-124732129D01*
X137137272Y-124926383D01*
X137203668Y-124964454D01*
X137050706Y-125066660D01*
X136840660Y-125276706D01*
X136675627Y-125523694D01*
X136561951Y-125798132D01*
X136504000Y-126089475D01*
X136504000Y-126386525D01*
X136561951Y-126677868D01*
X136675627Y-126952306D01*
X136840660Y-127199294D01*
X137050706Y-127409340D01*
X137198360Y-127508000D01*
X137050706Y-127606660D01*
X136840660Y-127816706D01*
X136738232Y-127970000D01*
X135716684Y-127970000D01*
X135174000Y-127427317D01*
X135174000Y-123359939D01*
X136542381Y-123359939D01*
X136672531Y-123594000D01*
X137908000Y-123594000D01*
X137908000Y-122358087D01*
X138116000Y-122358087D01*
X138116000Y-123594000D01*
X139351469Y-123594000D01*
X139481619Y-123359939D01*
X139421763Y-123162610D01*
X139290225Y-122897866D01*
X139109566Y-122663871D01*
X138886728Y-122469617D01*
X138630275Y-122322569D01*
X138350062Y-122228378D01*
X138116000Y-122358087D01*
X137908000Y-122358087D01*
X137673938Y-122228378D01*
X137393725Y-122322569D01*
X137137272Y-122469617D01*
X136914434Y-122663871D01*
X136733775Y-122897866D01*
X136602237Y-123162610D01*
X136542381Y-123359939D01*
X135174000Y-123359939D01*
X135174000Y-122508683D01*
X137494685Y-120188000D01*
X141692320Y-120188000D01*
X141732000Y-120191908D01*
X141771680Y-120188000D01*
X141771688Y-120188000D01*
X141890396Y-120176308D01*
X142042704Y-120130106D01*
X142183072Y-120055078D01*
X142306106Y-119954106D01*
X142331411Y-119923272D01*
X144815278Y-117439406D01*
X144846106Y-117414106D01*
X144947078Y-117291072D01*
X145022106Y-117150704D01*
X145068308Y-116998396D01*
X145080000Y-116879688D01*
X145080000Y-116879679D01*
X145083908Y-116840001D01*
X145080000Y-116800323D01*
X145080000Y-102909680D01*
X145083908Y-102870000D01*
X145080000Y-102830320D01*
X145080000Y-102830312D01*
X145068308Y-102711604D01*
X145062313Y-102691839D01*
X145035699Y-102604106D01*
X145022106Y-102559296D01*
X144947078Y-102418928D01*
X144846106Y-102295894D01*
X144815279Y-102270595D01*
X143855411Y-101310727D01*
X143830106Y-101279894D01*
X143707072Y-101178922D01*
X143566704Y-101103894D01*
X143414396Y-101057692D01*
X143295688Y-101046000D01*
X143295680Y-101046000D01*
X143256000Y-101042092D01*
X143216320Y-101046000D01*
X143005768Y-101046000D01*
X142903340Y-100892706D01*
X142693294Y-100682660D01*
X142446306Y-100517627D01*
X142171868Y-100403951D01*
X141880525Y-100346000D01*
X141583475Y-100346000D01*
X141292132Y-100403951D01*
X141017694Y-100517627D01*
X140770706Y-100682660D01*
X140560660Y-100892706D01*
X140395627Y-101139694D01*
X140281951Y-101414132D01*
X140224000Y-101705475D01*
X140224000Y-102002525D01*
X140281951Y-102293868D01*
X140395627Y-102568306D01*
X140560660Y-102815294D01*
X140770706Y-103025340D01*
X140918360Y-103124000D01*
X140770706Y-103222660D01*
X140560660Y-103432706D01*
X140458232Y-103586000D01*
X128055679Y-103586000D01*
X128015999Y-103582092D01*
X127976319Y-103586000D01*
X127976312Y-103586000D01*
X127872879Y-103596187D01*
X127857603Y-103597692D01*
X127811401Y-103611707D01*
X127705296Y-103643894D01*
X127564928Y-103718922D01*
X127441894Y-103819894D01*
X127416594Y-103850722D01*
X125186723Y-106080594D01*
X125155895Y-106105894D01*
X125054923Y-106228928D01*
X124998443Y-106334595D01*
X124979895Y-106369296D01*
X124933692Y-106521604D01*
X124918092Y-106680000D01*
X124922001Y-106719690D01*
X124922000Y-129713316D01*
X123489317Y-131146000D01*
X122833768Y-131146000D01*
X122731340Y-130992706D01*
X122521294Y-130782660D01*
X122373640Y-130684000D01*
X122521294Y-130585340D01*
X122731340Y-130375294D01*
X122896373Y-130128306D01*
X123010049Y-129853868D01*
X123068000Y-129562525D01*
X123068000Y-129265475D01*
X123010049Y-128974132D01*
X122896373Y-128699694D01*
X122731340Y-128452706D01*
X122521294Y-128242660D01*
X122373640Y-128144000D01*
X122521294Y-128045340D01*
X122731340Y-127835294D01*
X122896373Y-127588306D01*
X123010049Y-127313868D01*
X123068000Y-127022525D01*
X123068000Y-126725475D01*
X123010049Y-126434132D01*
X122896373Y-126159694D01*
X122731340Y-125912706D01*
X122521294Y-125702660D01*
X122373640Y-125604000D01*
X122521294Y-125505340D01*
X122731340Y-125295294D01*
X122896373Y-125048306D01*
X123010049Y-124773868D01*
X123068000Y-124482525D01*
X123068000Y-124185475D01*
X123010049Y-123894132D01*
X122896373Y-123619694D01*
X122731340Y-123372706D01*
X122521294Y-123162660D01*
X122373640Y-123064000D01*
X122521294Y-122965340D01*
X122731340Y-122755294D01*
X122896373Y-122508306D01*
X123010049Y-122233868D01*
X123068000Y-121942525D01*
X123068000Y-121645475D01*
X123010049Y-121354132D01*
X122896373Y-121079694D01*
X122731340Y-120832706D01*
X122521294Y-120622660D01*
X122373640Y-120524000D01*
X122521294Y-120425340D01*
X122731340Y-120215294D01*
X122896373Y-119968306D01*
X123010049Y-119693868D01*
X123068000Y-119402525D01*
X123068000Y-119105475D01*
X123010049Y-118814132D01*
X122896373Y-118539694D01*
X122731340Y-118292706D01*
X122521294Y-118082660D01*
X122373640Y-117984000D01*
X122521294Y-117885340D01*
X122731340Y-117675294D01*
X122896373Y-117428306D01*
X123010049Y-117153868D01*
X123068000Y-116862525D01*
X123068000Y-116565475D01*
X123010049Y-116274132D01*
X122896373Y-115999694D01*
X122731340Y-115752706D01*
X122521294Y-115542660D01*
X122373640Y-115444000D01*
X122521294Y-115345340D01*
X122731340Y-115135294D01*
X122896373Y-114888306D01*
X123010049Y-114613868D01*
X123068000Y-114322525D01*
X123068000Y-114025475D01*
X123010049Y-113734132D01*
X122896373Y-113459694D01*
X122731340Y-113212706D01*
X122521294Y-113002660D01*
X122373640Y-112904000D01*
X122521294Y-112805340D01*
X122731340Y-112595294D01*
X122896373Y-112348306D01*
X123010049Y-112073868D01*
X123068000Y-111782525D01*
X123068000Y-111485475D01*
X123010049Y-111194132D01*
X122896373Y-110919694D01*
X122731340Y-110672706D01*
X122521294Y-110462660D01*
X122373640Y-110364000D01*
X122521294Y-110265340D01*
X122731340Y-110055294D01*
X122896373Y-109808306D01*
X123010049Y-109533868D01*
X123068000Y-109242525D01*
X123068000Y-108945475D01*
X123010049Y-108654132D01*
X122896373Y-108379694D01*
X122731340Y-108132706D01*
X122521294Y-107922660D01*
X122373640Y-107824000D01*
X122521294Y-107725340D01*
X122731340Y-107515294D01*
X122896373Y-107268306D01*
X123010049Y-106993868D01*
X123068000Y-106702525D01*
X123068000Y-106405475D01*
X123010049Y-106114132D01*
X122896373Y-105839694D01*
X122731340Y-105592706D01*
X122521294Y-105382660D01*
X122373640Y-105284000D01*
X122521294Y-105185340D01*
X122731340Y-104975294D01*
X122896373Y-104728306D01*
X123010049Y-104453868D01*
X123068000Y-104162525D01*
X123068000Y-103865475D01*
X123010049Y-103574132D01*
X122896373Y-103299694D01*
X122731340Y-103052706D01*
X122521294Y-102842660D01*
X122274306Y-102677627D01*
X121999868Y-102563951D01*
X121708525Y-102506000D01*
X121411475Y-102506000D01*
X121120132Y-102563951D01*
X120845694Y-102677627D01*
X120598706Y-102842660D01*
X120388660Y-103052706D01*
X120223627Y-103299694D01*
X120109951Y-103574132D01*
X120052000Y-103865475D01*
X120052000Y-104162525D01*
X120109951Y-104453868D01*
X120223627Y-104728306D01*
X120388660Y-104975294D01*
X120598706Y-105185340D01*
X120746360Y-105284000D01*
X120598706Y-105382660D01*
X120388660Y-105592706D01*
X120223627Y-105839694D01*
X120109951Y-106114132D01*
X120052000Y-106405475D01*
X120052000Y-106702525D01*
X120109951Y-106993868D01*
X120223627Y-107268306D01*
X120388660Y-107515294D01*
X120598706Y-107725340D01*
X120746360Y-107824000D01*
X120598706Y-107922660D01*
X120388660Y-108132706D01*
X120223627Y-108379694D01*
X120109951Y-108654132D01*
X120052000Y-108945475D01*
X120052000Y-109242525D01*
X120109951Y-109533868D01*
X120223627Y-109808306D01*
X120388660Y-110055294D01*
X120598706Y-110265340D01*
X120746360Y-110364000D01*
X120598706Y-110462660D01*
X120388660Y-110672706D01*
X120223627Y-110919694D01*
X120109951Y-111194132D01*
X120052000Y-111485475D01*
X120052000Y-111782525D01*
X120109951Y-112073868D01*
X120223627Y-112348306D01*
X120388660Y-112595294D01*
X120598706Y-112805340D01*
X120746360Y-112904000D01*
X120598706Y-113002660D01*
X120388660Y-113212706D01*
X120223627Y-113459694D01*
X120109951Y-113734132D01*
X120052000Y-114025475D01*
X120052000Y-114322525D01*
X120109951Y-114613868D01*
X120223627Y-114888306D01*
X120388660Y-115135294D01*
X120598706Y-115345340D01*
X120746360Y-115444000D01*
X120598706Y-115542660D01*
X120388660Y-115752706D01*
X120223627Y-115999694D01*
X120109951Y-116274132D01*
X120052000Y-116565475D01*
X120052000Y-116862525D01*
X120109951Y-117153868D01*
X120223627Y-117428306D01*
X120388660Y-117675294D01*
X120598706Y-117885340D01*
X120746360Y-117984000D01*
X120598706Y-118082660D01*
X120388660Y-118292706D01*
X120223627Y-118539694D01*
X120109951Y-118814132D01*
X120052000Y-119105475D01*
X120052000Y-119402525D01*
X120109951Y-119693868D01*
X120223627Y-119968306D01*
X120388660Y-120215294D01*
X120598706Y-120425340D01*
X120746360Y-120524000D01*
X120598706Y-120622660D01*
X120388660Y-120832706D01*
X120223627Y-121079694D01*
X120109951Y-121354132D01*
X120052000Y-121645475D01*
X120052000Y-121942525D01*
X120109951Y-122233868D01*
X120223627Y-122508306D01*
X120388660Y-122755294D01*
X120598706Y-122965340D01*
X120746360Y-123064000D01*
X120598706Y-123162660D01*
X120388660Y-123372706D01*
X120223627Y-123619694D01*
X120109951Y-123894132D01*
X120052000Y-124185475D01*
X120052000Y-124482525D01*
X120109951Y-124773868D01*
X120223627Y-125048306D01*
X120388660Y-125295294D01*
X120598706Y-125505340D01*
X120746360Y-125604000D01*
X120598706Y-125702660D01*
X120388660Y-125912706D01*
X120223627Y-126159694D01*
X120109951Y-126434132D01*
X120052000Y-126725475D01*
X120052000Y-127022525D01*
X120109951Y-127313868D01*
X120223627Y-127588306D01*
X120388660Y-127835294D01*
X120598706Y-128045340D01*
X120746360Y-128144000D01*
X120598706Y-128242660D01*
X120388660Y-128452706D01*
X120223627Y-128699694D01*
X120109951Y-128974132D01*
X120052000Y-129265475D01*
X120052000Y-129562525D01*
X120109951Y-129853868D01*
X120223627Y-130128306D01*
X120388660Y-130375294D01*
X120598706Y-130585340D01*
X120746360Y-130684000D01*
X120598706Y-130782660D01*
X120388660Y-130992706D01*
X120223627Y-131239694D01*
X120109951Y-131514132D01*
X120052000Y-131805475D01*
X120052000Y-132102525D01*
X120109951Y-132393868D01*
X120223627Y-132668306D01*
X120388660Y-132915294D01*
X120598706Y-133125340D01*
X120746360Y-133224000D01*
X120598706Y-133322660D01*
X120388660Y-133532706D01*
X120223627Y-133779694D01*
X120109951Y-134054132D01*
X120052000Y-134345475D01*
X120052000Y-134642525D01*
X120109951Y-134933868D01*
X120223627Y-135208306D01*
X120388660Y-135455294D01*
X120598706Y-135665340D01*
X120746360Y-135764000D01*
X120598706Y-135862660D01*
X120388660Y-136072706D01*
X120223627Y-136319694D01*
X120109951Y-136594132D01*
X120052000Y-136885475D01*
X120052000Y-137182525D01*
X120109951Y-137473868D01*
X120223627Y-137748306D01*
X120388660Y-137995294D01*
X120494983Y-138101617D01*
X120456976Y-138113147D01*
X120342666Y-138174246D01*
X120242473Y-138256473D01*
X120160246Y-138356666D01*
X120099147Y-138470976D01*
X120061521Y-138595010D01*
X120048817Y-138724000D01*
X120048817Y-140424000D01*
X120061521Y-140552990D01*
X120099147Y-140677024D01*
X120160246Y-140791334D01*
X120242473Y-140891527D01*
X120342666Y-140973754D01*
X120456976Y-141034853D01*
X120581010Y-141072479D01*
X120710000Y-141085183D01*
X122410000Y-141085183D01*
X122538990Y-141072479D01*
X122663024Y-141034853D01*
X122777334Y-140973754D01*
X122877527Y-140891527D01*
X122959754Y-140791334D01*
X123020853Y-140677024D01*
X123058479Y-140552990D01*
X123071183Y-140424000D01*
X123071183Y-138724000D01*
X123058479Y-138595010D01*
X123020853Y-138470976D01*
X122959754Y-138356666D01*
X122877527Y-138256473D01*
X122777334Y-138174246D01*
X122663024Y-138113147D01*
X122625017Y-138101617D01*
X122731340Y-137995294D01*
X122896373Y-137748306D01*
X123010049Y-137473868D01*
X123068000Y-137182525D01*
X123068000Y-136885475D01*
X123010049Y-136594132D01*
X122896373Y-136319694D01*
X122731340Y-136072706D01*
X122521294Y-135862660D01*
X122373640Y-135764000D01*
X122521294Y-135665340D01*
X122731340Y-135455294D01*
X122833768Y-135302000D01*
X124800320Y-135302000D01*
X124840000Y-135305908D01*
X124879680Y-135302000D01*
X124879688Y-135302000D01*
X124998396Y-135290308D01*
X125150704Y-135244106D01*
X125291072Y-135169078D01*
X125414106Y-135068106D01*
X125439411Y-135037272D01*
X129575279Y-130901405D01*
X129606106Y-130876106D01*
X129707078Y-130753072D01*
X129782106Y-130612704D01*
X129818329Y-130493292D01*
X129828308Y-130460397D01*
X129836690Y-130375294D01*
X129840000Y-130341688D01*
X129840000Y-130341681D01*
X129843908Y-130302001D01*
X129840000Y-130262321D01*
X129840000Y-113704000D01*
X140220817Y-113704000D01*
X140220817Y-115404000D01*
X140233521Y-115532990D01*
X140271147Y-115657024D01*
X140332246Y-115771334D01*
X140414473Y-115871527D01*
X140514666Y-115953754D01*
X140628976Y-116014853D01*
X140753010Y-116052479D01*
X140882000Y-116065183D01*
X142582000Y-116065183D01*
X142710990Y-116052479D01*
X142835024Y-116014853D01*
X142949334Y-115953754D01*
X143049527Y-115871527D01*
X143131754Y-115771334D01*
X143192853Y-115657024D01*
X143230479Y-115532990D01*
X143243183Y-115404000D01*
X143243183Y-113704000D01*
X143230479Y-113575010D01*
X143192853Y-113450976D01*
X143131754Y-113336666D01*
X143049527Y-113236473D01*
X142949334Y-113154246D01*
X142835024Y-113093147D01*
X142797017Y-113081617D01*
X142903340Y-112975294D01*
X143068373Y-112728306D01*
X143182049Y-112453868D01*
X143240000Y-112162525D01*
X143240000Y-111865475D01*
X143182049Y-111574132D01*
X143068373Y-111299694D01*
X142903340Y-111052706D01*
X142693294Y-110842660D01*
X142540332Y-110740454D01*
X142606728Y-110702383D01*
X142829566Y-110508129D01*
X143010225Y-110274134D01*
X143141763Y-110009390D01*
X143201619Y-109812061D01*
X143071469Y-109578000D01*
X141836000Y-109578000D01*
X141836000Y-109598000D01*
X141628000Y-109598000D01*
X141628000Y-109578000D01*
X140392531Y-109578000D01*
X140262381Y-109812061D01*
X140322237Y-110009390D01*
X140453775Y-110274134D01*
X140634434Y-110508129D01*
X140857272Y-110702383D01*
X140923668Y-110740454D01*
X140770706Y-110842660D01*
X140560660Y-111052706D01*
X140395627Y-111299694D01*
X140281951Y-111574132D01*
X140224000Y-111865475D01*
X140224000Y-112162525D01*
X140281951Y-112453868D01*
X140395627Y-112728306D01*
X140560660Y-112975294D01*
X140666983Y-113081617D01*
X140628976Y-113093147D01*
X140514666Y-113154246D01*
X140414473Y-113236473D01*
X140332246Y-113336666D01*
X140271147Y-113450976D01*
X140233521Y-113575010D01*
X140220817Y-113704000D01*
X129840000Y-113704000D01*
X129840000Y-109808683D01*
X131906684Y-107742000D01*
X140458232Y-107742000D01*
X140560660Y-107895294D01*
X140770706Y-108105340D01*
X140923668Y-108207546D01*
X140857272Y-108245617D01*
X140634434Y-108439871D01*
X140453775Y-108673866D01*
X140322237Y-108938610D01*
X140262381Y-109135939D01*
X140392531Y-109370000D01*
X141628000Y-109370000D01*
X141628000Y-109350000D01*
X141836000Y-109350000D01*
X141836000Y-109370000D01*
X143071469Y-109370000D01*
X143201619Y-109135939D01*
X143141763Y-108938610D01*
X143010225Y-108673866D01*
X142829566Y-108439871D01*
X142606728Y-108245617D01*
X142540332Y-108207546D01*
X142693294Y-108105340D01*
X142903340Y-107895294D01*
X143068373Y-107648306D01*
X143182049Y-107373868D01*
X143240000Y-107082525D01*
X143240000Y-106785475D01*
X143182049Y-106494132D01*
X143068373Y-106219694D01*
X142903340Y-105972706D01*
X142693294Y-105762660D01*
X142545640Y-105664000D01*
X142693294Y-105565340D01*
X142903340Y-105355294D01*
X143068373Y-105108306D01*
X143182049Y-104833868D01*
X143240000Y-104542525D01*
X143240000Y-104245475D01*
X143182049Y-103954132D01*
X143068373Y-103679694D01*
X142903340Y-103432706D01*
X142693294Y-103222660D01*
X142545640Y-103124000D01*
X142693294Y-103025340D01*
X142903340Y-102815294D01*
X142971942Y-102712625D01*
X143464000Y-103204684D01*
X143464001Y-116505315D01*
X141397317Y-118572000D01*
X137199680Y-118572000D01*
X137160000Y-118568092D01*
X137120320Y-118572000D01*
X137120312Y-118572000D01*
X137001604Y-118583692D01*
X136849296Y-118629894D01*
X136708928Y-118704922D01*
X136657218Y-118747359D01*
X136616721Y-118780594D01*
X136616717Y-118780598D01*
X136585894Y-118805894D01*
X136560598Y-118836717D01*
X133822728Y-121574589D01*
X133791894Y-121599894D01*
X133690922Y-121722929D01*
X133615894Y-121863297D01*
X133591861Y-121942525D01*
X133581425Y-121976928D01*
X133569692Y-122015605D01*
X133558000Y-122134313D01*
X133558000Y-122134320D01*
X133554092Y-122174000D01*
X133558000Y-122213680D01*
X133558001Y-127722310D01*
X133554092Y-127762000D01*
X133569692Y-127920396D01*
X133602302Y-128027894D01*
X133615895Y-128072704D01*
X133690923Y-128213072D01*
X133791895Y-128336106D01*
X133822723Y-128361406D01*
X134782594Y-129321277D01*
X134807894Y-129352106D01*
X134930928Y-129453078D01*
X135071296Y-129528106D01*
X135177401Y-129560293D01*
X135223603Y-129574308D01*
X135237536Y-129575680D01*
X135342312Y-129586000D01*
X135342320Y-129586000D01*
X135382000Y-129589908D01*
X135421680Y-129586000D01*
X136738232Y-129586000D01*
X136840660Y-129739294D01*
X137050706Y-129949340D01*
X137198360Y-130048000D01*
X137050706Y-130146660D01*
X136840660Y-130356706D01*
X136675627Y-130603694D01*
X136561951Y-130878132D01*
X136504000Y-131169475D01*
X136504000Y-131466525D01*
X136561951Y-131757868D01*
X136675627Y-132032306D01*
X136840660Y-132279294D01*
X137050706Y-132489340D01*
X137198360Y-132588000D01*
X137050706Y-132686660D01*
X137037366Y-132700000D01*
X136866806Y-132700000D01*
X136809919Y-132694397D01*
X136753032Y-132700000D01*
X136753030Y-132700000D01*
X136582911Y-132716755D01*
X136364627Y-132782971D01*
X136163455Y-132890499D01*
X136133243Y-132915294D01*
X135987127Y-133035208D01*
X135950858Y-133079402D01*
X134095397Y-134934863D01*
X134051209Y-134971127D01*
X134014945Y-135015315D01*
X134014944Y-135015316D01*
X133906500Y-135147456D01*
X133798971Y-135348628D01*
X133732756Y-135566911D01*
X133710397Y-135793919D01*
X133716001Y-135850815D01*
X133716000Y-140998341D01*
X130838341Y-143876000D01*
X70583660Y-143876000D01*
X68214000Y-141506341D01*
X68214000Y-138626000D01*
X69324817Y-138626000D01*
X69324817Y-141674000D01*
X69337521Y-141802990D01*
X69375147Y-141927024D01*
X69436246Y-142041334D01*
X69518473Y-142141527D01*
X69618666Y-142223754D01*
X69732976Y-142284853D01*
X69857010Y-142322479D01*
X69986000Y-142335183D01*
X73034000Y-142335183D01*
X73162990Y-142322479D01*
X73287024Y-142284853D01*
X73401334Y-142223754D01*
X73501527Y-142141527D01*
X73583754Y-142041334D01*
X73644853Y-141927024D01*
X73682479Y-141802990D01*
X73695183Y-141674000D01*
X73695183Y-138626000D01*
X73682479Y-138497010D01*
X73644853Y-138372976D01*
X73583754Y-138258666D01*
X73501527Y-138158473D01*
X73401334Y-138076246D01*
X73287024Y-138015147D01*
X73162990Y-137977521D01*
X73034000Y-137964817D01*
X72668000Y-137964817D01*
X72668000Y-136233659D01*
X77994599Y-130907060D01*
X78038792Y-130870792D01*
X78183501Y-130694463D01*
X78291029Y-130493292D01*
X78357245Y-130275008D01*
X78374000Y-130104889D01*
X78374000Y-130104888D01*
X78379603Y-130048000D01*
X78374000Y-129991111D01*
X78374000Y-90141659D01*
X90649659Y-77866000D01*
X111026341Y-77866000D01*
X114935000Y-81774659D01*
X114935001Y-84986737D01*
X114823000Y-85154358D01*
X114711000Y-84986738D01*
X114711000Y-84145887D01*
X114716603Y-84089000D01*
X114710174Y-84023722D01*
X114694245Y-83861992D01*
X114628029Y-83643708D01*
X114520502Y-83442538D01*
X114520501Y-83442536D01*
X114467458Y-83377904D01*
X114375792Y-83266208D01*
X114331599Y-83229940D01*
X111603061Y-80501402D01*
X111566792Y-80457208D01*
X111390463Y-80312499D01*
X111189292Y-80204971D01*
X110971008Y-80138755D01*
X110800889Y-80122000D01*
X110800887Y-80122000D01*
X110744000Y-80116397D01*
X110687113Y-80122000D01*
X95052889Y-80122000D01*
X94996000Y-80116397D01*
X94768991Y-80138755D01*
X94550708Y-80204971D01*
X94349536Y-80312499D01*
X94331259Y-80327499D01*
X94173208Y-80457208D01*
X94136939Y-80501402D01*
X84057397Y-90580944D01*
X84013209Y-90617208D01*
X83976945Y-90661396D01*
X83976944Y-90661397D01*
X83868500Y-90793537D01*
X83760971Y-90994709D01*
X83694756Y-91212992D01*
X83672397Y-91440000D01*
X83678001Y-91496897D01*
X83678000Y-130499113D01*
X83672397Y-130556000D01*
X83678000Y-130612887D01*
X83678000Y-130612888D01*
X83694755Y-130783007D01*
X83760971Y-131001291D01*
X83868499Y-131202462D01*
X84013208Y-131378792D01*
X84057402Y-131415061D01*
X87352001Y-134709660D01*
X87352000Y-137964817D01*
X86986000Y-137964817D01*
X86857010Y-137977521D01*
X86732976Y-138015147D01*
X86618666Y-138076246D01*
X86518473Y-138158473D01*
X86436246Y-138258666D01*
X86375147Y-138372976D01*
X86337521Y-138497010D01*
X86324817Y-138626000D01*
X86324817Y-141674000D01*
X86337521Y-141802990D01*
X86375147Y-141927024D01*
X86436246Y-142041334D01*
X86518473Y-142141527D01*
X86618666Y-142223754D01*
X86732976Y-142284853D01*
X86857010Y-142322479D01*
X86986000Y-142335183D01*
X90034000Y-142335183D01*
X90162990Y-142322479D01*
X90287024Y-142284853D01*
X90401334Y-142223754D01*
X90501527Y-142141527D01*
X90583754Y-142041334D01*
X90644853Y-141927024D01*
X90682479Y-141802990D01*
X90695183Y-141674000D01*
X90695183Y-138626000D01*
X90682479Y-138497010D01*
X90644853Y-138372976D01*
X90583754Y-138258666D01*
X90501527Y-138158473D01*
X90401334Y-138076246D01*
X90287024Y-138015147D01*
X90162990Y-137977521D01*
X90034000Y-137964817D01*
X89668000Y-137964817D01*
X89668000Y-134286889D01*
X89673603Y-134230000D01*
X89651245Y-134002992D01*
X89585029Y-133784708D01*
X89477501Y-133583537D01*
X89377758Y-133462000D01*
X89332792Y-133407208D01*
X89288598Y-133370939D01*
X85994000Y-130076341D01*
X85994000Y-102674000D01*
X86324816Y-102674000D01*
X86337520Y-102802991D01*
X86375146Y-102927024D01*
X86436246Y-103041334D01*
X86518472Y-103141528D01*
X86618666Y-103223754D01*
X86732976Y-103284854D01*
X86857009Y-103322480D01*
X86986000Y-103335184D01*
X88241500Y-103332000D01*
X88406000Y-103167500D01*
X88406000Y-101254000D01*
X88614000Y-101254000D01*
X88614000Y-103167500D01*
X88778500Y-103332000D01*
X90034000Y-103335184D01*
X90162991Y-103322480D01*
X90287024Y-103284854D01*
X90401334Y-103223754D01*
X90474145Y-103164000D01*
X96488817Y-103164000D01*
X96488817Y-104864000D01*
X96501521Y-104992990D01*
X96539147Y-105117024D01*
X96600246Y-105231334D01*
X96682473Y-105331527D01*
X96782666Y-105413754D01*
X96896976Y-105474853D01*
X96934983Y-105486383D01*
X96828660Y-105592706D01*
X96663627Y-105839694D01*
X96549951Y-106114132D01*
X96492000Y-106405475D01*
X96492000Y-106702525D01*
X96549951Y-106993868D01*
X96663627Y-107268306D01*
X96828660Y-107515294D01*
X97038706Y-107725340D01*
X97186360Y-107824000D01*
X97038706Y-107922660D01*
X96828660Y-108132706D01*
X96663627Y-108379694D01*
X96549951Y-108654132D01*
X96492000Y-108945475D01*
X96492000Y-109242525D01*
X96549951Y-109533868D01*
X96663627Y-109808306D01*
X96828660Y-110055294D01*
X97038706Y-110265340D01*
X97186360Y-110364000D01*
X97038706Y-110462660D01*
X96828660Y-110672706D01*
X96663627Y-110919694D01*
X96549951Y-111194132D01*
X96492000Y-111485475D01*
X96492000Y-111782525D01*
X96549951Y-112073868D01*
X96663627Y-112348306D01*
X96828660Y-112595294D01*
X97038706Y-112805340D01*
X97186360Y-112904000D01*
X97038706Y-113002660D01*
X96828660Y-113212706D01*
X96663627Y-113459694D01*
X96549951Y-113734132D01*
X96492000Y-114025475D01*
X96492000Y-114322525D01*
X96549951Y-114613868D01*
X96663627Y-114888306D01*
X96828660Y-115135294D01*
X97038706Y-115345340D01*
X97186360Y-115444000D01*
X97038706Y-115542660D01*
X96828660Y-115752706D01*
X96663627Y-115999694D01*
X96549951Y-116274132D01*
X96492000Y-116565475D01*
X96492000Y-116862525D01*
X96549951Y-117153868D01*
X96663627Y-117428306D01*
X96828660Y-117675294D01*
X97038706Y-117885340D01*
X97186360Y-117984000D01*
X97038706Y-118082660D01*
X96828660Y-118292706D01*
X96663627Y-118539694D01*
X96549951Y-118814132D01*
X96492000Y-119105475D01*
X96492000Y-119402525D01*
X96549951Y-119693868D01*
X96663627Y-119968306D01*
X96828660Y-120215294D01*
X97038706Y-120425340D01*
X97186360Y-120524000D01*
X97038706Y-120622660D01*
X96828660Y-120832706D01*
X96663627Y-121079694D01*
X96549951Y-121354132D01*
X96492000Y-121645475D01*
X96492000Y-121942525D01*
X96549951Y-122233868D01*
X96663627Y-122508306D01*
X96828660Y-122755294D01*
X97038706Y-122965340D01*
X97186360Y-123064000D01*
X97038706Y-123162660D01*
X96828660Y-123372706D01*
X96663627Y-123619694D01*
X96549951Y-123894132D01*
X96492000Y-124185475D01*
X96492000Y-124482525D01*
X96549951Y-124773868D01*
X96663627Y-125048306D01*
X96828660Y-125295294D01*
X97038706Y-125505340D01*
X97186360Y-125604000D01*
X97038706Y-125702660D01*
X96828660Y-125912706D01*
X96663627Y-126159694D01*
X96549951Y-126434132D01*
X96492000Y-126725475D01*
X96492000Y-127022525D01*
X96549951Y-127313868D01*
X96663627Y-127588306D01*
X96828660Y-127835294D01*
X97038706Y-128045340D01*
X97186360Y-128144000D01*
X97038706Y-128242660D01*
X96828660Y-128452706D01*
X96663627Y-128699694D01*
X96549951Y-128974132D01*
X96492000Y-129265475D01*
X96492000Y-129562525D01*
X96549951Y-129853868D01*
X96663627Y-130128306D01*
X96828660Y-130375294D01*
X97038706Y-130585340D01*
X97186360Y-130684000D01*
X97038706Y-130782660D01*
X96828660Y-130992706D01*
X96663627Y-131239694D01*
X96549951Y-131514132D01*
X96492000Y-131805475D01*
X96492000Y-132102525D01*
X96549951Y-132393868D01*
X96663627Y-132668306D01*
X96828660Y-132915294D01*
X97038706Y-133125340D01*
X97186360Y-133224000D01*
X97038706Y-133322660D01*
X96828660Y-133532706D01*
X96663627Y-133779694D01*
X96549951Y-134054132D01*
X96492000Y-134345475D01*
X96492000Y-134642525D01*
X96549951Y-134933868D01*
X96663627Y-135208306D01*
X96828660Y-135455294D01*
X97038706Y-135665340D01*
X97191668Y-135767546D01*
X97125272Y-135805617D01*
X96902434Y-135999871D01*
X96721775Y-136233866D01*
X96590237Y-136498610D01*
X96530381Y-136695939D01*
X96660531Y-136930000D01*
X97896000Y-136930000D01*
X97896000Y-136910000D01*
X98104000Y-136910000D01*
X98104000Y-136930000D01*
X99339469Y-136930000D01*
X99469619Y-136695939D01*
X99409763Y-136498610D01*
X99278225Y-136233866D01*
X99097566Y-135999871D01*
X98874728Y-135805617D01*
X98808332Y-135767546D01*
X98961294Y-135665340D01*
X99171340Y-135455294D01*
X99336373Y-135208306D01*
X99450049Y-134933868D01*
X99508000Y-134642525D01*
X99508000Y-134345475D01*
X99450049Y-134054132D01*
X99336373Y-133779694D01*
X99171340Y-133532706D01*
X98961294Y-133322660D01*
X98813640Y-133224000D01*
X98961294Y-133125340D01*
X99171340Y-132915294D01*
X99336373Y-132668306D01*
X99450049Y-132393868D01*
X99508000Y-132102525D01*
X99508000Y-131805475D01*
X99450049Y-131514132D01*
X99336373Y-131239694D01*
X99171340Y-130992706D01*
X98961294Y-130782660D01*
X98813640Y-130684000D01*
X98961294Y-130585340D01*
X99171340Y-130375294D01*
X99336373Y-130128306D01*
X99450049Y-129853868D01*
X99508000Y-129562525D01*
X99508000Y-129265475D01*
X99450049Y-128974132D01*
X99336373Y-128699694D01*
X99171340Y-128452706D01*
X98961294Y-128242660D01*
X98813640Y-128144000D01*
X98961294Y-128045340D01*
X99171340Y-127835294D01*
X99336373Y-127588306D01*
X99450049Y-127313868D01*
X99508000Y-127022525D01*
X99508000Y-126725475D01*
X99450049Y-126434132D01*
X99336373Y-126159694D01*
X99171340Y-125912706D01*
X98961294Y-125702660D01*
X98813640Y-125604000D01*
X98961294Y-125505340D01*
X99171340Y-125295294D01*
X99336373Y-125048306D01*
X99450049Y-124773868D01*
X99508000Y-124482525D01*
X99508000Y-124185475D01*
X99450049Y-123894132D01*
X99336373Y-123619694D01*
X99171340Y-123372706D01*
X98961294Y-123162660D01*
X98813640Y-123064000D01*
X98961294Y-122965340D01*
X99171340Y-122755294D01*
X99336373Y-122508306D01*
X99450049Y-122233868D01*
X99508000Y-121942525D01*
X99508000Y-121645475D01*
X99450049Y-121354132D01*
X99336373Y-121079694D01*
X99171340Y-120832706D01*
X98961294Y-120622660D01*
X98813640Y-120524000D01*
X98961294Y-120425340D01*
X99171340Y-120215294D01*
X99336373Y-119968306D01*
X99450049Y-119693868D01*
X99508000Y-119402525D01*
X99508000Y-119105475D01*
X99450049Y-118814132D01*
X99336373Y-118539694D01*
X99171340Y-118292706D01*
X98961294Y-118082660D01*
X98813640Y-117984000D01*
X98961294Y-117885340D01*
X99171340Y-117675294D01*
X99336373Y-117428306D01*
X99450049Y-117153868D01*
X99508000Y-116862525D01*
X99508000Y-116565475D01*
X99450049Y-116274132D01*
X99336373Y-115999694D01*
X99171340Y-115752706D01*
X98961294Y-115542660D01*
X98813640Y-115444000D01*
X98961294Y-115345340D01*
X99171340Y-115135294D01*
X99336373Y-114888306D01*
X99450049Y-114613868D01*
X99508000Y-114322525D01*
X99508000Y-114025475D01*
X99450049Y-113734132D01*
X99336373Y-113459694D01*
X99171340Y-113212706D01*
X98961294Y-113002660D01*
X98813640Y-112904000D01*
X98961294Y-112805340D01*
X99171340Y-112595294D01*
X99336373Y-112348306D01*
X99450049Y-112073868D01*
X99508000Y-111782525D01*
X99508000Y-111485475D01*
X99450049Y-111194132D01*
X99336373Y-110919694D01*
X99171340Y-110672706D01*
X98961294Y-110462660D01*
X98813640Y-110364000D01*
X98961294Y-110265340D01*
X99171340Y-110055294D01*
X99336373Y-109808306D01*
X99450049Y-109533868D01*
X99508000Y-109242525D01*
X99508000Y-108945475D01*
X99450049Y-108654132D01*
X99336373Y-108379694D01*
X99171340Y-108132706D01*
X98961294Y-107922660D01*
X98813640Y-107824000D01*
X98961294Y-107725340D01*
X99171340Y-107515294D01*
X99336373Y-107268306D01*
X99450049Y-106993868D01*
X99508000Y-106702525D01*
X99508000Y-106405475D01*
X99450049Y-106114132D01*
X99336373Y-105839694D01*
X99171340Y-105592706D01*
X99065017Y-105486383D01*
X99103024Y-105474853D01*
X99217334Y-105413754D01*
X99317527Y-105331527D01*
X99399754Y-105231334D01*
X99460853Y-105117024D01*
X99498479Y-104992990D01*
X99511183Y-104864000D01*
X99511183Y-103164000D01*
X99498479Y-103035010D01*
X99460853Y-102910976D01*
X99399754Y-102796666D01*
X99317527Y-102696473D01*
X99217334Y-102614246D01*
X99103024Y-102553147D01*
X98978990Y-102515521D01*
X98850000Y-102502817D01*
X97150000Y-102502817D01*
X97021010Y-102515521D01*
X96896976Y-102553147D01*
X96782666Y-102614246D01*
X96682473Y-102696473D01*
X96600246Y-102796666D01*
X96539147Y-102910976D01*
X96501521Y-103035010D01*
X96488817Y-103164000D01*
X90474145Y-103164000D01*
X90501528Y-103141528D01*
X90583754Y-103041334D01*
X90644854Y-102927024D01*
X90682480Y-102802991D01*
X90695184Y-102674000D01*
X90692000Y-101418500D01*
X90527500Y-101254000D01*
X88614000Y-101254000D01*
X88406000Y-101254000D01*
X86492500Y-101254000D01*
X86328000Y-101418500D01*
X86324816Y-102674000D01*
X85994000Y-102674000D01*
X85994000Y-99626000D01*
X86324816Y-99626000D01*
X86328000Y-100881500D01*
X86492500Y-101046000D01*
X88406000Y-101046000D01*
X88406000Y-99132500D01*
X88614000Y-99132500D01*
X88614000Y-101046000D01*
X90527500Y-101046000D01*
X90692000Y-100881500D01*
X90695184Y-99626000D01*
X90682480Y-99497009D01*
X90644854Y-99372976D01*
X90583754Y-99258666D01*
X90501528Y-99158472D01*
X90401334Y-99076246D01*
X90287024Y-99015146D01*
X90162991Y-98977520D01*
X90034000Y-98964816D01*
X88778500Y-98968000D01*
X88614000Y-99132500D01*
X88406000Y-99132500D01*
X88241500Y-98968000D01*
X86986000Y-98964816D01*
X86857009Y-98977520D01*
X86732976Y-99015146D01*
X86618666Y-99076246D01*
X86518472Y-99158472D01*
X86436246Y-99258666D01*
X86375146Y-99372976D01*
X86337520Y-99497009D01*
X86324816Y-99626000D01*
X85994000Y-99626000D01*
X85994000Y-91919659D01*
X95475659Y-82438000D01*
X110264341Y-82438000D01*
X112395000Y-84568659D01*
X112395000Y-84986738D01*
X112276373Y-85164276D01*
X112198646Y-85029460D01*
X112010322Y-84814456D01*
X111783672Y-84640324D01*
X111527405Y-84513755D01*
X111343220Y-84457888D01*
X111117000Y-84588688D01*
X111117000Y-85774000D01*
X111137000Y-85774000D01*
X111137000Y-85982000D01*
X111117000Y-85982000D01*
X111117000Y-87167312D01*
X111343220Y-87298112D01*
X111527405Y-87242245D01*
X111783672Y-87115676D01*
X112010322Y-86941544D01*
X112198646Y-86726540D01*
X112276373Y-86591724D01*
X112420497Y-86807421D01*
X112623579Y-87010503D01*
X112862378Y-87170063D01*
X113127717Y-87279970D01*
X113409399Y-87336000D01*
X113696601Y-87336000D01*
X113978283Y-87279970D01*
X114243622Y-87170063D01*
X114482421Y-87010503D01*
X114685503Y-86807421D01*
X114823000Y-86601642D01*
X114960497Y-86807421D01*
X115163579Y-87010503D01*
X115402378Y-87170063D01*
X115667717Y-87279970D01*
X115949399Y-87336000D01*
X116236601Y-87336000D01*
X116518283Y-87279970D01*
X116783622Y-87170063D01*
X117022421Y-87010503D01*
X117225503Y-86807421D01*
X117385063Y-86568622D01*
X117494970Y-86303283D01*
X117551000Y-86021601D01*
X117551000Y-85734399D01*
X117494970Y-85452717D01*
X117385063Y-85187378D01*
X117251000Y-84986738D01*
X117251000Y-81351889D01*
X117256603Y-81295000D01*
X117234245Y-81067992D01*
X117168029Y-80849708D01*
X117060501Y-80648537D01*
X116985943Y-80557688D01*
X116915792Y-80472208D01*
X116871599Y-80435940D01*
X112365061Y-75929402D01*
X112328792Y-75885208D01*
X112152463Y-75740499D01*
X111951292Y-75632971D01*
X111733008Y-75566755D01*
X111562889Y-75550000D01*
X111562887Y-75550000D01*
X111506000Y-75544397D01*
X111449113Y-75550000D01*
X90226886Y-75550000D01*
X90169999Y-75544397D01*
X90113112Y-75550000D01*
X90113111Y-75550000D01*
X89942992Y-75566755D01*
X89724708Y-75632971D01*
X89523537Y-75740499D01*
X89347208Y-75885208D01*
X89310939Y-75929402D01*
X76437397Y-88802944D01*
X76393209Y-88839208D01*
X76356945Y-88883396D01*
X76356944Y-88883397D01*
X76248500Y-89015537D01*
X76140971Y-89216709D01*
X76074756Y-89434992D01*
X76052397Y-89662000D01*
X76058001Y-89718897D01*
X76058000Y-129568341D01*
X70731397Y-134894944D01*
X70687209Y-134931208D01*
X70650945Y-134975396D01*
X70650944Y-134975397D01*
X70542500Y-135107537D01*
X70434971Y-135308709D01*
X70368756Y-135526992D01*
X70346397Y-135754000D01*
X70352001Y-135810896D01*
X70352000Y-137964817D01*
X69986000Y-137964817D01*
X69857010Y-137977521D01*
X69732976Y-138015147D01*
X69618666Y-138076246D01*
X69518473Y-138158473D01*
X69436246Y-138258666D01*
X69375147Y-138372976D01*
X69337521Y-138497010D01*
X69324817Y-138626000D01*
X68214000Y-138626000D01*
X68214000Y-103603659D01*
X69324817Y-102492842D01*
X69324817Y-102674000D01*
X69337521Y-102802990D01*
X69375147Y-102927024D01*
X69436246Y-103041334D01*
X69518473Y-103141527D01*
X69618666Y-103223754D01*
X69732976Y-103284853D01*
X69857010Y-103322479D01*
X69986000Y-103335183D01*
X73034000Y-103335183D01*
X73162990Y-103322479D01*
X73287024Y-103284853D01*
X73401334Y-103223754D01*
X73501527Y-103141527D01*
X73583754Y-103041334D01*
X73644853Y-102927024D01*
X73682479Y-102802990D01*
X73695183Y-102674000D01*
X73695183Y-99626000D01*
X73682479Y-99497010D01*
X73644853Y-99372976D01*
X73583754Y-99258666D01*
X73501527Y-99158473D01*
X73401334Y-99076246D01*
X73287024Y-99015147D01*
X73162990Y-98977521D01*
X73034000Y-98964817D01*
X69986000Y-98964817D01*
X69857010Y-98977521D01*
X69732976Y-99015147D01*
X69618666Y-99076246D01*
X69518473Y-99158473D01*
X69436246Y-99258666D01*
X69375147Y-99372976D01*
X69337521Y-99497010D01*
X69324817Y-99626000D01*
X69324817Y-99992000D01*
X69086889Y-99992000D01*
X69030000Y-99986397D01*
X68973111Y-99992000D01*
X68802992Y-100008755D01*
X68584708Y-100074971D01*
X68383537Y-100182499D01*
X68207208Y-100327208D01*
X68170939Y-100371402D01*
X66277402Y-102264939D01*
X66233208Y-102301208D01*
X66088499Y-102477538D01*
X65980971Y-102678709D01*
X65914755Y-102896993D01*
X65902114Y-103025340D01*
X65892397Y-103124000D01*
X59157000Y-103124000D01*
X59157000Y-42554399D01*
X87715000Y-42554399D01*
X87715000Y-42841601D01*
X87771030Y-43123283D01*
X87880937Y-43388622D01*
X88040497Y-43627421D01*
X88243579Y-43830503D01*
X88482378Y-43990063D01*
X88747717Y-44099970D01*
X89029399Y-44156000D01*
X89316601Y-44156000D01*
X89598283Y-44099970D01*
X89863622Y-43990063D01*
X90102421Y-43830503D01*
X90305503Y-43627421D01*
X90443000Y-43421642D01*
X90580497Y-43627421D01*
X90783579Y-43830503D01*
X91022378Y-43990063D01*
X91287717Y-44099970D01*
X91569399Y-44156000D01*
X91856601Y-44156000D01*
X92138283Y-44099970D01*
X92403622Y-43990063D01*
X92642421Y-43830503D01*
X92845503Y-43627421D01*
X92983000Y-43421642D01*
X93120497Y-43627421D01*
X93323579Y-43830503D01*
X93562378Y-43990063D01*
X93827717Y-44099970D01*
X94109399Y-44156000D01*
X94396601Y-44156000D01*
X94678283Y-44099970D01*
X94943622Y-43990063D01*
X95182421Y-43830503D01*
X95385503Y-43627421D01*
X95523000Y-43421642D01*
X95660497Y-43627421D01*
X95863579Y-43830503D01*
X96102378Y-43990063D01*
X96367717Y-44099970D01*
X96649399Y-44156000D01*
X96936601Y-44156000D01*
X97218283Y-44099970D01*
X97483622Y-43990063D01*
X97722421Y-43830503D01*
X97925503Y-43627421D01*
X98063000Y-43421642D01*
X98200497Y-43627421D01*
X98403579Y-43830503D01*
X98642378Y-43990063D01*
X98907717Y-44099970D01*
X99189399Y-44156000D01*
X99476601Y-44156000D01*
X99758283Y-44099970D01*
X100023622Y-43990063D01*
X100262421Y-43830503D01*
X100465503Y-43627421D01*
X100603000Y-43421642D01*
X100740497Y-43627421D01*
X100943579Y-43830503D01*
X101182378Y-43990063D01*
X101447717Y-44099970D01*
X101729399Y-44156000D01*
X102016601Y-44156000D01*
X102298283Y-44099970D01*
X102563622Y-43990063D01*
X102802421Y-43830503D01*
X103005503Y-43627421D01*
X103143000Y-43421642D01*
X103280497Y-43627421D01*
X103483579Y-43830503D01*
X103722378Y-43990063D01*
X103987717Y-44099970D01*
X104269399Y-44156000D01*
X104556601Y-44156000D01*
X104838283Y-44099970D01*
X105103622Y-43990063D01*
X105342421Y-43830503D01*
X105545503Y-43627421D01*
X105683000Y-43421642D01*
X105820497Y-43627421D01*
X106023579Y-43830503D01*
X106262378Y-43990063D01*
X106527717Y-44099970D01*
X106809399Y-44156000D01*
X107096601Y-44156000D01*
X107378283Y-44099970D01*
X107643622Y-43990063D01*
X107882421Y-43830503D01*
X108085503Y-43627421D01*
X108223000Y-43421642D01*
X108360497Y-43627421D01*
X108563579Y-43830503D01*
X108802378Y-43990063D01*
X109067717Y-44099970D01*
X109349399Y-44156000D01*
X109636601Y-44156000D01*
X109918283Y-44099970D01*
X110183622Y-43990063D01*
X110422421Y-43830503D01*
X110625503Y-43627421D01*
X110763000Y-43421642D01*
X110900497Y-43627421D01*
X111103579Y-43830503D01*
X111342378Y-43990063D01*
X111607717Y-44099970D01*
X111889399Y-44156000D01*
X112176601Y-44156000D01*
X112458283Y-44099970D01*
X112723622Y-43990063D01*
X112962421Y-43830503D01*
X113165503Y-43627421D01*
X113325063Y-43388622D01*
X113434970Y-43123283D01*
X113491000Y-42841601D01*
X113491000Y-42554399D01*
X113434970Y-42272717D01*
X113325063Y-42007378D01*
X113165503Y-41768579D01*
X112962421Y-41565497D01*
X112723622Y-41405937D01*
X112458283Y-41296030D01*
X112176601Y-41240000D01*
X111889399Y-41240000D01*
X111607717Y-41296030D01*
X111342378Y-41405937D01*
X111103579Y-41565497D01*
X110900497Y-41768579D01*
X110763000Y-41974358D01*
X110625503Y-41768579D01*
X110422421Y-41565497D01*
X110183622Y-41405937D01*
X109918283Y-41296030D01*
X109636601Y-41240000D01*
X109349399Y-41240000D01*
X109067717Y-41296030D01*
X108802378Y-41405937D01*
X108563579Y-41565497D01*
X108360497Y-41768579D01*
X108223000Y-41974358D01*
X108085503Y-41768579D01*
X107882421Y-41565497D01*
X107643622Y-41405937D01*
X107378283Y-41296030D01*
X107096601Y-41240000D01*
X106809399Y-41240000D01*
X106527717Y-41296030D01*
X106262378Y-41405937D01*
X106023579Y-41565497D01*
X105820497Y-41768579D01*
X105683000Y-41974358D01*
X105545503Y-41768579D01*
X105342421Y-41565497D01*
X105103622Y-41405937D01*
X104838283Y-41296030D01*
X104556601Y-41240000D01*
X104269399Y-41240000D01*
X103987717Y-41296030D01*
X103722378Y-41405937D01*
X103483579Y-41565497D01*
X103280497Y-41768579D01*
X103143000Y-41974358D01*
X103005503Y-41768579D01*
X102802421Y-41565497D01*
X102563622Y-41405937D01*
X102298283Y-41296030D01*
X102016601Y-41240000D01*
X101729399Y-41240000D01*
X101447717Y-41296030D01*
X101182378Y-41405937D01*
X100943579Y-41565497D01*
X100740497Y-41768579D01*
X100603000Y-41974358D01*
X100465503Y-41768579D01*
X100262421Y-41565497D01*
X100023622Y-41405937D01*
X99758283Y-41296030D01*
X99476601Y-41240000D01*
X99189399Y-41240000D01*
X98907717Y-41296030D01*
X98642378Y-41405937D01*
X98403579Y-41565497D01*
X98200497Y-41768579D01*
X98063000Y-41974358D01*
X97925503Y-41768579D01*
X97722421Y-41565497D01*
X97483622Y-41405937D01*
X97218283Y-41296030D01*
X96936601Y-41240000D01*
X96649399Y-41240000D01*
X96367717Y-41296030D01*
X96102378Y-41405937D01*
X95863579Y-41565497D01*
X95660497Y-41768579D01*
X95523000Y-41974358D01*
X95385503Y-41768579D01*
X95182421Y-41565497D01*
X94943622Y-41405937D01*
X94678283Y-41296030D01*
X94396601Y-41240000D01*
X94109399Y-41240000D01*
X93827717Y-41296030D01*
X93562378Y-41405937D01*
X93323579Y-41565497D01*
X93120497Y-41768579D01*
X92983000Y-41974358D01*
X92845503Y-41768579D01*
X92642421Y-41565497D01*
X92403622Y-41405937D01*
X92138283Y-41296030D01*
X91856601Y-41240000D01*
X91569399Y-41240000D01*
X91287717Y-41296030D01*
X91022378Y-41405937D01*
X90783579Y-41565497D01*
X90580497Y-41768579D01*
X90443000Y-41974358D01*
X90305503Y-41768579D01*
X90102421Y-41565497D01*
X89863622Y-41405937D01*
X89598283Y-41296030D01*
X89316601Y-41240000D01*
X89029399Y-41240000D01*
X88747717Y-41296030D01*
X88482378Y-41405937D01*
X88243579Y-41565497D01*
X88040497Y-41768579D01*
X87880937Y-42007378D01*
X87771030Y-42272717D01*
X87715000Y-42554399D01*
X59157000Y-42554399D01*
X59157000Y-37564867D01*
X59232323Y-37746713D01*
X59632646Y-38345839D01*
X60142161Y-38855354D01*
X60741287Y-39255677D01*
X61407001Y-39531425D01*
X62113718Y-39672000D01*
X62834282Y-39672000D01*
X63540999Y-39531425D01*
X64206713Y-39255677D01*
X64805839Y-38855354D01*
X65315354Y-38345839D01*
X65715677Y-37746713D01*
X65991425Y-37080999D01*
X66132000Y-36374282D01*
X66132000Y-35653718D01*
X65991425Y-34947001D01*
X65715677Y-34281287D01*
X65315354Y-33682161D01*
X64805839Y-33172646D01*
X64206713Y-32772323D01*
X64024867Y-32697000D01*
X210791000Y-32697000D01*
X210791000Y-35463133D01*
%TA.AperFunction,Conductor*%
D18*
G36*
X210791000Y-35463133D02*
G01*
X210715677Y-35281287D01*
X210315354Y-34682161D01*
X209805839Y-34172646D01*
X209206713Y-33772323D01*
X208540999Y-33496575D01*
X207834282Y-33356000D01*
X207113718Y-33356000D01*
X206407001Y-33496575D01*
X205741287Y-33772323D01*
X205142161Y-34172646D01*
X204632646Y-34682161D01*
X204232323Y-35281287D01*
X203956575Y-35947001D01*
X203816000Y-36653718D01*
X203816000Y-37374282D01*
X203956575Y-38080999D01*
X204232323Y-38746713D01*
X204632646Y-39345839D01*
X205142161Y-39855354D01*
X205741287Y-40255677D01*
X206407001Y-40531425D01*
X207113718Y-40672000D01*
X207834282Y-40672000D01*
X208540999Y-40531425D01*
X209206713Y-40255677D01*
X209805839Y-39855354D01*
X210315354Y-39345839D01*
X210715677Y-38746713D01*
X210791000Y-38564867D01*
X210791001Y-146463135D01*
X210715677Y-146281287D01*
X210315354Y-145682161D01*
X209805839Y-145172646D01*
X209206713Y-144772323D01*
X208540999Y-144496575D01*
X207834282Y-144356000D01*
X207113718Y-144356000D01*
X206407001Y-144496575D01*
X205741287Y-144772323D01*
X205142161Y-145172646D01*
X204632646Y-145682161D01*
X204232323Y-146281287D01*
X203956575Y-146947001D01*
X203816000Y-147653718D01*
X203816000Y-148374282D01*
X203956575Y-149080999D01*
X204232323Y-149746713D01*
X204632646Y-150345839D01*
X205142161Y-150855354D01*
X205741287Y-151255677D01*
X205923133Y-151331000D01*
X64024867Y-151331000D01*
X64206713Y-151255677D01*
X64805839Y-150855354D01*
X65315354Y-150345839D01*
X65715677Y-149746713D01*
X65991425Y-149080999D01*
X66132000Y-148374282D01*
X66132000Y-147653718D01*
X65991425Y-146947001D01*
X65715677Y-146281287D01*
X65315354Y-145682161D01*
X64805839Y-145172646D01*
X64206713Y-144772323D01*
X63540999Y-144496575D01*
X62834282Y-144356000D01*
X62113718Y-144356000D01*
X61407001Y-144496575D01*
X60741287Y-144772323D01*
X60142161Y-145172646D01*
X59632646Y-145682161D01*
X59232323Y-146281287D01*
X59157000Y-146463133D01*
X59157000Y-103124000D01*
X65892397Y-103124000D01*
X65898000Y-103180887D01*
X65898001Y-141929103D01*
X65892397Y-141986000D01*
X65914756Y-142213008D01*
X65980971Y-142431291D01*
X66046042Y-142553029D01*
X66088500Y-142632463D01*
X66233209Y-142808792D01*
X66277397Y-142845056D01*
X69244944Y-145812604D01*
X69281208Y-145856792D01*
X69325396Y-145893056D01*
X69457536Y-146001501D01*
X69658708Y-146109029D01*
X69876992Y-146175245D01*
X70047111Y-146192000D01*
X70047113Y-146192000D01*
X70104000Y-146197603D01*
X70160887Y-146192000D01*
X131261113Y-146192000D01*
X131318000Y-146197603D01*
X131374887Y-146192000D01*
X131374889Y-146192000D01*
X131545008Y-146175245D01*
X131763292Y-146109029D01*
X131964463Y-146001501D01*
X132140792Y-145856792D01*
X132177061Y-145812598D01*
X135652599Y-142337060D01*
X135696792Y-142300792D01*
X135841501Y-142124463D01*
X135949029Y-141923292D01*
X136015245Y-141705008D01*
X136032000Y-141534889D01*
X136032000Y-141534888D01*
X136037603Y-141478001D01*
X136032000Y-141421114D01*
X136032000Y-136273578D01*
X136500817Y-135804761D01*
X136500817Y-137248000D01*
X136513521Y-137376990D01*
X136551147Y-137501024D01*
X136612246Y-137615334D01*
X136694473Y-137715527D01*
X136794666Y-137797754D01*
X136908976Y-137858853D01*
X137033010Y-137896479D01*
X137162000Y-137909183D01*
X138862000Y-137909183D01*
X138990990Y-137896479D01*
X139115024Y-137858853D01*
X139229334Y-137797754D01*
X139329527Y-137715527D01*
X139411754Y-137615334D01*
X139472853Y-137501024D01*
X139510479Y-137376990D01*
X139523183Y-137248000D01*
X139523183Y-135548000D01*
X139510479Y-135419010D01*
X139472853Y-135294976D01*
X139411754Y-135180666D01*
X139329527Y-135080473D01*
X139229334Y-134998246D01*
X139115024Y-134937147D01*
X139077017Y-134925617D01*
X139183340Y-134819294D01*
X139348373Y-134572306D01*
X139462049Y-134297868D01*
X139520000Y-134006525D01*
X139520000Y-133709475D01*
X139462049Y-133418132D01*
X139348373Y-133143694D01*
X139257705Y-133008000D01*
X161720817Y-133008000D01*
X161720817Y-134708000D01*
X161733521Y-134836990D01*
X161771147Y-134961024D01*
X161832246Y-135075334D01*
X161914473Y-135175527D01*
X162014666Y-135257754D01*
X162128976Y-135318853D01*
X162253010Y-135356479D01*
X162382000Y-135369183D01*
X164082000Y-135369183D01*
X164210990Y-135356479D01*
X164335024Y-135318853D01*
X164449334Y-135257754D01*
X164549527Y-135175527D01*
X164631754Y-135075334D01*
X164692853Y-134961024D01*
X164730479Y-134836990D01*
X164743183Y-134708000D01*
X164743183Y-133008000D01*
X164730479Y-132879010D01*
X164692853Y-132754976D01*
X164631754Y-132640666D01*
X164549527Y-132540473D01*
X164449334Y-132458246D01*
X164335024Y-132397147D01*
X164297017Y-132385617D01*
X164403340Y-132279294D01*
X164568373Y-132032306D01*
X164682049Y-131757868D01*
X164740000Y-131466525D01*
X164740000Y-131169475D01*
X164682049Y-130878132D01*
X164568373Y-130603694D01*
X164403340Y-130356706D01*
X164193294Y-130146660D01*
X164045640Y-130048000D01*
X164193294Y-129949340D01*
X164403340Y-129739294D01*
X164568373Y-129492306D01*
X164682049Y-129217868D01*
X164740000Y-128926525D01*
X164740000Y-128629475D01*
X164682049Y-128338132D01*
X164568373Y-128063694D01*
X164403340Y-127816706D01*
X164193294Y-127606660D01*
X164045640Y-127508000D01*
X164193294Y-127409340D01*
X164403340Y-127199294D01*
X164568373Y-126952306D01*
X164682049Y-126677868D01*
X164740000Y-126386525D01*
X164740000Y-126089475D01*
X164682049Y-125798132D01*
X164568373Y-125523694D01*
X164403340Y-125276706D01*
X164193294Y-125066660D01*
X164045640Y-124968000D01*
X164193294Y-124869340D01*
X164403340Y-124659294D01*
X164568373Y-124412306D01*
X164682049Y-124137868D01*
X164740000Y-123846525D01*
X164740000Y-123549475D01*
X164682049Y-123258132D01*
X164568373Y-122983694D01*
X164403340Y-122736706D01*
X164193294Y-122526660D01*
X164045640Y-122428000D01*
X164193294Y-122329340D01*
X164403340Y-122119294D01*
X164568373Y-121872306D01*
X164682049Y-121597868D01*
X164740000Y-121306525D01*
X164740000Y-121009475D01*
X164682049Y-120718132D01*
X164568373Y-120443694D01*
X164403340Y-120196706D01*
X164193294Y-119986660D01*
X163946306Y-119821627D01*
X163671868Y-119707951D01*
X163380525Y-119650000D01*
X163083475Y-119650000D01*
X162792132Y-119707951D01*
X162517694Y-119821627D01*
X162270706Y-119986660D01*
X162060660Y-120196706D01*
X161895627Y-120443694D01*
X161781951Y-120718132D01*
X161724000Y-121009475D01*
X161724000Y-121306525D01*
X161781951Y-121597868D01*
X161895627Y-121872306D01*
X162060660Y-122119294D01*
X162270706Y-122329340D01*
X162418360Y-122428000D01*
X162270706Y-122526660D01*
X162060660Y-122736706D01*
X161895627Y-122983694D01*
X161781951Y-123258132D01*
X161724000Y-123549475D01*
X161724000Y-123846525D01*
X161781951Y-124137868D01*
X161895627Y-124412306D01*
X162060660Y-124659294D01*
X162270706Y-124869340D01*
X162418360Y-124968000D01*
X162270706Y-125066660D01*
X162060660Y-125276706D01*
X161895627Y-125523694D01*
X161781951Y-125798132D01*
X161724000Y-126089475D01*
X161724000Y-126386525D01*
X161781951Y-126677868D01*
X161895627Y-126952306D01*
X162060660Y-127199294D01*
X162270706Y-127409340D01*
X162418360Y-127508000D01*
X162270706Y-127606660D01*
X162060660Y-127816706D01*
X161895627Y-128063694D01*
X161781951Y-128338132D01*
X161724000Y-128629475D01*
X161724000Y-128926525D01*
X161781951Y-129217868D01*
X161895627Y-129492306D01*
X162060660Y-129739294D01*
X162270706Y-129949340D01*
X162418360Y-130048000D01*
X162270706Y-130146660D01*
X162060660Y-130356706D01*
X161895627Y-130603694D01*
X161781951Y-130878132D01*
X161724000Y-131169475D01*
X161724000Y-131466525D01*
X161781951Y-131757868D01*
X161895627Y-132032306D01*
X162060660Y-132279294D01*
X162166983Y-132385617D01*
X162128976Y-132397147D01*
X162014666Y-132458246D01*
X161914473Y-132540473D01*
X161832246Y-132640666D01*
X161771147Y-132754976D01*
X161733521Y-132879010D01*
X161720817Y-133008000D01*
X139257705Y-133008000D01*
X139183340Y-132896706D01*
X138973294Y-132686660D01*
X138825640Y-132588000D01*
X138973294Y-132489340D01*
X139183340Y-132279294D01*
X139348373Y-132032306D01*
X139462049Y-131757868D01*
X139520000Y-131466525D01*
X139520000Y-131169475D01*
X139462049Y-130878132D01*
X139348373Y-130603694D01*
X139183340Y-130356706D01*
X138973294Y-130146660D01*
X138825640Y-130048000D01*
X138973294Y-129949340D01*
X139183340Y-129739294D01*
X139348373Y-129492306D01*
X139462049Y-129217868D01*
X139520000Y-128926525D01*
X139520000Y-128629475D01*
X139462049Y-128338132D01*
X139348373Y-128063694D01*
X139183340Y-127816706D01*
X138973294Y-127606660D01*
X138825640Y-127508000D01*
X138973294Y-127409340D01*
X139183340Y-127199294D01*
X139285768Y-127046000D01*
X143470320Y-127046000D01*
X143510000Y-127049908D01*
X143549680Y-127046000D01*
X143549688Y-127046000D01*
X143668396Y-127034308D01*
X143820704Y-126988106D01*
X143961072Y-126913078D01*
X144084106Y-126812106D01*
X144109411Y-126781272D01*
X147863283Y-123027402D01*
X147894106Y-123002106D01*
X147919402Y-122971283D01*
X147919406Y-122971279D01*
X147958120Y-122924105D01*
X147995078Y-122879072D01*
X148070106Y-122738704D01*
X148116308Y-122586396D01*
X148128000Y-122467688D01*
X148128000Y-122467680D01*
X148131908Y-122428000D01*
X148128000Y-122388320D01*
X148128000Y-113704000D01*
X150380817Y-113704000D01*
X150380817Y-115404000D01*
X150393521Y-115532990D01*
X150431147Y-115657024D01*
X150492246Y-115771334D01*
X150574473Y-115871527D01*
X150674666Y-115953754D01*
X150788976Y-116014853D01*
X150913010Y-116052479D01*
X151042000Y-116065183D01*
X152742000Y-116065183D01*
X152870990Y-116052479D01*
X152995024Y-116014853D01*
X153109334Y-115953754D01*
X153209527Y-115871527D01*
X153291754Y-115771334D01*
X153352853Y-115657024D01*
X153390479Y-115532990D01*
X153403183Y-115404000D01*
X153403183Y-113704000D01*
X153390479Y-113575010D01*
X153352853Y-113450976D01*
X153291754Y-113336666D01*
X153209527Y-113236473D01*
X153109334Y-113154246D01*
X152995024Y-113093147D01*
X152957017Y-113081617D01*
X153063340Y-112975294D01*
X153228373Y-112728306D01*
X153342049Y-112453868D01*
X153400000Y-112162525D01*
X153400000Y-111865475D01*
X153342049Y-111574132D01*
X153228373Y-111299694D01*
X153063340Y-111052706D01*
X152853294Y-110842660D01*
X152700332Y-110740454D01*
X152766728Y-110702383D01*
X152989566Y-110508129D01*
X153170225Y-110274134D01*
X153301763Y-110009390D01*
X153361619Y-109812061D01*
X153231469Y-109578000D01*
X151996000Y-109578000D01*
X151996000Y-109598000D01*
X151788000Y-109598000D01*
X151788000Y-109578000D01*
X150552531Y-109578000D01*
X150422381Y-109812061D01*
X150482237Y-110009390D01*
X150613775Y-110274134D01*
X150794434Y-110508129D01*
X151017272Y-110702383D01*
X151083668Y-110740454D01*
X150930706Y-110842660D01*
X150720660Y-111052706D01*
X150555627Y-111299694D01*
X150441951Y-111574132D01*
X150384000Y-111865475D01*
X150384000Y-112162525D01*
X150441951Y-112453868D01*
X150555627Y-112728306D01*
X150720660Y-112975294D01*
X150826983Y-113081617D01*
X150788976Y-113093147D01*
X150674666Y-113154246D01*
X150574473Y-113236473D01*
X150492246Y-113336666D01*
X150431147Y-113450976D01*
X150393521Y-113575010D01*
X150380817Y-113704000D01*
X148128000Y-113704000D01*
X148128000Y-99394683D01*
X151165278Y-96357406D01*
X151196106Y-96332106D01*
X151297078Y-96209072D01*
X151372106Y-96068704D01*
X151418308Y-95916396D01*
X151430000Y-95797688D01*
X151430000Y-95797681D01*
X151433908Y-95758001D01*
X151430000Y-95718321D01*
X151430000Y-51855677D01*
X151433908Y-51815999D01*
X151430000Y-51776321D01*
X151430000Y-51776312D01*
X151418308Y-51657604D01*
X151372106Y-51505296D01*
X151297078Y-51364928D01*
X151196106Y-51241894D01*
X151165279Y-51216595D01*
X149697411Y-49748728D01*
X149672106Y-49717894D01*
X149549072Y-49616922D01*
X149408704Y-49541894D01*
X149256396Y-49495692D01*
X149137688Y-49484000D01*
X149137680Y-49484000D01*
X149098000Y-49480092D01*
X149058320Y-49484000D01*
X130382684Y-49484000D01*
X127061000Y-46162317D01*
X127061000Y-43911634D01*
X127182421Y-43830503D01*
X127385503Y-43627421D01*
X127523000Y-43421642D01*
X127660497Y-43627421D01*
X127863579Y-43830503D01*
X127985001Y-43911634D01*
X127985001Y-44933310D01*
X127981092Y-44973000D01*
X127996692Y-45131396D01*
X128038345Y-45268704D01*
X128042895Y-45283704D01*
X128117923Y-45424072D01*
X128218895Y-45547106D01*
X128249723Y-45572406D01*
X130718594Y-48041278D01*
X130743894Y-48072106D01*
X130866928Y-48173078D01*
X131007296Y-48248106D01*
X131113401Y-48280293D01*
X131159603Y-48294308D01*
X131174879Y-48295813D01*
X131278312Y-48306000D01*
X131278319Y-48306000D01*
X131317999Y-48309908D01*
X131357679Y-48306000D01*
X151049317Y-48306000D01*
X151846000Y-49102684D01*
X151846001Y-100346000D01*
X151743475Y-100346000D01*
X151452132Y-100403951D01*
X151177694Y-100517627D01*
X150930706Y-100682660D01*
X150720660Y-100892706D01*
X150555627Y-101139694D01*
X150441951Y-101414132D01*
X150384000Y-101705475D01*
X150384000Y-102002525D01*
X150441951Y-102293868D01*
X150555627Y-102568306D01*
X150720660Y-102815294D01*
X150930706Y-103025340D01*
X151078360Y-103124000D01*
X150930706Y-103222660D01*
X150720660Y-103432706D01*
X150555627Y-103679694D01*
X150441951Y-103954132D01*
X150384000Y-104245475D01*
X150384000Y-104542525D01*
X150441951Y-104833868D01*
X150555627Y-105108306D01*
X150720660Y-105355294D01*
X150930706Y-105565340D01*
X151078360Y-105664000D01*
X150930706Y-105762660D01*
X150720660Y-105972706D01*
X150555627Y-106219694D01*
X150441951Y-106494132D01*
X150384000Y-106785475D01*
X150384000Y-107082525D01*
X150441951Y-107373868D01*
X150555627Y-107648306D01*
X150720660Y-107895294D01*
X150930706Y-108105340D01*
X151083668Y-108207546D01*
X151017272Y-108245617D01*
X150794434Y-108439871D01*
X150613775Y-108673866D01*
X150482237Y-108938610D01*
X150422381Y-109135939D01*
X150552531Y-109370000D01*
X151788000Y-109370000D01*
X151788000Y-109350000D01*
X151996000Y-109350000D01*
X151996000Y-109370000D01*
X153231469Y-109370000D01*
X153361619Y-109135939D01*
X153301763Y-108938610D01*
X153170225Y-108673866D01*
X152989566Y-108439871D01*
X152766728Y-108245617D01*
X152700332Y-108207546D01*
X152853294Y-108105340D01*
X153063340Y-107895294D01*
X153165768Y-107742000D01*
X155408320Y-107742000D01*
X155448000Y-107745908D01*
X155487680Y-107742000D01*
X155487688Y-107742000D01*
X155606396Y-107730308D01*
X155758704Y-107684106D01*
X155899072Y-107609078D01*
X156022106Y-107508106D01*
X156047411Y-107477272D01*
X158023278Y-105501406D01*
X158054106Y-105476106D01*
X158155078Y-105353072D01*
X158230106Y-105212704D01*
X158263096Y-105103951D01*
X158276308Y-105060397D01*
X158284690Y-104975294D01*
X158288000Y-104941688D01*
X158288000Y-104941680D01*
X158291908Y-104902000D01*
X158288000Y-104862320D01*
X158288000Y-99969718D01*
X160934000Y-99969718D01*
X160934000Y-100690282D01*
X161074575Y-101396999D01*
X161350323Y-102062713D01*
X161750646Y-102661839D01*
X162260161Y-103171354D01*
X162859287Y-103571677D01*
X163525001Y-103847425D01*
X164231718Y-103988000D01*
X164952282Y-103988000D01*
X165658999Y-103847425D01*
X166324713Y-103571677D01*
X166923839Y-103171354D01*
X167433354Y-102661839D01*
X167833677Y-102062713D01*
X168109425Y-101396999D01*
X168250000Y-100690282D01*
X168250000Y-99999718D01*
X190956000Y-99999718D01*
X190956000Y-100720282D01*
X191096575Y-101426999D01*
X191372323Y-102092713D01*
X191772646Y-102691839D01*
X192282161Y-103201354D01*
X192881287Y-103601677D01*
X193547001Y-103877425D01*
X194253718Y-104018000D01*
X194974282Y-104018000D01*
X195680999Y-103877425D01*
X196346713Y-103601677D01*
X196945839Y-103201354D01*
X197455354Y-102691839D01*
X197855677Y-102092713D01*
X198131425Y-101426999D01*
X198272000Y-100720282D01*
X198272000Y-99999718D01*
X198131425Y-99293001D01*
X197855677Y-98627287D01*
X197455354Y-98028161D01*
X196945839Y-97518646D01*
X196346713Y-97118323D01*
X195680999Y-96842575D01*
X194974282Y-96702000D01*
X194253718Y-96702000D01*
X193547001Y-96842575D01*
X192881287Y-97118323D01*
X192282161Y-97518646D01*
X191772646Y-98028161D01*
X191372323Y-98627287D01*
X191096575Y-99293001D01*
X190956000Y-99999718D01*
X168250000Y-99999718D01*
X168250000Y-99969718D01*
X168109425Y-99263001D01*
X167833677Y-98597287D01*
X167433354Y-97998161D01*
X166923839Y-97488646D01*
X166324713Y-97088323D01*
X165658999Y-96812575D01*
X164952282Y-96672000D01*
X164231718Y-96672000D01*
X163525001Y-96812575D01*
X162859287Y-97088323D01*
X162260161Y-97488646D01*
X161750646Y-97998161D01*
X161350323Y-98597287D01*
X161074575Y-99263001D01*
X160934000Y-99969718D01*
X158288000Y-99969718D01*
X158288000Y-80187718D01*
X160934000Y-80187718D01*
X160934000Y-80908282D01*
X161074575Y-81614999D01*
X161350323Y-82280713D01*
X161750646Y-82879839D01*
X162260161Y-83389354D01*
X162859287Y-83789677D01*
X163525001Y-84065425D01*
X164231718Y-84206000D01*
X164952282Y-84206000D01*
X165658999Y-84065425D01*
X166324713Y-83789677D01*
X166923839Y-83389354D01*
X167433354Y-82879839D01*
X167833677Y-82280713D01*
X168109425Y-81614999D01*
X168250000Y-80908282D01*
X168250000Y-80187718D01*
X168244033Y-80157718D01*
X190906000Y-80157718D01*
X190906000Y-80878282D01*
X191046575Y-81584999D01*
X191322323Y-82250713D01*
X191722646Y-82849839D01*
X192232161Y-83359354D01*
X192831287Y-83759677D01*
X193497001Y-84035425D01*
X194203718Y-84176000D01*
X194924282Y-84176000D01*
X195630999Y-84035425D01*
X196296713Y-83759677D01*
X196895839Y-83359354D01*
X197405354Y-82849839D01*
X197805677Y-82250713D01*
X198081425Y-81584999D01*
X198222000Y-80878282D01*
X198222000Y-80157718D01*
X198081425Y-79451001D01*
X197805677Y-78785287D01*
X197405354Y-78186161D01*
X196895839Y-77676646D01*
X196296713Y-77276323D01*
X195630999Y-77000575D01*
X194924282Y-76860000D01*
X194203718Y-76860000D01*
X193497001Y-77000575D01*
X192831287Y-77276323D01*
X192232161Y-77676646D01*
X191722646Y-78186161D01*
X191322323Y-78785287D01*
X191046575Y-79451001D01*
X190906000Y-80157718D01*
X168244033Y-80157718D01*
X168109425Y-79481001D01*
X167833677Y-78815287D01*
X167433354Y-78216161D01*
X166923839Y-77706646D01*
X166324713Y-77306323D01*
X165658999Y-77030575D01*
X164952282Y-76890000D01*
X164231718Y-76890000D01*
X163525001Y-77030575D01*
X162859287Y-77306323D01*
X162260161Y-77706646D01*
X161750646Y-78216161D01*
X161350323Y-78815287D01*
X161074575Y-79481001D01*
X160934000Y-80187718D01*
X158288000Y-80187718D01*
X158288000Y-69805718D01*
X160698000Y-69805718D01*
X160698000Y-70526282D01*
X160838575Y-71232999D01*
X161114323Y-71898713D01*
X161514646Y-72497839D01*
X162024161Y-73007354D01*
X162623287Y-73407677D01*
X163289001Y-73683425D01*
X163995718Y-73824000D01*
X164716282Y-73824000D01*
X165422999Y-73683425D01*
X166088713Y-73407677D01*
X166687839Y-73007354D01*
X167197354Y-72497839D01*
X167597677Y-71898713D01*
X167873425Y-71232999D01*
X168014000Y-70526282D01*
X168014000Y-69805718D01*
X194698000Y-69805718D01*
X194698000Y-70526282D01*
X194838575Y-71232999D01*
X195114323Y-71898713D01*
X195514646Y-72497839D01*
X196024161Y-73007354D01*
X196623287Y-73407677D01*
X197289001Y-73683425D01*
X197995718Y-73824000D01*
X198716282Y-73824000D01*
X199422999Y-73683425D01*
X200088713Y-73407677D01*
X200687839Y-73007354D01*
X201197354Y-72497839D01*
X201597677Y-71898713D01*
X201873425Y-71232999D01*
X202014000Y-70526282D01*
X202014000Y-69805718D01*
X201873425Y-69099001D01*
X201597677Y-68433287D01*
X201197354Y-67834161D01*
X200687839Y-67324646D01*
X200088713Y-66924323D01*
X199422999Y-66648575D01*
X198716282Y-66508000D01*
X197995718Y-66508000D01*
X197289001Y-66648575D01*
X196623287Y-66924323D01*
X196024161Y-67324646D01*
X195514646Y-67834161D01*
X195114323Y-68433287D01*
X194838575Y-69099001D01*
X194698000Y-69805718D01*
X168014000Y-69805718D01*
X167873425Y-69099001D01*
X167597677Y-68433287D01*
X167197354Y-67834161D01*
X166687839Y-67324646D01*
X166088713Y-66924323D01*
X165422999Y-66648575D01*
X164716282Y-66508000D01*
X163995718Y-66508000D01*
X163289001Y-66648575D01*
X162623287Y-66924323D01*
X162024161Y-67324646D01*
X161514646Y-67834161D01*
X161114323Y-68433287D01*
X160838575Y-69099001D01*
X160698000Y-69805718D01*
X158288000Y-69805718D01*
X158288000Y-45805718D01*
X160698000Y-45805718D01*
X160698000Y-46526282D01*
X160838575Y-47232999D01*
X161114323Y-47898713D01*
X161514646Y-48497839D01*
X162024161Y-49007354D01*
X162623287Y-49407677D01*
X163289001Y-49683425D01*
X163995718Y-49824000D01*
X164716282Y-49824000D01*
X165422999Y-49683425D01*
X166088713Y-49407677D01*
X166687839Y-49007354D01*
X167197354Y-48497839D01*
X167597677Y-47898713D01*
X167873425Y-47232999D01*
X168014000Y-46526282D01*
X168014000Y-45805718D01*
X194698000Y-45805718D01*
X194698000Y-46526282D01*
X194838575Y-47232999D01*
X195114323Y-47898713D01*
X195514646Y-48497839D01*
X196024161Y-49007354D01*
X196623287Y-49407677D01*
X197289001Y-49683425D01*
X197995718Y-49824000D01*
X198716282Y-49824000D01*
X199422999Y-49683425D01*
X200088713Y-49407677D01*
X200687839Y-49007354D01*
X201197354Y-48497839D01*
X201597677Y-47898713D01*
X201873425Y-47232999D01*
X202014000Y-46526282D01*
X202014000Y-45805718D01*
X201873425Y-45099001D01*
X201597677Y-44433287D01*
X201197354Y-43834161D01*
X200687839Y-43324646D01*
X200088713Y-42924323D01*
X199422999Y-42648575D01*
X198716282Y-42508000D01*
X197995718Y-42508000D01*
X197289001Y-42648575D01*
X196623287Y-42924323D01*
X196024161Y-43324646D01*
X195514646Y-43834161D01*
X195114323Y-44433287D01*
X194838575Y-45099001D01*
X194698000Y-45805718D01*
X168014000Y-45805718D01*
X167873425Y-45099001D01*
X167597677Y-44433287D01*
X167197354Y-43834161D01*
X166687839Y-43324646D01*
X166088713Y-42924323D01*
X165422999Y-42648575D01*
X164716282Y-42508000D01*
X163995718Y-42508000D01*
X163289001Y-42648575D01*
X162623287Y-42924323D01*
X162024161Y-43324646D01*
X161514646Y-43834161D01*
X161114323Y-44433287D01*
X160838575Y-45099001D01*
X160698000Y-45805718D01*
X158288000Y-45805718D01*
X158288000Y-44997680D01*
X158291908Y-44958000D01*
X158288000Y-44918320D01*
X158288000Y-44918312D01*
X158276308Y-44799604D01*
X158230106Y-44647296D01*
X158155078Y-44506928D01*
X158094642Y-44433287D01*
X158079406Y-44414721D01*
X158079402Y-44414717D01*
X158054106Y-44383894D01*
X158023284Y-44358599D01*
X155819411Y-42154728D01*
X155794106Y-42123894D01*
X155671072Y-42022922D01*
X155530704Y-41947894D01*
X155378396Y-41901692D01*
X155259688Y-41890000D01*
X155259680Y-41890000D01*
X155220000Y-41886092D01*
X155180320Y-41890000D01*
X135086634Y-41890000D01*
X135005503Y-41768579D01*
X134802421Y-41565497D01*
X134563622Y-41405937D01*
X134298283Y-41296030D01*
X134016601Y-41240000D01*
X133729399Y-41240000D01*
X133447717Y-41296030D01*
X133182378Y-41405937D01*
X132943579Y-41565497D01*
X132740497Y-41768579D01*
X132603000Y-41974358D01*
X132465503Y-41768579D01*
X132262421Y-41565497D01*
X132023622Y-41405937D01*
X131758283Y-41296030D01*
X131476601Y-41240000D01*
X131189399Y-41240000D01*
X130907717Y-41296030D01*
X130642378Y-41405937D01*
X130403579Y-41565497D01*
X130200497Y-41768579D01*
X130063000Y-41974358D01*
X129925503Y-41768579D01*
X129722421Y-41565497D01*
X129483622Y-41405937D01*
X129218283Y-41296030D01*
X128936601Y-41240000D01*
X128649399Y-41240000D01*
X128367717Y-41296030D01*
X128102378Y-41405937D01*
X127863579Y-41565497D01*
X127660497Y-41768579D01*
X127523000Y-41974358D01*
X127385503Y-41768579D01*
X127182421Y-41565497D01*
X126943622Y-41405937D01*
X126678283Y-41296030D01*
X126396601Y-41240000D01*
X126109399Y-41240000D01*
X125827717Y-41296030D01*
X125562378Y-41405937D01*
X125323579Y-41565497D01*
X125120497Y-41768579D01*
X124983000Y-41974358D01*
X124845503Y-41768579D01*
X124642421Y-41565497D01*
X124403622Y-41405937D01*
X124138283Y-41296030D01*
X123856601Y-41240000D01*
X123569399Y-41240000D01*
X123287717Y-41296030D01*
X123022378Y-41405937D01*
X122783579Y-41565497D01*
X122580497Y-41768579D01*
X122443000Y-41974358D01*
X122305503Y-41768579D01*
X122102421Y-41565497D01*
X121863622Y-41405937D01*
X121598283Y-41296030D01*
X121316601Y-41240000D01*
X121029399Y-41240000D01*
X120747717Y-41296030D01*
X120482378Y-41405937D01*
X120243579Y-41565497D01*
X120040497Y-41768579D01*
X119903000Y-41974358D01*
X119765503Y-41768579D01*
X119562421Y-41565497D01*
X119323622Y-41405937D01*
X119058283Y-41296030D01*
X118776601Y-41240000D01*
X118489399Y-41240000D01*
X118207717Y-41296030D01*
X117942378Y-41405937D01*
X117703579Y-41565497D01*
X117500497Y-41768579D01*
X117363000Y-41974358D01*
X117225503Y-41768579D01*
X117022421Y-41565497D01*
X116783622Y-41405937D01*
X116518283Y-41296030D01*
X116236601Y-41240000D01*
X115949399Y-41240000D01*
X115667717Y-41296030D01*
X115402378Y-41405937D01*
X115163579Y-41565497D01*
X114960497Y-41768579D01*
X114800937Y-42007378D01*
X114691030Y-42272717D01*
X114635000Y-42554399D01*
X114635000Y-42841601D01*
X114691030Y-43123283D01*
X114800937Y-43388622D01*
X114960497Y-43627421D01*
X115163579Y-43830503D01*
X115402378Y-43990063D01*
X115667717Y-44099970D01*
X115949399Y-44156000D01*
X116236601Y-44156000D01*
X116518283Y-44099970D01*
X116783622Y-43990063D01*
X117022421Y-43830503D01*
X117225503Y-43627421D01*
X117363000Y-43421642D01*
X117500497Y-43627421D01*
X117703579Y-43830503D01*
X117942378Y-43990063D01*
X118207717Y-44099970D01*
X118489399Y-44156000D01*
X118776601Y-44156000D01*
X119058283Y-44099970D01*
X119323622Y-43990063D01*
X119562421Y-43830503D01*
X119765503Y-43627421D01*
X119903000Y-43421642D01*
X120040497Y-43627421D01*
X120243579Y-43830503D01*
X120482378Y-43990063D01*
X120747717Y-44099970D01*
X121029399Y-44156000D01*
X121316601Y-44156000D01*
X121598283Y-44099970D01*
X121863622Y-43990063D01*
X122102421Y-43830503D01*
X122305503Y-43627421D01*
X122443000Y-43421642D01*
X122580497Y-43627421D01*
X122783579Y-43830503D01*
X123022378Y-43990063D01*
X123287717Y-44099970D01*
X123569399Y-44156000D01*
X123856601Y-44156000D01*
X124138283Y-44099970D01*
X124403622Y-43990063D01*
X124642421Y-43830503D01*
X124845503Y-43627421D01*
X124983000Y-43421642D01*
X125120497Y-43627421D01*
X125323579Y-43830503D01*
X125445000Y-43911634D01*
X125445001Y-46457310D01*
X125441092Y-46497000D01*
X125456692Y-46655396D01*
X125484752Y-46747895D01*
X125502895Y-46807704D01*
X125577923Y-46948072D01*
X125678895Y-47071106D01*
X125709723Y-47096406D01*
X129448594Y-50835278D01*
X129473894Y-50866106D01*
X129596928Y-50967078D01*
X129737296Y-51042106D01*
X129889604Y-51088308D01*
X130008312Y-51100000D01*
X130008321Y-51100000D01*
X130047999Y-51103908D01*
X130087677Y-51100000D01*
X148763317Y-51100000D01*
X149814000Y-52150684D01*
X149814000Y-58501316D01*
X148935411Y-57622728D01*
X148910106Y-57591894D01*
X148787072Y-57490922D01*
X148646704Y-57415894D01*
X148494396Y-57369692D01*
X148375688Y-57358000D01*
X148375680Y-57358000D01*
X148336000Y-57354092D01*
X148296320Y-57358000D01*
X146867183Y-57358000D01*
X146867183Y-57316000D01*
X146854479Y-57187010D01*
X146816853Y-57062976D01*
X146755754Y-56948666D01*
X146673527Y-56848473D01*
X146573334Y-56766246D01*
X146459024Y-56705147D01*
X146334990Y-56667521D01*
X146206000Y-56654817D01*
X145147867Y-56654817D01*
X145173501Y-56629183D01*
X146206000Y-56629183D01*
X146334990Y-56616479D01*
X146459024Y-56578853D01*
X146573334Y-56517754D01*
X146673527Y-56435527D01*
X146755754Y-56335334D01*
X146816853Y-56221024D01*
X146854479Y-56096990D01*
X146867183Y-55968000D01*
X146867183Y-55926000D01*
X146919688Y-55926000D01*
X147038396Y-55914308D01*
X147190704Y-55868106D01*
X147331072Y-55793078D01*
X147454106Y-55692106D01*
X147555078Y-55569072D01*
X147630106Y-55428704D01*
X147676308Y-55276396D01*
X147691909Y-55118000D01*
X147676308Y-54959604D01*
X147630106Y-54807296D01*
X147555078Y-54666928D01*
X147454106Y-54543894D01*
X147331072Y-54442922D01*
X147190704Y-54367894D01*
X147038396Y-54321692D01*
X146919688Y-54310000D01*
X146867183Y-54310000D01*
X146867183Y-54268000D01*
X146854479Y-54139010D01*
X146816853Y-54014976D01*
X146755754Y-53900666D01*
X146673527Y-53800473D01*
X146573334Y-53718246D01*
X146459024Y-53657147D01*
X146334990Y-53619521D01*
X146206000Y-53606817D01*
X144506000Y-53606817D01*
X144377010Y-53619521D01*
X144252976Y-53657147D01*
X144138666Y-53718246D01*
X144038473Y-53800473D01*
X143956246Y-53900666D01*
X143895147Y-54014976D01*
X143857521Y-54139010D01*
X143844817Y-54268000D01*
X143844817Y-55672499D01*
X142458723Y-57058594D01*
X142427895Y-57083894D01*
X142326923Y-57206928D01*
X142268623Y-57316000D01*
X142251895Y-57347296D01*
X142205692Y-57499604D01*
X142190092Y-57658000D01*
X142194001Y-57697690D01*
X142194000Y-80183316D01*
X140381317Y-81996000D01*
X122975680Y-81996000D01*
X122936000Y-81992092D01*
X122896320Y-81996000D01*
X122896312Y-81996000D01*
X122777604Y-82007692D01*
X122625296Y-82053894D01*
X122484928Y-82128922D01*
X122392721Y-82204594D01*
X122392717Y-82204598D01*
X122361894Y-82229894D01*
X122336598Y-82260717D01*
X120629723Y-83967594D01*
X120598895Y-83992894D01*
X120497923Y-84115928D01*
X120465814Y-84176000D01*
X120422895Y-84256296D01*
X120376692Y-84408604D01*
X120361092Y-84567000D01*
X120365001Y-84606690D01*
X120365001Y-84664366D01*
X120243579Y-84745497D01*
X120040497Y-84948579D01*
X119880937Y-85187378D01*
X119771030Y-85452717D01*
X119715000Y-85734399D01*
X119715000Y-86021601D01*
X119771030Y-86303283D01*
X119880937Y-86568622D01*
X120040497Y-86807421D01*
X120243579Y-87010503D01*
X120482378Y-87170063D01*
X120747717Y-87279970D01*
X121029399Y-87336000D01*
X121316601Y-87336000D01*
X121598283Y-87279970D01*
X121863622Y-87170063D01*
X122102421Y-87010503D01*
X122305503Y-86807421D01*
X122443000Y-86601642D01*
X122580497Y-86807421D01*
X122783579Y-87010503D01*
X122905001Y-87091634D01*
X122905001Y-87097310D01*
X122901092Y-87137000D01*
X122916692Y-87295396D01*
X122941144Y-87376001D01*
X122962895Y-87447704D01*
X123037923Y-87588072D01*
X123138895Y-87711106D01*
X123169723Y-87736406D01*
X124622594Y-89189278D01*
X124647894Y-89220106D01*
X124770928Y-89321078D01*
X124911296Y-89396106D01*
X125017401Y-89428293D01*
X125063603Y-89442308D01*
X125078879Y-89443813D01*
X125182312Y-89454000D01*
X125182319Y-89454000D01*
X125221999Y-89457908D01*
X125261679Y-89454000D01*
X144094636Y-89454000D01*
X144082817Y-89574000D01*
X144082817Y-89616000D01*
X111840685Y-89616000D01*
X109302171Y-87077488D01*
X109402421Y-87010503D01*
X109605503Y-86807421D01*
X109749627Y-86591724D01*
X109827354Y-86726540D01*
X110015678Y-86941544D01*
X110242328Y-87115676D01*
X110498595Y-87242245D01*
X110682780Y-87298112D01*
X110909000Y-87167312D01*
X110909000Y-85982000D01*
X110889000Y-85982000D01*
X110889000Y-85774000D01*
X110909000Y-85774000D01*
X110909000Y-84588688D01*
X110682780Y-84457888D01*
X110498595Y-84513755D01*
X110242328Y-84640324D01*
X110015678Y-84814456D01*
X109827354Y-85029460D01*
X109749627Y-85164276D01*
X109605503Y-84948579D01*
X109402421Y-84745497D01*
X109163622Y-84585937D01*
X108898283Y-84476030D01*
X108616601Y-84420000D01*
X108329399Y-84420000D01*
X108047717Y-84476030D01*
X107782378Y-84585937D01*
X107543579Y-84745497D01*
X107340497Y-84948579D01*
X107203000Y-85154358D01*
X107065503Y-84948579D01*
X106862421Y-84745497D01*
X106623622Y-84585937D01*
X106358283Y-84476030D01*
X106076601Y-84420000D01*
X105789399Y-84420000D01*
X105507717Y-84476030D01*
X105242378Y-84585937D01*
X105003579Y-84745497D01*
X104800497Y-84948579D01*
X104663000Y-85154358D01*
X104525503Y-84948579D01*
X104322421Y-84745497D01*
X104083622Y-84585937D01*
X103818283Y-84476030D01*
X103536601Y-84420000D01*
X103249399Y-84420000D01*
X102967717Y-84476030D01*
X102702378Y-84585937D01*
X102463579Y-84745497D01*
X102260497Y-84948579D01*
X102123000Y-85154358D01*
X101985503Y-84948579D01*
X101782421Y-84745497D01*
X101543622Y-84585937D01*
X101278283Y-84476030D01*
X100996601Y-84420000D01*
X100709399Y-84420000D01*
X100427717Y-84476030D01*
X100162378Y-84585937D01*
X99923579Y-84745497D01*
X99751840Y-84917236D01*
X99723853Y-84824976D01*
X99662754Y-84710666D01*
X99580527Y-84610473D01*
X99480334Y-84528246D01*
X99366024Y-84467147D01*
X99241990Y-84429521D01*
X99113000Y-84416817D01*
X97513000Y-84416817D01*
X97384010Y-84429521D01*
X97259976Y-84467147D01*
X97145666Y-84528246D01*
X97045473Y-84610473D01*
X96963246Y-84710666D01*
X96902147Y-84824976D01*
X96864521Y-84949010D01*
X96851817Y-85078000D01*
X96851817Y-86678000D01*
X96864521Y-86806990D01*
X96902147Y-86931024D01*
X96963246Y-87045334D01*
X97045473Y-87145527D01*
X97145666Y-87227754D01*
X97259976Y-87288853D01*
X97384010Y-87326479D01*
X97513000Y-87339183D01*
X99113000Y-87339183D01*
X99241990Y-87326479D01*
X99366024Y-87288853D01*
X99480334Y-87227754D01*
X99580527Y-87145527D01*
X99662754Y-87045334D01*
X99723853Y-86931024D01*
X99751840Y-86838764D01*
X99923579Y-87010503D01*
X100162378Y-87170063D01*
X100427717Y-87279970D01*
X100709399Y-87336000D01*
X100996601Y-87336000D01*
X101278283Y-87279970D01*
X101543622Y-87170063D01*
X101782421Y-87010503D01*
X101985503Y-86807421D01*
X102123000Y-86601642D01*
X102260497Y-86807421D01*
X102463579Y-87010503D01*
X102702378Y-87170063D01*
X102967717Y-87279970D01*
X103249399Y-87336000D01*
X103536601Y-87336000D01*
X103818283Y-87279970D01*
X104083622Y-87170063D01*
X104322421Y-87010503D01*
X104525503Y-86807421D01*
X104663000Y-86601642D01*
X104800497Y-86807421D01*
X105003579Y-87010503D01*
X105125000Y-87091634D01*
X105125001Y-135032315D01*
X101391317Y-138766000D01*
X99273768Y-138766000D01*
X99171340Y-138612706D01*
X98961294Y-138402660D01*
X98808332Y-138300454D01*
X98874728Y-138262383D01*
X99097566Y-138068129D01*
X99278225Y-137834134D01*
X99409763Y-137569390D01*
X99469619Y-137372061D01*
X99339469Y-137138000D01*
X98104000Y-137138000D01*
X98104000Y-137158000D01*
X97896000Y-137158000D01*
X97896000Y-137138000D01*
X96660531Y-137138000D01*
X96530381Y-137372061D01*
X96590237Y-137569390D01*
X96721775Y-137834134D01*
X96902434Y-138068129D01*
X97125272Y-138262383D01*
X97191668Y-138300454D01*
X97038706Y-138402660D01*
X96828660Y-138612706D01*
X96663627Y-138859694D01*
X96549951Y-139134132D01*
X96492000Y-139425475D01*
X96492000Y-139722525D01*
X96549951Y-140013868D01*
X96663627Y-140288306D01*
X96828660Y-140535294D01*
X97038706Y-140745340D01*
X97285694Y-140910373D01*
X97560132Y-141024049D01*
X97851475Y-141082000D01*
X98148525Y-141082000D01*
X98439868Y-141024049D01*
X98714306Y-140910373D01*
X98961294Y-140745340D01*
X99171340Y-140535294D01*
X99273768Y-140382000D01*
X101686320Y-140382000D01*
X101726000Y-140385908D01*
X101765680Y-140382000D01*
X101765688Y-140382000D01*
X101884396Y-140370308D01*
X102036704Y-140324106D01*
X102177072Y-140249078D01*
X102300106Y-140148106D01*
X102325411Y-140117272D01*
X106476278Y-135966406D01*
X106507106Y-135941106D01*
X106608078Y-135818072D01*
X106683106Y-135677704D01*
X106729308Y-135525396D01*
X106741000Y-135406688D01*
X106741000Y-135406679D01*
X106744908Y-135367001D01*
X106741000Y-135327323D01*
X106741000Y-94322000D01*
X144082816Y-94322000D01*
X144095520Y-94450991D01*
X144133146Y-94575024D01*
X144194246Y-94689334D01*
X144276472Y-94789528D01*
X144376666Y-94871754D01*
X144490976Y-94932854D01*
X144615009Y-94970480D01*
X144744000Y-94983184D01*
X145325500Y-94980000D01*
X145490000Y-94815500D01*
X145490000Y-93576000D01*
X145698000Y-93576000D01*
X145698000Y-94815500D01*
X145862500Y-94980000D01*
X146444000Y-94983184D01*
X146572991Y-94970480D01*
X146697024Y-94932854D01*
X146811334Y-94871754D01*
X146911528Y-94789528D01*
X146993754Y-94689334D01*
X147054854Y-94575024D01*
X147092480Y-94450991D01*
X147105184Y-94322000D01*
X147102000Y-93740500D01*
X146937500Y-93576000D01*
X145698000Y-93576000D01*
X145490000Y-93576000D01*
X144250500Y-93576000D01*
X144086000Y-93740500D01*
X144082816Y-94322000D01*
X106741000Y-94322000D01*
X106741000Y-92622000D01*
X144082816Y-92622000D01*
X144086000Y-93203500D01*
X144250500Y-93368000D01*
X145490000Y-93368000D01*
X145490000Y-92128500D01*
X145698000Y-92128500D01*
X145698000Y-93368000D01*
X146937500Y-93368000D01*
X147102000Y-93203500D01*
X147105184Y-92622000D01*
X147092480Y-92493009D01*
X147054854Y-92368976D01*
X146993754Y-92254666D01*
X146911528Y-92154472D01*
X146811334Y-92072246D01*
X146697024Y-92011146D01*
X146572991Y-91973520D01*
X146444000Y-91960816D01*
X145862500Y-91964000D01*
X145698000Y-92128500D01*
X145490000Y-92128500D01*
X145325500Y-91964000D01*
X144744000Y-91960816D01*
X144615009Y-91973520D01*
X144490976Y-92011146D01*
X144376666Y-92072246D01*
X144276472Y-92154472D01*
X144194246Y-92254666D01*
X144133146Y-92368976D01*
X144095520Y-92493009D01*
X144082816Y-92622000D01*
X106741000Y-92622000D01*
X106741000Y-87091634D01*
X106862421Y-87010503D01*
X107065503Y-86807421D01*
X107203000Y-86601642D01*
X107340497Y-86807421D01*
X107543579Y-87010503D01*
X107665001Y-87091634D01*
X107665001Y-87351310D01*
X107661092Y-87391000D01*
X107676692Y-87549396D01*
X107718345Y-87686705D01*
X107722895Y-87701704D01*
X107797923Y-87842072D01*
X107898895Y-87965106D01*
X107929723Y-87990406D01*
X110906598Y-90967283D01*
X110931894Y-90998106D01*
X110962717Y-91023402D01*
X110962721Y-91023406D01*
X111003218Y-91056641D01*
X111054928Y-91099078D01*
X111195296Y-91174106D01*
X111347604Y-91220308D01*
X111466312Y-91232000D01*
X111466320Y-91232000D01*
X111506000Y-91235908D01*
X111545680Y-91232000D01*
X144082817Y-91232000D01*
X144082817Y-91274000D01*
X144095521Y-91402990D01*
X144133147Y-91527024D01*
X144194246Y-91641334D01*
X144276473Y-91741527D01*
X144376666Y-91823754D01*
X144490976Y-91884853D01*
X144615010Y-91922479D01*
X144744000Y-91935183D01*
X146444000Y-91935183D01*
X146572990Y-91922479D01*
X146697024Y-91884853D01*
X146811334Y-91823754D01*
X146911527Y-91741527D01*
X146993754Y-91641334D01*
X147054853Y-91527024D01*
X147092479Y-91402990D01*
X147105183Y-91274000D01*
X147105183Y-91232000D01*
X148296320Y-91232000D01*
X148336000Y-91235908D01*
X148375680Y-91232000D01*
X148375688Y-91232000D01*
X148494396Y-91220308D01*
X148646704Y-91174106D01*
X148787072Y-91099078D01*
X148910106Y-90998106D01*
X148935411Y-90967272D01*
X149814001Y-90088683D01*
X149814001Y-95423315D01*
X146776728Y-98460589D01*
X146745894Y-98485894D01*
X146644922Y-98608929D01*
X146569894Y-98749297D01*
X146523692Y-98901605D01*
X146512000Y-99020313D01*
X146512000Y-99020320D01*
X146508092Y-99060000D01*
X146512000Y-99099680D01*
X146512001Y-122093314D01*
X143175317Y-125430000D01*
X139285768Y-125430000D01*
X139183340Y-125276706D01*
X138973294Y-125066660D01*
X138820332Y-124964454D01*
X138886728Y-124926383D01*
X139109566Y-124732129D01*
X139290225Y-124498134D01*
X139421763Y-124233390D01*
X139481619Y-124036061D01*
X139351469Y-123802000D01*
X138116000Y-123802000D01*
X138116000Y-123822000D01*
X137908000Y-123822000D01*
X137908000Y-123802000D01*
X136672531Y-123802000D01*
X136542381Y-124036061D01*
X136602237Y-124233390D01*
X136733775Y-124498134D01*
X136914434Y-124732129D01*
X137137272Y-124926383D01*
X137203668Y-124964454D01*
X137050706Y-125066660D01*
X136840660Y-125276706D01*
X136675627Y-125523694D01*
X136561951Y-125798132D01*
X136504000Y-126089475D01*
X136504000Y-126386525D01*
X136561951Y-126677868D01*
X136675627Y-126952306D01*
X136840660Y-127199294D01*
X137050706Y-127409340D01*
X137198360Y-127508000D01*
X137050706Y-127606660D01*
X136840660Y-127816706D01*
X136738232Y-127970000D01*
X135716684Y-127970000D01*
X135174000Y-127427317D01*
X135174000Y-123359939D01*
X136542381Y-123359939D01*
X136672531Y-123594000D01*
X137908000Y-123594000D01*
X137908000Y-122358087D01*
X138116000Y-122358087D01*
X138116000Y-123594000D01*
X139351469Y-123594000D01*
X139481619Y-123359939D01*
X139421763Y-123162610D01*
X139290225Y-122897866D01*
X139109566Y-122663871D01*
X138886728Y-122469617D01*
X138630275Y-122322569D01*
X138350062Y-122228378D01*
X138116000Y-122358087D01*
X137908000Y-122358087D01*
X137673938Y-122228378D01*
X137393725Y-122322569D01*
X137137272Y-122469617D01*
X136914434Y-122663871D01*
X136733775Y-122897866D01*
X136602237Y-123162610D01*
X136542381Y-123359939D01*
X135174000Y-123359939D01*
X135174000Y-122508683D01*
X137494685Y-120188000D01*
X141692320Y-120188000D01*
X141732000Y-120191908D01*
X141771680Y-120188000D01*
X141771688Y-120188000D01*
X141890396Y-120176308D01*
X142042704Y-120130106D01*
X142183072Y-120055078D01*
X142306106Y-119954106D01*
X142331411Y-119923272D01*
X144815278Y-117439406D01*
X144846106Y-117414106D01*
X144947078Y-117291072D01*
X145022106Y-117150704D01*
X145068308Y-116998396D01*
X145080000Y-116879688D01*
X145080000Y-116879679D01*
X145083908Y-116840001D01*
X145080000Y-116800323D01*
X145080000Y-102909680D01*
X145083908Y-102870000D01*
X145080000Y-102830320D01*
X145080000Y-102830312D01*
X145068308Y-102711604D01*
X145062313Y-102691839D01*
X145035699Y-102604106D01*
X145022106Y-102559296D01*
X144947078Y-102418928D01*
X144846106Y-102295894D01*
X144815279Y-102270595D01*
X143855411Y-101310727D01*
X143830106Y-101279894D01*
X143707072Y-101178922D01*
X143566704Y-101103894D01*
X143414396Y-101057692D01*
X143295688Y-101046000D01*
X143295680Y-101046000D01*
X143256000Y-101042092D01*
X143216320Y-101046000D01*
X143005768Y-101046000D01*
X142903340Y-100892706D01*
X142693294Y-100682660D01*
X142446306Y-100517627D01*
X142171868Y-100403951D01*
X141880525Y-100346000D01*
X141583475Y-100346000D01*
X141292132Y-100403951D01*
X141017694Y-100517627D01*
X140770706Y-100682660D01*
X140560660Y-100892706D01*
X140395627Y-101139694D01*
X140281951Y-101414132D01*
X140224000Y-101705475D01*
X140224000Y-102002525D01*
X140281951Y-102293868D01*
X140395627Y-102568306D01*
X140560660Y-102815294D01*
X140770706Y-103025340D01*
X140918360Y-103124000D01*
X140770706Y-103222660D01*
X140560660Y-103432706D01*
X140458232Y-103586000D01*
X128055679Y-103586000D01*
X128015999Y-103582092D01*
X127976319Y-103586000D01*
X127976312Y-103586000D01*
X127872879Y-103596187D01*
X127857603Y-103597692D01*
X127811401Y-103611707D01*
X127705296Y-103643894D01*
X127564928Y-103718922D01*
X127441894Y-103819894D01*
X127416594Y-103850722D01*
X125186723Y-106080594D01*
X125155895Y-106105894D01*
X125054923Y-106228928D01*
X124998443Y-106334595D01*
X124979895Y-106369296D01*
X124933692Y-106521604D01*
X124918092Y-106680000D01*
X124922001Y-106719690D01*
X124922000Y-129713316D01*
X123489317Y-131146000D01*
X122833768Y-131146000D01*
X122731340Y-130992706D01*
X122521294Y-130782660D01*
X122373640Y-130684000D01*
X122521294Y-130585340D01*
X122731340Y-130375294D01*
X122896373Y-130128306D01*
X123010049Y-129853868D01*
X123068000Y-129562525D01*
X123068000Y-129265475D01*
X123010049Y-128974132D01*
X122896373Y-128699694D01*
X122731340Y-128452706D01*
X122521294Y-128242660D01*
X122373640Y-128144000D01*
X122521294Y-128045340D01*
X122731340Y-127835294D01*
X122896373Y-127588306D01*
X123010049Y-127313868D01*
X123068000Y-127022525D01*
X123068000Y-126725475D01*
X123010049Y-126434132D01*
X122896373Y-126159694D01*
X122731340Y-125912706D01*
X122521294Y-125702660D01*
X122373640Y-125604000D01*
X122521294Y-125505340D01*
X122731340Y-125295294D01*
X122896373Y-125048306D01*
X123010049Y-124773868D01*
X123068000Y-124482525D01*
X123068000Y-124185475D01*
X123010049Y-123894132D01*
X122896373Y-123619694D01*
X122731340Y-123372706D01*
X122521294Y-123162660D01*
X122373640Y-123064000D01*
X122521294Y-122965340D01*
X122731340Y-122755294D01*
X122896373Y-122508306D01*
X123010049Y-122233868D01*
X123068000Y-121942525D01*
X123068000Y-121645475D01*
X123010049Y-121354132D01*
X122896373Y-121079694D01*
X122731340Y-120832706D01*
X122521294Y-120622660D01*
X122373640Y-120524000D01*
X122521294Y-120425340D01*
X122731340Y-120215294D01*
X122896373Y-119968306D01*
X123010049Y-119693868D01*
X123068000Y-119402525D01*
X123068000Y-119105475D01*
X123010049Y-118814132D01*
X122896373Y-118539694D01*
X122731340Y-118292706D01*
X122521294Y-118082660D01*
X122373640Y-117984000D01*
X122521294Y-117885340D01*
X122731340Y-117675294D01*
X122896373Y-117428306D01*
X123010049Y-117153868D01*
X123068000Y-116862525D01*
X123068000Y-116565475D01*
X123010049Y-116274132D01*
X122896373Y-115999694D01*
X122731340Y-115752706D01*
X122521294Y-115542660D01*
X122373640Y-115444000D01*
X122521294Y-115345340D01*
X122731340Y-115135294D01*
X122896373Y-114888306D01*
X123010049Y-114613868D01*
X123068000Y-114322525D01*
X123068000Y-114025475D01*
X123010049Y-113734132D01*
X122896373Y-113459694D01*
X122731340Y-113212706D01*
X122521294Y-113002660D01*
X122373640Y-112904000D01*
X122521294Y-112805340D01*
X122731340Y-112595294D01*
X122896373Y-112348306D01*
X123010049Y-112073868D01*
X123068000Y-111782525D01*
X123068000Y-111485475D01*
X123010049Y-111194132D01*
X122896373Y-110919694D01*
X122731340Y-110672706D01*
X122521294Y-110462660D01*
X122373640Y-110364000D01*
X122521294Y-110265340D01*
X122731340Y-110055294D01*
X122896373Y-109808306D01*
X123010049Y-109533868D01*
X123068000Y-109242525D01*
X123068000Y-108945475D01*
X123010049Y-108654132D01*
X122896373Y-108379694D01*
X122731340Y-108132706D01*
X122521294Y-107922660D01*
X122373640Y-107824000D01*
X122521294Y-107725340D01*
X122731340Y-107515294D01*
X122896373Y-107268306D01*
X123010049Y-106993868D01*
X123068000Y-106702525D01*
X123068000Y-106405475D01*
X123010049Y-106114132D01*
X122896373Y-105839694D01*
X122731340Y-105592706D01*
X122521294Y-105382660D01*
X122373640Y-105284000D01*
X122521294Y-105185340D01*
X122731340Y-104975294D01*
X122896373Y-104728306D01*
X123010049Y-104453868D01*
X123068000Y-104162525D01*
X123068000Y-103865475D01*
X123010049Y-103574132D01*
X122896373Y-103299694D01*
X122731340Y-103052706D01*
X122521294Y-102842660D01*
X122274306Y-102677627D01*
X121999868Y-102563951D01*
X121708525Y-102506000D01*
X121411475Y-102506000D01*
X121120132Y-102563951D01*
X120845694Y-102677627D01*
X120598706Y-102842660D01*
X120388660Y-103052706D01*
X120223627Y-103299694D01*
X120109951Y-103574132D01*
X120052000Y-103865475D01*
X120052000Y-104162525D01*
X120109951Y-104453868D01*
X120223627Y-104728306D01*
X120388660Y-104975294D01*
X120598706Y-105185340D01*
X120746360Y-105284000D01*
X120598706Y-105382660D01*
X120388660Y-105592706D01*
X120223627Y-105839694D01*
X120109951Y-106114132D01*
X120052000Y-106405475D01*
X120052000Y-106702525D01*
X120109951Y-106993868D01*
X120223627Y-107268306D01*
X120388660Y-107515294D01*
X120598706Y-107725340D01*
X120746360Y-107824000D01*
X120598706Y-107922660D01*
X120388660Y-108132706D01*
X120223627Y-108379694D01*
X120109951Y-108654132D01*
X120052000Y-108945475D01*
X120052000Y-109242525D01*
X120109951Y-109533868D01*
X120223627Y-109808306D01*
X120388660Y-110055294D01*
X120598706Y-110265340D01*
X120746360Y-110364000D01*
X120598706Y-110462660D01*
X120388660Y-110672706D01*
X120223627Y-110919694D01*
X120109951Y-111194132D01*
X120052000Y-111485475D01*
X120052000Y-111782525D01*
X120109951Y-112073868D01*
X120223627Y-112348306D01*
X120388660Y-112595294D01*
X120598706Y-112805340D01*
X120746360Y-112904000D01*
X120598706Y-113002660D01*
X120388660Y-113212706D01*
X120223627Y-113459694D01*
X120109951Y-113734132D01*
X120052000Y-114025475D01*
X120052000Y-114322525D01*
X120109951Y-114613868D01*
X120223627Y-114888306D01*
X120388660Y-115135294D01*
X120598706Y-115345340D01*
X120746360Y-115444000D01*
X120598706Y-115542660D01*
X120388660Y-115752706D01*
X120223627Y-115999694D01*
X120109951Y-116274132D01*
X120052000Y-116565475D01*
X120052000Y-116862525D01*
X120109951Y-117153868D01*
X120223627Y-117428306D01*
X120388660Y-117675294D01*
X120598706Y-117885340D01*
X120746360Y-117984000D01*
X120598706Y-118082660D01*
X120388660Y-118292706D01*
X120223627Y-118539694D01*
X120109951Y-118814132D01*
X120052000Y-119105475D01*
X120052000Y-119402525D01*
X120109951Y-119693868D01*
X120223627Y-119968306D01*
X120388660Y-120215294D01*
X120598706Y-120425340D01*
X120746360Y-120524000D01*
X120598706Y-120622660D01*
X120388660Y-120832706D01*
X120223627Y-121079694D01*
X120109951Y-121354132D01*
X120052000Y-121645475D01*
X120052000Y-121942525D01*
X120109951Y-122233868D01*
X120223627Y-122508306D01*
X120388660Y-122755294D01*
X120598706Y-122965340D01*
X120746360Y-123064000D01*
X120598706Y-123162660D01*
X120388660Y-123372706D01*
X120223627Y-123619694D01*
X120109951Y-123894132D01*
X120052000Y-124185475D01*
X120052000Y-124482525D01*
X120109951Y-124773868D01*
X120223627Y-125048306D01*
X120388660Y-125295294D01*
X120598706Y-125505340D01*
X120746360Y-125604000D01*
X120598706Y-125702660D01*
X120388660Y-125912706D01*
X120223627Y-126159694D01*
X120109951Y-126434132D01*
X120052000Y-126725475D01*
X120052000Y-127022525D01*
X120109951Y-127313868D01*
X120223627Y-127588306D01*
X120388660Y-127835294D01*
X120598706Y-128045340D01*
X120746360Y-128144000D01*
X120598706Y-128242660D01*
X120388660Y-128452706D01*
X120223627Y-128699694D01*
X120109951Y-128974132D01*
X120052000Y-129265475D01*
X120052000Y-129562525D01*
X120109951Y-129853868D01*
X120223627Y-130128306D01*
X120388660Y-130375294D01*
X120598706Y-130585340D01*
X120746360Y-130684000D01*
X120598706Y-130782660D01*
X120388660Y-130992706D01*
X120223627Y-131239694D01*
X120109951Y-131514132D01*
X120052000Y-131805475D01*
X120052000Y-132102525D01*
X120109951Y-132393868D01*
X120223627Y-132668306D01*
X120388660Y-132915294D01*
X120598706Y-133125340D01*
X120746360Y-133224000D01*
X120598706Y-133322660D01*
X120388660Y-133532706D01*
X120223627Y-133779694D01*
X120109951Y-134054132D01*
X120052000Y-134345475D01*
X120052000Y-134642525D01*
X120109951Y-134933868D01*
X120223627Y-135208306D01*
X120388660Y-135455294D01*
X120598706Y-135665340D01*
X120746360Y-135764000D01*
X120598706Y-135862660D01*
X120388660Y-136072706D01*
X120223627Y-136319694D01*
X120109951Y-136594132D01*
X120052000Y-136885475D01*
X120052000Y-137182525D01*
X120109951Y-137473868D01*
X120223627Y-137748306D01*
X120388660Y-137995294D01*
X120494983Y-138101617D01*
X120456976Y-138113147D01*
X120342666Y-138174246D01*
X120242473Y-138256473D01*
X120160246Y-138356666D01*
X120099147Y-138470976D01*
X120061521Y-138595010D01*
X120048817Y-138724000D01*
X120048817Y-140424000D01*
X120061521Y-140552990D01*
X120099147Y-140677024D01*
X120160246Y-140791334D01*
X120242473Y-140891527D01*
X120342666Y-140973754D01*
X120456976Y-141034853D01*
X120581010Y-141072479D01*
X120710000Y-141085183D01*
X122410000Y-141085183D01*
X122538990Y-141072479D01*
X122663024Y-141034853D01*
X122777334Y-140973754D01*
X122877527Y-140891527D01*
X122959754Y-140791334D01*
X123020853Y-140677024D01*
X123058479Y-140552990D01*
X123071183Y-140424000D01*
X123071183Y-138724000D01*
X123058479Y-138595010D01*
X123020853Y-138470976D01*
X122959754Y-138356666D01*
X122877527Y-138256473D01*
X122777334Y-138174246D01*
X122663024Y-138113147D01*
X122625017Y-138101617D01*
X122731340Y-137995294D01*
X122896373Y-137748306D01*
X123010049Y-137473868D01*
X123068000Y-137182525D01*
X123068000Y-136885475D01*
X123010049Y-136594132D01*
X122896373Y-136319694D01*
X122731340Y-136072706D01*
X122521294Y-135862660D01*
X122373640Y-135764000D01*
X122521294Y-135665340D01*
X122731340Y-135455294D01*
X122833768Y-135302000D01*
X124800320Y-135302000D01*
X124840000Y-135305908D01*
X124879680Y-135302000D01*
X124879688Y-135302000D01*
X124998396Y-135290308D01*
X125150704Y-135244106D01*
X125291072Y-135169078D01*
X125414106Y-135068106D01*
X125439411Y-135037272D01*
X129575279Y-130901405D01*
X129606106Y-130876106D01*
X129707078Y-130753072D01*
X129782106Y-130612704D01*
X129818329Y-130493292D01*
X129828308Y-130460397D01*
X129836690Y-130375294D01*
X129840000Y-130341688D01*
X129840000Y-130341681D01*
X129843908Y-130302001D01*
X129840000Y-130262321D01*
X129840000Y-113704000D01*
X140220817Y-113704000D01*
X140220817Y-115404000D01*
X140233521Y-115532990D01*
X140271147Y-115657024D01*
X140332246Y-115771334D01*
X140414473Y-115871527D01*
X140514666Y-115953754D01*
X140628976Y-116014853D01*
X140753010Y-116052479D01*
X140882000Y-116065183D01*
X142582000Y-116065183D01*
X142710990Y-116052479D01*
X142835024Y-116014853D01*
X142949334Y-115953754D01*
X143049527Y-115871527D01*
X143131754Y-115771334D01*
X143192853Y-115657024D01*
X143230479Y-115532990D01*
X143243183Y-115404000D01*
X143243183Y-113704000D01*
X143230479Y-113575010D01*
X143192853Y-113450976D01*
X143131754Y-113336666D01*
X143049527Y-113236473D01*
X142949334Y-113154246D01*
X142835024Y-113093147D01*
X142797017Y-113081617D01*
X142903340Y-112975294D01*
X143068373Y-112728306D01*
X143182049Y-112453868D01*
X143240000Y-112162525D01*
X143240000Y-111865475D01*
X143182049Y-111574132D01*
X143068373Y-111299694D01*
X142903340Y-111052706D01*
X142693294Y-110842660D01*
X142540332Y-110740454D01*
X142606728Y-110702383D01*
X142829566Y-110508129D01*
X143010225Y-110274134D01*
X143141763Y-110009390D01*
X143201619Y-109812061D01*
X143071469Y-109578000D01*
X141836000Y-109578000D01*
X141836000Y-109598000D01*
X141628000Y-109598000D01*
X141628000Y-109578000D01*
X140392531Y-109578000D01*
X140262381Y-109812061D01*
X140322237Y-110009390D01*
X140453775Y-110274134D01*
X140634434Y-110508129D01*
X140857272Y-110702383D01*
X140923668Y-110740454D01*
X140770706Y-110842660D01*
X140560660Y-111052706D01*
X140395627Y-111299694D01*
X140281951Y-111574132D01*
X140224000Y-111865475D01*
X140224000Y-112162525D01*
X140281951Y-112453868D01*
X140395627Y-112728306D01*
X140560660Y-112975294D01*
X140666983Y-113081617D01*
X140628976Y-113093147D01*
X140514666Y-113154246D01*
X140414473Y-113236473D01*
X140332246Y-113336666D01*
X140271147Y-113450976D01*
X140233521Y-113575010D01*
X140220817Y-113704000D01*
X129840000Y-113704000D01*
X129840000Y-109808683D01*
X131906684Y-107742000D01*
X140458232Y-107742000D01*
X140560660Y-107895294D01*
X140770706Y-108105340D01*
X140923668Y-108207546D01*
X140857272Y-108245617D01*
X140634434Y-108439871D01*
X140453775Y-108673866D01*
X140322237Y-108938610D01*
X140262381Y-109135939D01*
X140392531Y-109370000D01*
X141628000Y-109370000D01*
X141628000Y-109350000D01*
X141836000Y-109350000D01*
X141836000Y-109370000D01*
X143071469Y-109370000D01*
X143201619Y-109135939D01*
X143141763Y-108938610D01*
X143010225Y-108673866D01*
X142829566Y-108439871D01*
X142606728Y-108245617D01*
X142540332Y-108207546D01*
X142693294Y-108105340D01*
X142903340Y-107895294D01*
X143068373Y-107648306D01*
X143182049Y-107373868D01*
X143240000Y-107082525D01*
X143240000Y-106785475D01*
X143182049Y-106494132D01*
X143068373Y-106219694D01*
X142903340Y-105972706D01*
X142693294Y-105762660D01*
X142545640Y-105664000D01*
X142693294Y-105565340D01*
X142903340Y-105355294D01*
X143068373Y-105108306D01*
X143182049Y-104833868D01*
X143240000Y-104542525D01*
X143240000Y-104245475D01*
X143182049Y-103954132D01*
X143068373Y-103679694D01*
X142903340Y-103432706D01*
X142693294Y-103222660D01*
X142545640Y-103124000D01*
X142693294Y-103025340D01*
X142903340Y-102815294D01*
X142971942Y-102712625D01*
X143464000Y-103204684D01*
X143464001Y-116505315D01*
X141397317Y-118572000D01*
X137199680Y-118572000D01*
X137160000Y-118568092D01*
X137120320Y-118572000D01*
X137120312Y-118572000D01*
X137001604Y-118583692D01*
X136849296Y-118629894D01*
X136708928Y-118704922D01*
X136657218Y-118747359D01*
X136616721Y-118780594D01*
X136616717Y-118780598D01*
X136585894Y-118805894D01*
X136560598Y-118836717D01*
X133822728Y-121574589D01*
X133791894Y-121599894D01*
X133690922Y-121722929D01*
X133615894Y-121863297D01*
X133591861Y-121942525D01*
X133581425Y-121976928D01*
X133569692Y-122015605D01*
X133558000Y-122134313D01*
X133558000Y-122134320D01*
X133554092Y-122174000D01*
X133558000Y-122213680D01*
X133558001Y-127722310D01*
X133554092Y-127762000D01*
X133569692Y-127920396D01*
X133602302Y-128027894D01*
X133615895Y-128072704D01*
X133690923Y-128213072D01*
X133791895Y-128336106D01*
X133822723Y-128361406D01*
X134782594Y-129321277D01*
X134807894Y-129352106D01*
X134930928Y-129453078D01*
X135071296Y-129528106D01*
X135177401Y-129560293D01*
X135223603Y-129574308D01*
X135237536Y-129575680D01*
X135342312Y-129586000D01*
X135342320Y-129586000D01*
X135382000Y-129589908D01*
X135421680Y-129586000D01*
X136738232Y-129586000D01*
X136840660Y-129739294D01*
X137050706Y-129949340D01*
X137198360Y-130048000D01*
X137050706Y-130146660D01*
X136840660Y-130356706D01*
X136675627Y-130603694D01*
X136561951Y-130878132D01*
X136504000Y-131169475D01*
X136504000Y-131466525D01*
X136561951Y-131757868D01*
X136675627Y-132032306D01*
X136840660Y-132279294D01*
X137050706Y-132489340D01*
X137198360Y-132588000D01*
X137050706Y-132686660D01*
X137037366Y-132700000D01*
X136866806Y-132700000D01*
X136809919Y-132694397D01*
X136753032Y-132700000D01*
X136753030Y-132700000D01*
X136582911Y-132716755D01*
X136364627Y-132782971D01*
X136163455Y-132890499D01*
X136133243Y-132915294D01*
X135987127Y-133035208D01*
X135950858Y-133079402D01*
X134095397Y-134934863D01*
X134051209Y-134971127D01*
X134014945Y-135015315D01*
X134014944Y-135015316D01*
X133906500Y-135147456D01*
X133798971Y-135348628D01*
X133732756Y-135566911D01*
X133710397Y-135793919D01*
X133716001Y-135850815D01*
X133716000Y-140998341D01*
X130838341Y-143876000D01*
X70583660Y-143876000D01*
X68214000Y-141506341D01*
X68214000Y-138626000D01*
X69324817Y-138626000D01*
X69324817Y-141674000D01*
X69337521Y-141802990D01*
X69375147Y-141927024D01*
X69436246Y-142041334D01*
X69518473Y-142141527D01*
X69618666Y-142223754D01*
X69732976Y-142284853D01*
X69857010Y-142322479D01*
X69986000Y-142335183D01*
X73034000Y-142335183D01*
X73162990Y-142322479D01*
X73287024Y-142284853D01*
X73401334Y-142223754D01*
X73501527Y-142141527D01*
X73583754Y-142041334D01*
X73644853Y-141927024D01*
X73682479Y-141802990D01*
X73695183Y-141674000D01*
X73695183Y-138626000D01*
X73682479Y-138497010D01*
X73644853Y-138372976D01*
X73583754Y-138258666D01*
X73501527Y-138158473D01*
X73401334Y-138076246D01*
X73287024Y-138015147D01*
X73162990Y-137977521D01*
X73034000Y-137964817D01*
X72668000Y-137964817D01*
X72668000Y-136233659D01*
X77994599Y-130907060D01*
X78038792Y-130870792D01*
X78183501Y-130694463D01*
X78291029Y-130493292D01*
X78357245Y-130275008D01*
X78374000Y-130104889D01*
X78374000Y-130104888D01*
X78379603Y-130048000D01*
X78374000Y-129991111D01*
X78374000Y-90141659D01*
X90649659Y-77866000D01*
X111026341Y-77866000D01*
X114935000Y-81774659D01*
X114935001Y-84986737D01*
X114823000Y-85154358D01*
X114711000Y-84986738D01*
X114711000Y-84145887D01*
X114716603Y-84089000D01*
X114710174Y-84023722D01*
X114694245Y-83861992D01*
X114628029Y-83643708D01*
X114520502Y-83442538D01*
X114520501Y-83442536D01*
X114467458Y-83377904D01*
X114375792Y-83266208D01*
X114331599Y-83229940D01*
X111603061Y-80501402D01*
X111566792Y-80457208D01*
X111390463Y-80312499D01*
X111189292Y-80204971D01*
X110971008Y-80138755D01*
X110800889Y-80122000D01*
X110800887Y-80122000D01*
X110744000Y-80116397D01*
X110687113Y-80122000D01*
X95052889Y-80122000D01*
X94996000Y-80116397D01*
X94768991Y-80138755D01*
X94550708Y-80204971D01*
X94349536Y-80312499D01*
X94331259Y-80327499D01*
X94173208Y-80457208D01*
X94136939Y-80501402D01*
X84057397Y-90580944D01*
X84013209Y-90617208D01*
X83976945Y-90661396D01*
X83976944Y-90661397D01*
X83868500Y-90793537D01*
X83760971Y-90994709D01*
X83694756Y-91212992D01*
X83672397Y-91440000D01*
X83678001Y-91496897D01*
X83678000Y-130499113D01*
X83672397Y-130556000D01*
X83678000Y-130612887D01*
X83678000Y-130612888D01*
X83694755Y-130783007D01*
X83760971Y-131001291D01*
X83868499Y-131202462D01*
X84013208Y-131378792D01*
X84057402Y-131415061D01*
X87352001Y-134709660D01*
X87352000Y-137964817D01*
X86986000Y-137964817D01*
X86857010Y-137977521D01*
X86732976Y-138015147D01*
X86618666Y-138076246D01*
X86518473Y-138158473D01*
X86436246Y-138258666D01*
X86375147Y-138372976D01*
X86337521Y-138497010D01*
X86324817Y-138626000D01*
X86324817Y-141674000D01*
X86337521Y-141802990D01*
X86375147Y-141927024D01*
X86436246Y-142041334D01*
X86518473Y-142141527D01*
X86618666Y-142223754D01*
X86732976Y-142284853D01*
X86857010Y-142322479D01*
X86986000Y-142335183D01*
X90034000Y-142335183D01*
X90162990Y-142322479D01*
X90287024Y-142284853D01*
X90401334Y-142223754D01*
X90501527Y-142141527D01*
X90583754Y-142041334D01*
X90644853Y-141927024D01*
X90682479Y-141802990D01*
X90695183Y-141674000D01*
X90695183Y-138626000D01*
X90682479Y-138497010D01*
X90644853Y-138372976D01*
X90583754Y-138258666D01*
X90501527Y-138158473D01*
X90401334Y-138076246D01*
X90287024Y-138015147D01*
X90162990Y-137977521D01*
X90034000Y-137964817D01*
X89668000Y-137964817D01*
X89668000Y-134286889D01*
X89673603Y-134230000D01*
X89651245Y-134002992D01*
X89585029Y-133784708D01*
X89477501Y-133583537D01*
X89377758Y-133462000D01*
X89332792Y-133407208D01*
X89288598Y-133370939D01*
X85994000Y-130076341D01*
X85994000Y-102674000D01*
X86324816Y-102674000D01*
X86337520Y-102802991D01*
X86375146Y-102927024D01*
X86436246Y-103041334D01*
X86518472Y-103141528D01*
X86618666Y-103223754D01*
X86732976Y-103284854D01*
X86857009Y-103322480D01*
X86986000Y-103335184D01*
X88241500Y-103332000D01*
X88406000Y-103167500D01*
X88406000Y-101254000D01*
X88614000Y-101254000D01*
X88614000Y-103167500D01*
X88778500Y-103332000D01*
X90034000Y-103335184D01*
X90162991Y-103322480D01*
X90287024Y-103284854D01*
X90401334Y-103223754D01*
X90474145Y-103164000D01*
X96488817Y-103164000D01*
X96488817Y-104864000D01*
X96501521Y-104992990D01*
X96539147Y-105117024D01*
X96600246Y-105231334D01*
X96682473Y-105331527D01*
X96782666Y-105413754D01*
X96896976Y-105474853D01*
X96934983Y-105486383D01*
X96828660Y-105592706D01*
X96663627Y-105839694D01*
X96549951Y-106114132D01*
X96492000Y-106405475D01*
X96492000Y-106702525D01*
X96549951Y-106993868D01*
X96663627Y-107268306D01*
X96828660Y-107515294D01*
X97038706Y-107725340D01*
X97186360Y-107824000D01*
X97038706Y-107922660D01*
X96828660Y-108132706D01*
X96663627Y-108379694D01*
X96549951Y-108654132D01*
X96492000Y-108945475D01*
X96492000Y-109242525D01*
X96549951Y-109533868D01*
X96663627Y-109808306D01*
X96828660Y-110055294D01*
X97038706Y-110265340D01*
X97186360Y-110364000D01*
X97038706Y-110462660D01*
X96828660Y-110672706D01*
X96663627Y-110919694D01*
X96549951Y-111194132D01*
X96492000Y-111485475D01*
X96492000Y-111782525D01*
X96549951Y-112073868D01*
X96663627Y-112348306D01*
X96828660Y-112595294D01*
X97038706Y-112805340D01*
X97186360Y-112904000D01*
X97038706Y-113002660D01*
X96828660Y-113212706D01*
X96663627Y-113459694D01*
X96549951Y-113734132D01*
X96492000Y-114025475D01*
X96492000Y-114322525D01*
X96549951Y-114613868D01*
X96663627Y-114888306D01*
X96828660Y-115135294D01*
X97038706Y-115345340D01*
X97186360Y-115444000D01*
X97038706Y-115542660D01*
X96828660Y-115752706D01*
X96663627Y-115999694D01*
X96549951Y-116274132D01*
X96492000Y-116565475D01*
X96492000Y-116862525D01*
X96549951Y-117153868D01*
X96663627Y-117428306D01*
X96828660Y-117675294D01*
X97038706Y-117885340D01*
X97186360Y-117984000D01*
X97038706Y-118082660D01*
X96828660Y-118292706D01*
X96663627Y-118539694D01*
X96549951Y-118814132D01*
X96492000Y-119105475D01*
X96492000Y-119402525D01*
X96549951Y-119693868D01*
X96663627Y-119968306D01*
X96828660Y-120215294D01*
X97038706Y-120425340D01*
X97186360Y-120524000D01*
X97038706Y-120622660D01*
X96828660Y-120832706D01*
X96663627Y-121079694D01*
X96549951Y-121354132D01*
X96492000Y-121645475D01*
X96492000Y-121942525D01*
X96549951Y-122233868D01*
X96663627Y-122508306D01*
X96828660Y-122755294D01*
X97038706Y-122965340D01*
X97186360Y-123064000D01*
X97038706Y-123162660D01*
X96828660Y-123372706D01*
X96663627Y-123619694D01*
X96549951Y-123894132D01*
X96492000Y-124185475D01*
X96492000Y-124482525D01*
X96549951Y-124773868D01*
X96663627Y-125048306D01*
X96828660Y-125295294D01*
X97038706Y-125505340D01*
X97186360Y-125604000D01*
X97038706Y-125702660D01*
X96828660Y-125912706D01*
X96663627Y-126159694D01*
X96549951Y-126434132D01*
X96492000Y-126725475D01*
X96492000Y-127022525D01*
X96549951Y-127313868D01*
X96663627Y-127588306D01*
X96828660Y-127835294D01*
X97038706Y-128045340D01*
X97186360Y-128144000D01*
X97038706Y-128242660D01*
X96828660Y-128452706D01*
X96663627Y-128699694D01*
X96549951Y-128974132D01*
X96492000Y-129265475D01*
X96492000Y-129562525D01*
X96549951Y-129853868D01*
X96663627Y-130128306D01*
X96828660Y-130375294D01*
X97038706Y-130585340D01*
X97186360Y-130684000D01*
X97038706Y-130782660D01*
X96828660Y-130992706D01*
X96663627Y-131239694D01*
X96549951Y-131514132D01*
X96492000Y-131805475D01*
X96492000Y-132102525D01*
X96549951Y-132393868D01*
X96663627Y-132668306D01*
X96828660Y-132915294D01*
X97038706Y-133125340D01*
X97186360Y-133224000D01*
X97038706Y-133322660D01*
X96828660Y-133532706D01*
X96663627Y-133779694D01*
X96549951Y-134054132D01*
X96492000Y-134345475D01*
X96492000Y-134642525D01*
X96549951Y-134933868D01*
X96663627Y-135208306D01*
X96828660Y-135455294D01*
X97038706Y-135665340D01*
X97191668Y-135767546D01*
X97125272Y-135805617D01*
X96902434Y-135999871D01*
X96721775Y-136233866D01*
X96590237Y-136498610D01*
X96530381Y-136695939D01*
X96660531Y-136930000D01*
X97896000Y-136930000D01*
X97896000Y-136910000D01*
X98104000Y-136910000D01*
X98104000Y-136930000D01*
X99339469Y-136930000D01*
X99469619Y-136695939D01*
X99409763Y-136498610D01*
X99278225Y-136233866D01*
X99097566Y-135999871D01*
X98874728Y-135805617D01*
X98808332Y-135767546D01*
X98961294Y-135665340D01*
X99171340Y-135455294D01*
X99336373Y-135208306D01*
X99450049Y-134933868D01*
X99508000Y-134642525D01*
X99508000Y-134345475D01*
X99450049Y-134054132D01*
X99336373Y-133779694D01*
X99171340Y-133532706D01*
X98961294Y-133322660D01*
X98813640Y-133224000D01*
X98961294Y-133125340D01*
X99171340Y-132915294D01*
X99336373Y-132668306D01*
X99450049Y-132393868D01*
X99508000Y-132102525D01*
X99508000Y-131805475D01*
X99450049Y-131514132D01*
X99336373Y-131239694D01*
X99171340Y-130992706D01*
X98961294Y-130782660D01*
X98813640Y-130684000D01*
X98961294Y-130585340D01*
X99171340Y-130375294D01*
X99336373Y-130128306D01*
X99450049Y-129853868D01*
X99508000Y-129562525D01*
X99508000Y-129265475D01*
X99450049Y-128974132D01*
X99336373Y-128699694D01*
X99171340Y-128452706D01*
X98961294Y-128242660D01*
X98813640Y-128144000D01*
X98961294Y-128045340D01*
X99171340Y-127835294D01*
X99336373Y-127588306D01*
X99450049Y-127313868D01*
X99508000Y-127022525D01*
X99508000Y-126725475D01*
X99450049Y-126434132D01*
X99336373Y-126159694D01*
X99171340Y-125912706D01*
X98961294Y-125702660D01*
X98813640Y-125604000D01*
X98961294Y-125505340D01*
X99171340Y-125295294D01*
X99336373Y-125048306D01*
X99450049Y-124773868D01*
X99508000Y-124482525D01*
X99508000Y-124185475D01*
X99450049Y-123894132D01*
X99336373Y-123619694D01*
X99171340Y-123372706D01*
X98961294Y-123162660D01*
X98813640Y-123064000D01*
X98961294Y-122965340D01*
X99171340Y-122755294D01*
X99336373Y-122508306D01*
X99450049Y-122233868D01*
X99508000Y-121942525D01*
X99508000Y-121645475D01*
X99450049Y-121354132D01*
X99336373Y-121079694D01*
X99171340Y-120832706D01*
X98961294Y-120622660D01*
X98813640Y-120524000D01*
X98961294Y-120425340D01*
X99171340Y-120215294D01*
X99336373Y-119968306D01*
X99450049Y-119693868D01*
X99508000Y-119402525D01*
X99508000Y-119105475D01*
X99450049Y-118814132D01*
X99336373Y-118539694D01*
X99171340Y-118292706D01*
X98961294Y-118082660D01*
X98813640Y-117984000D01*
X98961294Y-117885340D01*
X99171340Y-117675294D01*
X99336373Y-117428306D01*
X99450049Y-117153868D01*
X99508000Y-116862525D01*
X99508000Y-116565475D01*
X99450049Y-116274132D01*
X99336373Y-115999694D01*
X99171340Y-115752706D01*
X98961294Y-115542660D01*
X98813640Y-115444000D01*
X98961294Y-115345340D01*
X99171340Y-115135294D01*
X99336373Y-114888306D01*
X99450049Y-114613868D01*
X99508000Y-114322525D01*
X99508000Y-114025475D01*
X99450049Y-113734132D01*
X99336373Y-113459694D01*
X99171340Y-113212706D01*
X98961294Y-113002660D01*
X98813640Y-112904000D01*
X98961294Y-112805340D01*
X99171340Y-112595294D01*
X99336373Y-112348306D01*
X99450049Y-112073868D01*
X99508000Y-111782525D01*
X99508000Y-111485475D01*
X99450049Y-111194132D01*
X99336373Y-110919694D01*
X99171340Y-110672706D01*
X98961294Y-110462660D01*
X98813640Y-110364000D01*
X98961294Y-110265340D01*
X99171340Y-110055294D01*
X99336373Y-109808306D01*
X99450049Y-109533868D01*
X99508000Y-109242525D01*
X99508000Y-108945475D01*
X99450049Y-108654132D01*
X99336373Y-108379694D01*
X99171340Y-108132706D01*
X98961294Y-107922660D01*
X98813640Y-107824000D01*
X98961294Y-107725340D01*
X99171340Y-107515294D01*
X99336373Y-107268306D01*
X99450049Y-106993868D01*
X99508000Y-106702525D01*
X99508000Y-106405475D01*
X99450049Y-106114132D01*
X99336373Y-105839694D01*
X99171340Y-105592706D01*
X99065017Y-105486383D01*
X99103024Y-105474853D01*
X99217334Y-105413754D01*
X99317527Y-105331527D01*
X99399754Y-105231334D01*
X99460853Y-105117024D01*
X99498479Y-104992990D01*
X99511183Y-104864000D01*
X99511183Y-103164000D01*
X99498479Y-103035010D01*
X99460853Y-102910976D01*
X99399754Y-102796666D01*
X99317527Y-102696473D01*
X99217334Y-102614246D01*
X99103024Y-102553147D01*
X98978990Y-102515521D01*
X98850000Y-102502817D01*
X97150000Y-102502817D01*
X97021010Y-102515521D01*
X96896976Y-102553147D01*
X96782666Y-102614246D01*
X96682473Y-102696473D01*
X96600246Y-102796666D01*
X96539147Y-102910976D01*
X96501521Y-103035010D01*
X96488817Y-103164000D01*
X90474145Y-103164000D01*
X90501528Y-103141528D01*
X90583754Y-103041334D01*
X90644854Y-102927024D01*
X90682480Y-102802991D01*
X90695184Y-102674000D01*
X90692000Y-101418500D01*
X90527500Y-101254000D01*
X88614000Y-101254000D01*
X88406000Y-101254000D01*
X86492500Y-101254000D01*
X86328000Y-101418500D01*
X86324816Y-102674000D01*
X85994000Y-102674000D01*
X85994000Y-99626000D01*
X86324816Y-99626000D01*
X86328000Y-100881500D01*
X86492500Y-101046000D01*
X88406000Y-101046000D01*
X88406000Y-99132500D01*
X88614000Y-99132500D01*
X88614000Y-101046000D01*
X90527500Y-101046000D01*
X90692000Y-100881500D01*
X90695184Y-99626000D01*
X90682480Y-99497009D01*
X90644854Y-99372976D01*
X90583754Y-99258666D01*
X90501528Y-99158472D01*
X90401334Y-99076246D01*
X90287024Y-99015146D01*
X90162991Y-98977520D01*
X90034000Y-98964816D01*
X88778500Y-98968000D01*
X88614000Y-99132500D01*
X88406000Y-99132500D01*
X88241500Y-98968000D01*
X86986000Y-98964816D01*
X86857009Y-98977520D01*
X86732976Y-99015146D01*
X86618666Y-99076246D01*
X86518472Y-99158472D01*
X86436246Y-99258666D01*
X86375146Y-99372976D01*
X86337520Y-99497009D01*
X86324816Y-99626000D01*
X85994000Y-99626000D01*
X85994000Y-91919659D01*
X95475659Y-82438000D01*
X110264341Y-82438000D01*
X112395000Y-84568659D01*
X112395000Y-84986738D01*
X112276373Y-85164276D01*
X112198646Y-85029460D01*
X112010322Y-84814456D01*
X111783672Y-84640324D01*
X111527405Y-84513755D01*
X111343220Y-84457888D01*
X111117000Y-84588688D01*
X111117000Y-85774000D01*
X111137000Y-85774000D01*
X111137000Y-85982000D01*
X111117000Y-85982000D01*
X111117000Y-87167312D01*
X111343220Y-87298112D01*
X111527405Y-87242245D01*
X111783672Y-87115676D01*
X112010322Y-86941544D01*
X112198646Y-86726540D01*
X112276373Y-86591724D01*
X112420497Y-86807421D01*
X112623579Y-87010503D01*
X112862378Y-87170063D01*
X113127717Y-87279970D01*
X113409399Y-87336000D01*
X113696601Y-87336000D01*
X113978283Y-87279970D01*
X114243622Y-87170063D01*
X114482421Y-87010503D01*
X114685503Y-86807421D01*
X114823000Y-86601642D01*
X114960497Y-86807421D01*
X115163579Y-87010503D01*
X115402378Y-87170063D01*
X115667717Y-87279970D01*
X115949399Y-87336000D01*
X116236601Y-87336000D01*
X116518283Y-87279970D01*
X116783622Y-87170063D01*
X117022421Y-87010503D01*
X117225503Y-86807421D01*
X117385063Y-86568622D01*
X117494970Y-86303283D01*
X117551000Y-86021601D01*
X117551000Y-85734399D01*
X117494970Y-85452717D01*
X117385063Y-85187378D01*
X117251000Y-84986738D01*
X117251000Y-81351889D01*
X117256603Y-81295000D01*
X117234245Y-81067992D01*
X117168029Y-80849708D01*
X117060501Y-80648537D01*
X116985943Y-80557688D01*
X116915792Y-80472208D01*
X116871599Y-80435940D01*
X112365061Y-75929402D01*
X112328792Y-75885208D01*
X112152463Y-75740499D01*
X111951292Y-75632971D01*
X111733008Y-75566755D01*
X111562889Y-75550000D01*
X111562887Y-75550000D01*
X111506000Y-75544397D01*
X111449113Y-75550000D01*
X90226886Y-75550000D01*
X90169999Y-75544397D01*
X90113112Y-75550000D01*
X90113111Y-75550000D01*
X89942992Y-75566755D01*
X89724708Y-75632971D01*
X89523537Y-75740499D01*
X89347208Y-75885208D01*
X89310939Y-75929402D01*
X76437397Y-88802944D01*
X76393209Y-88839208D01*
X76356945Y-88883396D01*
X76356944Y-88883397D01*
X76248500Y-89015537D01*
X76140971Y-89216709D01*
X76074756Y-89434992D01*
X76052397Y-89662000D01*
X76058001Y-89718897D01*
X76058000Y-129568341D01*
X70731397Y-134894944D01*
X70687209Y-134931208D01*
X70650945Y-134975396D01*
X70650944Y-134975397D01*
X70542500Y-135107537D01*
X70434971Y-135308709D01*
X70368756Y-135526992D01*
X70346397Y-135754000D01*
X70352001Y-135810896D01*
X70352000Y-137964817D01*
X69986000Y-137964817D01*
X69857010Y-137977521D01*
X69732976Y-138015147D01*
X69618666Y-138076246D01*
X69518473Y-138158473D01*
X69436246Y-138258666D01*
X69375147Y-138372976D01*
X69337521Y-138497010D01*
X69324817Y-138626000D01*
X68214000Y-138626000D01*
X68214000Y-103603659D01*
X69324817Y-102492842D01*
X69324817Y-102674000D01*
X69337521Y-102802990D01*
X69375147Y-102927024D01*
X69436246Y-103041334D01*
X69518473Y-103141527D01*
X69618666Y-103223754D01*
X69732976Y-103284853D01*
X69857010Y-103322479D01*
X69986000Y-103335183D01*
X73034000Y-103335183D01*
X73162990Y-103322479D01*
X73287024Y-103284853D01*
X73401334Y-103223754D01*
X73501527Y-103141527D01*
X73583754Y-103041334D01*
X73644853Y-102927024D01*
X73682479Y-102802990D01*
X73695183Y-102674000D01*
X73695183Y-99626000D01*
X73682479Y-99497010D01*
X73644853Y-99372976D01*
X73583754Y-99258666D01*
X73501527Y-99158473D01*
X73401334Y-99076246D01*
X73287024Y-99015147D01*
X73162990Y-98977521D01*
X73034000Y-98964817D01*
X69986000Y-98964817D01*
X69857010Y-98977521D01*
X69732976Y-99015147D01*
X69618666Y-99076246D01*
X69518473Y-99158473D01*
X69436246Y-99258666D01*
X69375147Y-99372976D01*
X69337521Y-99497010D01*
X69324817Y-99626000D01*
X69324817Y-99992000D01*
X69086889Y-99992000D01*
X69030000Y-99986397D01*
X68973111Y-99992000D01*
X68802992Y-100008755D01*
X68584708Y-100074971D01*
X68383537Y-100182499D01*
X68207208Y-100327208D01*
X68170939Y-100371402D01*
X66277402Y-102264939D01*
X66233208Y-102301208D01*
X66088499Y-102477538D01*
X65980971Y-102678709D01*
X65914755Y-102896993D01*
X65902114Y-103025340D01*
X65892397Y-103124000D01*
X59157000Y-103124000D01*
X59157000Y-42554399D01*
X87715000Y-42554399D01*
X87715000Y-42841601D01*
X87771030Y-43123283D01*
X87880937Y-43388622D01*
X88040497Y-43627421D01*
X88243579Y-43830503D01*
X88482378Y-43990063D01*
X88747717Y-44099970D01*
X89029399Y-44156000D01*
X89316601Y-44156000D01*
X89598283Y-44099970D01*
X89863622Y-43990063D01*
X90102421Y-43830503D01*
X90305503Y-43627421D01*
X90443000Y-43421642D01*
X90580497Y-43627421D01*
X90783579Y-43830503D01*
X91022378Y-43990063D01*
X91287717Y-44099970D01*
X91569399Y-44156000D01*
X91856601Y-44156000D01*
X92138283Y-44099970D01*
X92403622Y-43990063D01*
X92642421Y-43830503D01*
X92845503Y-43627421D01*
X92983000Y-43421642D01*
X93120497Y-43627421D01*
X93323579Y-43830503D01*
X93562378Y-43990063D01*
X93827717Y-44099970D01*
X94109399Y-44156000D01*
X94396601Y-44156000D01*
X94678283Y-44099970D01*
X94943622Y-43990063D01*
X95182421Y-43830503D01*
X95385503Y-43627421D01*
X95523000Y-43421642D01*
X95660497Y-43627421D01*
X95863579Y-43830503D01*
X96102378Y-43990063D01*
X96367717Y-44099970D01*
X96649399Y-44156000D01*
X96936601Y-44156000D01*
X97218283Y-44099970D01*
X97483622Y-43990063D01*
X97722421Y-43830503D01*
X97925503Y-43627421D01*
X98063000Y-43421642D01*
X98200497Y-43627421D01*
X98403579Y-43830503D01*
X98642378Y-43990063D01*
X98907717Y-44099970D01*
X99189399Y-44156000D01*
X99476601Y-44156000D01*
X99758283Y-44099970D01*
X100023622Y-43990063D01*
X100262421Y-43830503D01*
X100465503Y-43627421D01*
X100603000Y-43421642D01*
X100740497Y-43627421D01*
X100943579Y-43830503D01*
X101182378Y-43990063D01*
X101447717Y-44099970D01*
X101729399Y-44156000D01*
X102016601Y-44156000D01*
X102298283Y-44099970D01*
X102563622Y-43990063D01*
X102802421Y-43830503D01*
X103005503Y-43627421D01*
X103143000Y-43421642D01*
X103280497Y-43627421D01*
X103483579Y-43830503D01*
X103722378Y-43990063D01*
X103987717Y-44099970D01*
X104269399Y-44156000D01*
X104556601Y-44156000D01*
X104838283Y-44099970D01*
X105103622Y-43990063D01*
X105342421Y-43830503D01*
X105545503Y-43627421D01*
X105683000Y-43421642D01*
X105820497Y-43627421D01*
X106023579Y-43830503D01*
X106262378Y-43990063D01*
X106527717Y-44099970D01*
X106809399Y-44156000D01*
X107096601Y-44156000D01*
X107378283Y-44099970D01*
X107643622Y-43990063D01*
X107882421Y-43830503D01*
X108085503Y-43627421D01*
X108223000Y-43421642D01*
X108360497Y-43627421D01*
X108563579Y-43830503D01*
X108802378Y-43990063D01*
X109067717Y-44099970D01*
X109349399Y-44156000D01*
X109636601Y-44156000D01*
X109918283Y-44099970D01*
X110183622Y-43990063D01*
X110422421Y-43830503D01*
X110625503Y-43627421D01*
X110763000Y-43421642D01*
X110900497Y-43627421D01*
X111103579Y-43830503D01*
X111342378Y-43990063D01*
X111607717Y-44099970D01*
X111889399Y-44156000D01*
X112176601Y-44156000D01*
X112458283Y-44099970D01*
X112723622Y-43990063D01*
X112962421Y-43830503D01*
X113165503Y-43627421D01*
X113325063Y-43388622D01*
X113434970Y-43123283D01*
X113491000Y-42841601D01*
X113491000Y-42554399D01*
X113434970Y-42272717D01*
X113325063Y-42007378D01*
X113165503Y-41768579D01*
X112962421Y-41565497D01*
X112723622Y-41405937D01*
X112458283Y-41296030D01*
X112176601Y-41240000D01*
X111889399Y-41240000D01*
X111607717Y-41296030D01*
X111342378Y-41405937D01*
X111103579Y-41565497D01*
X110900497Y-41768579D01*
X110763000Y-41974358D01*
X110625503Y-41768579D01*
X110422421Y-41565497D01*
X110183622Y-41405937D01*
X109918283Y-41296030D01*
X109636601Y-41240000D01*
X109349399Y-41240000D01*
X109067717Y-41296030D01*
X108802378Y-41405937D01*
X108563579Y-41565497D01*
X108360497Y-41768579D01*
X108223000Y-41974358D01*
X108085503Y-41768579D01*
X107882421Y-41565497D01*
X107643622Y-41405937D01*
X107378283Y-41296030D01*
X107096601Y-41240000D01*
X106809399Y-41240000D01*
X106527717Y-41296030D01*
X106262378Y-41405937D01*
X106023579Y-41565497D01*
X105820497Y-41768579D01*
X105683000Y-41974358D01*
X105545503Y-41768579D01*
X105342421Y-41565497D01*
X105103622Y-41405937D01*
X104838283Y-41296030D01*
X104556601Y-41240000D01*
X104269399Y-41240000D01*
X103987717Y-41296030D01*
X103722378Y-41405937D01*
X103483579Y-41565497D01*
X103280497Y-41768579D01*
X103143000Y-41974358D01*
X103005503Y-41768579D01*
X102802421Y-41565497D01*
X102563622Y-41405937D01*
X102298283Y-41296030D01*
X102016601Y-41240000D01*
X101729399Y-41240000D01*
X101447717Y-41296030D01*
X101182378Y-41405937D01*
X100943579Y-41565497D01*
X100740497Y-41768579D01*
X100603000Y-41974358D01*
X100465503Y-41768579D01*
X100262421Y-41565497D01*
X100023622Y-41405937D01*
X99758283Y-41296030D01*
X99476601Y-41240000D01*
X99189399Y-41240000D01*
X98907717Y-41296030D01*
X98642378Y-41405937D01*
X98403579Y-41565497D01*
X98200497Y-41768579D01*
X98063000Y-41974358D01*
X97925503Y-41768579D01*
X97722421Y-41565497D01*
X97483622Y-41405937D01*
X97218283Y-41296030D01*
X96936601Y-41240000D01*
X96649399Y-41240000D01*
X96367717Y-41296030D01*
X96102378Y-41405937D01*
X95863579Y-41565497D01*
X95660497Y-41768579D01*
X95523000Y-41974358D01*
X95385503Y-41768579D01*
X95182421Y-41565497D01*
X94943622Y-41405937D01*
X94678283Y-41296030D01*
X94396601Y-41240000D01*
X94109399Y-41240000D01*
X93827717Y-41296030D01*
X93562378Y-41405937D01*
X93323579Y-41565497D01*
X93120497Y-41768579D01*
X92983000Y-41974358D01*
X92845503Y-41768579D01*
X92642421Y-41565497D01*
X92403622Y-41405937D01*
X92138283Y-41296030D01*
X91856601Y-41240000D01*
X91569399Y-41240000D01*
X91287717Y-41296030D01*
X91022378Y-41405937D01*
X90783579Y-41565497D01*
X90580497Y-41768579D01*
X90443000Y-41974358D01*
X90305503Y-41768579D01*
X90102421Y-41565497D01*
X89863622Y-41405937D01*
X89598283Y-41296030D01*
X89316601Y-41240000D01*
X89029399Y-41240000D01*
X88747717Y-41296030D01*
X88482378Y-41405937D01*
X88243579Y-41565497D01*
X88040497Y-41768579D01*
X87880937Y-42007378D01*
X87771030Y-42272717D01*
X87715000Y-42554399D01*
X59157000Y-42554399D01*
X59157000Y-37564867D01*
X59232323Y-37746713D01*
X59632646Y-38345839D01*
X60142161Y-38855354D01*
X60741287Y-39255677D01*
X61407001Y-39531425D01*
X62113718Y-39672000D01*
X62834282Y-39672000D01*
X63540999Y-39531425D01*
X64206713Y-39255677D01*
X64805839Y-38855354D01*
X65315354Y-38345839D01*
X65715677Y-37746713D01*
X65991425Y-37080999D01*
X66132000Y-36374282D01*
X66132000Y-35653718D01*
X65991425Y-34947001D01*
X65715677Y-34281287D01*
X65315354Y-33682161D01*
X64805839Y-33172646D01*
X64206713Y-32772323D01*
X64024867Y-32697000D01*
X210791000Y-32697000D01*
X210791000Y-35463133D01*
G37*
%TD.AperFunction*%
D16*
X143844817Y-59016000D02*
X143857521Y-59144990D01*
X143895147Y-59269024D01*
X143956246Y-59383334D01*
X144038473Y-59483527D01*
X144138666Y-59565754D01*
X144252976Y-59626853D01*
X144377010Y-59664479D01*
X144506000Y-59677183D01*
X146206000Y-59677183D01*
X146334990Y-59664479D01*
X146459024Y-59626853D01*
X146573334Y-59565754D01*
X146673527Y-59483527D01*
X146755754Y-59383334D01*
X146816853Y-59269024D01*
X146854479Y-59144990D01*
X146867183Y-59016000D01*
X146867183Y-58974000D01*
X148001317Y-58974000D01*
X148798000Y-59770684D01*
X148798001Y-88819315D01*
X148001317Y-89616000D01*
X147105183Y-89616000D01*
X147105183Y-89574000D01*
X147092479Y-89445010D01*
X147054853Y-89320976D01*
X146993754Y-89206666D01*
X146911527Y-89106473D01*
X146811334Y-89024246D01*
X146697024Y-88963147D01*
X146572990Y-88925521D01*
X146467547Y-88915136D01*
X146501127Y-88881557D01*
X146572990Y-88874479D01*
X146697024Y-88836853D01*
X146811334Y-88775754D01*
X146911527Y-88693527D01*
X146993754Y-88593334D01*
X147054853Y-88479024D01*
X147092479Y-88354990D01*
X147099557Y-88283127D01*
X147463405Y-87919279D01*
X147539077Y-87827073D01*
X147614105Y-87686705D01*
X147660308Y-87534397D01*
X147675908Y-87376001D01*
X147660308Y-87217604D01*
X147614105Y-87065297D01*
X147539077Y-86924929D01*
X147438106Y-86801894D01*
X147315071Y-86700923D01*
X147174703Y-86625895D01*
X147105183Y-86604806D01*
X147105183Y-86526000D01*
X147092479Y-86397010D01*
X147054853Y-86272976D01*
X146993754Y-86158666D01*
X146911527Y-86058473D01*
X146811334Y-85976246D01*
X146697024Y-85915147D01*
X146572990Y-85877521D01*
X146444000Y-85864817D01*
X144744000Y-85864817D01*
X144615010Y-85877521D01*
X144490976Y-85915147D01*
X144376666Y-85976246D01*
X144276473Y-86058473D01*
X144194246Y-86158666D01*
X144133147Y-86272976D01*
X144095521Y-86397010D01*
X144082817Y-86526000D01*
X144082817Y-87838000D01*
X125556684Y-87838000D01*
X124685804Y-86967120D01*
X124845503Y-86807421D01*
X124983000Y-86601642D01*
X125120497Y-86807421D01*
X125323579Y-87010503D01*
X125562378Y-87170063D01*
X125827717Y-87279970D01*
X126109399Y-87336000D01*
X126396601Y-87336000D01*
X126678283Y-87279970D01*
X126943622Y-87170063D01*
X127182421Y-87010503D01*
X127385503Y-86807421D01*
X127523000Y-86601642D01*
X127660497Y-86807421D01*
X127863579Y-87010503D01*
X128102378Y-87170063D01*
X128367717Y-87279970D01*
X128649399Y-87336000D01*
X128936601Y-87336000D01*
X129218283Y-87279970D01*
X129483622Y-87170063D01*
X129722421Y-87010503D01*
X129925503Y-86807421D01*
X130063000Y-86601642D01*
X130200497Y-86807421D01*
X130403579Y-87010503D01*
X130642378Y-87170063D01*
X130907717Y-87279970D01*
X131189399Y-87336000D01*
X131476601Y-87336000D01*
X131758283Y-87279970D01*
X132023622Y-87170063D01*
X132262421Y-87010503D01*
X132465503Y-86807421D01*
X132603000Y-86601642D01*
X132740497Y-86807421D01*
X132943579Y-87010503D01*
X133182378Y-87170063D01*
X133447717Y-87279970D01*
X133729399Y-87336000D01*
X134016601Y-87336000D01*
X134298283Y-87279970D01*
X134563622Y-87170063D01*
X134802421Y-87010503D01*
X135005503Y-86807421D01*
X135165063Y-86568622D01*
X135274970Y-86303283D01*
X135331000Y-86021601D01*
X135331000Y-85734399D01*
X135274970Y-85452717D01*
X135165063Y-85187378D01*
X135005503Y-84948579D01*
X134802421Y-84745497D01*
X134563622Y-84585937D01*
X134298283Y-84476030D01*
X134016601Y-84420000D01*
X133729399Y-84420000D01*
X133447717Y-84476030D01*
X133182378Y-84585937D01*
X132943579Y-84745497D01*
X132740497Y-84948579D01*
X132603000Y-85154358D01*
X132465503Y-84948579D01*
X132262421Y-84745497D01*
X132023622Y-84585937D01*
X131758283Y-84476030D01*
X131476601Y-84420000D01*
X131189399Y-84420000D01*
X130907717Y-84476030D01*
X130642378Y-84585937D01*
X130403579Y-84745497D01*
X130200497Y-84948579D01*
X130063000Y-85154358D01*
X129925503Y-84948579D01*
X129722421Y-84745497D01*
X129483622Y-84585937D01*
X129218283Y-84476030D01*
X128936601Y-84420000D01*
X128649399Y-84420000D01*
X128367717Y-84476030D01*
X128102378Y-84585937D01*
X127863579Y-84745497D01*
X127660497Y-84948579D01*
X127523000Y-85154358D01*
X127385503Y-84948579D01*
X127182421Y-84745497D01*
X126943622Y-84585937D01*
X126678283Y-84476030D01*
X126396601Y-84420000D01*
X126109399Y-84420000D01*
X125827717Y-84476030D01*
X125562378Y-84585937D01*
X125323579Y-84745497D01*
X125120497Y-84948579D01*
X124983000Y-85154358D01*
X124845503Y-84948579D01*
X124642421Y-84745497D01*
X124403622Y-84585937D01*
X124138283Y-84476030D01*
X123856601Y-84420000D01*
X123569399Y-84420000D01*
X123287717Y-84476030D01*
X123022378Y-84585937D01*
X122783579Y-84745497D01*
X122580497Y-84948579D01*
X122443000Y-85154358D01*
X122305503Y-84948579D01*
X122119804Y-84762880D01*
X123270685Y-83612000D01*
X140676320Y-83612000D01*
X140716000Y-83615908D01*
X140755680Y-83612000D01*
X140755688Y-83612000D01*
X140874396Y-83600308D01*
X141026704Y-83554106D01*
X141167072Y-83479078D01*
X141290106Y-83378106D01*
X141315411Y-83347272D01*
X143545279Y-81117405D01*
X143576106Y-81092106D01*
X143677078Y-80969072D01*
X143752106Y-80828704D01*
X143798308Y-80676396D01*
X143810000Y-80557688D01*
X143810000Y-80557681D01*
X143813908Y-80518001D01*
X143810000Y-80478321D01*
X143810000Y-62064000D01*
X143844816Y-62064000D01*
X143857520Y-62192991D01*
X143895146Y-62317024D01*
X143956246Y-62431334D01*
X144038472Y-62531528D01*
X144138666Y-62613754D01*
X144252976Y-62674854D01*
X144377009Y-62712480D01*
X144506000Y-62725184D01*
X145087500Y-62722000D01*
X145252000Y-62557500D01*
X145252000Y-61318000D01*
X145460000Y-61318000D01*
X145460000Y-62557500D01*
X145624500Y-62722000D01*
X146206000Y-62725184D01*
X146334991Y-62712480D01*
X146459024Y-62674854D01*
X146573334Y-62613754D01*
X146673528Y-62531528D01*
X146755754Y-62431334D01*
X146816854Y-62317024D01*
X146854480Y-62192991D01*
X146867184Y-62064000D01*
X146864000Y-61482500D01*
X146699500Y-61318000D01*
X145460000Y-61318000D01*
X145252000Y-61318000D01*
X144012500Y-61318000D01*
X143848000Y-61482500D01*
X143844816Y-62064000D01*
X143810000Y-62064000D01*
X143810000Y-60364000D01*
X143844816Y-60364000D01*
X143848000Y-60945500D01*
X144012500Y-61110000D01*
X145252000Y-61110000D01*
X145252000Y-59870500D01*
X145460000Y-59870500D01*
X145460000Y-61110000D01*
X146699500Y-61110000D01*
X146864000Y-60945500D01*
X146867184Y-60364000D01*
X146854480Y-60235009D01*
X146816854Y-60110976D01*
X146755754Y-59996666D01*
X146673528Y-59896472D01*
X146573334Y-59814246D01*
X146459024Y-59753146D01*
X146334991Y-59715520D01*
X146206000Y-59702816D01*
X145624500Y-59706000D01*
X145460000Y-59870500D01*
X145252000Y-59870500D01*
X145087500Y-59706000D01*
X144506000Y-59702816D01*
X144377009Y-59715520D01*
X144252976Y-59753146D01*
X144138666Y-59814246D01*
X144038472Y-59896472D01*
X143956246Y-59996666D01*
X143895146Y-60110976D01*
X143857520Y-60235009D01*
X143844816Y-60364000D01*
X143810000Y-60364000D01*
X143810000Y-57992683D01*
X143844817Y-57957866D01*
X143844817Y-59016000D01*
%TA.AperFunction,Conductor*%
D18*
G36*
X143844817Y-59016000D02*
G01*
X143857521Y-59144990D01*
X143895147Y-59269024D01*
X143956246Y-59383334D01*
X144038473Y-59483527D01*
X144138666Y-59565754D01*
X144252976Y-59626853D01*
X144377010Y-59664479D01*
X144506000Y-59677183D01*
X146206000Y-59677183D01*
X146334990Y-59664479D01*
X146459024Y-59626853D01*
X146573334Y-59565754D01*
X146673527Y-59483527D01*
X146755754Y-59383334D01*
X146816853Y-59269024D01*
X146854479Y-59144990D01*
X146867183Y-59016000D01*
X146867183Y-58974000D01*
X148001317Y-58974000D01*
X148798000Y-59770684D01*
X148798001Y-88819315D01*
X148001317Y-89616000D01*
X147105183Y-89616000D01*
X147105183Y-89574000D01*
X147092479Y-89445010D01*
X147054853Y-89320976D01*
X146993754Y-89206666D01*
X146911527Y-89106473D01*
X146811334Y-89024246D01*
X146697024Y-88963147D01*
X146572990Y-88925521D01*
X146467547Y-88915136D01*
X146501127Y-88881557D01*
X146572990Y-88874479D01*
X146697024Y-88836853D01*
X146811334Y-88775754D01*
X146911527Y-88693527D01*
X146993754Y-88593334D01*
X147054853Y-88479024D01*
X147092479Y-88354990D01*
X147099557Y-88283127D01*
X147463405Y-87919279D01*
X147539077Y-87827073D01*
X147614105Y-87686705D01*
X147660308Y-87534397D01*
X147675908Y-87376001D01*
X147660308Y-87217604D01*
X147614105Y-87065297D01*
X147539077Y-86924929D01*
X147438106Y-86801894D01*
X147315071Y-86700923D01*
X147174703Y-86625895D01*
X147105183Y-86604806D01*
X147105183Y-86526000D01*
X147092479Y-86397010D01*
X147054853Y-86272976D01*
X146993754Y-86158666D01*
X146911527Y-86058473D01*
X146811334Y-85976246D01*
X146697024Y-85915147D01*
X146572990Y-85877521D01*
X146444000Y-85864817D01*
X144744000Y-85864817D01*
X144615010Y-85877521D01*
X144490976Y-85915147D01*
X144376666Y-85976246D01*
X144276473Y-86058473D01*
X144194246Y-86158666D01*
X144133147Y-86272976D01*
X144095521Y-86397010D01*
X144082817Y-86526000D01*
X144082817Y-87838000D01*
X125556684Y-87838000D01*
X124685804Y-86967120D01*
X124845503Y-86807421D01*
X124983000Y-86601642D01*
X125120497Y-86807421D01*
X125323579Y-87010503D01*
X125562378Y-87170063D01*
X125827717Y-87279970D01*
X126109399Y-87336000D01*
X126396601Y-87336000D01*
X126678283Y-87279970D01*
X126943622Y-87170063D01*
X127182421Y-87010503D01*
X127385503Y-86807421D01*
X127523000Y-86601642D01*
X127660497Y-86807421D01*
X127863579Y-87010503D01*
X128102378Y-87170063D01*
X128367717Y-87279970D01*
X128649399Y-87336000D01*
X128936601Y-87336000D01*
X129218283Y-87279970D01*
X129483622Y-87170063D01*
X129722421Y-87010503D01*
X129925503Y-86807421D01*
X130063000Y-86601642D01*
X130200497Y-86807421D01*
X130403579Y-87010503D01*
X130642378Y-87170063D01*
X130907717Y-87279970D01*
X131189399Y-87336000D01*
X131476601Y-87336000D01*
X131758283Y-87279970D01*
X132023622Y-87170063D01*
X132262421Y-87010503D01*
X132465503Y-86807421D01*
X132603000Y-86601642D01*
X132740497Y-86807421D01*
X132943579Y-87010503D01*
X133182378Y-87170063D01*
X133447717Y-87279970D01*
X133729399Y-87336000D01*
X134016601Y-87336000D01*
X134298283Y-87279970D01*
X134563622Y-87170063D01*
X134802421Y-87010503D01*
X135005503Y-86807421D01*
X135165063Y-86568622D01*
X135274970Y-86303283D01*
X135331000Y-86021601D01*
X135331000Y-85734399D01*
X135274970Y-85452717D01*
X135165063Y-85187378D01*
X135005503Y-84948579D01*
X134802421Y-84745497D01*
X134563622Y-84585937D01*
X134298283Y-84476030D01*
X134016601Y-84420000D01*
X133729399Y-84420000D01*
X133447717Y-84476030D01*
X133182378Y-84585937D01*
X132943579Y-84745497D01*
X132740497Y-84948579D01*
X132603000Y-85154358D01*
X132465503Y-84948579D01*
X132262421Y-84745497D01*
X132023622Y-84585937D01*
X131758283Y-84476030D01*
X131476601Y-84420000D01*
X131189399Y-84420000D01*
X130907717Y-84476030D01*
X130642378Y-84585937D01*
X130403579Y-84745497D01*
X130200497Y-84948579D01*
X130063000Y-85154358D01*
X129925503Y-84948579D01*
X129722421Y-84745497D01*
X129483622Y-84585937D01*
X129218283Y-84476030D01*
X128936601Y-84420000D01*
X128649399Y-84420000D01*
X128367717Y-84476030D01*
X128102378Y-84585937D01*
X127863579Y-84745497D01*
X127660497Y-84948579D01*
X127523000Y-85154358D01*
X127385503Y-84948579D01*
X127182421Y-84745497D01*
X126943622Y-84585937D01*
X126678283Y-84476030D01*
X126396601Y-84420000D01*
X126109399Y-84420000D01*
X125827717Y-84476030D01*
X125562378Y-84585937D01*
X125323579Y-84745497D01*
X125120497Y-84948579D01*
X124983000Y-85154358D01*
X124845503Y-84948579D01*
X124642421Y-84745497D01*
X124403622Y-84585937D01*
X124138283Y-84476030D01*
X123856601Y-84420000D01*
X123569399Y-84420000D01*
X123287717Y-84476030D01*
X123022378Y-84585937D01*
X122783579Y-84745497D01*
X122580497Y-84948579D01*
X122443000Y-85154358D01*
X122305503Y-84948579D01*
X122119804Y-84762880D01*
X123270685Y-83612000D01*
X140676320Y-83612000D01*
X140716000Y-83615908D01*
X140755680Y-83612000D01*
X140755688Y-83612000D01*
X140874396Y-83600308D01*
X141026704Y-83554106D01*
X141167072Y-83479078D01*
X141290106Y-83378106D01*
X141315411Y-83347272D01*
X143545279Y-81117405D01*
X143576106Y-81092106D01*
X143677078Y-80969072D01*
X143752106Y-80828704D01*
X143798308Y-80676396D01*
X143810000Y-80557688D01*
X143810000Y-80557681D01*
X143813908Y-80518001D01*
X143810000Y-80478321D01*
X143810000Y-62064000D01*
X143844816Y-62064000D01*
X143857520Y-62192991D01*
X143895146Y-62317024D01*
X143956246Y-62431334D01*
X144038472Y-62531528D01*
X144138666Y-62613754D01*
X144252976Y-62674854D01*
X144377009Y-62712480D01*
X144506000Y-62725184D01*
X145087500Y-62722000D01*
X145252000Y-62557500D01*
X145252000Y-61318000D01*
X145460000Y-61318000D01*
X145460000Y-62557500D01*
X145624500Y-62722000D01*
X146206000Y-62725184D01*
X146334991Y-62712480D01*
X146459024Y-62674854D01*
X146573334Y-62613754D01*
X146673528Y-62531528D01*
X146755754Y-62431334D01*
X146816854Y-62317024D01*
X146854480Y-62192991D01*
X146867184Y-62064000D01*
X146864000Y-61482500D01*
X146699500Y-61318000D01*
X145460000Y-61318000D01*
X145252000Y-61318000D01*
X144012500Y-61318000D01*
X143848000Y-61482500D01*
X143844816Y-62064000D01*
X143810000Y-62064000D01*
X143810000Y-60364000D01*
X143844816Y-60364000D01*
X143848000Y-60945500D01*
X144012500Y-61110000D01*
X145252000Y-61110000D01*
X145252000Y-59870500D01*
X145460000Y-59870500D01*
X145460000Y-61110000D01*
X146699500Y-61110000D01*
X146864000Y-60945500D01*
X146867184Y-60364000D01*
X146854480Y-60235009D01*
X146816854Y-60110976D01*
X146755754Y-59996666D01*
X146673528Y-59896472D01*
X146573334Y-59814246D01*
X146459024Y-59753146D01*
X146334991Y-59715520D01*
X146206000Y-59702816D01*
X145624500Y-59706000D01*
X145460000Y-59870500D01*
X145252000Y-59870500D01*
X145087500Y-59706000D01*
X144506000Y-59702816D01*
X144377009Y-59715520D01*
X144252976Y-59753146D01*
X144138666Y-59814246D01*
X144038472Y-59896472D01*
X143956246Y-59996666D01*
X143895146Y-60110976D01*
X143857520Y-60235009D01*
X143844816Y-60364000D01*
X143810000Y-60364000D01*
X143810000Y-57992683D01*
X143844817Y-57957866D01*
X143844817Y-59016000D01*
G37*
%TD.AperFunction*%
%TD*%
M02*
