M48
; DRILL file {KiCad (5.1.10)-1} date 01/13/22 09:31:52
; FORMAT={-:-/ absolute / metric / decimal}
; #@! TF.CreationDate,2022-01-13T09:31:52+07:00
; #@! TF.GenerationSoftware,Kicad,Pcbnew,(5.1.10)-1
; #@! TF.FileFunction,Plated,1,2,PTH
FMAT,2
METRIC
T1C1.000
T2C3.000
%
G90
G05
T1
X71.51Y-101.15
X71.51Y-140.15
X88.51Y-101.15
X88.51Y-140.15
X89.173Y-42.698
X91.713Y-42.698
X94.253Y-42.698
X96.793Y-42.698
X98.0Y-104.014
X98.0Y-106.554
X98.0Y-109.094
X98.0Y-111.634
X98.0Y-114.174
X98.0Y-116.714
X98.0Y-119.254
X98.0Y-121.794
X98.0Y-124.334
X98.0Y-126.874
X98.0Y-129.414
X98.0Y-131.954
X98.0Y-134.494
X98.0Y-137.034
X98.0Y-139.574
X98.313Y-85.878
X99.333Y-42.698
X100.853Y-85.878
X101.873Y-42.698
X103.393Y-85.878
X104.413Y-42.698
X105.933Y-85.878
X106.953Y-42.698
X108.473Y-85.878
X109.493Y-42.698
X111.013Y-85.878
X112.033Y-42.698
X113.553Y-85.878
X116.093Y-42.698
X116.093Y-85.878
X118.633Y-42.698
X121.173Y-42.698
X121.173Y-85.878
X121.56Y-104.014
X121.56Y-106.554
X121.56Y-109.094
X121.56Y-111.634
X121.56Y-114.174
X121.56Y-116.714
X121.56Y-119.254
X121.56Y-121.794
X121.56Y-124.334
X121.56Y-126.874
X121.56Y-129.414
X121.56Y-131.954
X121.56Y-134.494
X121.56Y-137.034
X121.56Y-139.574
X123.713Y-42.698
X123.713Y-85.878
X126.253Y-42.698
X126.253Y-85.878
X128.793Y-42.698
X128.793Y-85.878
X131.333Y-42.698
X131.333Y-85.878
X133.873Y-42.698
X133.873Y-85.878
X138.012Y-123.698
X138.012Y-126.238
X138.012Y-128.778
X138.012Y-131.318
X138.012Y-133.858
X138.012Y-136.398
X141.732Y-101.854
X141.732Y-104.394
X141.732Y-106.934
X141.732Y-109.474
X141.732Y-112.014
X141.732Y-114.554
X145.356Y-55.118
X145.356Y-58.166
X145.356Y-61.214
X145.594Y-87.376
X145.594Y-90.424
X145.594Y-93.472
X151.892Y-101.854
X151.892Y-104.394
X151.892Y-106.934
X151.892Y-109.474
X151.892Y-112.014
X151.892Y-114.554
X163.232Y-121.158
X163.232Y-123.698
X163.232Y-126.238
X163.232Y-128.778
X163.232Y-131.318
X163.232Y-133.858
T2
X62.474Y-36.014
X62.474Y-148.014
X164.356Y-46.166
X164.356Y-70.166
X164.592Y-80.548
X164.592Y-100.33
X194.564Y-80.518
X194.614Y-100.36
X198.356Y-46.166
X198.356Y-70.166
X207.474Y-37.014
X207.474Y-148.014
T0
M30
