%TF.GenerationSoftware,KiCad,Pcbnew,(5.1.10)-1*%
%TF.CreationDate,2022-01-13T09:31:49+07:00*%
%TF.ProjectId,Atuph2,41747570-6832-42e6-9b69-6361645f7063,rev?*%
%TF.SameCoordinates,Original*%
%TF.FileFunction,Soldermask,Bot*%
%TF.FilePolarity,Negative*%
%FSLAX46Y46*%
G04 Gerber Fmt 4.6, Leading zero omitted, Abs format (unit mm)*
G04 Created by KiCad (PCBNEW (5.1.10)-1) date 2022-01-13 09:31:49*
%MOMM*%
%LPD*%
G01*
G04 APERTURE LIST*
%ADD10O,1.700000X1.700000*%
%ADD11R,1.700000X1.700000*%
%ADD12R,3.048000X3.048000*%
%ADD13C,6.000000*%
%ADD14O,1.600000X1.600000*%
%ADD15R,1.600000X1.600000*%
G04 APERTURE END LIST*
D10*
%TO.C,L3*%
X138012000Y-123698000D03*
X138012000Y-128778000D03*
X138012000Y-133858000D03*
D11*
X138012000Y-136398000D03*
D10*
X138012000Y-126238000D03*
X138012000Y-131318000D03*
X163232000Y-121158000D03*
X163232000Y-126238000D03*
X163232000Y-131318000D03*
D11*
X163232000Y-133858000D03*
D10*
X163232000Y-123698000D03*
X163232000Y-128778000D03*
%TD*%
D12*
%TO.C,L2*%
X71510000Y-140150000D03*
X88510000Y-140150000D03*
X88510000Y-101150000D03*
X71510000Y-101150000D03*
%TD*%
D10*
%TO.C,L1*%
X141732000Y-112014000D03*
D11*
X141732000Y-114554000D03*
D10*
X141732000Y-104394000D03*
X141732000Y-109474000D03*
X141732000Y-101854000D03*
X141732000Y-106934000D03*
X151892000Y-109474000D03*
X151892000Y-104394000D03*
D11*
X151892000Y-114554000D03*
D10*
X151892000Y-101854000D03*
X151892000Y-112014000D03*
X151892000Y-106934000D03*
%TD*%
%TO.C,J2*%
X121560000Y-104014000D03*
X121560000Y-106554000D03*
X121560000Y-109094000D03*
X121560000Y-111634000D03*
X121560000Y-114174000D03*
X121560000Y-116714000D03*
X121560000Y-119254000D03*
X121560000Y-121794000D03*
X121560000Y-124334000D03*
X121560000Y-126874000D03*
X121560000Y-129414000D03*
X121560000Y-131954000D03*
X121560000Y-134494000D03*
X121560000Y-137034000D03*
D11*
X121560000Y-139574000D03*
%TD*%
D10*
%TO.C,J1*%
X98000000Y-139574000D03*
X98000000Y-137034000D03*
X98000000Y-134494000D03*
X98000000Y-131954000D03*
X98000000Y-129414000D03*
X98000000Y-126874000D03*
X98000000Y-124334000D03*
X98000000Y-121794000D03*
X98000000Y-119254000D03*
X98000000Y-116714000D03*
X98000000Y-114174000D03*
X98000000Y-111634000D03*
X98000000Y-109094000D03*
X98000000Y-106554000D03*
D11*
X98000000Y-104014000D03*
%TD*%
D13*
%TO.C,H4*%
X207474000Y-148014000D03*
%TD*%
%TO.C,H3*%
X62474000Y-148014000D03*
%TD*%
%TO.C,H2*%
X62474000Y-36014000D03*
%TD*%
%TO.C,H1*%
X207474000Y-37014000D03*
%TD*%
D11*
%TO.C,D2*%
X145594000Y-90424000D03*
X145594000Y-93472000D03*
X145594000Y-87376000D03*
D13*
X164592000Y-100330000D03*
X164592000Y-80548000D03*
X194614000Y-100360000D03*
X194564000Y-80518000D03*
%TD*%
D11*
%TO.C,D1*%
X145356000Y-55118000D03*
X145356000Y-58166000D03*
X145356000Y-61214000D03*
D13*
X198356000Y-46166000D03*
X164356000Y-46166000D03*
X164356000Y-70166000D03*
X198356000Y-70166000D03*
%TD*%
D14*
%TO.C,A1*%
X121173000Y-42698000D03*
X99333000Y-42698000D03*
X109493000Y-42698000D03*
X96793000Y-42698000D03*
X94253000Y-42698000D03*
X133873000Y-42698000D03*
X116093000Y-42698000D03*
X118633000Y-42698000D03*
X126253000Y-42698000D03*
X131333000Y-42698000D03*
X128793000Y-42698000D03*
X123713000Y-42698000D03*
X91713000Y-42698000D03*
X89173000Y-42698000D03*
X104413000Y-42698000D03*
X106953000Y-42698000D03*
X112033000Y-42698000D03*
X101873000Y-42698000D03*
X100853000Y-85878000D03*
X116093000Y-85878000D03*
D15*
X98313000Y-85878000D03*
D14*
X111013000Y-85878000D03*
X103393000Y-85878000D03*
X113553000Y-85878000D03*
X133873000Y-85878000D03*
X105933000Y-85878000D03*
X108473000Y-85878000D03*
X126253000Y-85878000D03*
X121173000Y-85878000D03*
X123713000Y-85878000D03*
X128793000Y-85878000D03*
X131333000Y-85878000D03*
%TD*%
M02*
