%TF.GenerationSoftware,KiCad,Pcbnew,(5.1.10)-1*%
%TF.CreationDate,2022-01-13T07:15:15+07:00*%
%TF.ProjectId,Atuph2,41747570-6832-42e6-9b69-6361645f7063,rev?*%
%TF.SameCoordinates,Original*%
%TF.FileFunction,Legend,Top*%
%TF.FilePolarity,Positive*%
%FSLAX46Y46*%
G04 Gerber Fmt 4.6, Leading zero omitted, Abs format (unit mm)*
G04 Created by KiCad (PCBNEW (5.1.10)-1) date 2022-01-13 07:15:15*
%MOMM*%
%LPD*%
G01*
G04 APERTURE LIST*
%ADD10C,0.150000*%
%ADD11C,0.120000*%
G04 APERTURE END LIST*
D10*
X183046952Y-122992571D02*
X182713619Y-122992571D01*
X182713619Y-123516380D02*
X182713619Y-122516380D01*
X183189809Y-122516380D01*
X183999333Y-123516380D02*
X183999333Y-122992571D01*
X183951714Y-122897333D01*
X183856476Y-122849714D01*
X183666000Y-122849714D01*
X183570761Y-122897333D01*
X183999333Y-123468761D02*
X183904095Y-123516380D01*
X183666000Y-123516380D01*
X183570761Y-123468761D01*
X183523142Y-123373523D01*
X183523142Y-123278285D01*
X183570761Y-123183047D01*
X183666000Y-123135428D01*
X183904095Y-123135428D01*
X183999333Y-123087809D01*
X184475523Y-123516380D02*
X184475523Y-122849714D01*
X184475523Y-122516380D02*
X184427904Y-122564000D01*
X184475523Y-122611619D01*
X184523142Y-122564000D01*
X184475523Y-122516380D01*
X184475523Y-122611619D01*
X184904095Y-123468761D02*
X184999333Y-123516380D01*
X185189809Y-123516380D01*
X185285047Y-123468761D01*
X185332666Y-123373523D01*
X185332666Y-123325904D01*
X185285047Y-123230666D01*
X185189809Y-123183047D01*
X185046952Y-123183047D01*
X184951714Y-123135428D01*
X184904095Y-123040190D01*
X184904095Y-122992571D01*
X184951714Y-122897333D01*
X185046952Y-122849714D01*
X185189809Y-122849714D01*
X185285047Y-122897333D01*
X185761238Y-123516380D02*
X185761238Y-122516380D01*
X186189809Y-123516380D02*
X186189809Y-122992571D01*
X186142190Y-122897333D01*
X186046952Y-122849714D01*
X185904095Y-122849714D01*
X185808857Y-122897333D01*
X185761238Y-122944952D01*
X187094571Y-123516380D02*
X187094571Y-122992571D01*
X187046952Y-122897333D01*
X186951714Y-122849714D01*
X186761238Y-122849714D01*
X186666000Y-122897333D01*
X187094571Y-123468761D02*
X186999333Y-123516380D01*
X186761238Y-123516380D01*
X186666000Y-123468761D01*
X186618380Y-123373523D01*
X186618380Y-123278285D01*
X186666000Y-123183047D01*
X186761238Y-123135428D01*
X186999333Y-123135428D01*
X187094571Y-123087809D01*
X187713619Y-123516380D02*
X187618380Y-123468761D01*
X187570761Y-123373523D01*
X187570761Y-122516380D01*
X184189809Y-125166380D02*
X183856476Y-124690190D01*
X183618380Y-125166380D02*
X183618380Y-124166380D01*
X183999333Y-124166380D01*
X184094571Y-124214000D01*
X184142190Y-124261619D01*
X184189809Y-124356857D01*
X184189809Y-124499714D01*
X184142190Y-124594952D01*
X184094571Y-124642571D01*
X183999333Y-124690190D01*
X183618380Y-124690190D01*
X184618380Y-125166380D02*
X184618380Y-124499714D01*
X184618380Y-124166380D02*
X184570761Y-124214000D01*
X184618380Y-124261619D01*
X184666000Y-124214000D01*
X184618380Y-124166380D01*
X184618380Y-124261619D01*
X184999333Y-124499714D02*
X185523142Y-124499714D01*
X184999333Y-125166380D01*
X185523142Y-125166380D01*
X185904095Y-125166380D02*
X185904095Y-124166380D01*
X185999333Y-124785428D02*
X186285047Y-125166380D01*
X186285047Y-124499714D02*
X185904095Y-124880666D01*
X186713619Y-125166380D02*
X186713619Y-124499714D01*
X186713619Y-124166380D02*
X186666000Y-124214000D01*
X186713619Y-124261619D01*
X186761238Y-124214000D01*
X186713619Y-124166380D01*
X186713619Y-124261619D01*
X182785047Y-125816380D02*
X183451714Y-125816380D01*
X182785047Y-126816380D01*
X183451714Y-126816380D01*
X184261238Y-126816380D02*
X184261238Y-126292571D01*
X184213619Y-126197333D01*
X184118380Y-126149714D01*
X183927904Y-126149714D01*
X183832666Y-126197333D01*
X184261238Y-126768761D02*
X184166000Y-126816380D01*
X183927904Y-126816380D01*
X183832666Y-126768761D01*
X183785047Y-126673523D01*
X183785047Y-126578285D01*
X183832666Y-126483047D01*
X183927904Y-126435428D01*
X184166000Y-126435428D01*
X184261238Y-126387809D01*
X184737428Y-126816380D02*
X184737428Y-126149714D01*
X184737428Y-125816380D02*
X184689809Y-125864000D01*
X184737428Y-125911619D01*
X184785047Y-125864000D01*
X184737428Y-125816380D01*
X184737428Y-125911619D01*
X185642190Y-126816380D02*
X185642190Y-125816380D01*
X185642190Y-126768761D02*
X185546952Y-126816380D01*
X185356476Y-126816380D01*
X185261238Y-126768761D01*
X185213619Y-126721142D01*
X185166000Y-126625904D01*
X185166000Y-126340190D01*
X185213619Y-126244952D01*
X185261238Y-126197333D01*
X185356476Y-126149714D01*
X185546952Y-126149714D01*
X185642190Y-126197333D01*
X186546952Y-126816380D02*
X186546952Y-126292571D01*
X186499333Y-126197333D01*
X186404095Y-126149714D01*
X186213619Y-126149714D01*
X186118380Y-126197333D01*
X186546952Y-126768761D02*
X186451714Y-126816380D01*
X186213619Y-126816380D01*
X186118380Y-126768761D01*
X186070761Y-126673523D01*
X186070761Y-126578285D01*
X186118380Y-126483047D01*
X186213619Y-126435428D01*
X186451714Y-126435428D01*
X186546952Y-126387809D01*
X187023142Y-126149714D02*
X187023142Y-126816380D01*
X187023142Y-126244952D02*
X187070761Y-126197333D01*
X187166000Y-126149714D01*
X187308857Y-126149714D01*
X187404095Y-126197333D01*
X187451714Y-126292571D01*
X187451714Y-126816380D01*
X146216761Y-108148380D02*
X145740571Y-108148380D01*
X145740571Y-107148380D01*
X147026285Y-108148380D02*
X146550095Y-108148380D01*
X146550095Y-107148380D01*
X147931047Y-108053142D02*
X147883428Y-108100761D01*
X147740571Y-108148380D01*
X147645333Y-108148380D01*
X147502476Y-108100761D01*
X147407238Y-108005523D01*
X147359619Y-107910285D01*
X147312000Y-107719809D01*
X147312000Y-107576952D01*
X147359619Y-107386476D01*
X147407238Y-107291238D01*
X147502476Y-107196000D01*
X147645333Y-107148380D01*
X147740571Y-107148380D01*
X147883428Y-107196000D01*
X147931047Y-107243619D01*
X147185428Y-130198761D02*
X147328285Y-130246380D01*
X147566380Y-130246380D01*
X147661619Y-130198761D01*
X147709238Y-130151142D01*
X147756857Y-130055904D01*
X147756857Y-129960666D01*
X147709238Y-129865428D01*
X147661619Y-129817809D01*
X147566380Y-129770190D01*
X147375904Y-129722571D01*
X147280666Y-129674952D01*
X147233047Y-129627333D01*
X147185428Y-129532095D01*
X147185428Y-129436857D01*
X147233047Y-129341619D01*
X147280666Y-129294000D01*
X147375904Y-129246380D01*
X147614000Y-129246380D01*
X147756857Y-129294000D01*
X148185428Y-130246380D02*
X148185428Y-129246380D01*
X148661619Y-130246380D02*
X148661619Y-129246380D01*
X148994952Y-129960666D01*
X149328285Y-129246380D01*
X149328285Y-130246380D01*
X149947333Y-129674952D02*
X149852095Y-129627333D01*
X149804476Y-129579714D01*
X149756857Y-129484476D01*
X149756857Y-129436857D01*
X149804476Y-129341619D01*
X149852095Y-129294000D01*
X149947333Y-129246380D01*
X150137809Y-129246380D01*
X150233047Y-129294000D01*
X150280666Y-129341619D01*
X150328285Y-129436857D01*
X150328285Y-129484476D01*
X150280666Y-129579714D01*
X150233047Y-129627333D01*
X150137809Y-129674952D01*
X149947333Y-129674952D01*
X149852095Y-129722571D01*
X149804476Y-129770190D01*
X149756857Y-129865428D01*
X149756857Y-130055904D01*
X149804476Y-130151142D01*
X149852095Y-130198761D01*
X149947333Y-130246380D01*
X150137809Y-130246380D01*
X150233047Y-130198761D01*
X150280666Y-130151142D01*
X150328285Y-130055904D01*
X150328285Y-129865428D01*
X150280666Y-129770190D01*
X150233047Y-129722571D01*
X150137809Y-129674952D01*
X150947333Y-129246380D02*
X151042571Y-129246380D01*
X151137809Y-129294000D01*
X151185428Y-129341619D01*
X151233047Y-129436857D01*
X151280666Y-129627333D01*
X151280666Y-129865428D01*
X151233047Y-130055904D01*
X151185428Y-130151142D01*
X151137809Y-130198761D01*
X151042571Y-130246380D01*
X150947333Y-130246380D01*
X150852095Y-130198761D01*
X150804476Y-130151142D01*
X150756857Y-130055904D01*
X150709238Y-129865428D01*
X150709238Y-129627333D01*
X150756857Y-129436857D01*
X150804476Y-129341619D01*
X150852095Y-129294000D01*
X150947333Y-129246380D01*
X151899714Y-129246380D02*
X151994952Y-129246380D01*
X152090190Y-129294000D01*
X152137809Y-129341619D01*
X152185428Y-129436857D01*
X152233047Y-129627333D01*
X152233047Y-129865428D01*
X152185428Y-130055904D01*
X152137809Y-130151142D01*
X152090190Y-130198761D01*
X151994952Y-130246380D01*
X151899714Y-130246380D01*
X151804476Y-130198761D01*
X151756857Y-130151142D01*
X151709238Y-130055904D01*
X151661619Y-129865428D01*
X151661619Y-129627333D01*
X151709238Y-129436857D01*
X151756857Y-129341619D01*
X151804476Y-129294000D01*
X151899714Y-129246380D01*
X153137809Y-130246380D02*
X152661619Y-130246380D01*
X152661619Y-129246380D01*
X77875142Y-121356380D02*
X77398952Y-121356380D01*
X77398952Y-120356380D01*
X78208476Y-121356380D02*
X78208476Y-120356380D01*
X78541809Y-121070666D01*
X78875142Y-120356380D01*
X78875142Y-121356380D01*
X79303714Y-120451619D02*
X79351333Y-120404000D01*
X79446571Y-120356380D01*
X79684666Y-120356380D01*
X79779904Y-120404000D01*
X79827523Y-120451619D01*
X79875142Y-120546857D01*
X79875142Y-120642095D01*
X79827523Y-120784952D01*
X79256095Y-121356380D01*
X79875142Y-121356380D01*
X80779904Y-120356380D02*
X80303714Y-120356380D01*
X80256095Y-120832571D01*
X80303714Y-120784952D01*
X80398952Y-120737333D01*
X80637047Y-120737333D01*
X80732285Y-120784952D01*
X80779904Y-120832571D01*
X80827523Y-120927809D01*
X80827523Y-121165904D01*
X80779904Y-121261142D01*
X80732285Y-121308761D01*
X80637047Y-121356380D01*
X80398952Y-121356380D01*
X80303714Y-121308761D01*
X80256095Y-121261142D01*
X81303714Y-121356380D02*
X81494190Y-121356380D01*
X81589428Y-121308761D01*
X81637047Y-121261142D01*
X81732285Y-121118285D01*
X81779904Y-120927809D01*
X81779904Y-120546857D01*
X81732285Y-120451619D01*
X81684666Y-120404000D01*
X81589428Y-120356380D01*
X81398952Y-120356380D01*
X81303714Y-120404000D01*
X81256095Y-120451619D01*
X81208476Y-120546857D01*
X81208476Y-120784952D01*
X81256095Y-120880190D01*
X81303714Y-120927809D01*
X81398952Y-120975428D01*
X81589428Y-120975428D01*
X81684666Y-120927809D01*
X81732285Y-120880190D01*
X81779904Y-120784952D01*
X82637047Y-120356380D02*
X82446571Y-120356380D01*
X82351333Y-120404000D01*
X82303714Y-120451619D01*
X82208476Y-120594476D01*
X82160857Y-120784952D01*
X82160857Y-121165904D01*
X82208476Y-121261142D01*
X82256095Y-121308761D01*
X82351333Y-121356380D01*
X82541809Y-121356380D01*
X82637047Y-121308761D01*
X82684666Y-121261142D01*
X82732285Y-121165904D01*
X82732285Y-120927809D01*
X82684666Y-120832571D01*
X82637047Y-120784952D01*
X82541809Y-120737333D01*
X82351333Y-120737333D01*
X82256095Y-120784952D01*
X82208476Y-120832571D01*
X82160857Y-120927809D01*
X83113238Y-121308761D02*
X83256095Y-121356380D01*
X83494190Y-121356380D01*
X83589428Y-121308761D01*
X83637047Y-121261142D01*
X83684666Y-121165904D01*
X83684666Y-121070666D01*
X83637047Y-120975428D01*
X83589428Y-120927809D01*
X83494190Y-120880190D01*
X83303714Y-120832571D01*
X83208476Y-120784952D01*
X83160857Y-120737333D01*
X83113238Y-120642095D01*
X83113238Y-120546857D01*
X83160857Y-120451619D01*
X83208476Y-120404000D01*
X83303714Y-120356380D01*
X83541809Y-120356380D01*
X83684666Y-120404000D01*
X110101619Y-121102380D02*
X110101619Y-120102380D01*
X110673047Y-121102380D01*
X110673047Y-120102380D01*
X111292095Y-121102380D02*
X111196857Y-121054761D01*
X111149238Y-121007142D01*
X111101619Y-120911904D01*
X111101619Y-120626190D01*
X111149238Y-120530952D01*
X111196857Y-120483333D01*
X111292095Y-120435714D01*
X111434952Y-120435714D01*
X111530190Y-120483333D01*
X111577809Y-120530952D01*
X111625428Y-120626190D01*
X111625428Y-120911904D01*
X111577809Y-121007142D01*
X111530190Y-121054761D01*
X111434952Y-121102380D01*
X111292095Y-121102380D01*
X112482571Y-121102380D02*
X112482571Y-120102380D01*
X112482571Y-121054761D02*
X112387333Y-121102380D01*
X112196857Y-121102380D01*
X112101619Y-121054761D01*
X112054000Y-121007142D01*
X112006380Y-120911904D01*
X112006380Y-120626190D01*
X112054000Y-120530952D01*
X112101619Y-120483333D01*
X112196857Y-120435714D01*
X112387333Y-120435714D01*
X112482571Y-120483333D01*
X113339714Y-121054761D02*
X113244476Y-121102380D01*
X113054000Y-121102380D01*
X112958761Y-121054761D01*
X112911142Y-120959523D01*
X112911142Y-120578571D01*
X112958761Y-120483333D01*
X113054000Y-120435714D01*
X113244476Y-120435714D01*
X113339714Y-120483333D01*
X113387333Y-120578571D01*
X113387333Y-120673809D01*
X112911142Y-120769047D01*
X113815904Y-121102380D02*
X113815904Y-120102380D01*
X114149238Y-120816666D01*
X114482571Y-120102380D01*
X114482571Y-121102380D01*
X115530190Y-121007142D02*
X115482571Y-121054761D01*
X115339714Y-121102380D01*
X115244476Y-121102380D01*
X115101619Y-121054761D01*
X115006380Y-120959523D01*
X114958761Y-120864285D01*
X114911142Y-120673809D01*
X114911142Y-120530952D01*
X114958761Y-120340476D01*
X115006380Y-120245238D01*
X115101619Y-120150000D01*
X115244476Y-120102380D01*
X115339714Y-120102380D01*
X115482571Y-120150000D01*
X115530190Y-120197619D01*
X115958761Y-120102380D02*
X115958761Y-120911904D01*
X116006380Y-121007142D01*
X116054000Y-121054761D01*
X116149238Y-121102380D01*
X116339714Y-121102380D01*
X116434952Y-121054761D01*
X116482571Y-121007142D01*
X116530190Y-120911904D01*
X116530190Y-120102380D01*
X117673047Y-120435714D02*
X117911142Y-121102380D01*
X118149238Y-120435714D01*
X118434952Y-120102380D02*
X119054000Y-120102380D01*
X118720666Y-120483333D01*
X118863523Y-120483333D01*
X118958761Y-120530952D01*
X119006380Y-120578571D01*
X119054000Y-120673809D01*
X119054000Y-120911904D01*
X119006380Y-121007142D01*
X118958761Y-121054761D01*
X118863523Y-121102380D01*
X118577809Y-121102380D01*
X118482571Y-121054761D01*
X118434952Y-121007142D01*
X173070000Y-90384380D02*
X173641428Y-90384380D01*
X173355714Y-91384380D02*
X173355714Y-90384380D01*
X174403333Y-90717714D02*
X174403333Y-91384380D01*
X173974761Y-90717714D02*
X173974761Y-91241523D01*
X174022380Y-91336761D01*
X174117619Y-91384380D01*
X174260476Y-91384380D01*
X174355714Y-91336761D01*
X174403333Y-91289142D01*
X174879523Y-91384380D02*
X174879523Y-90717714D01*
X174879523Y-90908190D02*
X174927142Y-90812952D01*
X174974761Y-90765333D01*
X175070000Y-90717714D01*
X175165238Y-90717714D01*
X175498571Y-91384380D02*
X175498571Y-90384380D01*
X175498571Y-90765333D02*
X175593809Y-90717714D01*
X175784285Y-90717714D01*
X175879523Y-90765333D01*
X175927142Y-90812952D01*
X175974761Y-90908190D01*
X175974761Y-91193904D01*
X175927142Y-91289142D01*
X175879523Y-91336761D01*
X175784285Y-91384380D01*
X175593809Y-91384380D01*
X175498571Y-91336761D01*
X176403333Y-91384380D02*
X176403333Y-90717714D01*
X176403333Y-90384380D02*
X176355714Y-90432000D01*
X176403333Y-90479619D01*
X176450952Y-90432000D01*
X176403333Y-90384380D01*
X176403333Y-90479619D01*
X177308095Y-91384380D02*
X177308095Y-90384380D01*
X177308095Y-91336761D02*
X177212857Y-91384380D01*
X177022380Y-91384380D01*
X176927142Y-91336761D01*
X176879523Y-91289142D01*
X176831904Y-91193904D01*
X176831904Y-90908190D01*
X176879523Y-90812952D01*
X176927142Y-90765333D01*
X177022380Y-90717714D01*
X177212857Y-90717714D01*
X177308095Y-90765333D01*
X177784285Y-91384380D02*
X177784285Y-90717714D01*
X177784285Y-90384380D02*
X177736666Y-90432000D01*
X177784285Y-90479619D01*
X177831904Y-90432000D01*
X177784285Y-90384380D01*
X177784285Y-90479619D01*
X178117619Y-90717714D02*
X178498571Y-90717714D01*
X178260476Y-90384380D02*
X178260476Y-91241523D01*
X178308095Y-91336761D01*
X178403333Y-91384380D01*
X178498571Y-91384380D01*
X178736666Y-90717714D02*
X178974761Y-91384380D01*
X179212857Y-90717714D02*
X178974761Y-91384380D01*
X178879523Y-91622476D01*
X178831904Y-91670095D01*
X178736666Y-91717714D01*
X180308095Y-91336761D02*
X180450952Y-91384380D01*
X180689047Y-91384380D01*
X180784285Y-91336761D01*
X180831904Y-91289142D01*
X180879523Y-91193904D01*
X180879523Y-91098666D01*
X180831904Y-91003428D01*
X180784285Y-90955809D01*
X180689047Y-90908190D01*
X180498571Y-90860571D01*
X180403333Y-90812952D01*
X180355714Y-90765333D01*
X180308095Y-90670095D01*
X180308095Y-90574857D01*
X180355714Y-90479619D01*
X180403333Y-90432000D01*
X180498571Y-90384380D01*
X180736666Y-90384380D01*
X180879523Y-90432000D01*
X181689047Y-91336761D02*
X181593809Y-91384380D01*
X181403333Y-91384380D01*
X181308095Y-91336761D01*
X181260476Y-91241523D01*
X181260476Y-90860571D01*
X181308095Y-90765333D01*
X181403333Y-90717714D01*
X181593809Y-90717714D01*
X181689047Y-90765333D01*
X181736666Y-90860571D01*
X181736666Y-90955809D01*
X181260476Y-91051047D01*
X182165238Y-90717714D02*
X182165238Y-91384380D01*
X182165238Y-90812952D02*
X182212857Y-90765333D01*
X182308095Y-90717714D01*
X182450952Y-90717714D01*
X182546190Y-90765333D01*
X182593809Y-90860571D01*
X182593809Y-91384380D01*
X183022380Y-91336761D02*
X183117619Y-91384380D01*
X183308095Y-91384380D01*
X183403333Y-91336761D01*
X183450952Y-91241523D01*
X183450952Y-91193904D01*
X183403333Y-91098666D01*
X183308095Y-91051047D01*
X183165238Y-91051047D01*
X183070000Y-91003428D01*
X183022380Y-90908190D01*
X183022380Y-90860571D01*
X183070000Y-90765333D01*
X183165238Y-90717714D01*
X183308095Y-90717714D01*
X183403333Y-90765333D01*
X184022380Y-91384380D02*
X183927142Y-91336761D01*
X183879523Y-91289142D01*
X183831904Y-91193904D01*
X183831904Y-90908190D01*
X183879523Y-90812952D01*
X183927142Y-90765333D01*
X184022380Y-90717714D01*
X184165238Y-90717714D01*
X184260476Y-90765333D01*
X184308095Y-90812952D01*
X184355714Y-90908190D01*
X184355714Y-91193904D01*
X184308095Y-91289142D01*
X184260476Y-91336761D01*
X184165238Y-91384380D01*
X184022380Y-91384380D01*
X184784285Y-91384380D02*
X184784285Y-90717714D01*
X184784285Y-90908190D02*
X184831904Y-90812952D01*
X184879523Y-90765333D01*
X184974761Y-90717714D01*
X185070000Y-90717714D01*
X177411523Y-59126380D02*
X177411523Y-58126380D01*
X177792476Y-58126380D01*
X177887714Y-58174000D01*
X177935333Y-58221619D01*
X177982952Y-58316857D01*
X177982952Y-58459714D01*
X177935333Y-58554952D01*
X177887714Y-58602571D01*
X177792476Y-58650190D01*
X177411523Y-58650190D01*
X178411523Y-59126380D02*
X178411523Y-58126380D01*
X178411523Y-58602571D02*
X178982952Y-58602571D01*
X178982952Y-59126380D02*
X178982952Y-58126380D01*
X180173428Y-59078761D02*
X180316285Y-59126380D01*
X180554380Y-59126380D01*
X180649619Y-59078761D01*
X180697238Y-59031142D01*
X180744857Y-58935904D01*
X180744857Y-58840666D01*
X180697238Y-58745428D01*
X180649619Y-58697809D01*
X180554380Y-58650190D01*
X180363904Y-58602571D01*
X180268666Y-58554952D01*
X180221047Y-58507333D01*
X180173428Y-58412095D01*
X180173428Y-58316857D01*
X180221047Y-58221619D01*
X180268666Y-58174000D01*
X180363904Y-58126380D01*
X180602000Y-58126380D01*
X180744857Y-58174000D01*
X181554380Y-59078761D02*
X181459142Y-59126380D01*
X181268666Y-59126380D01*
X181173428Y-59078761D01*
X181125809Y-58983523D01*
X181125809Y-58602571D01*
X181173428Y-58507333D01*
X181268666Y-58459714D01*
X181459142Y-58459714D01*
X181554380Y-58507333D01*
X181602000Y-58602571D01*
X181602000Y-58697809D01*
X181125809Y-58793047D01*
X182030571Y-58459714D02*
X182030571Y-59126380D01*
X182030571Y-58554952D02*
X182078190Y-58507333D01*
X182173428Y-58459714D01*
X182316285Y-58459714D01*
X182411523Y-58507333D01*
X182459142Y-58602571D01*
X182459142Y-59126380D01*
X182887714Y-59078761D02*
X182982952Y-59126380D01*
X183173428Y-59126380D01*
X183268666Y-59078761D01*
X183316285Y-58983523D01*
X183316285Y-58935904D01*
X183268666Y-58840666D01*
X183173428Y-58793047D01*
X183030571Y-58793047D01*
X182935333Y-58745428D01*
X182887714Y-58650190D01*
X182887714Y-58602571D01*
X182935333Y-58507333D01*
X183030571Y-58459714D01*
X183173428Y-58459714D01*
X183268666Y-58507333D01*
X183887714Y-59126380D02*
X183792476Y-59078761D01*
X183744857Y-59031142D01*
X183697238Y-58935904D01*
X183697238Y-58650190D01*
X183744857Y-58554952D01*
X183792476Y-58507333D01*
X183887714Y-58459714D01*
X184030571Y-58459714D01*
X184125809Y-58507333D01*
X184173428Y-58554952D01*
X184221047Y-58650190D01*
X184221047Y-58935904D01*
X184173428Y-59031142D01*
X184125809Y-59078761D01*
X184030571Y-59126380D01*
X183887714Y-59126380D01*
X184649619Y-59126380D02*
X184649619Y-58459714D01*
X184649619Y-58650190D02*
X184697238Y-58554952D01*
X184744857Y-58507333D01*
X184840095Y-58459714D01*
X184935333Y-58459714D01*
X95020380Y-63158666D02*
X95496571Y-63158666D01*
X94925142Y-63444380D02*
X95258476Y-62444380D01*
X95591809Y-63444380D01*
X95925142Y-63444380D02*
X95925142Y-62777714D01*
X95925142Y-62968190D02*
X95972761Y-62872952D01*
X96020380Y-62825333D01*
X96115619Y-62777714D01*
X96210857Y-62777714D01*
X96972761Y-63444380D02*
X96972761Y-62444380D01*
X96972761Y-63396761D02*
X96877523Y-63444380D01*
X96687047Y-63444380D01*
X96591809Y-63396761D01*
X96544190Y-63349142D01*
X96496571Y-63253904D01*
X96496571Y-62968190D01*
X96544190Y-62872952D01*
X96591809Y-62825333D01*
X96687047Y-62777714D01*
X96877523Y-62777714D01*
X96972761Y-62825333D01*
X97877523Y-62777714D02*
X97877523Y-63444380D01*
X97448952Y-62777714D02*
X97448952Y-63301523D01*
X97496571Y-63396761D01*
X97591809Y-63444380D01*
X97734666Y-63444380D01*
X97829904Y-63396761D01*
X97877523Y-63349142D01*
X98353714Y-63444380D02*
X98353714Y-62777714D01*
X98353714Y-62444380D02*
X98306095Y-62492000D01*
X98353714Y-62539619D01*
X98401333Y-62492000D01*
X98353714Y-62444380D01*
X98353714Y-62539619D01*
X98829904Y-62777714D02*
X98829904Y-63444380D01*
X98829904Y-62872952D02*
X98877523Y-62825333D01*
X98972761Y-62777714D01*
X99115619Y-62777714D01*
X99210857Y-62825333D01*
X99258476Y-62920571D01*
X99258476Y-63444380D01*
X99877523Y-63444380D02*
X99782285Y-63396761D01*
X99734666Y-63349142D01*
X99687047Y-63253904D01*
X99687047Y-62968190D01*
X99734666Y-62872952D01*
X99782285Y-62825333D01*
X99877523Y-62777714D01*
X100020380Y-62777714D01*
X100115619Y-62825333D01*
X100163238Y-62872952D01*
X100210857Y-62968190D01*
X100210857Y-63253904D01*
X100163238Y-63349142D01*
X100115619Y-63396761D01*
X100020380Y-63444380D01*
X99877523Y-63444380D01*
X101401333Y-62444380D02*
X101401333Y-63253904D01*
X101448952Y-63349142D01*
X101496571Y-63396761D01*
X101591809Y-63444380D01*
X101782285Y-63444380D01*
X101877523Y-63396761D01*
X101925142Y-63349142D01*
X101972761Y-63253904D01*
X101972761Y-62444380D01*
X102448952Y-63444380D02*
X102448952Y-62444380D01*
X103020380Y-63444380D01*
X103020380Y-62444380D01*
X103687047Y-62444380D02*
X103877523Y-62444380D01*
X103972761Y-62492000D01*
X104068000Y-62587238D01*
X104115619Y-62777714D01*
X104115619Y-63111047D01*
X104068000Y-63301523D01*
X103972761Y-63396761D01*
X103877523Y-63444380D01*
X103687047Y-63444380D01*
X103591809Y-63396761D01*
X103496571Y-63301523D01*
X103448952Y-63111047D01*
X103448952Y-62777714D01*
X103496571Y-62587238D01*
X103591809Y-62492000D01*
X103687047Y-62444380D01*
D11*
%TO.C,L3*%
X164712000Y-132588000D02*
X164712000Y-119828000D01*
X164592000Y-133858000D02*
X164592000Y-135188000D01*
X164712000Y-132588000D02*
X162052000Y-132588000D01*
X162052000Y-132588000D02*
X162052000Y-119828000D01*
X164592000Y-135188000D02*
X163262000Y-135188000D01*
X164712000Y-119828000D02*
X162052000Y-119828000D01*
X165772000Y-118398000D02*
X165772000Y-141698000D01*
X135472000Y-118398000D02*
X165772000Y-118398000D01*
X135472000Y-141698000D02*
X135472000Y-118398000D01*
X165772000Y-141698000D02*
X135472000Y-141698000D01*
X139312000Y-122368000D02*
X136652000Y-122368000D01*
X139192000Y-137728000D02*
X137862000Y-137728000D01*
X136652000Y-135128000D02*
X136652000Y-122368000D01*
X139312000Y-135128000D02*
X136652000Y-135128000D01*
X139192000Y-136398000D02*
X139192000Y-137728000D01*
X139312000Y-135128000D02*
X139312000Y-122368000D01*
%TO.C,L2*%
X69510000Y-142150000D02*
X90510000Y-142150000D01*
X90510000Y-142150000D02*
X90510000Y-99150000D01*
X69510000Y-99150000D02*
X90510000Y-99150000D01*
X69510000Y-142150000D02*
X69510000Y-99150000D01*
%TO.C,L1*%
X140462000Y-100554000D02*
X153162000Y-100554000D01*
X140462000Y-115854000D02*
X140462000Y-100554000D01*
X153162000Y-115854000D02*
X140462000Y-115854000D01*
X153162000Y-115854000D02*
X153162000Y-100554000D01*
%TO.C,J2*%
X129674000Y-140904000D02*
X128344000Y-140904000D01*
X128344000Y-140904000D02*
X128344000Y-139574000D01*
X128344000Y-138304000D02*
X128344000Y-102684000D01*
X131004000Y-102684000D02*
X128344000Y-102684000D01*
X131004000Y-138304000D02*
X131004000Y-102684000D01*
X131004000Y-138304000D02*
X128344000Y-138304000D01*
%TO.C,J1*%
X98474000Y-102684000D02*
X99804000Y-102684000D01*
X99804000Y-102684000D02*
X99804000Y-104014000D01*
X99804000Y-105284000D02*
X99804000Y-140904000D01*
X97144000Y-140904000D02*
X99804000Y-140904000D01*
X97144000Y-105284000D02*
X97144000Y-140904000D01*
X97144000Y-105284000D02*
X99804000Y-105284000D01*
%TO.C,D2*%
X198578000Y-104424000D02*
X160578000Y-104424000D01*
X160578000Y-104424000D02*
X160578000Y-76424000D01*
X198578000Y-76424000D02*
X160578000Y-76424000D01*
X198578000Y-104424000D02*
X198578000Y-76424000D01*
%TO.C,D1*%
X160356000Y-74166000D02*
X160356000Y-42166000D01*
X202356000Y-42166000D02*
X160356000Y-42166000D01*
X202356000Y-74166000D02*
X202356000Y-42166000D01*
X202356000Y-74166000D02*
X160356000Y-74166000D01*
%TO.C,A1*%
X70243000Y-91088000D02*
X136543000Y-91088000D01*
X70243000Y-47016000D02*
X63893000Y-47016000D01*
X139083000Y-53108000D02*
X136543000Y-50568000D01*
X63893000Y-47016000D02*
X63893000Y-58696000D01*
X70243000Y-37488000D02*
X70243000Y-47018000D01*
X70241000Y-87912000D02*
X68341000Y-87912000D01*
X136543000Y-91088000D02*
X136543000Y-88418000D01*
X68341000Y-78766000D02*
X68341000Y-87906000D01*
X136543000Y-50568000D02*
X136543000Y-39138000D01*
X139083000Y-85878000D02*
X136543000Y-88418000D01*
X68343000Y-78766000D02*
X70243000Y-78766000D01*
X63893000Y-58696000D02*
X70243000Y-58696000D01*
X70243000Y-58696000D02*
X70243000Y-78766000D01*
X70243000Y-87908000D02*
X70243000Y-91088000D01*
X70243000Y-37488000D02*
X134893000Y-37488000D01*
X136543000Y-39138000D02*
X134893000Y-37488000D01*
X139083000Y-85878000D02*
X139083000Y-53108000D01*
%TO.C,L3*%
D10*
X150455333Y-143454380D02*
X149979142Y-143454380D01*
X149979142Y-142454380D01*
X150693428Y-142454380D02*
X151312476Y-142454380D01*
X150979142Y-142835333D01*
X151122000Y-142835333D01*
X151217238Y-142882952D01*
X151264857Y-142930571D01*
X151312476Y-143025809D01*
X151312476Y-143263904D01*
X151264857Y-143359142D01*
X151217238Y-143406761D01*
X151122000Y-143454380D01*
X150836285Y-143454380D01*
X150741047Y-143406761D01*
X150693428Y-143359142D01*
%TO.C,L2*%
X68778380Y-120816666D02*
X68778380Y-121292857D01*
X67778380Y-121292857D01*
X67873619Y-120530952D02*
X67826000Y-120483333D01*
X67778380Y-120388095D01*
X67778380Y-120150000D01*
X67826000Y-120054761D01*
X67873619Y-120007142D01*
X67968857Y-119959523D01*
X68064095Y-119959523D01*
X68206952Y-120007142D01*
X68778380Y-120578571D01*
X68778380Y-119959523D01*
X74366380Y-141096857D02*
X73366380Y-141096857D01*
X74366380Y-140620666D02*
X73366380Y-140620666D01*
X74366380Y-140049238D01*
X73366380Y-140049238D01*
X73985428Y-139573047D02*
X73985428Y-138811142D01*
X74366380Y-139192095D02*
X73604476Y-139192095D01*
X86558380Y-141096857D02*
X85558380Y-141096857D01*
X86558380Y-140620666D02*
X85558380Y-140620666D01*
X86558380Y-140049238D01*
X85558380Y-140049238D01*
X86177428Y-139573047D02*
X86177428Y-138811142D01*
X73366380Y-102965047D02*
X73366380Y-102774571D01*
X73414000Y-102679333D01*
X73509238Y-102584095D01*
X73699714Y-102536476D01*
X74033047Y-102536476D01*
X74223523Y-102584095D01*
X74318761Y-102679333D01*
X74366380Y-102774571D01*
X74366380Y-102965047D01*
X74318761Y-103060285D01*
X74223523Y-103155523D01*
X74033047Y-103203142D01*
X73699714Y-103203142D01*
X73509238Y-103155523D01*
X73414000Y-103060285D01*
X73366380Y-102965047D01*
X73366380Y-102107904D02*
X74175904Y-102107904D01*
X74271142Y-102060285D01*
X74318761Y-102012666D01*
X74366380Y-101917428D01*
X74366380Y-101726952D01*
X74318761Y-101631714D01*
X74271142Y-101584095D01*
X74175904Y-101536476D01*
X73366380Y-101536476D01*
X73366380Y-101203142D02*
X73366380Y-100631714D01*
X74366380Y-100917428D02*
X73366380Y-100917428D01*
X73985428Y-100298380D02*
X73985428Y-99536476D01*
X74366380Y-99917428D02*
X73604476Y-99917428D01*
X85558380Y-102965047D02*
X85558380Y-102774571D01*
X85606000Y-102679333D01*
X85701238Y-102584095D01*
X85891714Y-102536476D01*
X86225047Y-102536476D01*
X86415523Y-102584095D01*
X86510761Y-102679333D01*
X86558380Y-102774571D01*
X86558380Y-102965047D01*
X86510761Y-103060285D01*
X86415523Y-103155523D01*
X86225047Y-103203142D01*
X85891714Y-103203142D01*
X85701238Y-103155523D01*
X85606000Y-103060285D01*
X85558380Y-102965047D01*
X85558380Y-102107904D02*
X86367904Y-102107904D01*
X86463142Y-102060285D01*
X86510761Y-102012666D01*
X86558380Y-101917428D01*
X86558380Y-101726952D01*
X86510761Y-101631714D01*
X86463142Y-101584095D01*
X86367904Y-101536476D01*
X85558380Y-101536476D01*
X85558380Y-101203142D02*
X85558380Y-100631714D01*
X86558380Y-100917428D02*
X85558380Y-100917428D01*
X86177428Y-100298380D02*
X86177428Y-99536476D01*
%TO.C,L1*%
X146645333Y-117300380D02*
X146169142Y-117300380D01*
X146169142Y-116300380D01*
X147502476Y-117300380D02*
X146931047Y-117300380D01*
X147216761Y-117300380D02*
X147216761Y-116300380D01*
X147121523Y-116443238D01*
X147026285Y-116538476D01*
X146931047Y-116586095D01*
%TO.C,J2*%
X129340666Y-141796380D02*
X129340666Y-142510666D01*
X129293047Y-142653523D01*
X129197809Y-142748761D01*
X129054952Y-142796380D01*
X128959714Y-142796380D01*
X129769238Y-141891619D02*
X129816857Y-141844000D01*
X129912095Y-141796380D01*
X130150190Y-141796380D01*
X130245428Y-141844000D01*
X130293047Y-141891619D01*
X130340666Y-141986857D01*
X130340666Y-142082095D01*
X130293047Y-142224952D01*
X129721619Y-142796380D01*
X130340666Y-142796380D01*
%TO.C,J1*%
X98140666Y-100696380D02*
X98140666Y-101410666D01*
X98093047Y-101553523D01*
X97997809Y-101648761D01*
X97854952Y-101696380D01*
X97759714Y-101696380D01*
X99140666Y-101696380D02*
X98569238Y-101696380D01*
X98854952Y-101696380D02*
X98854952Y-100696380D01*
X98759714Y-100839238D01*
X98664476Y-100934476D01*
X98569238Y-100982095D01*
%TO.C,H4*%
X206712095Y-144466380D02*
X206712095Y-143466380D01*
X206712095Y-143942571D02*
X207283523Y-143942571D01*
X207283523Y-144466380D02*
X207283523Y-143466380D01*
X208188285Y-143799714D02*
X208188285Y-144466380D01*
X207950190Y-143418761D02*
X207712095Y-144133047D01*
X208331142Y-144133047D01*
%TO.C,H3*%
X61712095Y-144466380D02*
X61712095Y-143466380D01*
X61712095Y-143942571D02*
X62283523Y-143942571D01*
X62283523Y-144466380D02*
X62283523Y-143466380D01*
X62664476Y-143466380D02*
X63283523Y-143466380D01*
X62950190Y-143847333D01*
X63093047Y-143847333D01*
X63188285Y-143894952D01*
X63235904Y-143942571D01*
X63283523Y-144037809D01*
X63283523Y-144275904D01*
X63235904Y-144371142D01*
X63188285Y-144418761D01*
X63093047Y-144466380D01*
X62807333Y-144466380D01*
X62712095Y-144418761D01*
X62664476Y-144371142D01*
%TO.C,H2*%
X61712095Y-32466380D02*
X61712095Y-31466380D01*
X61712095Y-31942571D02*
X62283523Y-31942571D01*
X62283523Y-32466380D02*
X62283523Y-31466380D01*
X62712095Y-31561619D02*
X62759714Y-31514000D01*
X62854952Y-31466380D01*
X63093047Y-31466380D01*
X63188285Y-31514000D01*
X63235904Y-31561619D01*
X63283523Y-31656857D01*
X63283523Y-31752095D01*
X63235904Y-31894952D01*
X62664476Y-32466380D01*
X63283523Y-32466380D01*
%TO.C,H1*%
X206712095Y-33466380D02*
X206712095Y-32466380D01*
X206712095Y-32942571D02*
X207283523Y-32942571D01*
X207283523Y-33466380D02*
X207283523Y-32466380D01*
X208283523Y-33466380D02*
X207712095Y-33466380D01*
X207997809Y-33466380D02*
X207997809Y-32466380D01*
X207902571Y-32609238D01*
X207807333Y-32704476D01*
X207712095Y-32752095D01*
%TO.C,D2*%
X178839904Y-106878380D02*
X178839904Y-105878380D01*
X179078000Y-105878380D01*
X179220857Y-105926000D01*
X179316095Y-106021238D01*
X179363714Y-106116476D01*
X179411333Y-106306952D01*
X179411333Y-106449809D01*
X179363714Y-106640285D01*
X179316095Y-106735523D01*
X179220857Y-106830761D01*
X179078000Y-106878380D01*
X178839904Y-106878380D01*
X179792285Y-105973619D02*
X179839904Y-105926000D01*
X179935142Y-105878380D01*
X180173238Y-105878380D01*
X180268476Y-105926000D01*
X180316095Y-105973619D01*
X180363714Y-106068857D01*
X180363714Y-106164095D01*
X180316095Y-106306952D01*
X179744666Y-106878380D01*
X180363714Y-106878380D01*
X148463047Y-93543428D02*
X149224952Y-93543428D01*
X148605904Y-87542666D02*
X149082095Y-87542666D01*
X148510666Y-87828380D02*
X148844000Y-86828380D01*
X149177333Y-87828380D01*
X148463047Y-90495428D02*
X149224952Y-90495428D01*
X148844000Y-90876380D02*
X148844000Y-90114476D01*
X190341619Y-90781142D02*
X190294000Y-90828761D01*
X190151142Y-90876380D01*
X190055904Y-90876380D01*
X189913047Y-90828761D01*
X189817809Y-90733523D01*
X189770190Y-90638285D01*
X189722571Y-90447809D01*
X189722571Y-90304952D01*
X189770190Y-90114476D01*
X189817809Y-90019238D01*
X189913047Y-89924000D01*
X190055904Y-89876380D01*
X190151142Y-89876380D01*
X190294000Y-89924000D01*
X190341619Y-89971619D01*
X190913047Y-90876380D02*
X190817809Y-90828761D01*
X190770190Y-90781142D01*
X190722571Y-90685904D01*
X190722571Y-90400190D01*
X190770190Y-90304952D01*
X190817809Y-90257333D01*
X190913047Y-90209714D01*
X191055904Y-90209714D01*
X191151142Y-90257333D01*
X191198761Y-90304952D01*
X191246380Y-90400190D01*
X191246380Y-90685904D01*
X191198761Y-90781142D01*
X191151142Y-90828761D01*
X191055904Y-90876380D01*
X190913047Y-90876380D01*
X191674952Y-90209714D02*
X191674952Y-90876380D01*
X191674952Y-90304952D02*
X191722571Y-90257333D01*
X191817809Y-90209714D01*
X191960666Y-90209714D01*
X192055904Y-90257333D01*
X192103523Y-90352571D01*
X192103523Y-90876380D01*
X192579714Y-90209714D02*
X192579714Y-90876380D01*
X192579714Y-90304952D02*
X192627333Y-90257333D01*
X192722571Y-90209714D01*
X192865428Y-90209714D01*
X192960666Y-90257333D01*
X193008285Y-90352571D01*
X193008285Y-90876380D01*
X193865428Y-90828761D02*
X193770190Y-90876380D01*
X193579714Y-90876380D01*
X193484476Y-90828761D01*
X193436857Y-90733523D01*
X193436857Y-90352571D01*
X193484476Y-90257333D01*
X193579714Y-90209714D01*
X193770190Y-90209714D01*
X193865428Y-90257333D01*
X193913047Y-90352571D01*
X193913047Y-90447809D01*
X193436857Y-90543047D01*
X194770190Y-90828761D02*
X194674952Y-90876380D01*
X194484476Y-90876380D01*
X194389238Y-90828761D01*
X194341619Y-90781142D01*
X194294000Y-90685904D01*
X194294000Y-90400190D01*
X194341619Y-90304952D01*
X194389238Y-90257333D01*
X194484476Y-90209714D01*
X194674952Y-90209714D01*
X194770190Y-90257333D01*
X195055904Y-90209714D02*
X195436857Y-90209714D01*
X195198761Y-89876380D02*
X195198761Y-90733523D01*
X195246380Y-90828761D01*
X195341619Y-90876380D01*
X195436857Y-90876380D01*
X195913047Y-90876380D02*
X195817809Y-90828761D01*
X195770190Y-90781142D01*
X195722571Y-90685904D01*
X195722571Y-90400190D01*
X195770190Y-90304952D01*
X195817809Y-90257333D01*
X195913047Y-90209714D01*
X196055904Y-90209714D01*
X196151142Y-90257333D01*
X196198761Y-90304952D01*
X196246380Y-90400190D01*
X196246380Y-90685904D01*
X196198761Y-90781142D01*
X196151142Y-90828761D01*
X196055904Y-90876380D01*
X195913047Y-90876380D01*
X196674952Y-90876380D02*
X196674952Y-90209714D01*
X196674952Y-90400190D02*
X196722571Y-90304952D01*
X196770190Y-90257333D01*
X196865428Y-90209714D01*
X196960666Y-90209714D01*
X161893619Y-90781142D02*
X161846000Y-90828761D01*
X161703142Y-90876380D01*
X161607904Y-90876380D01*
X161465047Y-90828761D01*
X161369809Y-90733523D01*
X161322190Y-90638285D01*
X161274571Y-90447809D01*
X161274571Y-90304952D01*
X161322190Y-90114476D01*
X161369809Y-90019238D01*
X161465047Y-89924000D01*
X161607904Y-89876380D01*
X161703142Y-89876380D01*
X161846000Y-89924000D01*
X161893619Y-89971619D01*
X162465047Y-90876380D02*
X162369809Y-90828761D01*
X162322190Y-90781142D01*
X162274571Y-90685904D01*
X162274571Y-90400190D01*
X162322190Y-90304952D01*
X162369809Y-90257333D01*
X162465047Y-90209714D01*
X162607904Y-90209714D01*
X162703142Y-90257333D01*
X162750761Y-90304952D01*
X162798380Y-90400190D01*
X162798380Y-90685904D01*
X162750761Y-90781142D01*
X162703142Y-90828761D01*
X162607904Y-90876380D01*
X162465047Y-90876380D01*
X163226952Y-90209714D02*
X163226952Y-90876380D01*
X163226952Y-90304952D02*
X163274571Y-90257333D01*
X163369809Y-90209714D01*
X163512666Y-90209714D01*
X163607904Y-90257333D01*
X163655523Y-90352571D01*
X163655523Y-90876380D01*
X164131714Y-90209714D02*
X164131714Y-90876380D01*
X164131714Y-90304952D02*
X164179333Y-90257333D01*
X164274571Y-90209714D01*
X164417428Y-90209714D01*
X164512666Y-90257333D01*
X164560285Y-90352571D01*
X164560285Y-90876380D01*
X165417428Y-90828761D02*
X165322190Y-90876380D01*
X165131714Y-90876380D01*
X165036476Y-90828761D01*
X164988857Y-90733523D01*
X164988857Y-90352571D01*
X165036476Y-90257333D01*
X165131714Y-90209714D01*
X165322190Y-90209714D01*
X165417428Y-90257333D01*
X165465047Y-90352571D01*
X165465047Y-90447809D01*
X164988857Y-90543047D01*
X166322190Y-90828761D02*
X166226952Y-90876380D01*
X166036476Y-90876380D01*
X165941238Y-90828761D01*
X165893619Y-90781142D01*
X165846000Y-90685904D01*
X165846000Y-90400190D01*
X165893619Y-90304952D01*
X165941238Y-90257333D01*
X166036476Y-90209714D01*
X166226952Y-90209714D01*
X166322190Y-90257333D01*
X166607904Y-90209714D02*
X166988857Y-90209714D01*
X166750761Y-89876380D02*
X166750761Y-90733523D01*
X166798380Y-90828761D01*
X166893619Y-90876380D01*
X166988857Y-90876380D01*
X167465047Y-90876380D02*
X167369809Y-90828761D01*
X167322190Y-90781142D01*
X167274571Y-90685904D01*
X167274571Y-90400190D01*
X167322190Y-90304952D01*
X167369809Y-90257333D01*
X167465047Y-90209714D01*
X167607904Y-90209714D01*
X167703142Y-90257333D01*
X167750761Y-90304952D01*
X167798380Y-90400190D01*
X167798380Y-90685904D01*
X167750761Y-90781142D01*
X167703142Y-90828761D01*
X167607904Y-90876380D01*
X167465047Y-90876380D01*
X168226952Y-90876380D02*
X168226952Y-90209714D01*
X168226952Y-90400190D02*
X168274571Y-90304952D01*
X168322190Y-90257333D01*
X168417428Y-90209714D01*
X168512666Y-90209714D01*
%TO.C,D1*%
X180617904Y-76652380D02*
X180617904Y-75652380D01*
X180856000Y-75652380D01*
X180998857Y-75700000D01*
X181094095Y-75795238D01*
X181141714Y-75890476D01*
X181189333Y-76080952D01*
X181189333Y-76223809D01*
X181141714Y-76414285D01*
X181094095Y-76509523D01*
X180998857Y-76604761D01*
X180856000Y-76652380D01*
X180617904Y-76652380D01*
X182141714Y-76652380D02*
X181570285Y-76652380D01*
X181856000Y-76652380D02*
X181856000Y-75652380D01*
X181760761Y-75795238D01*
X181665523Y-75890476D01*
X181570285Y-75938095D01*
X148463047Y-61285428D02*
X149224952Y-61285428D01*
X148463047Y-58237428D02*
X149224952Y-58237428D01*
X148844000Y-58618380D02*
X148844000Y-57856476D01*
X148605904Y-55284666D02*
X149082095Y-55284666D01*
X148510666Y-55570380D02*
X148844000Y-54570380D01*
X149177333Y-55570380D01*
X194659619Y-58523142D02*
X194612000Y-58570761D01*
X194469142Y-58618380D01*
X194373904Y-58618380D01*
X194231047Y-58570761D01*
X194135809Y-58475523D01*
X194088190Y-58380285D01*
X194040571Y-58189809D01*
X194040571Y-58046952D01*
X194088190Y-57856476D01*
X194135809Y-57761238D01*
X194231047Y-57666000D01*
X194373904Y-57618380D01*
X194469142Y-57618380D01*
X194612000Y-57666000D01*
X194659619Y-57713619D01*
X195231047Y-58618380D02*
X195135809Y-58570761D01*
X195088190Y-58523142D01*
X195040571Y-58427904D01*
X195040571Y-58142190D01*
X195088190Y-58046952D01*
X195135809Y-57999333D01*
X195231047Y-57951714D01*
X195373904Y-57951714D01*
X195469142Y-57999333D01*
X195516761Y-58046952D01*
X195564380Y-58142190D01*
X195564380Y-58427904D01*
X195516761Y-58523142D01*
X195469142Y-58570761D01*
X195373904Y-58618380D01*
X195231047Y-58618380D01*
X195992952Y-57951714D02*
X195992952Y-58618380D01*
X195992952Y-58046952D02*
X196040571Y-57999333D01*
X196135809Y-57951714D01*
X196278666Y-57951714D01*
X196373904Y-57999333D01*
X196421523Y-58094571D01*
X196421523Y-58618380D01*
X196897714Y-57951714D02*
X196897714Y-58618380D01*
X196897714Y-58046952D02*
X196945333Y-57999333D01*
X197040571Y-57951714D01*
X197183428Y-57951714D01*
X197278666Y-57999333D01*
X197326285Y-58094571D01*
X197326285Y-58618380D01*
X198183428Y-58570761D02*
X198088190Y-58618380D01*
X197897714Y-58618380D01*
X197802476Y-58570761D01*
X197754857Y-58475523D01*
X197754857Y-58094571D01*
X197802476Y-57999333D01*
X197897714Y-57951714D01*
X198088190Y-57951714D01*
X198183428Y-57999333D01*
X198231047Y-58094571D01*
X198231047Y-58189809D01*
X197754857Y-58285047D01*
X199088190Y-58570761D02*
X198992952Y-58618380D01*
X198802476Y-58618380D01*
X198707238Y-58570761D01*
X198659619Y-58523142D01*
X198612000Y-58427904D01*
X198612000Y-58142190D01*
X198659619Y-58046952D01*
X198707238Y-57999333D01*
X198802476Y-57951714D01*
X198992952Y-57951714D01*
X199088190Y-57999333D01*
X199373904Y-57951714D02*
X199754857Y-57951714D01*
X199516761Y-57618380D02*
X199516761Y-58475523D01*
X199564380Y-58570761D01*
X199659619Y-58618380D01*
X199754857Y-58618380D01*
X200231047Y-58618380D02*
X200135809Y-58570761D01*
X200088190Y-58523142D01*
X200040571Y-58427904D01*
X200040571Y-58142190D01*
X200088190Y-58046952D01*
X200135809Y-57999333D01*
X200231047Y-57951714D01*
X200373904Y-57951714D01*
X200469142Y-57999333D01*
X200516761Y-58046952D01*
X200564380Y-58142190D01*
X200564380Y-58427904D01*
X200516761Y-58523142D01*
X200469142Y-58570761D01*
X200373904Y-58618380D01*
X200231047Y-58618380D01*
X200992952Y-58618380D02*
X200992952Y-57951714D01*
X200992952Y-58142190D02*
X201040571Y-58046952D01*
X201088190Y-57999333D01*
X201183428Y-57951714D01*
X201278666Y-57951714D01*
X162401619Y-58523142D02*
X162354000Y-58570761D01*
X162211142Y-58618380D01*
X162115904Y-58618380D01*
X161973047Y-58570761D01*
X161877809Y-58475523D01*
X161830190Y-58380285D01*
X161782571Y-58189809D01*
X161782571Y-58046952D01*
X161830190Y-57856476D01*
X161877809Y-57761238D01*
X161973047Y-57666000D01*
X162115904Y-57618380D01*
X162211142Y-57618380D01*
X162354000Y-57666000D01*
X162401619Y-57713619D01*
X162973047Y-58618380D02*
X162877809Y-58570761D01*
X162830190Y-58523142D01*
X162782571Y-58427904D01*
X162782571Y-58142190D01*
X162830190Y-58046952D01*
X162877809Y-57999333D01*
X162973047Y-57951714D01*
X163115904Y-57951714D01*
X163211142Y-57999333D01*
X163258761Y-58046952D01*
X163306380Y-58142190D01*
X163306380Y-58427904D01*
X163258761Y-58523142D01*
X163211142Y-58570761D01*
X163115904Y-58618380D01*
X162973047Y-58618380D01*
X163734952Y-57951714D02*
X163734952Y-58618380D01*
X163734952Y-58046952D02*
X163782571Y-57999333D01*
X163877809Y-57951714D01*
X164020666Y-57951714D01*
X164115904Y-57999333D01*
X164163523Y-58094571D01*
X164163523Y-58618380D01*
X164639714Y-57951714D02*
X164639714Y-58618380D01*
X164639714Y-58046952D02*
X164687333Y-57999333D01*
X164782571Y-57951714D01*
X164925428Y-57951714D01*
X165020666Y-57999333D01*
X165068285Y-58094571D01*
X165068285Y-58618380D01*
X165925428Y-58570761D02*
X165830190Y-58618380D01*
X165639714Y-58618380D01*
X165544476Y-58570761D01*
X165496857Y-58475523D01*
X165496857Y-58094571D01*
X165544476Y-57999333D01*
X165639714Y-57951714D01*
X165830190Y-57951714D01*
X165925428Y-57999333D01*
X165973047Y-58094571D01*
X165973047Y-58189809D01*
X165496857Y-58285047D01*
X166830190Y-58570761D02*
X166734952Y-58618380D01*
X166544476Y-58618380D01*
X166449238Y-58570761D01*
X166401619Y-58523142D01*
X166354000Y-58427904D01*
X166354000Y-58142190D01*
X166401619Y-58046952D01*
X166449238Y-57999333D01*
X166544476Y-57951714D01*
X166734952Y-57951714D01*
X166830190Y-57999333D01*
X167115904Y-57951714D02*
X167496857Y-57951714D01*
X167258761Y-57618380D02*
X167258761Y-58475523D01*
X167306380Y-58570761D01*
X167401619Y-58618380D01*
X167496857Y-58618380D01*
X167973047Y-58618380D02*
X167877809Y-58570761D01*
X167830190Y-58523142D01*
X167782571Y-58427904D01*
X167782571Y-58142190D01*
X167830190Y-58046952D01*
X167877809Y-57999333D01*
X167973047Y-57951714D01*
X168115904Y-57951714D01*
X168211142Y-57999333D01*
X168258761Y-58046952D01*
X168306380Y-58142190D01*
X168306380Y-58427904D01*
X168258761Y-58523142D01*
X168211142Y-58570761D01*
X168115904Y-58618380D01*
X167973047Y-58618380D01*
X168734952Y-58618380D02*
X168734952Y-57951714D01*
X168734952Y-58142190D02*
X168782571Y-58046952D01*
X168830190Y-57999333D01*
X168925428Y-57951714D01*
X169020666Y-57951714D01*
%TO.C,A1*%
X97598714Y-36514666D02*
X98074904Y-36514666D01*
X97503476Y-36800380D02*
X97836809Y-35800380D01*
X98170142Y-36800380D01*
X99027285Y-36800380D02*
X98455857Y-36800380D01*
X98741571Y-36800380D02*
X98741571Y-35800380D01*
X98646333Y-35943238D01*
X98551095Y-36038476D01*
X98455857Y-36086095D01*
%TD*%
M02*
