%TF.GenerationSoftware,KiCad,Pcbnew,(5.1.10)-1*%
%TF.CreationDate,2022-01-13T07:15:15+07:00*%
%TF.ProjectId,Atuph2,41747570-6832-42e6-9b69-6361645f7063,rev?*%
%TF.SameCoordinates,Original*%
%TF.FileFunction,Copper,L1,Top*%
%TF.FilePolarity,Positive*%
%FSLAX46Y46*%
G04 Gerber Fmt 4.6, Leading zero omitted, Abs format (unit mm)*
G04 Created by KiCad (PCBNEW (5.1.10)-1) date 2022-01-13 07:15:15*
%MOMM*%
%LPD*%
G01*
G04 APERTURE LIST*
%TA.AperFunction,ComponentPad*%
%ADD10O,1.700000X1.700000*%
%TD*%
%TA.AperFunction,ComponentPad*%
%ADD11R,1.700000X1.700000*%
%TD*%
%TA.AperFunction,ComponentPad*%
%ADD12R,3.048000X3.048000*%
%TD*%
%TA.AperFunction,ComponentPad*%
%ADD13C,6.000000*%
%TD*%
%TA.AperFunction,ComponentPad*%
%ADD14O,1.600000X1.600000*%
%TD*%
%TA.AperFunction,ComponentPad*%
%ADD15R,1.600000X1.600000*%
%TD*%
G04 APERTURE END LIST*
D10*
%TO.P,L3,6*%
%TO.N,GND*%
X138012000Y-123698000D03*
%TO.P,L3,4*%
%TO.N,Net-(L1-Pad6)*%
X138012000Y-128778000D03*
%TO.P,L3,2*%
%TO.N,+4V*%
X138012000Y-133858000D03*
D11*
%TO.P,L3,1*%
%TO.N,Net-(L3-Pad1)*%
X138012000Y-136398000D03*
D10*
%TO.P,L3,5*%
%TO.N,Net-(A1-Pad18)*%
X138012000Y-126238000D03*
%TO.P,L3,3*%
%TO.N,Net-(L3-Pad3)*%
X138012000Y-131318000D03*
%TO.P,L3,12*%
%TO.N,Net-(L3-Pad12)*%
X163232000Y-121158000D03*
%TO.P,L3,10*%
%TO.N,Net-(L3-Pad10)*%
X163232000Y-126238000D03*
%TO.P,L3,8*%
%TO.N,Net-(L3-Pad8)*%
X163232000Y-131318000D03*
D11*
%TO.P,L3,7*%
%TO.N,Net-(L3-Pad7)*%
X163232000Y-133858000D03*
D10*
%TO.P,L3,11*%
%TO.N,Net-(L3-Pad11)*%
X163232000Y-123698000D03*
%TO.P,L3,9*%
%TO.N,Net-(L3-Pad9)*%
X163232000Y-128778000D03*
%TD*%
D12*
%TO.P,L2,1*%
%TO.N,+12V*%
X71510000Y-140150000D03*
%TO.P,L2,2*%
%TO.N,GND1*%
X88510000Y-140150000D03*
%TO.P,L2,4*%
%TO.N,GND*%
X88510000Y-101150000D03*
%TO.P,L2,3*%
%TO.N,+4V*%
X71510000Y-101150000D03*
%TD*%
D10*
%TO.P,L1,2*%
%TO.N,Net-(L1-Pad2)*%
X141732000Y-112014000D03*
D11*
%TO.P,L1,1*%
%TO.N,Net-(L1-Pad1)*%
X141732000Y-114554000D03*
D10*
%TO.P,L1,5*%
%TO.N,Net-(J2-Pad4)*%
X141732000Y-104394000D03*
%TO.P,L1,3*%
%TO.N,GND*%
X141732000Y-109474000D03*
%TO.P,L1,6*%
%TO.N,Net-(L1-Pad6)*%
X141732000Y-101854000D03*
%TO.P,L1,4*%
%TO.N,Net-(J2-Pad3)*%
X141732000Y-106934000D03*
%TO.P,L1,9*%
%TO.N,GND*%
X151892000Y-109474000D03*
%TO.P,L1,11*%
%TO.N,Net-(A1-Pad16)*%
X151892000Y-104394000D03*
D11*
%TO.P,L1,7*%
%TO.N,Net-(L1-Pad7)*%
X151892000Y-114554000D03*
D10*
%TO.P,L1,12*%
%TO.N,Net-(A1-Pad17)*%
X151892000Y-101854000D03*
%TO.P,L1,8*%
%TO.N,Net-(L1-Pad8)*%
X151892000Y-112014000D03*
%TO.P,L1,10*%
%TO.N,Net-(A1-Pad15)*%
X151892000Y-106934000D03*
%TD*%
%TO.P,J2,15*%
%TO.N,Net-(J2-Pad15)*%
X129674000Y-104014000D03*
%TO.P,J2,14*%
%TO.N,Net-(J2-Pad14)*%
X129674000Y-106554000D03*
%TO.P,J2,13*%
%TO.N,Net-(J2-Pad13)*%
X129674000Y-109094000D03*
%TO.P,J2,12*%
%TO.N,Net-(J2-Pad12)*%
X129674000Y-111634000D03*
%TO.P,J2,11*%
%TO.N,Net-(J2-Pad11)*%
X129674000Y-114174000D03*
%TO.P,J2,10*%
%TO.N,Net-(J2-Pad10)*%
X129674000Y-116714000D03*
%TO.P,J2,9*%
%TO.N,Net-(J2-Pad9)*%
X129674000Y-119254000D03*
%TO.P,J2,8*%
%TO.N,Net-(J2-Pad8)*%
X129674000Y-121794000D03*
%TO.P,J2,7*%
%TO.N,Net-(J2-Pad7)*%
X129674000Y-124334000D03*
%TO.P,J2,6*%
%TO.N,Net-(J2-Pad6)*%
X129674000Y-126874000D03*
%TO.P,J2,5*%
%TO.N,Net-(J2-Pad5)*%
X129674000Y-129414000D03*
%TO.P,J2,4*%
%TO.N,Net-(J2-Pad4)*%
X129674000Y-131954000D03*
%TO.P,J2,3*%
%TO.N,Net-(J2-Pad3)*%
X129674000Y-134494000D03*
%TO.P,J2,2*%
%TO.N,Net-(J2-Pad2)*%
X129674000Y-137034000D03*
D11*
%TO.P,J2,1*%
%TO.N,Net-(J2-Pad1)*%
X129674000Y-139574000D03*
%TD*%
D10*
%TO.P,J1,15*%
%TO.N,+3V3*%
X98474000Y-139574000D03*
%TO.P,J1,14*%
%TO.N,GND*%
X98474000Y-137034000D03*
%TO.P,J1,13*%
%TO.N,Net-(J1-Pad13)*%
X98474000Y-134494000D03*
%TO.P,J1,12*%
%TO.N,Net-(J1-Pad12)*%
X98474000Y-131954000D03*
%TO.P,J1,11*%
%TO.N,Net-(J1-Pad11)*%
X98474000Y-129414000D03*
%TO.P,J1,10*%
%TO.N,Net-(J1-Pad10)*%
X98474000Y-126874000D03*
%TO.P,J1,9*%
%TO.N,Net-(J1-Pad9)*%
X98474000Y-124334000D03*
%TO.P,J1,8*%
%TO.N,Net-(J1-Pad8)*%
X98474000Y-121794000D03*
%TO.P,J1,7*%
%TO.N,Net-(J1-Pad7)*%
X98474000Y-119254000D03*
%TO.P,J1,6*%
%TO.N,Net-(J1-Pad6)*%
X98474000Y-116714000D03*
%TO.P,J1,5*%
%TO.N,Net-(J1-Pad5)*%
X98474000Y-114174000D03*
%TO.P,J1,4*%
%TO.N,Net-(J1-Pad4)*%
X98474000Y-111634000D03*
%TO.P,J1,3*%
%TO.N,Net-(J1-Pad3)*%
X98474000Y-109094000D03*
%TO.P,J1,2*%
%TO.N,Net-(J1-Pad2)*%
X98474000Y-106554000D03*
D11*
%TO.P,J1,1*%
%TO.N,Net-(J1-Pad1)*%
X98474000Y-104014000D03*
%TD*%
D13*
%TO.P,H4,1*%
%TO.N,N/C*%
X207474000Y-148014000D03*
%TD*%
%TO.P,H3,1*%
%TO.N,N/C*%
X62474000Y-148014000D03*
%TD*%
%TO.P,H2,1*%
%TO.N,N/C*%
X62474000Y-36014000D03*
%TD*%
%TO.P,H1,1*%
%TO.N,N/C*%
X207474000Y-37014000D03*
%TD*%
D11*
%TO.P,D2,2*%
%TO.N,+5V*%
X145594000Y-90424000D03*
%TO.P,D2,1*%
%TO.N,GND*%
X145594000Y-93472000D03*
%TO.P,D2,3*%
%TO.N,Net-(A1-Pad10)*%
X145594000Y-87376000D03*
D13*
%TO.P,D2,7*%
%TO.N,N/C*%
X164592000Y-100330000D03*
%TO.P,D2,6*%
X164592000Y-80548000D03*
%TO.P,D2,4*%
X194614000Y-100360000D03*
%TO.P,D2,5*%
X194564000Y-80518000D03*
%TD*%
D11*
%TO.P,D1,3*%
%TO.N,Net-(A1-Pad9)*%
X145356000Y-55118000D03*
%TO.P,D1,2*%
%TO.N,+5V*%
X145356000Y-58166000D03*
%TO.P,D1,1*%
%TO.N,GND*%
X145356000Y-61214000D03*
D13*
%TO.P,D1,5*%
%TO.N,N/C*%
X198356000Y-46166000D03*
%TO.P,D1,6*%
X164356000Y-46166000D03*
%TO.P,D1,7*%
X164356000Y-70166000D03*
%TO.P,D1,4*%
X198356000Y-70166000D03*
%TD*%
D14*
%TO.P,A1,20*%
%TO.N,Net-(A1-Pad20)*%
X121173000Y-42698000D03*
%TO.P,A1,28*%
%TO.N,Net-(A1-Pad28)*%
X99333000Y-42698000D03*
%TO.P,A1,24*%
%TO.N,Net-(A1-Pad24)*%
X109493000Y-42698000D03*
%TO.P,A1,29*%
%TO.N,Net-(A1-Pad29)*%
X96793000Y-42698000D03*
%TO.P,A1,30*%
%TO.N,Net-(A1-Pad30)*%
X94253000Y-42698000D03*
%TO.P,A1,15*%
%TO.N,Net-(A1-Pad15)*%
X133873000Y-42698000D03*
%TO.P,A1,22*%
%TO.N,Net-(A1-Pad22)*%
X116093000Y-42698000D03*
%TO.P,A1,21*%
%TO.N,Net-(A1-Pad21)*%
X118633000Y-42698000D03*
%TO.P,A1,18*%
%TO.N,Net-(A1-Pad18)*%
X126253000Y-42698000D03*
%TO.P,A1,16*%
%TO.N,Net-(A1-Pad16)*%
X131333000Y-42698000D03*
%TO.P,A1,17*%
%TO.N,Net-(A1-Pad17)*%
X128793000Y-42698000D03*
%TO.P,A1,19*%
%TO.N,Net-(A1-Pad19)*%
X123713000Y-42698000D03*
%TO.P,A1,31*%
%TO.N,Net-(A1-Pad31)*%
X91713000Y-42698000D03*
%TO.P,A1,32*%
%TO.N,Net-(A1-Pad32)*%
X89173000Y-42698000D03*
%TO.P,A1,26*%
%TO.N,Net-(A1-Pad26)*%
X104413000Y-42698000D03*
%TO.P,A1,25*%
%TO.N,Net-(A1-Pad25)*%
X106953000Y-42698000D03*
%TO.P,A1,23*%
%TO.N,Net-(A1-Pad23)*%
X112033000Y-42698000D03*
%TO.P,A1,27*%
%TO.N,Net-(A1-Pad27)*%
X101873000Y-42698000D03*
%TO.P,A1,2*%
%TO.N,Net-(A1-Pad2)*%
X100853000Y-85878000D03*
%TO.P,A1,8*%
%TO.N,+12V*%
X116093000Y-85878000D03*
D15*
%TO.P,A1,1*%
%TO.N,Net-(A1-Pad1)*%
X98313000Y-85878000D03*
D14*
%TO.P,A1,6*%
%TO.N,GND*%
X111013000Y-85878000D03*
%TO.P,A1,3*%
%TO.N,Net-(A1-Pad3)*%
X103393000Y-85878000D03*
%TO.P,A1,7*%
%TO.N,GND1*%
X113553000Y-85878000D03*
%TO.P,A1,14*%
%TO.N,Net-(A1-Pad14)*%
X133873000Y-85878000D03*
%TO.P,A1,4*%
%TO.N,+3V3*%
X105933000Y-85878000D03*
%TO.P,A1,5*%
%TO.N,+5V*%
X108473000Y-85878000D03*
%TO.P,A1,11*%
%TO.N,Net-(A1-Pad11)*%
X126253000Y-85878000D03*
%TO.P,A1,9*%
%TO.N,Net-(A1-Pad9)*%
X121173000Y-85878000D03*
%TO.P,A1,10*%
%TO.N,Net-(A1-Pad10)*%
X123713000Y-85878000D03*
%TO.P,A1,12*%
%TO.N,Net-(A1-Pad12)*%
X128793000Y-85878000D03*
%TO.P,A1,13*%
%TO.N,Net-(A1-Pad13)*%
X131333000Y-85878000D03*
%TD*%
M02*
