%TF.GenerationSoftware,KiCad,Pcbnew,(5.1.10)-1*%
%TF.CreationDate,2022-01-13T05:40:57+07:00*%
%TF.ProjectId,Atuph,41747570-682e-46b6-9963-61645f706362,rev?*%
%TF.SameCoordinates,Original*%
%TF.FileFunction,Copper,L1,Top*%
%TF.FilePolarity,Positive*%
%FSLAX46Y46*%
G04 Gerber Fmt 4.6, Leading zero omitted, Abs format (unit mm)*
G04 Created by KiCad (PCBNEW (5.1.10)-1) date 2022-01-13 05:40:57*
%MOMM*%
%LPD*%
G01*
G04 APERTURE LIST*
%TA.AperFunction,ComponentPad*%
%ADD10O,1.600000X1.600000*%
%TD*%
%TA.AperFunction,ComponentPad*%
%ADD11R,1.600000X1.600000*%
%TD*%
%TA.AperFunction,ComponentPad*%
%ADD12O,1.700000X1.700000*%
%TD*%
%TA.AperFunction,ComponentPad*%
%ADD13R,1.700000X1.700000*%
%TD*%
%TA.AperFunction,ComponentPad*%
%ADD14C,6.000000*%
%TD*%
%TA.AperFunction,ComponentPad*%
%ADD15R,3.048000X3.048000*%
%TD*%
G04 APERTURE END LIST*
D10*
%TO.P,A1,20*%
%TO.N,Net-(A1-Pad20)*%
X137558000Y-79627000D03*
%TO.P,A1,28*%
%TO.N,Net-(A1-Pad28)*%
X115718000Y-79627000D03*
%TO.P,A1,24*%
%TO.N,Net-(A1-Pad24)*%
X125878000Y-79627000D03*
%TO.P,A1,29*%
%TO.N,Net-(A1-Pad29)*%
X113178000Y-79627000D03*
%TO.P,A1,30*%
%TO.N,Net-(A1-Pad30)*%
X110638000Y-79627000D03*
%TO.P,A1,15*%
%TO.N,Net-(A1-Pad15)*%
X150258000Y-79627000D03*
%TO.P,A1,22*%
%TO.N,Net-(A1-Pad22)*%
X132478000Y-79627000D03*
%TO.P,A1,21*%
%TO.N,Net-(A1-Pad21)*%
X135018000Y-79627000D03*
%TO.P,A1,18*%
%TO.N,Net-(A1-Pad18)*%
X142638000Y-79627000D03*
%TO.P,A1,16*%
%TO.N,Net-(A1-Pad16)*%
X147718000Y-79627000D03*
%TO.P,A1,17*%
%TO.N,Net-(A1-Pad17)*%
X145178000Y-79627000D03*
%TO.P,A1,19*%
%TO.N,Net-(A1-Pad19)*%
X140098000Y-79627000D03*
%TO.P,A1,31*%
%TO.N,Net-(A1-Pad31)*%
X108098000Y-79627000D03*
%TO.P,A1,32*%
%TO.N,Net-(A1-Pad32)*%
X105558000Y-79627000D03*
%TO.P,A1,26*%
%TO.N,Net-(A1-Pad26)*%
X120798000Y-79627000D03*
%TO.P,A1,25*%
%TO.N,Net-(A1-Pad25)*%
X123338000Y-79627000D03*
%TO.P,A1,23*%
%TO.N,Net-(A1-Pad23)*%
X128418000Y-79627000D03*
%TO.P,A1,27*%
%TO.N,Net-(A1-Pad27)*%
X118258000Y-79627000D03*
%TO.P,A1,2*%
%TO.N,Net-(A1-Pad2)*%
X117238000Y-122807000D03*
%TO.P,A1,8*%
%TO.N,+12V*%
X132478000Y-122807000D03*
D11*
%TO.P,A1,1*%
%TO.N,Net-(A1-Pad1)*%
X114698000Y-122807000D03*
D10*
%TO.P,A1,6*%
%TO.N,GND*%
X127398000Y-122807000D03*
%TO.P,A1,3*%
%TO.N,Net-(A1-Pad3)*%
X119778000Y-122807000D03*
%TO.P,A1,7*%
%TO.N,GND1*%
X129938000Y-122807000D03*
%TO.P,A1,14*%
%TO.N,Net-(A1-Pad14)*%
X150258000Y-122807000D03*
%TO.P,A1,4*%
%TO.N,+3V3*%
X122318000Y-122807000D03*
%TO.P,A1,5*%
%TO.N,+5V*%
X124858000Y-122807000D03*
%TO.P,A1,11*%
%TO.N,Net-(A1-Pad11)*%
X142638000Y-122807000D03*
%TO.P,A1,9*%
%TO.N,Net-(A1-Pad9)*%
X137558000Y-122807000D03*
%TO.P,A1,10*%
%TO.N,Net-(A1-Pad10)*%
X140098000Y-122807000D03*
%TO.P,A1,12*%
%TO.N,Net-(A1-Pad12)*%
X145178000Y-122807000D03*
%TO.P,A1,13*%
%TO.N,Net-(A1-Pad13)*%
X147718000Y-122807000D03*
%TD*%
D12*
%TO.P,L1,2*%
%TO.N,Net-(L1-Pad2)*%
X133144000Y-49007000D03*
D13*
%TO.P,L1,1*%
%TO.N,Net-(L1-Pad1)*%
X133144000Y-46467000D03*
D12*
%TO.P,L1,5*%
%TO.N,Net-(E1-Pad15)*%
X133144000Y-56627000D03*
%TO.P,L1,3*%
%TO.N,GND*%
X133144000Y-51547000D03*
%TO.P,L1,6*%
%TO.N,Net-(L1-Pad6)*%
X133144000Y-59167000D03*
%TO.P,L1,4*%
%TO.N,Net-(E1-Pad16)*%
X133144000Y-54087000D03*
%TO.P,L1,9*%
%TO.N,GND*%
X122984000Y-51547000D03*
%TO.P,L1,11*%
%TO.N,Net-(A1-Pad16)*%
X122984000Y-56627000D03*
D13*
%TO.P,L1,7*%
%TO.N,Net-(L1-Pad7)*%
X122984000Y-46467000D03*
D12*
%TO.P,L1,12*%
%TO.N,Net-(A1-Pad17)*%
X122984000Y-59167000D03*
%TO.P,L1,8*%
%TO.N,Net-(L1-Pad8)*%
X122984000Y-49007000D03*
%TO.P,L1,10*%
%TO.N,Net-(A1-Pad15)*%
X122984000Y-54087000D03*
%TD*%
%TO.P,E1,6*%
%TO.N,Net-(E1-Pad6)*%
X86248000Y-50863000D03*
D13*
%TO.P,E1,1*%
%TO.N,+3V3*%
X86248000Y-63563000D03*
D12*
%TO.P,E1,8*%
%TO.N,Net-(E1-Pad8)*%
X86248000Y-45783000D03*
%TO.P,E1,4*%
%TO.N,Net-(E1-Pad4)*%
X86248000Y-55943000D03*
%TO.P,E1,3*%
%TO.N,Net-(E1-Pad3)*%
X86248000Y-58483000D03*
%TO.P,E1,2*%
%TO.N,Net-(E1-Pad2)*%
X86248000Y-61023000D03*
%TO.P,E1,7*%
%TO.N,Net-(E1-Pad7)*%
X86248000Y-48323000D03*
%TO.P,E1,5*%
%TO.N,Net-(E1-Pad5)*%
X86248000Y-53403000D03*
%TO.P,E1,15*%
%TO.N,Net-(E1-Pad15)*%
X114188000Y-48323000D03*
%TO.P,E1,13*%
%TO.N,Net-(E1-Pad13)*%
X114188000Y-53403000D03*
%TO.P,E1,10*%
%TO.N,Net-(E1-Pad10)*%
X114188000Y-61023000D03*
%TO.P,E1,11*%
%TO.N,Net-(E1-Pad11)*%
X114188000Y-58483000D03*
%TO.P,E1,12*%
%TO.N,Net-(E1-Pad12)*%
X114188000Y-55943000D03*
%TO.P,E1,16*%
%TO.N,Net-(E1-Pad16)*%
X114188000Y-45783000D03*
D13*
%TO.P,E1,9*%
%TO.N,GND*%
X114188000Y-63563000D03*
D12*
%TO.P,E1,14*%
%TO.N,Net-(E1-Pad14)*%
X114188000Y-50863000D03*
%TD*%
D14*
%TO.P,H4,1*%
%TO.N,N/C*%
X77000000Y-33000000D03*
%TD*%
%TO.P,H3,1*%
%TO.N,N/C*%
X226000000Y-33000000D03*
%TD*%
%TO.P,H2,1*%
%TO.N,N/C*%
X226000000Y-136000000D03*
%TD*%
%TO.P,H1,1*%
%TO.N,N/C*%
X77000000Y-136000000D03*
%TD*%
D13*
%TO.P,D1,3*%
%TO.N,Net-(A1-Pad9)*%
X164627000Y-83183000D03*
%TO.P,D1,2*%
%TO.N,+5V*%
X164627000Y-86231000D03*
%TO.P,D1,1*%
%TO.N,GND*%
X164627000Y-89279000D03*
D14*
%TO.P,D1,5*%
%TO.N,N/C*%
X216627000Y-74231000D03*
%TO.P,D1,6*%
X182627000Y-74231000D03*
%TO.P,D1,7*%
X182627000Y-98231000D03*
%TO.P,D1,4*%
X216627000Y-98231000D03*
%TD*%
D13*
%TO.P,D2,2*%
%TO.N,+5V*%
X163494000Y-119168000D03*
%TO.P,D2,1*%
%TO.N,GND*%
X163494000Y-122216000D03*
%TO.P,D2,3*%
%TO.N,Net-(A1-Pad10)*%
X163494000Y-116120000D03*
D14*
%TO.P,D2,7*%
%TO.N,N/C*%
X182492000Y-129074000D03*
%TO.P,D2,6*%
X182492000Y-109292000D03*
%TO.P,D2,4*%
X212514000Y-129104000D03*
%TO.P,D2,5*%
X212464000Y-109262000D03*
%TD*%
D12*
%TO.P,L3,6*%
%TO.N,GND*%
X167922000Y-55388000D03*
%TO.P,L3,4*%
%TO.N,Net-(L1-Pad6)*%
X167922000Y-50308000D03*
%TO.P,L3,2*%
%TO.N,+4V*%
X167922000Y-45228000D03*
D13*
%TO.P,L3,1*%
%TO.N,Net-(L3-Pad1)*%
X167922000Y-42688000D03*
D12*
%TO.P,L3,5*%
%TO.N,Net-(A1-Pad18)*%
X167922000Y-52848000D03*
%TO.P,L3,3*%
%TO.N,Net-(L3-Pad3)*%
X167922000Y-47768000D03*
%TO.P,L3,12*%
%TO.N,Net-(L3-Pad12)*%
X142702000Y-57928000D03*
%TO.P,L3,10*%
%TO.N,Net-(L3-Pad10)*%
X142702000Y-52848000D03*
%TO.P,L3,8*%
%TO.N,Net-(L3-Pad8)*%
X142702000Y-47768000D03*
D13*
%TO.P,L3,7*%
%TO.N,Net-(L3-Pad7)*%
X142702000Y-45228000D03*
D12*
%TO.P,L3,11*%
%TO.N,Net-(L3-Pad11)*%
X142702000Y-55388000D03*
%TO.P,L3,9*%
%TO.N,Net-(L3-Pad9)*%
X142702000Y-50308000D03*
%TD*%
D15*
%TO.P,L2,1*%
%TO.N,+12V*%
X218967000Y-61914000D03*
%TO.P,L2,2*%
%TO.N,GND1*%
X218967000Y-44914000D03*
%TO.P,L2,4*%
%TO.N,GND*%
X179967000Y-44914000D03*
%TO.P,L2,3*%
%TO.N,+4V*%
X179967000Y-61914000D03*
%TD*%
M02*
