%TF.GenerationSoftware,KiCad,Pcbnew,(5.1.10)-1*%
%TF.CreationDate,2022-01-13T07:12:19+07:00*%
%TF.ProjectId,Atuph,41747570-682e-46b6-9963-61645f706362,rev?*%
%TF.SameCoordinates,Original*%
%TF.FileFunction,Copper,L2,Bot*%
%TF.FilePolarity,Positive*%
%FSLAX46Y46*%
G04 Gerber Fmt 4.6, Leading zero omitted, Abs format (unit mm)*
G04 Created by KiCad (PCBNEW (5.1.10)-1) date 2022-01-13 07:12:19*
%MOMM*%
%LPD*%
G01*
G04 APERTURE LIST*
%TA.AperFunction,ComponentPad*%
%ADD10O,1.600000X1.600000*%
%TD*%
%TA.AperFunction,ComponentPad*%
%ADD11R,1.600000X1.600000*%
%TD*%
%TA.AperFunction,ComponentPad*%
%ADD12O,1.700000X1.700000*%
%TD*%
%TA.AperFunction,ComponentPad*%
%ADD13R,1.700000X1.700000*%
%TD*%
%TA.AperFunction,ComponentPad*%
%ADD14C,6.000000*%
%TD*%
%TA.AperFunction,ComponentPad*%
%ADD15R,3.048000X3.048000*%
%TD*%
%TA.AperFunction,Conductor*%
%ADD16C,0.300000*%
%TD*%
%TA.AperFunction,Conductor*%
%ADD17C,1.000000*%
%TD*%
%TA.AperFunction,Conductor*%
%ADD18C,0.100000*%
%TD*%
G04 APERTURE END LIST*
D10*
%TO.P,A1,20*%
%TO.N,Net-(A1-Pad20)*%
X137558000Y-79627000D03*
%TO.P,A1,28*%
%TO.N,Net-(A1-Pad28)*%
X115718000Y-79627000D03*
%TO.P,A1,24*%
%TO.N,Net-(A1-Pad24)*%
X125878000Y-79627000D03*
%TO.P,A1,29*%
%TO.N,Net-(A1-Pad29)*%
X113178000Y-79627000D03*
%TO.P,A1,30*%
%TO.N,Net-(A1-Pad30)*%
X110638000Y-79627000D03*
%TO.P,A1,15*%
%TO.N,Net-(A1-Pad15)*%
X150258000Y-79627000D03*
%TO.P,A1,22*%
%TO.N,Net-(A1-Pad22)*%
X132478000Y-79627000D03*
%TO.P,A1,21*%
%TO.N,Net-(A1-Pad21)*%
X135018000Y-79627000D03*
%TO.P,A1,18*%
%TO.N,Net-(A1-Pad18)*%
X142638000Y-79627000D03*
%TO.P,A1,16*%
%TO.N,Net-(A1-Pad16)*%
X147718000Y-79627000D03*
%TO.P,A1,17*%
%TO.N,Net-(A1-Pad17)*%
X145178000Y-79627000D03*
%TO.P,A1,19*%
%TO.N,Net-(A1-Pad19)*%
X140098000Y-79627000D03*
%TO.P,A1,31*%
%TO.N,Net-(A1-Pad31)*%
X108098000Y-79627000D03*
%TO.P,A1,32*%
%TO.N,Net-(A1-Pad32)*%
X105558000Y-79627000D03*
%TO.P,A1,26*%
%TO.N,Net-(A1-Pad26)*%
X120798000Y-79627000D03*
%TO.P,A1,25*%
%TO.N,Net-(A1-Pad25)*%
X123338000Y-79627000D03*
%TO.P,A1,23*%
%TO.N,Net-(A1-Pad23)*%
X128418000Y-79627000D03*
%TO.P,A1,27*%
%TO.N,Net-(A1-Pad27)*%
X118258000Y-79627000D03*
%TO.P,A1,2*%
%TO.N,Net-(A1-Pad2)*%
X117238000Y-122807000D03*
%TO.P,A1,8*%
%TO.N,+12V*%
X132478000Y-122807000D03*
D11*
%TO.P,A1,1*%
%TO.N,Net-(A1-Pad1)*%
X114698000Y-122807000D03*
D10*
%TO.P,A1,6*%
%TO.N,GND*%
X127398000Y-122807000D03*
%TO.P,A1,3*%
%TO.N,Net-(A1-Pad3)*%
X119778000Y-122807000D03*
%TO.P,A1,7*%
%TO.N,GND1*%
X129938000Y-122807000D03*
%TO.P,A1,14*%
%TO.N,Net-(A1-Pad14)*%
X150258000Y-122807000D03*
%TO.P,A1,4*%
%TO.N,+3V3*%
X122318000Y-122807000D03*
%TO.P,A1,5*%
%TO.N,+5V*%
X124858000Y-122807000D03*
%TO.P,A1,11*%
%TO.N,Net-(A1-Pad11)*%
X142638000Y-122807000D03*
%TO.P,A1,9*%
%TO.N,Net-(A1-Pad9)*%
X137558000Y-122807000D03*
%TO.P,A1,10*%
%TO.N,Net-(A1-Pad10)*%
X140098000Y-122807000D03*
%TO.P,A1,12*%
%TO.N,Net-(A1-Pad12)*%
X145178000Y-122807000D03*
%TO.P,A1,13*%
%TO.N,Net-(A1-Pad13)*%
X147718000Y-122807000D03*
%TD*%
D12*
%TO.P,L1,2*%
%TO.N,Net-(L1-Pad2)*%
X133144000Y-49007000D03*
D13*
%TO.P,L1,1*%
%TO.N,Net-(L1-Pad1)*%
X133144000Y-46467000D03*
D12*
%TO.P,L1,5*%
%TO.N,Net-(E1-Pad15)*%
X133144000Y-56627000D03*
%TO.P,L1,3*%
%TO.N,GND*%
X133144000Y-51547000D03*
%TO.P,L1,6*%
%TO.N,Net-(L1-Pad6)*%
X133144000Y-59167000D03*
%TO.P,L1,4*%
%TO.N,Net-(E1-Pad16)*%
X133144000Y-54087000D03*
%TO.P,L1,9*%
%TO.N,GND*%
X122984000Y-51547000D03*
%TO.P,L1,11*%
%TO.N,Net-(A1-Pad16)*%
X122984000Y-56627000D03*
D13*
%TO.P,L1,7*%
%TO.N,Net-(L1-Pad7)*%
X122984000Y-46467000D03*
D12*
%TO.P,L1,12*%
%TO.N,Net-(A1-Pad17)*%
X122984000Y-59167000D03*
%TO.P,L1,8*%
%TO.N,Net-(L1-Pad8)*%
X122984000Y-49007000D03*
%TO.P,L1,10*%
%TO.N,Net-(A1-Pad15)*%
X122984000Y-54087000D03*
%TD*%
%TO.P,E1,6*%
%TO.N,Net-(E1-Pad6)*%
X86248000Y-50863000D03*
D13*
%TO.P,E1,1*%
%TO.N,+3V3*%
X86248000Y-63563000D03*
D12*
%TO.P,E1,8*%
%TO.N,Net-(E1-Pad8)*%
X86248000Y-45783000D03*
%TO.P,E1,4*%
%TO.N,Net-(E1-Pad4)*%
X86248000Y-55943000D03*
%TO.P,E1,3*%
%TO.N,Net-(E1-Pad3)*%
X86248000Y-58483000D03*
%TO.P,E1,2*%
%TO.N,Net-(E1-Pad2)*%
X86248000Y-61023000D03*
%TO.P,E1,7*%
%TO.N,Net-(E1-Pad7)*%
X86248000Y-48323000D03*
%TO.P,E1,5*%
%TO.N,Net-(E1-Pad5)*%
X86248000Y-53403000D03*
%TO.P,E1,15*%
%TO.N,Net-(E1-Pad15)*%
X114188000Y-48323000D03*
%TO.P,E1,13*%
%TO.N,Net-(E1-Pad13)*%
X114188000Y-53403000D03*
%TO.P,E1,10*%
%TO.N,Net-(E1-Pad10)*%
X114188000Y-61023000D03*
%TO.P,E1,11*%
%TO.N,Net-(E1-Pad11)*%
X114188000Y-58483000D03*
%TO.P,E1,12*%
%TO.N,Net-(E1-Pad12)*%
X114188000Y-55943000D03*
%TO.P,E1,16*%
%TO.N,Net-(E1-Pad16)*%
X114188000Y-45783000D03*
D13*
%TO.P,E1,9*%
%TO.N,GND*%
X114188000Y-63563000D03*
D12*
%TO.P,E1,14*%
%TO.N,Net-(E1-Pad14)*%
X114188000Y-50863000D03*
%TD*%
D14*
%TO.P,H4,1*%
%TO.N,N/C*%
X77000000Y-33000000D03*
%TD*%
%TO.P,H3,1*%
%TO.N,N/C*%
X226000000Y-33000000D03*
%TD*%
%TO.P,H2,1*%
%TO.N,N/C*%
X226000000Y-136000000D03*
%TD*%
%TO.P,H1,1*%
%TO.N,N/C*%
X77000000Y-136000000D03*
%TD*%
D13*
%TO.P,D1,3*%
%TO.N,Net-(A1-Pad9)*%
X164627000Y-83183000D03*
%TO.P,D1,2*%
%TO.N,+5V*%
X164627000Y-86231000D03*
%TO.P,D1,1*%
%TO.N,GND*%
X164627000Y-89279000D03*
D14*
%TO.P,D1,5*%
%TO.N,N/C*%
X216627000Y-74231000D03*
%TO.P,D1,6*%
X182627000Y-74231000D03*
%TO.P,D1,7*%
X182627000Y-98231000D03*
%TO.P,D1,4*%
X216627000Y-98231000D03*
%TD*%
D13*
%TO.P,D2,2*%
%TO.N,+5V*%
X163494000Y-119168000D03*
%TO.P,D2,1*%
%TO.N,GND*%
X163494000Y-122216000D03*
%TO.P,D2,3*%
%TO.N,Net-(A1-Pad10)*%
X163494000Y-116120000D03*
D14*
%TO.P,D2,7*%
%TO.N,N/C*%
X182492000Y-129074000D03*
%TO.P,D2,6*%
X182492000Y-109292000D03*
%TO.P,D2,4*%
X212514000Y-129104000D03*
%TO.P,D2,5*%
X212464000Y-109262000D03*
%TD*%
D12*
%TO.P,L3,6*%
%TO.N,GND*%
X167922000Y-55388000D03*
%TO.P,L3,4*%
%TO.N,Net-(L1-Pad6)*%
X167922000Y-50308000D03*
%TO.P,L3,2*%
%TO.N,+4V*%
X167922000Y-45228000D03*
D13*
%TO.P,L3,1*%
%TO.N,Net-(L3-Pad1)*%
X167922000Y-42688000D03*
D12*
%TO.P,L3,5*%
%TO.N,Net-(A1-Pad18)*%
X167922000Y-52848000D03*
%TO.P,L3,3*%
%TO.N,Net-(L3-Pad3)*%
X167922000Y-47768000D03*
%TO.P,L3,12*%
%TO.N,Net-(L3-Pad12)*%
X142702000Y-57928000D03*
%TO.P,L3,10*%
%TO.N,Net-(L3-Pad10)*%
X142702000Y-52848000D03*
%TO.P,L3,8*%
%TO.N,Net-(L3-Pad8)*%
X142702000Y-47768000D03*
D13*
%TO.P,L3,7*%
%TO.N,Net-(L3-Pad7)*%
X142702000Y-45228000D03*
D12*
%TO.P,L3,11*%
%TO.N,Net-(L3-Pad11)*%
X142702000Y-55388000D03*
%TO.P,L3,9*%
%TO.N,Net-(L3-Pad9)*%
X142702000Y-50308000D03*
%TD*%
D15*
%TO.P,L2,1*%
%TO.N,+12V*%
X218967000Y-61914000D03*
%TO.P,L2,2*%
%TO.N,GND1*%
X218967000Y-44914000D03*
%TO.P,L2,4*%
%TO.N,GND*%
X179967000Y-44914000D03*
%TO.P,L2,3*%
%TO.N,+4V*%
X179967000Y-61914000D03*
%TD*%
D16*
%TO.N,Net-(A1-Pad16)*%
X147718000Y-79627000D02*
X147718000Y-76853000D01*
X147718000Y-76853000D02*
X144698000Y-73833000D01*
X144698000Y-73833000D02*
X126635000Y-73833000D01*
X126635000Y-73833000D02*
X125207000Y-72405000D01*
X125207000Y-58850000D02*
X122984000Y-56627000D01*
X125207000Y-72405000D02*
X125207000Y-58850000D01*
%TO.N,Net-(A1-Pad15)*%
X150258000Y-79627000D02*
X150258000Y-76364000D01*
X150258000Y-76364000D02*
X146059000Y-72165000D01*
X146059000Y-72165000D02*
X128915000Y-72165000D01*
X128915000Y-72165000D02*
X126704000Y-69954000D01*
X126704000Y-57807000D02*
X122984000Y-54087000D01*
X126704000Y-69954000D02*
X126704000Y-57807000D01*
%TO.N,Net-(A1-Pad18)*%
X142638000Y-79627000D02*
X142638000Y-81404000D01*
X142638000Y-81404000D02*
X143175000Y-81941000D01*
X143175000Y-81941000D02*
X158655000Y-81941000D01*
X158655000Y-81941000D02*
X163606000Y-76990000D01*
X163606000Y-76990000D02*
X163606000Y-54258000D01*
X165016000Y-52848000D02*
X167922000Y-52848000D01*
X163606000Y-54258000D02*
X165016000Y-52848000D01*
%TO.N,Net-(A1-Pad17)*%
X145178000Y-79627000D02*
X145178000Y-77205000D01*
X145178000Y-77205000D02*
X143609000Y-75636000D01*
X143609000Y-75636000D02*
X124085000Y-75636000D01*
X122984000Y-74535000D02*
X122984000Y-59167000D01*
X124085000Y-75636000D02*
X122984000Y-74535000D01*
%TO.N,Net-(A1-Pad10)*%
X140098000Y-122807000D02*
X140098000Y-118311000D01*
X142289000Y-116120000D02*
X163478000Y-116120000D01*
X140098000Y-118311000D02*
X142289000Y-116120000D01*
%TO.N,Net-(A1-Pad9)*%
X137558000Y-122807000D02*
X137558000Y-117318000D01*
X137558000Y-117318000D02*
X141778000Y-113098000D01*
X141778000Y-113098000D02*
X159097000Y-113098000D01*
X159097000Y-113098000D02*
X161895000Y-110300000D01*
X161895000Y-85915000D02*
X164627000Y-83183000D01*
X161895000Y-110300000D02*
X161895000Y-85915000D01*
%TO.N,Net-(L1-Pad6)*%
X167922000Y-50308000D02*
X164627000Y-50308000D01*
X164627000Y-50308000D02*
X159771000Y-55164000D01*
X159771000Y-55164000D02*
X159771000Y-59627000D01*
X159771000Y-59627000D02*
X157052000Y-62346000D01*
X157052000Y-62346000D02*
X134877000Y-62346000D01*
X133144000Y-60613000D02*
X133144000Y-59167000D01*
X134877000Y-62346000D02*
X133144000Y-60613000D01*
%TO.N,+3V3*%
X122318000Y-122807000D02*
X122318000Y-118415000D01*
X122318000Y-118415000D02*
X118604000Y-114701000D01*
X118604000Y-114701000D02*
X90089000Y-114701000D01*
X86248000Y-110860000D02*
X86248000Y-63563000D01*
X90089000Y-114701000D02*
X86248000Y-110860000D01*
%TO.N,+5V*%
X163478000Y-119168000D02*
X165252000Y-119168000D01*
X165252000Y-119168000D02*
X167191000Y-117229000D01*
X167191000Y-117229000D02*
X167191000Y-87485000D01*
X165937000Y-86231000D02*
X164627000Y-86231000D01*
X167191000Y-87485000D02*
X165937000Y-86231000D01*
X124858000Y-122807000D02*
X124858000Y-115731000D01*
X124858000Y-115731000D02*
X130367000Y-110222000D01*
X130367000Y-110222000D02*
X155970000Y-110222000D01*
X155970000Y-110222000D02*
X159384000Y-106808000D01*
X159384000Y-106808000D02*
X159384000Y-84846000D01*
X159384000Y-84846000D02*
X164277000Y-79953000D01*
X164277000Y-79953000D02*
X166098000Y-79953000D01*
X167191000Y-81046000D02*
X167191000Y-87485000D01*
X166098000Y-79953000D02*
X167191000Y-81046000D01*
D17*
%TO.N,GND1*%
X129938000Y-122807000D02*
X129938000Y-128708000D01*
X129938000Y-128708000D02*
X135827000Y-134597000D01*
X135827000Y-134597000D02*
X218635000Y-134597000D01*
X218635000Y-134597000D02*
X223947000Y-129285000D01*
X223947000Y-49894000D02*
X218967000Y-44914000D01*
X223947000Y-129285000D02*
X223947000Y-49894000D01*
D16*
%TO.N,Net-(E1-Pad15)*%
X133144000Y-56627000D02*
X131532000Y-56627000D01*
X131532000Y-56627000D02*
X128996000Y-54091000D01*
X128996000Y-54091000D02*
X128996000Y-45042000D01*
X128996000Y-45042000D02*
X128078000Y-44124000D01*
X128078000Y-44124000D02*
X117533000Y-44124000D01*
X117533000Y-44124000D02*
X116241000Y-45416000D01*
X116241000Y-45416000D02*
X116241000Y-46980000D01*
X114898000Y-48323000D02*
X114188000Y-48323000D01*
X116241000Y-46980000D02*
X114898000Y-48323000D01*
%TO.N,Net-(E1-Pad16)*%
X133144000Y-54087000D02*
X131541000Y-54087000D01*
X131541000Y-54087000D02*
X130425000Y-52971000D01*
X130425000Y-52971000D02*
X130425000Y-44022000D01*
X130425000Y-44022000D02*
X128860000Y-42457000D01*
X128860000Y-42457000D02*
X115799000Y-42457000D01*
X114188000Y-44068000D02*
X114188000Y-45783000D01*
X115799000Y-42457000D02*
X114188000Y-44068000D01*
D17*
%TO.N,+12V*%
X212030000Y-61914000D02*
X218967000Y-61914000D01*
X206022000Y-67922000D02*
X212030000Y-61914000D01*
X199969000Y-124870000D02*
X206022000Y-118817000D01*
X206022000Y-118817000D02*
X206022000Y-67922000D01*
X134541000Y-124870000D02*
X199969000Y-124870000D01*
X132478000Y-122807000D02*
X134541000Y-124870000D01*
%TO.N,+4V*%
X179967000Y-61914000D02*
X176255000Y-61914000D01*
X176255000Y-61914000D02*
X173870000Y-59529000D01*
X173870000Y-59529000D02*
X173870000Y-47988000D01*
X171110000Y-45228000D02*
X167922000Y-45228000D01*
X173870000Y-47988000D02*
X171110000Y-45228000D01*
%TD*%
D16*
%TO.N,GND*%
X224267287Y-29758323D02*
X223668161Y-30158646D01*
X223158646Y-30668161D01*
X222758323Y-31267287D01*
X222482575Y-31933001D01*
X222342000Y-32639718D01*
X222342000Y-33360282D01*
X222482575Y-34066999D01*
X222758323Y-34732713D01*
X223158646Y-35331839D01*
X223668161Y-35841354D01*
X224267287Y-36241677D01*
X224933001Y-36517425D01*
X225639718Y-36658000D01*
X226360282Y-36658000D01*
X227066999Y-36517425D01*
X227732713Y-36241677D01*
X228331839Y-35841354D01*
X228841354Y-35331839D01*
X229241677Y-34732713D01*
X229317000Y-34550867D01*
X229317001Y-134449135D01*
X229241677Y-134267287D01*
X228841354Y-133668161D01*
X228331839Y-133158646D01*
X227732713Y-132758323D01*
X227066999Y-132482575D01*
X226360282Y-132342000D01*
X225639718Y-132342000D01*
X224933001Y-132482575D01*
X224267287Y-132758323D01*
X223668161Y-133158646D01*
X223158646Y-133668161D01*
X222758323Y-134267287D01*
X222482575Y-134933001D01*
X222342000Y-135639718D01*
X222342000Y-136360282D01*
X222482575Y-137066999D01*
X222758323Y-137732713D01*
X223158646Y-138331839D01*
X223668161Y-138841354D01*
X224267287Y-139241677D01*
X224449133Y-139317000D01*
X78550867Y-139317000D01*
X78732713Y-139241677D01*
X79331839Y-138841354D01*
X79841354Y-138331839D01*
X80241677Y-137732713D01*
X80517425Y-137066999D01*
X80658000Y-136360282D01*
X80658000Y-135639718D01*
X80517425Y-134933001D01*
X80241677Y-134267287D01*
X79841354Y-133668161D01*
X79331839Y-133158646D01*
X78732713Y-132758323D01*
X78066999Y-132482575D01*
X77360282Y-132342000D01*
X76639718Y-132342000D01*
X75933001Y-132482575D01*
X75267287Y-132758323D01*
X74668161Y-133158646D01*
X74158646Y-133668161D01*
X73758323Y-134267287D01*
X73683000Y-134449133D01*
X73683000Y-62713000D01*
X84736817Y-62713000D01*
X84736817Y-64413000D01*
X84749521Y-64541990D01*
X84787147Y-64666024D01*
X84848246Y-64780334D01*
X84930473Y-64880527D01*
X85030666Y-64962754D01*
X85144976Y-65023853D01*
X85269010Y-65061479D01*
X85398000Y-65074183D01*
X85440001Y-65074183D01*
X85440000Y-110820320D01*
X85436092Y-110860000D01*
X85440000Y-110899680D01*
X85440000Y-110899687D01*
X85450187Y-111003120D01*
X85451692Y-111018396D01*
X85455212Y-111030000D01*
X85497894Y-111170703D01*
X85572922Y-111311071D01*
X85673894Y-111434106D01*
X85704728Y-111459411D01*
X89489594Y-115244278D01*
X89514894Y-115275106D01*
X89637928Y-115376078D01*
X89778296Y-115451106D01*
X89884401Y-115483293D01*
X89930603Y-115497308D01*
X89945879Y-115498813D01*
X90049312Y-115509000D01*
X90049319Y-115509000D01*
X90088999Y-115512908D01*
X90128679Y-115509000D01*
X118269317Y-115509000D01*
X121510001Y-118749685D01*
X121510000Y-121593366D01*
X121388579Y-121674497D01*
X121185497Y-121877579D01*
X121048000Y-122083358D01*
X120910503Y-121877579D01*
X120707421Y-121674497D01*
X120468622Y-121514937D01*
X120203283Y-121405030D01*
X119921601Y-121349000D01*
X119634399Y-121349000D01*
X119352717Y-121405030D01*
X119087378Y-121514937D01*
X118848579Y-121674497D01*
X118645497Y-121877579D01*
X118508000Y-122083358D01*
X118370503Y-121877579D01*
X118167421Y-121674497D01*
X117928622Y-121514937D01*
X117663283Y-121405030D01*
X117381601Y-121349000D01*
X117094399Y-121349000D01*
X116812717Y-121405030D01*
X116547378Y-121514937D01*
X116308579Y-121674497D01*
X116136840Y-121846236D01*
X116108853Y-121753976D01*
X116047754Y-121639666D01*
X115965527Y-121539473D01*
X115865334Y-121457246D01*
X115751024Y-121396147D01*
X115626990Y-121358521D01*
X115498000Y-121345817D01*
X113898000Y-121345817D01*
X113769010Y-121358521D01*
X113644976Y-121396147D01*
X113530666Y-121457246D01*
X113430473Y-121539473D01*
X113348246Y-121639666D01*
X113287147Y-121753976D01*
X113249521Y-121878010D01*
X113236817Y-122007000D01*
X113236817Y-123607000D01*
X113249521Y-123735990D01*
X113287147Y-123860024D01*
X113348246Y-123974334D01*
X113430473Y-124074527D01*
X113530666Y-124156754D01*
X113644976Y-124217853D01*
X113769010Y-124255479D01*
X113898000Y-124268183D01*
X115498000Y-124268183D01*
X115626990Y-124255479D01*
X115751024Y-124217853D01*
X115865334Y-124156754D01*
X115965527Y-124074527D01*
X116047754Y-123974334D01*
X116108853Y-123860024D01*
X116136840Y-123767764D01*
X116308579Y-123939503D01*
X116547378Y-124099063D01*
X116812717Y-124208970D01*
X117094399Y-124265000D01*
X117381601Y-124265000D01*
X117663283Y-124208970D01*
X117928622Y-124099063D01*
X118167421Y-123939503D01*
X118370503Y-123736421D01*
X118508000Y-123530642D01*
X118645497Y-123736421D01*
X118848579Y-123939503D01*
X119087378Y-124099063D01*
X119352717Y-124208970D01*
X119634399Y-124265000D01*
X119921601Y-124265000D01*
X120203283Y-124208970D01*
X120468622Y-124099063D01*
X120707421Y-123939503D01*
X120910503Y-123736421D01*
X121048000Y-123530642D01*
X121185497Y-123736421D01*
X121388579Y-123939503D01*
X121627378Y-124099063D01*
X121892717Y-124208970D01*
X122174399Y-124265000D01*
X122461601Y-124265000D01*
X122743283Y-124208970D01*
X123008622Y-124099063D01*
X123247421Y-123939503D01*
X123450503Y-123736421D01*
X123588000Y-123530642D01*
X123725497Y-123736421D01*
X123928579Y-123939503D01*
X124167378Y-124099063D01*
X124432717Y-124208970D01*
X124714399Y-124265000D01*
X125001601Y-124265000D01*
X125283283Y-124208970D01*
X125548622Y-124099063D01*
X125787421Y-123939503D01*
X125990503Y-123736421D01*
X126134627Y-123520724D01*
X126212354Y-123655540D01*
X126400678Y-123870544D01*
X126627328Y-124044676D01*
X126883595Y-124171245D01*
X127067780Y-124227112D01*
X127294000Y-124096312D01*
X127294000Y-122911000D01*
X127274000Y-122911000D01*
X127274000Y-122703000D01*
X127294000Y-122703000D01*
X127294000Y-121517688D01*
X127067780Y-121386888D01*
X126883595Y-121442755D01*
X126627328Y-121569324D01*
X126400678Y-121743456D01*
X126212354Y-121958460D01*
X126134627Y-122093276D01*
X125990503Y-121877579D01*
X125787421Y-121674497D01*
X125666000Y-121593366D01*
X125666000Y-116065683D01*
X130701685Y-111030000D01*
X155930320Y-111030000D01*
X155970000Y-111033908D01*
X156009680Y-111030000D01*
X156009688Y-111030000D01*
X156128396Y-111018308D01*
X156280704Y-110972106D01*
X156421072Y-110897078D01*
X156544106Y-110796106D01*
X156569411Y-110765272D01*
X159927279Y-107407405D01*
X159958106Y-107382106D01*
X160059078Y-107259072D01*
X160134106Y-107118704D01*
X160180308Y-106966396D01*
X160192000Y-106847688D01*
X160192000Y-106847681D01*
X160195908Y-106808001D01*
X160192000Y-106768321D01*
X160192000Y-85180683D01*
X163124134Y-82248549D01*
X163115817Y-82333000D01*
X163115817Y-83551499D01*
X161351723Y-85315594D01*
X161320895Y-85340894D01*
X161219923Y-85463928D01*
X161170751Y-85555923D01*
X161144895Y-85604296D01*
X161098692Y-85756604D01*
X161083092Y-85915000D01*
X161087001Y-85954690D01*
X161087000Y-109965315D01*
X158762317Y-112290000D01*
X141817679Y-112290000D01*
X141777999Y-112286092D01*
X141738319Y-112290000D01*
X141738312Y-112290000D01*
X141634879Y-112300187D01*
X141619603Y-112301692D01*
X141573401Y-112315707D01*
X141467296Y-112347894D01*
X141326928Y-112422922D01*
X141203894Y-112523894D01*
X141178594Y-112554722D01*
X137014723Y-116718594D01*
X136983895Y-116743894D01*
X136882923Y-116866928D01*
X136827830Y-116970000D01*
X136807895Y-117007296D01*
X136761692Y-117159604D01*
X136746092Y-117318000D01*
X136750001Y-117357690D01*
X136750000Y-121593366D01*
X136628579Y-121674497D01*
X136425497Y-121877579D01*
X136265937Y-122116378D01*
X136156030Y-122381717D01*
X136100000Y-122663399D01*
X136100000Y-122950601D01*
X136156030Y-123232283D01*
X136265937Y-123497622D01*
X136409179Y-123712000D01*
X135020659Y-123712000D01*
X133927047Y-122618388D01*
X133879970Y-122381717D01*
X133770063Y-122116378D01*
X133610503Y-121877579D01*
X133407421Y-121674497D01*
X133168622Y-121514937D01*
X132903283Y-121405030D01*
X132621601Y-121349000D01*
X132334399Y-121349000D01*
X132052717Y-121405030D01*
X131787378Y-121514937D01*
X131548579Y-121674497D01*
X131345497Y-121877579D01*
X131208000Y-122083358D01*
X131070503Y-121877579D01*
X130867421Y-121674497D01*
X130628622Y-121514937D01*
X130363283Y-121405030D01*
X130081601Y-121349000D01*
X129794399Y-121349000D01*
X129512717Y-121405030D01*
X129247378Y-121514937D01*
X129008579Y-121674497D01*
X128805497Y-121877579D01*
X128661373Y-122093276D01*
X128583646Y-121958460D01*
X128395322Y-121743456D01*
X128168672Y-121569324D01*
X127912405Y-121442755D01*
X127728220Y-121386888D01*
X127502000Y-121517688D01*
X127502000Y-122703000D01*
X127522000Y-122703000D01*
X127522000Y-122911000D01*
X127502000Y-122911000D01*
X127502000Y-124096312D01*
X127728220Y-124227112D01*
X127912405Y-124171245D01*
X128168672Y-124044676D01*
X128395322Y-123870544D01*
X128583646Y-123655540D01*
X128661373Y-123520724D01*
X128780000Y-123698262D01*
X128780001Y-128651104D01*
X128774397Y-128708000D01*
X128796756Y-128935008D01*
X128862971Y-129153291D01*
X128970500Y-129354463D01*
X129036006Y-129434282D01*
X129115209Y-129530792D01*
X129159397Y-129567056D01*
X134967939Y-135375598D01*
X135004208Y-135419792D01*
X135180536Y-135564500D01*
X135180537Y-135564501D01*
X135381708Y-135672029D01*
X135599992Y-135738245D01*
X135827000Y-135760603D01*
X135883889Y-135755000D01*
X218578113Y-135755000D01*
X218635000Y-135760603D01*
X218691887Y-135755000D01*
X218691889Y-135755000D01*
X218862008Y-135738245D01*
X219080292Y-135672029D01*
X219281463Y-135564501D01*
X219457792Y-135419792D01*
X219494061Y-135375598D01*
X224725599Y-130144060D01*
X224769792Y-130107792D01*
X224914501Y-129931463D01*
X225022029Y-129730292D01*
X225088245Y-129512008D01*
X225105000Y-129341889D01*
X225105000Y-129341888D01*
X225110603Y-129285001D01*
X225105000Y-129228114D01*
X225105000Y-49950889D01*
X225110603Y-49894000D01*
X225088245Y-49666992D01*
X225066010Y-49593694D01*
X225022029Y-49448708D01*
X224914501Y-49247537D01*
X224769792Y-49071208D01*
X224725598Y-49034939D01*
X221152183Y-45461524D01*
X221152183Y-43390000D01*
X221139479Y-43261010D01*
X221101853Y-43136976D01*
X221040754Y-43022666D01*
X220958527Y-42922473D01*
X220858334Y-42840246D01*
X220744024Y-42779147D01*
X220619990Y-42741521D01*
X220491000Y-42728817D01*
X217443000Y-42728817D01*
X217314010Y-42741521D01*
X217189976Y-42779147D01*
X217075666Y-42840246D01*
X216975473Y-42922473D01*
X216893246Y-43022666D01*
X216832147Y-43136976D01*
X216794521Y-43261010D01*
X216781817Y-43390000D01*
X216781817Y-46438000D01*
X216794521Y-46566990D01*
X216832147Y-46691024D01*
X216893246Y-46805334D01*
X216975473Y-46905527D01*
X217075666Y-46987754D01*
X217189976Y-47048853D01*
X217314010Y-47086479D01*
X217443000Y-47099183D01*
X219514524Y-47099183D01*
X222789001Y-50373660D01*
X222789000Y-128805341D01*
X218155341Y-133439000D01*
X136306659Y-133439000D01*
X131096000Y-128228341D01*
X131096000Y-123698262D01*
X131208000Y-123530642D01*
X131345497Y-123736421D01*
X131548579Y-123939503D01*
X131787378Y-124099063D01*
X132052717Y-124208970D01*
X132289388Y-124256047D01*
X133681939Y-125648598D01*
X133718208Y-125692792D01*
X133888228Y-125832323D01*
X133894537Y-125837501D01*
X134095708Y-125945029D01*
X134313992Y-126011245D01*
X134541000Y-126033603D01*
X134597889Y-126028000D01*
X180466436Y-126028000D01*
X180160161Y-126232646D01*
X179650646Y-126742161D01*
X179250323Y-127341287D01*
X178974575Y-128007001D01*
X178834000Y-128713718D01*
X178834000Y-129434282D01*
X178974575Y-130140999D01*
X179250323Y-130806713D01*
X179650646Y-131405839D01*
X180160161Y-131915354D01*
X180759287Y-132315677D01*
X181425001Y-132591425D01*
X182131718Y-132732000D01*
X182852282Y-132732000D01*
X183558999Y-132591425D01*
X184224713Y-132315677D01*
X184823839Y-131915354D01*
X185333354Y-131405839D01*
X185733677Y-130806713D01*
X186009425Y-130140999D01*
X186150000Y-129434282D01*
X186150000Y-128743718D01*
X208856000Y-128743718D01*
X208856000Y-129464282D01*
X208996575Y-130170999D01*
X209272323Y-130836713D01*
X209672646Y-131435839D01*
X210182161Y-131945354D01*
X210781287Y-132345677D01*
X211447001Y-132621425D01*
X212153718Y-132762000D01*
X212874282Y-132762000D01*
X213580999Y-132621425D01*
X214246713Y-132345677D01*
X214845839Y-131945354D01*
X215355354Y-131435839D01*
X215755677Y-130836713D01*
X216031425Y-130170999D01*
X216172000Y-129464282D01*
X216172000Y-128743718D01*
X216031425Y-128037001D01*
X215755677Y-127371287D01*
X215355354Y-126772161D01*
X214845839Y-126262646D01*
X214246713Y-125862323D01*
X213580999Y-125586575D01*
X212874282Y-125446000D01*
X212153718Y-125446000D01*
X211447001Y-125586575D01*
X210781287Y-125862323D01*
X210182161Y-126262646D01*
X209672646Y-126772161D01*
X209272323Y-127371287D01*
X208996575Y-128037001D01*
X208856000Y-128743718D01*
X186150000Y-128743718D01*
X186150000Y-128713718D01*
X186009425Y-128007001D01*
X185733677Y-127341287D01*
X185333354Y-126742161D01*
X184823839Y-126232646D01*
X184517564Y-126028000D01*
X199912113Y-126028000D01*
X199969000Y-126033603D01*
X200025887Y-126028000D01*
X200025889Y-126028000D01*
X200196008Y-126011245D01*
X200414292Y-125945029D01*
X200615463Y-125837501D01*
X200791792Y-125692792D01*
X200828061Y-125648598D01*
X206800599Y-119676060D01*
X206844792Y-119639792D01*
X206989501Y-119463463D01*
X207097029Y-119262292D01*
X207163245Y-119044008D01*
X207180000Y-118873889D01*
X207180000Y-118873888D01*
X207185603Y-118817000D01*
X207180000Y-118760111D01*
X207180000Y-108901718D01*
X208806000Y-108901718D01*
X208806000Y-109622282D01*
X208946575Y-110328999D01*
X209222323Y-110994713D01*
X209622646Y-111593839D01*
X210132161Y-112103354D01*
X210731287Y-112503677D01*
X211397001Y-112779425D01*
X212103718Y-112920000D01*
X212824282Y-112920000D01*
X213530999Y-112779425D01*
X214196713Y-112503677D01*
X214795839Y-112103354D01*
X215305354Y-111593839D01*
X215705677Y-110994713D01*
X215981425Y-110328999D01*
X216122000Y-109622282D01*
X216122000Y-108901718D01*
X215981425Y-108195001D01*
X215705677Y-107529287D01*
X215305354Y-106930161D01*
X214795839Y-106420646D01*
X214196713Y-106020323D01*
X213530999Y-105744575D01*
X212824282Y-105604000D01*
X212103718Y-105604000D01*
X211397001Y-105744575D01*
X210731287Y-106020323D01*
X210132161Y-106420646D01*
X209622646Y-106930161D01*
X209222323Y-107529287D01*
X208946575Y-108195001D01*
X208806000Y-108901718D01*
X207180000Y-108901718D01*
X207180000Y-97870718D01*
X212969000Y-97870718D01*
X212969000Y-98591282D01*
X213109575Y-99297999D01*
X213385323Y-99963713D01*
X213785646Y-100562839D01*
X214295161Y-101072354D01*
X214894287Y-101472677D01*
X215560001Y-101748425D01*
X216266718Y-101889000D01*
X216987282Y-101889000D01*
X217693999Y-101748425D01*
X218359713Y-101472677D01*
X218958839Y-101072354D01*
X219468354Y-100562839D01*
X219868677Y-99963713D01*
X220144425Y-99297999D01*
X220285000Y-98591282D01*
X220285000Y-97870718D01*
X220144425Y-97164001D01*
X219868677Y-96498287D01*
X219468354Y-95899161D01*
X218958839Y-95389646D01*
X218359713Y-94989323D01*
X217693999Y-94713575D01*
X216987282Y-94573000D01*
X216266718Y-94573000D01*
X215560001Y-94713575D01*
X214894287Y-94989323D01*
X214295161Y-95389646D01*
X213785646Y-95899161D01*
X213385323Y-96498287D01*
X213109575Y-97164001D01*
X212969000Y-97870718D01*
X207180000Y-97870718D01*
X207180000Y-73870718D01*
X212969000Y-73870718D01*
X212969000Y-74591282D01*
X213109575Y-75297999D01*
X213385323Y-75963713D01*
X213785646Y-76562839D01*
X214295161Y-77072354D01*
X214894287Y-77472677D01*
X215560001Y-77748425D01*
X216266718Y-77889000D01*
X216987282Y-77889000D01*
X217693999Y-77748425D01*
X218359713Y-77472677D01*
X218958839Y-77072354D01*
X219468354Y-76562839D01*
X219868677Y-75963713D01*
X220144425Y-75297999D01*
X220285000Y-74591282D01*
X220285000Y-73870718D01*
X220144425Y-73164001D01*
X219868677Y-72498287D01*
X219468354Y-71899161D01*
X218958839Y-71389646D01*
X218359713Y-70989323D01*
X217693999Y-70713575D01*
X216987282Y-70573000D01*
X216266718Y-70573000D01*
X215560001Y-70713575D01*
X214894287Y-70989323D01*
X214295161Y-71389646D01*
X213785646Y-71899161D01*
X213385323Y-72498287D01*
X213109575Y-73164001D01*
X212969000Y-73870718D01*
X207180000Y-73870718D01*
X207180000Y-68401659D01*
X212509660Y-63072000D01*
X216781817Y-63072000D01*
X216781817Y-63438000D01*
X216794521Y-63566990D01*
X216832147Y-63691024D01*
X216893246Y-63805334D01*
X216975473Y-63905527D01*
X217075666Y-63987754D01*
X217189976Y-64048853D01*
X217314010Y-64086479D01*
X217443000Y-64099183D01*
X220491000Y-64099183D01*
X220619990Y-64086479D01*
X220744024Y-64048853D01*
X220858334Y-63987754D01*
X220958527Y-63905527D01*
X221040754Y-63805334D01*
X221101853Y-63691024D01*
X221139479Y-63566990D01*
X221152183Y-63438000D01*
X221152183Y-60390000D01*
X221139479Y-60261010D01*
X221101853Y-60136976D01*
X221040754Y-60022666D01*
X220958527Y-59922473D01*
X220858334Y-59840246D01*
X220744024Y-59779147D01*
X220619990Y-59741521D01*
X220491000Y-59728817D01*
X217443000Y-59728817D01*
X217314010Y-59741521D01*
X217189976Y-59779147D01*
X217075666Y-59840246D01*
X216975473Y-59922473D01*
X216893246Y-60022666D01*
X216832147Y-60136976D01*
X216794521Y-60261010D01*
X216781817Y-60390000D01*
X216781817Y-60756000D01*
X212086886Y-60756000D01*
X212029999Y-60750397D01*
X211973112Y-60756000D01*
X211973111Y-60756000D01*
X211802992Y-60772755D01*
X211584708Y-60838971D01*
X211383537Y-60946499D01*
X211207208Y-61091208D01*
X211170944Y-61135396D01*
X205243397Y-67062944D01*
X205199209Y-67099208D01*
X205162945Y-67143396D01*
X205162944Y-67143397D01*
X205054500Y-67275537D01*
X204946971Y-67476709D01*
X204880756Y-67694992D01*
X204858397Y-67922000D01*
X204864001Y-67978897D01*
X204864000Y-118337341D01*
X199489341Y-123712000D01*
X164481166Y-123712000D01*
X164597024Y-123676854D01*
X164711334Y-123615754D01*
X164811528Y-123533528D01*
X164893754Y-123433334D01*
X164954854Y-123319024D01*
X164992480Y-123194991D01*
X165005184Y-123066000D01*
X165002000Y-122484500D01*
X164837500Y-122320000D01*
X163598000Y-122320000D01*
X163598000Y-122340000D01*
X163390000Y-122340000D01*
X163390000Y-122320000D01*
X162150500Y-122320000D01*
X161986000Y-122484500D01*
X161982816Y-123066000D01*
X161995520Y-123194991D01*
X162033146Y-123319024D01*
X162094246Y-123433334D01*
X162176472Y-123533528D01*
X162276666Y-123615754D01*
X162390976Y-123676854D01*
X162506834Y-123712000D01*
X151406821Y-123712000D01*
X151550063Y-123497622D01*
X151659970Y-123232283D01*
X151716000Y-122950601D01*
X151716000Y-122663399D01*
X151659970Y-122381717D01*
X151550063Y-122116378D01*
X151390503Y-121877579D01*
X151187421Y-121674497D01*
X150948622Y-121514937D01*
X150683283Y-121405030D01*
X150487066Y-121366000D01*
X161982816Y-121366000D01*
X161986000Y-121947500D01*
X162150500Y-122112000D01*
X163390000Y-122112000D01*
X163390000Y-120872500D01*
X163598000Y-120872500D01*
X163598000Y-122112000D01*
X164837500Y-122112000D01*
X165002000Y-121947500D01*
X165005184Y-121366000D01*
X164992480Y-121237009D01*
X164954854Y-121112976D01*
X164893754Y-120998666D01*
X164811528Y-120898472D01*
X164711334Y-120816246D01*
X164597024Y-120755146D01*
X164472991Y-120717520D01*
X164344000Y-120704816D01*
X163762500Y-120708000D01*
X163598000Y-120872500D01*
X163390000Y-120872500D01*
X163225500Y-120708000D01*
X162644000Y-120704816D01*
X162515009Y-120717520D01*
X162390976Y-120755146D01*
X162276666Y-120816246D01*
X162176472Y-120898472D01*
X162094246Y-120998666D01*
X162033146Y-121112976D01*
X161995520Y-121237009D01*
X161982816Y-121366000D01*
X150487066Y-121366000D01*
X150401601Y-121349000D01*
X150114399Y-121349000D01*
X149832717Y-121405030D01*
X149567378Y-121514937D01*
X149328579Y-121674497D01*
X149125497Y-121877579D01*
X148988000Y-122083358D01*
X148850503Y-121877579D01*
X148647421Y-121674497D01*
X148408622Y-121514937D01*
X148143283Y-121405030D01*
X147861601Y-121349000D01*
X147574399Y-121349000D01*
X147292717Y-121405030D01*
X147027378Y-121514937D01*
X146788579Y-121674497D01*
X146585497Y-121877579D01*
X146448000Y-122083358D01*
X146310503Y-121877579D01*
X146107421Y-121674497D01*
X145868622Y-121514937D01*
X145603283Y-121405030D01*
X145321601Y-121349000D01*
X145034399Y-121349000D01*
X144752717Y-121405030D01*
X144487378Y-121514937D01*
X144248579Y-121674497D01*
X144045497Y-121877579D01*
X143908000Y-122083358D01*
X143770503Y-121877579D01*
X143567421Y-121674497D01*
X143328622Y-121514937D01*
X143063283Y-121405030D01*
X142781601Y-121349000D01*
X142494399Y-121349000D01*
X142212717Y-121405030D01*
X141947378Y-121514937D01*
X141708579Y-121674497D01*
X141505497Y-121877579D01*
X141368000Y-122083358D01*
X141230503Y-121877579D01*
X141027421Y-121674497D01*
X140906000Y-121593366D01*
X140906000Y-118645683D01*
X142623684Y-116928000D01*
X161982817Y-116928000D01*
X161982817Y-116970000D01*
X161995521Y-117098990D01*
X162033147Y-117223024D01*
X162094246Y-117337334D01*
X162176473Y-117437527D01*
X162276666Y-117519754D01*
X162390976Y-117580853D01*
X162515010Y-117618479D01*
X162644000Y-117631183D01*
X164344000Y-117631183D01*
X164472990Y-117618479D01*
X164597024Y-117580853D01*
X164711334Y-117519754D01*
X164811527Y-117437527D01*
X164893754Y-117337334D01*
X164954853Y-117223024D01*
X164992479Y-117098990D01*
X165005183Y-116970000D01*
X165005183Y-115270000D01*
X164992479Y-115141010D01*
X164954853Y-115016976D01*
X164893754Y-114902666D01*
X164811527Y-114802473D01*
X164711334Y-114720246D01*
X164597024Y-114659147D01*
X164472990Y-114621521D01*
X164344000Y-114608817D01*
X162644000Y-114608817D01*
X162515010Y-114621521D01*
X162390976Y-114659147D01*
X162276666Y-114720246D01*
X162176473Y-114802473D01*
X162094246Y-114902666D01*
X162033147Y-115016976D01*
X161995521Y-115141010D01*
X161982817Y-115270000D01*
X161982817Y-115312000D01*
X142328680Y-115312000D01*
X142289000Y-115308092D01*
X142249320Y-115312000D01*
X142249312Y-115312000D01*
X142144536Y-115322320D01*
X142130603Y-115323692D01*
X141978295Y-115369894D01*
X141929402Y-115396029D01*
X141837928Y-115444922D01*
X141714894Y-115545894D01*
X141689594Y-115576722D01*
X139554723Y-117711594D01*
X139523895Y-117736894D01*
X139422923Y-117859928D01*
X139392201Y-117917405D01*
X139347895Y-118000296D01*
X139301692Y-118152604D01*
X139286092Y-118311000D01*
X139290001Y-118350690D01*
X139290000Y-121593366D01*
X139168579Y-121674497D01*
X138965497Y-121877579D01*
X138828000Y-122083358D01*
X138690503Y-121877579D01*
X138487421Y-121674497D01*
X138366000Y-121593366D01*
X138366000Y-117652683D01*
X142112684Y-113906000D01*
X159057320Y-113906000D01*
X159097000Y-113909908D01*
X159136680Y-113906000D01*
X159136688Y-113906000D01*
X159255396Y-113894308D01*
X159407704Y-113848106D01*
X159548072Y-113773078D01*
X159671106Y-113672106D01*
X159696411Y-113641272D01*
X162438284Y-110899401D01*
X162469106Y-110874106D01*
X162494402Y-110843283D01*
X162494406Y-110843279D01*
X162533119Y-110796106D01*
X162570078Y-110751072D01*
X162645106Y-110610704D01*
X162691308Y-110458396D01*
X162703000Y-110339688D01*
X162703000Y-110339680D01*
X162706908Y-110300000D01*
X162703000Y-110260320D01*
X162703000Y-90129000D01*
X163115816Y-90129000D01*
X163128520Y-90257991D01*
X163166146Y-90382024D01*
X163227246Y-90496334D01*
X163309472Y-90596528D01*
X163409666Y-90678754D01*
X163523976Y-90739854D01*
X163648009Y-90777480D01*
X163777000Y-90790184D01*
X164358500Y-90787000D01*
X164523000Y-90622500D01*
X164523000Y-89383000D01*
X164731000Y-89383000D01*
X164731000Y-90622500D01*
X164895500Y-90787000D01*
X165477000Y-90790184D01*
X165605991Y-90777480D01*
X165730024Y-90739854D01*
X165844334Y-90678754D01*
X165944528Y-90596528D01*
X166026754Y-90496334D01*
X166087854Y-90382024D01*
X166125480Y-90257991D01*
X166138184Y-90129000D01*
X166135000Y-89547500D01*
X165970500Y-89383000D01*
X164731000Y-89383000D01*
X164523000Y-89383000D01*
X163283500Y-89383000D01*
X163119000Y-89547500D01*
X163115816Y-90129000D01*
X162703000Y-90129000D01*
X162703000Y-88429000D01*
X163115816Y-88429000D01*
X163119000Y-89010500D01*
X163283500Y-89175000D01*
X164523000Y-89175000D01*
X164523000Y-87935500D01*
X164731000Y-87935500D01*
X164731000Y-89175000D01*
X165970500Y-89175000D01*
X166135000Y-89010500D01*
X166138184Y-88429000D01*
X166125480Y-88300009D01*
X166087854Y-88175976D01*
X166026754Y-88061666D01*
X165944528Y-87961472D01*
X165844334Y-87879246D01*
X165730024Y-87818146D01*
X165605991Y-87780520D01*
X165477000Y-87767816D01*
X164895500Y-87771000D01*
X164731000Y-87935500D01*
X164523000Y-87935500D01*
X164358500Y-87771000D01*
X163777000Y-87767816D01*
X163648009Y-87780520D01*
X163523976Y-87818146D01*
X163409666Y-87879246D01*
X163309472Y-87961472D01*
X163227246Y-88061666D01*
X163166146Y-88175976D01*
X163128520Y-88300009D01*
X163115816Y-88429000D01*
X162703000Y-88429000D01*
X162703000Y-86249683D01*
X163115817Y-85836866D01*
X163115817Y-87081000D01*
X163128521Y-87209990D01*
X163166147Y-87334024D01*
X163227246Y-87448334D01*
X163309473Y-87548527D01*
X163409666Y-87630754D01*
X163523976Y-87691853D01*
X163648010Y-87729479D01*
X163777000Y-87742183D01*
X165477000Y-87742183D01*
X165605990Y-87729479D01*
X165730024Y-87691853D01*
X165844334Y-87630754D01*
X165944527Y-87548527D01*
X166019946Y-87456630D01*
X166383001Y-87819686D01*
X166383000Y-116894316D01*
X165001071Y-118276246D01*
X164992479Y-118189010D01*
X164954853Y-118064976D01*
X164893754Y-117950666D01*
X164811527Y-117850473D01*
X164711334Y-117768246D01*
X164597024Y-117707147D01*
X164472990Y-117669521D01*
X164344000Y-117656817D01*
X162644000Y-117656817D01*
X162515010Y-117669521D01*
X162390976Y-117707147D01*
X162276666Y-117768246D01*
X162176473Y-117850473D01*
X162094246Y-117950666D01*
X162033147Y-118064976D01*
X161995521Y-118189010D01*
X161982817Y-118318000D01*
X161982817Y-120018000D01*
X161995521Y-120146990D01*
X162033147Y-120271024D01*
X162094246Y-120385334D01*
X162176473Y-120485527D01*
X162276666Y-120567754D01*
X162390976Y-120628853D01*
X162515010Y-120666479D01*
X162644000Y-120679183D01*
X164344000Y-120679183D01*
X164472990Y-120666479D01*
X164597024Y-120628853D01*
X164711334Y-120567754D01*
X164811527Y-120485527D01*
X164893754Y-120385334D01*
X164954853Y-120271024D01*
X164992479Y-120146990D01*
X165005183Y-120018000D01*
X165005183Y-119976000D01*
X165212320Y-119976000D01*
X165252000Y-119979908D01*
X165291680Y-119976000D01*
X165291688Y-119976000D01*
X165410396Y-119964308D01*
X165562704Y-119918106D01*
X165703072Y-119843078D01*
X165826106Y-119742106D01*
X165851411Y-119711272D01*
X167734279Y-117828405D01*
X167765106Y-117803106D01*
X167866078Y-117680072D01*
X167941106Y-117539704D01*
X167987308Y-117387396D01*
X167999000Y-117268688D01*
X167999000Y-117268681D01*
X168002908Y-117229001D01*
X167999000Y-117189321D01*
X167999000Y-108931718D01*
X178834000Y-108931718D01*
X178834000Y-109652282D01*
X178974575Y-110358999D01*
X179250323Y-111024713D01*
X179650646Y-111623839D01*
X180160161Y-112133354D01*
X180759287Y-112533677D01*
X181425001Y-112809425D01*
X182131718Y-112950000D01*
X182852282Y-112950000D01*
X183558999Y-112809425D01*
X184224713Y-112533677D01*
X184823839Y-112133354D01*
X185333354Y-111623839D01*
X185733677Y-111024713D01*
X186009425Y-110358999D01*
X186150000Y-109652282D01*
X186150000Y-108931718D01*
X186009425Y-108225001D01*
X185733677Y-107559287D01*
X185333354Y-106960161D01*
X184823839Y-106450646D01*
X184224713Y-106050323D01*
X183558999Y-105774575D01*
X182852282Y-105634000D01*
X182131718Y-105634000D01*
X181425001Y-105774575D01*
X180759287Y-106050323D01*
X180160161Y-106450646D01*
X179650646Y-106960161D01*
X179250323Y-107559287D01*
X178974575Y-108225001D01*
X178834000Y-108931718D01*
X167999000Y-108931718D01*
X167999000Y-97870718D01*
X178969000Y-97870718D01*
X178969000Y-98591282D01*
X179109575Y-99297999D01*
X179385323Y-99963713D01*
X179785646Y-100562839D01*
X180295161Y-101072354D01*
X180894287Y-101472677D01*
X181560001Y-101748425D01*
X182266718Y-101889000D01*
X182987282Y-101889000D01*
X183693999Y-101748425D01*
X184359713Y-101472677D01*
X184958839Y-101072354D01*
X185468354Y-100562839D01*
X185868677Y-99963713D01*
X186144425Y-99297999D01*
X186285000Y-98591282D01*
X186285000Y-97870718D01*
X186144425Y-97164001D01*
X185868677Y-96498287D01*
X185468354Y-95899161D01*
X184958839Y-95389646D01*
X184359713Y-94989323D01*
X183693999Y-94713575D01*
X182987282Y-94573000D01*
X182266718Y-94573000D01*
X181560001Y-94713575D01*
X180894287Y-94989323D01*
X180295161Y-95389646D01*
X179785646Y-95899161D01*
X179385323Y-96498287D01*
X179109575Y-97164001D01*
X178969000Y-97870718D01*
X167999000Y-97870718D01*
X167999000Y-87524680D01*
X168002908Y-87485000D01*
X167999000Y-87445320D01*
X167999000Y-81085679D01*
X168002908Y-81045999D01*
X167999000Y-81006319D01*
X167999000Y-81006312D01*
X167987308Y-80887604D01*
X167941106Y-80735296D01*
X167866078Y-80594928D01*
X167765106Y-80471894D01*
X167734279Y-80446595D01*
X166697411Y-79409728D01*
X166672106Y-79378894D01*
X166549072Y-79277922D01*
X166408704Y-79202894D01*
X166256396Y-79156692D01*
X166137688Y-79145000D01*
X166137680Y-79145000D01*
X166098000Y-79141092D01*
X166058320Y-79145000D01*
X164316680Y-79145000D01*
X164277000Y-79141092D01*
X164237320Y-79145000D01*
X164237312Y-79145000D01*
X164132536Y-79155320D01*
X164118603Y-79156692D01*
X164072401Y-79170707D01*
X163966296Y-79202894D01*
X163825928Y-79277922D01*
X163702894Y-79378894D01*
X163677594Y-79409722D01*
X158840723Y-84246594D01*
X158809895Y-84271894D01*
X158708923Y-84394928D01*
X158652479Y-84500527D01*
X158633895Y-84535296D01*
X158587692Y-84687604D01*
X158572092Y-84846000D01*
X158576001Y-84885690D01*
X158576000Y-106473316D01*
X155635317Y-109414000D01*
X130406680Y-109414000D01*
X130367000Y-109410092D01*
X130327320Y-109414000D01*
X130327312Y-109414000D01*
X130208604Y-109425692D01*
X130056296Y-109471894D01*
X129915928Y-109546922D01*
X129823721Y-109622594D01*
X129823717Y-109622598D01*
X129792894Y-109647894D01*
X129767598Y-109678717D01*
X124314723Y-115131594D01*
X124283895Y-115156894D01*
X124182923Y-115279928D01*
X124131530Y-115376078D01*
X124107895Y-115420296D01*
X124061692Y-115572604D01*
X124046092Y-115731000D01*
X124050001Y-115770690D01*
X124050000Y-121593366D01*
X123928579Y-121674497D01*
X123725497Y-121877579D01*
X123588000Y-122083358D01*
X123450503Y-121877579D01*
X123247421Y-121674497D01*
X123126000Y-121593366D01*
X123126000Y-118454679D01*
X123129908Y-118414999D01*
X123126000Y-118375319D01*
X123126000Y-118375312D01*
X123114308Y-118256604D01*
X123068106Y-118104296D01*
X122993078Y-117963928D01*
X122892106Y-117840894D01*
X122861278Y-117815594D01*
X119203411Y-114157728D01*
X119178106Y-114126894D01*
X119055072Y-114025922D01*
X118914704Y-113950894D01*
X118762396Y-113904692D01*
X118643688Y-113893000D01*
X118643680Y-113893000D01*
X118604000Y-113889092D01*
X118564320Y-113893000D01*
X90423684Y-113893000D01*
X87056000Y-110525317D01*
X87056000Y-79483399D01*
X104100000Y-79483399D01*
X104100000Y-79770601D01*
X104156030Y-80052283D01*
X104265937Y-80317622D01*
X104425497Y-80556421D01*
X104628579Y-80759503D01*
X104867378Y-80919063D01*
X105132717Y-81028970D01*
X105414399Y-81085000D01*
X105701601Y-81085000D01*
X105983283Y-81028970D01*
X106248622Y-80919063D01*
X106487421Y-80759503D01*
X106690503Y-80556421D01*
X106828000Y-80350642D01*
X106965497Y-80556421D01*
X107168579Y-80759503D01*
X107407378Y-80919063D01*
X107672717Y-81028970D01*
X107954399Y-81085000D01*
X108241601Y-81085000D01*
X108523283Y-81028970D01*
X108788622Y-80919063D01*
X109027421Y-80759503D01*
X109230503Y-80556421D01*
X109368000Y-80350642D01*
X109505497Y-80556421D01*
X109708579Y-80759503D01*
X109947378Y-80919063D01*
X110212717Y-81028970D01*
X110494399Y-81085000D01*
X110781601Y-81085000D01*
X111063283Y-81028970D01*
X111328622Y-80919063D01*
X111567421Y-80759503D01*
X111770503Y-80556421D01*
X111908000Y-80350642D01*
X112045497Y-80556421D01*
X112248579Y-80759503D01*
X112487378Y-80919063D01*
X112752717Y-81028970D01*
X113034399Y-81085000D01*
X113321601Y-81085000D01*
X113603283Y-81028970D01*
X113868622Y-80919063D01*
X114107421Y-80759503D01*
X114310503Y-80556421D01*
X114448000Y-80350642D01*
X114585497Y-80556421D01*
X114788579Y-80759503D01*
X115027378Y-80919063D01*
X115292717Y-81028970D01*
X115574399Y-81085000D01*
X115861601Y-81085000D01*
X116143283Y-81028970D01*
X116408622Y-80919063D01*
X116647421Y-80759503D01*
X116850503Y-80556421D01*
X116988000Y-80350642D01*
X117125497Y-80556421D01*
X117328579Y-80759503D01*
X117567378Y-80919063D01*
X117832717Y-81028970D01*
X118114399Y-81085000D01*
X118401601Y-81085000D01*
X118683283Y-81028970D01*
X118948622Y-80919063D01*
X119187421Y-80759503D01*
X119390503Y-80556421D01*
X119528000Y-80350642D01*
X119665497Y-80556421D01*
X119868579Y-80759503D01*
X120107378Y-80919063D01*
X120372717Y-81028970D01*
X120654399Y-81085000D01*
X120941601Y-81085000D01*
X121223283Y-81028970D01*
X121488622Y-80919063D01*
X121727421Y-80759503D01*
X121930503Y-80556421D01*
X122068000Y-80350642D01*
X122205497Y-80556421D01*
X122408579Y-80759503D01*
X122647378Y-80919063D01*
X122912717Y-81028970D01*
X123194399Y-81085000D01*
X123481601Y-81085000D01*
X123763283Y-81028970D01*
X124028622Y-80919063D01*
X124267421Y-80759503D01*
X124470503Y-80556421D01*
X124608000Y-80350642D01*
X124745497Y-80556421D01*
X124948579Y-80759503D01*
X125187378Y-80919063D01*
X125452717Y-81028970D01*
X125734399Y-81085000D01*
X126021601Y-81085000D01*
X126303283Y-81028970D01*
X126568622Y-80919063D01*
X126807421Y-80759503D01*
X127010503Y-80556421D01*
X127148000Y-80350642D01*
X127285497Y-80556421D01*
X127488579Y-80759503D01*
X127727378Y-80919063D01*
X127992717Y-81028970D01*
X128274399Y-81085000D01*
X128561601Y-81085000D01*
X128843283Y-81028970D01*
X129108622Y-80919063D01*
X129347421Y-80759503D01*
X129550503Y-80556421D01*
X129710063Y-80317622D01*
X129819970Y-80052283D01*
X129876000Y-79770601D01*
X129876000Y-79483399D01*
X129819970Y-79201717D01*
X129710063Y-78936378D01*
X129550503Y-78697579D01*
X129347421Y-78494497D01*
X129108622Y-78334937D01*
X128843283Y-78225030D01*
X128561601Y-78169000D01*
X128274399Y-78169000D01*
X127992717Y-78225030D01*
X127727378Y-78334937D01*
X127488579Y-78494497D01*
X127285497Y-78697579D01*
X127148000Y-78903358D01*
X127010503Y-78697579D01*
X126807421Y-78494497D01*
X126568622Y-78334937D01*
X126303283Y-78225030D01*
X126021601Y-78169000D01*
X125734399Y-78169000D01*
X125452717Y-78225030D01*
X125187378Y-78334937D01*
X124948579Y-78494497D01*
X124745497Y-78697579D01*
X124608000Y-78903358D01*
X124470503Y-78697579D01*
X124267421Y-78494497D01*
X124028622Y-78334937D01*
X123763283Y-78225030D01*
X123481601Y-78169000D01*
X123194399Y-78169000D01*
X122912717Y-78225030D01*
X122647378Y-78334937D01*
X122408579Y-78494497D01*
X122205497Y-78697579D01*
X122068000Y-78903358D01*
X121930503Y-78697579D01*
X121727421Y-78494497D01*
X121488622Y-78334937D01*
X121223283Y-78225030D01*
X120941601Y-78169000D01*
X120654399Y-78169000D01*
X120372717Y-78225030D01*
X120107378Y-78334937D01*
X119868579Y-78494497D01*
X119665497Y-78697579D01*
X119528000Y-78903358D01*
X119390503Y-78697579D01*
X119187421Y-78494497D01*
X118948622Y-78334937D01*
X118683283Y-78225030D01*
X118401601Y-78169000D01*
X118114399Y-78169000D01*
X117832717Y-78225030D01*
X117567378Y-78334937D01*
X117328579Y-78494497D01*
X117125497Y-78697579D01*
X116988000Y-78903358D01*
X116850503Y-78697579D01*
X116647421Y-78494497D01*
X116408622Y-78334937D01*
X116143283Y-78225030D01*
X115861601Y-78169000D01*
X115574399Y-78169000D01*
X115292717Y-78225030D01*
X115027378Y-78334937D01*
X114788579Y-78494497D01*
X114585497Y-78697579D01*
X114448000Y-78903358D01*
X114310503Y-78697579D01*
X114107421Y-78494497D01*
X113868622Y-78334937D01*
X113603283Y-78225030D01*
X113321601Y-78169000D01*
X113034399Y-78169000D01*
X112752717Y-78225030D01*
X112487378Y-78334937D01*
X112248579Y-78494497D01*
X112045497Y-78697579D01*
X111908000Y-78903358D01*
X111770503Y-78697579D01*
X111567421Y-78494497D01*
X111328622Y-78334937D01*
X111063283Y-78225030D01*
X110781601Y-78169000D01*
X110494399Y-78169000D01*
X110212717Y-78225030D01*
X109947378Y-78334937D01*
X109708579Y-78494497D01*
X109505497Y-78697579D01*
X109368000Y-78903358D01*
X109230503Y-78697579D01*
X109027421Y-78494497D01*
X108788622Y-78334937D01*
X108523283Y-78225030D01*
X108241601Y-78169000D01*
X107954399Y-78169000D01*
X107672717Y-78225030D01*
X107407378Y-78334937D01*
X107168579Y-78494497D01*
X106965497Y-78697579D01*
X106828000Y-78903358D01*
X106690503Y-78697579D01*
X106487421Y-78494497D01*
X106248622Y-78334937D01*
X105983283Y-78225030D01*
X105701601Y-78169000D01*
X105414399Y-78169000D01*
X105132717Y-78225030D01*
X104867378Y-78334937D01*
X104628579Y-78494497D01*
X104425497Y-78697579D01*
X104265937Y-78936378D01*
X104156030Y-79201717D01*
X104100000Y-79483399D01*
X87056000Y-79483399D01*
X87056000Y-65074183D01*
X87098000Y-65074183D01*
X87226990Y-65061479D01*
X87351024Y-65023853D01*
X87465334Y-64962754D01*
X87565527Y-64880527D01*
X87647754Y-64780334D01*
X87708853Y-64666024D01*
X87746479Y-64541990D01*
X87759183Y-64413000D01*
X112676816Y-64413000D01*
X112689520Y-64541991D01*
X112727146Y-64666024D01*
X112788246Y-64780334D01*
X112870472Y-64880528D01*
X112970666Y-64962754D01*
X113084976Y-65023854D01*
X113209009Y-65061480D01*
X113338000Y-65074184D01*
X113919500Y-65071000D01*
X114084000Y-64906500D01*
X114084000Y-63667000D01*
X114292000Y-63667000D01*
X114292000Y-64906500D01*
X114456500Y-65071000D01*
X115038000Y-65074184D01*
X115166991Y-65061480D01*
X115291024Y-65023854D01*
X115405334Y-64962754D01*
X115505528Y-64880528D01*
X115587754Y-64780334D01*
X115648854Y-64666024D01*
X115686480Y-64541991D01*
X115699184Y-64413000D01*
X115696000Y-63831500D01*
X115531500Y-63667000D01*
X114292000Y-63667000D01*
X114084000Y-63667000D01*
X112844500Y-63667000D01*
X112680000Y-63831500D01*
X112676816Y-64413000D01*
X87759183Y-64413000D01*
X87759183Y-62713000D01*
X112676816Y-62713000D01*
X112680000Y-63294500D01*
X112844500Y-63459000D01*
X114084000Y-63459000D01*
X114084000Y-63439000D01*
X114292000Y-63439000D01*
X114292000Y-63459000D01*
X115531500Y-63459000D01*
X115696000Y-63294500D01*
X115699184Y-62713000D01*
X115686480Y-62584009D01*
X115648854Y-62459976D01*
X115587754Y-62345666D01*
X115505528Y-62245472D01*
X115405334Y-62163246D01*
X115291024Y-62102146D01*
X115253017Y-62090617D01*
X115359340Y-61984294D01*
X115524373Y-61737306D01*
X115638049Y-61462868D01*
X115696000Y-61171525D01*
X115696000Y-60874475D01*
X115638049Y-60583132D01*
X115524373Y-60308694D01*
X115359340Y-60061706D01*
X115149294Y-59851660D01*
X115001640Y-59753000D01*
X115149294Y-59654340D01*
X115359340Y-59444294D01*
X115524373Y-59197306D01*
X115638049Y-58922868D01*
X115696000Y-58631525D01*
X115696000Y-58334475D01*
X115638049Y-58043132D01*
X115524373Y-57768694D01*
X115359340Y-57521706D01*
X115149294Y-57311660D01*
X115001640Y-57213000D01*
X115149294Y-57114340D01*
X115359340Y-56904294D01*
X115524373Y-56657306D01*
X115638049Y-56382868D01*
X115696000Y-56091525D01*
X115696000Y-55794475D01*
X115638049Y-55503132D01*
X115524373Y-55228694D01*
X115359340Y-54981706D01*
X115149294Y-54771660D01*
X115001640Y-54673000D01*
X115149294Y-54574340D01*
X115359340Y-54364294D01*
X115524373Y-54117306D01*
X115638049Y-53842868D01*
X115696000Y-53551525D01*
X115696000Y-53254475D01*
X115638049Y-52963132D01*
X115524373Y-52688694D01*
X115359340Y-52441706D01*
X115149294Y-52231660D01*
X115001640Y-52133000D01*
X115149294Y-52034340D01*
X115359340Y-51824294D01*
X115524373Y-51577306D01*
X115638049Y-51302868D01*
X115696000Y-51011525D01*
X115696000Y-50714475D01*
X115638049Y-50423132D01*
X115524373Y-50148694D01*
X115359340Y-49901706D01*
X115149294Y-49691660D01*
X115001640Y-49593000D01*
X115149294Y-49494340D01*
X115359340Y-49284294D01*
X115524373Y-49037306D01*
X115638049Y-48762868D01*
X115647294Y-48716389D01*
X116784283Y-47579402D01*
X116815106Y-47554106D01*
X116840402Y-47523283D01*
X116840406Y-47523279D01*
X116873641Y-47482782D01*
X116916078Y-47431072D01*
X116964971Y-47339598D01*
X116991106Y-47290705D01*
X117037308Y-47138397D01*
X117042421Y-47086480D01*
X117049000Y-47019688D01*
X117049000Y-47019680D01*
X117052908Y-46980000D01*
X117049000Y-46940320D01*
X117049000Y-45750683D01*
X117182683Y-45617000D01*
X121472817Y-45617000D01*
X121472817Y-47317000D01*
X121485521Y-47445990D01*
X121523147Y-47570024D01*
X121584246Y-47684334D01*
X121666473Y-47784527D01*
X121766666Y-47866754D01*
X121880976Y-47927853D01*
X121918983Y-47939383D01*
X121812660Y-48045706D01*
X121647627Y-48292694D01*
X121533951Y-48567132D01*
X121476000Y-48858475D01*
X121476000Y-49155525D01*
X121533951Y-49446868D01*
X121647627Y-49721306D01*
X121812660Y-49968294D01*
X122022706Y-50178340D01*
X122175668Y-50280546D01*
X122109272Y-50318617D01*
X121886434Y-50512871D01*
X121705775Y-50746866D01*
X121574237Y-51011610D01*
X121514381Y-51208939D01*
X121644531Y-51443000D01*
X122880000Y-51443000D01*
X122880000Y-51423000D01*
X123088000Y-51423000D01*
X123088000Y-51443000D01*
X124323469Y-51443000D01*
X124453619Y-51208939D01*
X124393763Y-51011610D01*
X124262225Y-50746866D01*
X124081566Y-50512871D01*
X123858728Y-50318617D01*
X123792332Y-50280546D01*
X123945294Y-50178340D01*
X124155340Y-49968294D01*
X124320373Y-49721306D01*
X124434049Y-49446868D01*
X124492000Y-49155525D01*
X124492000Y-48858475D01*
X124434049Y-48567132D01*
X124320373Y-48292694D01*
X124155340Y-48045706D01*
X124049017Y-47939383D01*
X124087024Y-47927853D01*
X124201334Y-47866754D01*
X124301527Y-47784527D01*
X124383754Y-47684334D01*
X124444853Y-47570024D01*
X124482479Y-47445990D01*
X124495183Y-47317000D01*
X124495183Y-45617000D01*
X124482479Y-45488010D01*
X124444853Y-45363976D01*
X124383754Y-45249666D01*
X124301527Y-45149473D01*
X124201334Y-45067246D01*
X124087024Y-45006147D01*
X123962990Y-44968521D01*
X123834000Y-44955817D01*
X122134000Y-44955817D01*
X122005010Y-44968521D01*
X121880976Y-45006147D01*
X121766666Y-45067246D01*
X121666473Y-45149473D01*
X121584246Y-45249666D01*
X121523147Y-45363976D01*
X121485521Y-45488010D01*
X121472817Y-45617000D01*
X117182683Y-45617000D01*
X117867684Y-44932000D01*
X127743317Y-44932000D01*
X128188001Y-45376685D01*
X128188000Y-54051320D01*
X128184092Y-54091000D01*
X128188000Y-54130680D01*
X128188000Y-54130687D01*
X128199692Y-54249395D01*
X128245894Y-54401703D01*
X128320922Y-54542071D01*
X128421894Y-54665106D01*
X128452728Y-54690411D01*
X130932598Y-57170283D01*
X130957894Y-57201106D01*
X130988717Y-57226402D01*
X130988721Y-57226406D01*
X131029218Y-57259641D01*
X131080928Y-57302078D01*
X131221296Y-57377106D01*
X131373604Y-57423308D01*
X131492312Y-57435000D01*
X131492320Y-57435000D01*
X131532000Y-57438908D01*
X131571680Y-57435000D01*
X131870232Y-57435000D01*
X131972660Y-57588294D01*
X132182706Y-57798340D01*
X132330360Y-57897000D01*
X132182706Y-57995660D01*
X131972660Y-58205706D01*
X131807627Y-58452694D01*
X131693951Y-58727132D01*
X131636000Y-59018475D01*
X131636000Y-59315525D01*
X131693951Y-59606868D01*
X131807627Y-59881306D01*
X131972660Y-60128294D01*
X132182706Y-60338340D01*
X132336000Y-60440768D01*
X132336000Y-60573319D01*
X132332092Y-60613000D01*
X132336000Y-60652680D01*
X132336000Y-60652687D01*
X132345624Y-60750397D01*
X132347692Y-60771396D01*
X132348105Y-60772756D01*
X132393894Y-60923703D01*
X132468922Y-61064071D01*
X132569894Y-61187106D01*
X132600728Y-61212411D01*
X134277594Y-62889278D01*
X134302894Y-62920106D01*
X134425928Y-63021078D01*
X134566296Y-63096106D01*
X134672401Y-63128293D01*
X134718603Y-63142308D01*
X134733879Y-63143813D01*
X134837312Y-63154000D01*
X134837319Y-63154000D01*
X134876999Y-63157908D01*
X134916679Y-63154000D01*
X157012320Y-63154000D01*
X157052000Y-63157908D01*
X157091680Y-63154000D01*
X157091688Y-63154000D01*
X157210396Y-63142308D01*
X157362704Y-63096106D01*
X157503072Y-63021078D01*
X157626106Y-62920106D01*
X157651411Y-62889272D01*
X160314283Y-60226402D01*
X160345106Y-60201106D01*
X160370402Y-60170283D01*
X160370406Y-60170279D01*
X160404862Y-60128294D01*
X160446078Y-60078072D01*
X160521106Y-59937704D01*
X160567308Y-59785396D01*
X160579000Y-59666688D01*
X160579000Y-59666680D01*
X160582908Y-59627000D01*
X160579000Y-59587320D01*
X160579000Y-55498683D01*
X164961684Y-51116000D01*
X166648232Y-51116000D01*
X166750660Y-51269294D01*
X166960706Y-51479340D01*
X167108360Y-51578000D01*
X166960706Y-51676660D01*
X166750660Y-51886706D01*
X166648232Y-52040000D01*
X165055679Y-52040000D01*
X165015999Y-52036092D01*
X164976319Y-52040000D01*
X164976312Y-52040000D01*
X164872879Y-52050187D01*
X164857603Y-52051692D01*
X164811401Y-52065707D01*
X164705296Y-52097894D01*
X164564928Y-52172922D01*
X164441894Y-52273894D01*
X164416594Y-52304722D01*
X163062723Y-53658594D01*
X163031895Y-53683894D01*
X162930923Y-53806928D01*
X162871352Y-53918378D01*
X162855895Y-53947296D01*
X162809692Y-54099604D01*
X162794092Y-54258000D01*
X162798001Y-54297690D01*
X162798000Y-76655316D01*
X158320317Y-81133000D01*
X143509684Y-81133000D01*
X143446000Y-81069317D01*
X143446000Y-80840634D01*
X143567421Y-80759503D01*
X143770503Y-80556421D01*
X143908000Y-80350642D01*
X144045497Y-80556421D01*
X144248579Y-80759503D01*
X144487378Y-80919063D01*
X144752717Y-81028970D01*
X145034399Y-81085000D01*
X145321601Y-81085000D01*
X145603283Y-81028970D01*
X145868622Y-80919063D01*
X146107421Y-80759503D01*
X146310503Y-80556421D01*
X146448000Y-80350642D01*
X146585497Y-80556421D01*
X146788579Y-80759503D01*
X147027378Y-80919063D01*
X147292717Y-81028970D01*
X147574399Y-81085000D01*
X147861601Y-81085000D01*
X148143283Y-81028970D01*
X148408622Y-80919063D01*
X148647421Y-80759503D01*
X148850503Y-80556421D01*
X148988000Y-80350642D01*
X149125497Y-80556421D01*
X149328579Y-80759503D01*
X149567378Y-80919063D01*
X149832717Y-81028970D01*
X150114399Y-81085000D01*
X150401601Y-81085000D01*
X150683283Y-81028970D01*
X150948622Y-80919063D01*
X151187421Y-80759503D01*
X151390503Y-80556421D01*
X151550063Y-80317622D01*
X151659970Y-80052283D01*
X151716000Y-79770601D01*
X151716000Y-79483399D01*
X151659970Y-79201717D01*
X151550063Y-78936378D01*
X151390503Y-78697579D01*
X151187421Y-78494497D01*
X151066000Y-78413366D01*
X151066000Y-76403680D01*
X151069908Y-76364000D01*
X151066000Y-76324320D01*
X151066000Y-76324312D01*
X151054308Y-76205604D01*
X151008106Y-76053296D01*
X150933078Y-75912928D01*
X150890641Y-75861218D01*
X150857406Y-75820721D01*
X150857402Y-75820717D01*
X150832106Y-75789894D01*
X150801283Y-75764598D01*
X146658411Y-71621728D01*
X146633106Y-71590894D01*
X146510072Y-71489922D01*
X146369704Y-71414894D01*
X146217396Y-71368692D01*
X146098688Y-71357000D01*
X146098680Y-71357000D01*
X146059000Y-71353092D01*
X146019320Y-71357000D01*
X129249684Y-71357000D01*
X127512000Y-69619317D01*
X127512000Y-57846677D01*
X127515908Y-57806999D01*
X127512000Y-57767321D01*
X127512000Y-57767312D01*
X127500308Y-57648604D01*
X127454106Y-57496296D01*
X127379078Y-57355928D01*
X127278106Y-57232894D01*
X127247278Y-57207594D01*
X124456032Y-54416349D01*
X124492000Y-54235525D01*
X124492000Y-53938475D01*
X124434049Y-53647132D01*
X124320373Y-53372694D01*
X124155340Y-53125706D01*
X123945294Y-52915660D01*
X123792332Y-52813454D01*
X123858728Y-52775383D01*
X124081566Y-52581129D01*
X124262225Y-52347134D01*
X124393763Y-52082390D01*
X124453619Y-51885061D01*
X124323469Y-51651000D01*
X123088000Y-51651000D01*
X123088000Y-51671000D01*
X122880000Y-51671000D01*
X122880000Y-51651000D01*
X121644531Y-51651000D01*
X121514381Y-51885061D01*
X121574237Y-52082390D01*
X121705775Y-52347134D01*
X121886434Y-52581129D01*
X122109272Y-52775383D01*
X122175668Y-52813454D01*
X122022706Y-52915660D01*
X121812660Y-53125706D01*
X121647627Y-53372694D01*
X121533951Y-53647132D01*
X121476000Y-53938475D01*
X121476000Y-54235525D01*
X121533951Y-54526868D01*
X121647627Y-54801306D01*
X121812660Y-55048294D01*
X122022706Y-55258340D01*
X122170360Y-55357000D01*
X122022706Y-55455660D01*
X121812660Y-55665706D01*
X121647627Y-55912694D01*
X121533951Y-56187132D01*
X121476000Y-56478475D01*
X121476000Y-56775525D01*
X121533951Y-57066868D01*
X121647627Y-57341306D01*
X121812660Y-57588294D01*
X122022706Y-57798340D01*
X122170360Y-57897000D01*
X122022706Y-57995660D01*
X121812660Y-58205706D01*
X121647627Y-58452694D01*
X121533951Y-58727132D01*
X121476000Y-59018475D01*
X121476000Y-59315525D01*
X121533951Y-59606868D01*
X121647627Y-59881306D01*
X121812660Y-60128294D01*
X122022706Y-60338340D01*
X122176001Y-60440769D01*
X122176000Y-74495320D01*
X122172092Y-74535000D01*
X122176000Y-74574680D01*
X122176000Y-74574687D01*
X122187692Y-74693395D01*
X122233894Y-74845703D01*
X122308922Y-74986071D01*
X122409894Y-75109106D01*
X122440728Y-75134411D01*
X123485594Y-76179278D01*
X123510894Y-76210106D01*
X123633928Y-76311078D01*
X123774296Y-76386106D01*
X123872494Y-76415894D01*
X123926603Y-76432308D01*
X123941879Y-76433813D01*
X124045312Y-76444000D01*
X124045319Y-76444000D01*
X124084999Y-76447908D01*
X124124679Y-76444000D01*
X143274317Y-76444000D01*
X144370001Y-77539685D01*
X144370001Y-78413366D01*
X144248579Y-78494497D01*
X144045497Y-78697579D01*
X143908000Y-78903358D01*
X143770503Y-78697579D01*
X143567421Y-78494497D01*
X143328622Y-78334937D01*
X143063283Y-78225030D01*
X142781601Y-78169000D01*
X142494399Y-78169000D01*
X142212717Y-78225030D01*
X141947378Y-78334937D01*
X141708579Y-78494497D01*
X141505497Y-78697579D01*
X141368000Y-78903358D01*
X141230503Y-78697579D01*
X141027421Y-78494497D01*
X140788622Y-78334937D01*
X140523283Y-78225030D01*
X140241601Y-78169000D01*
X139954399Y-78169000D01*
X139672717Y-78225030D01*
X139407378Y-78334937D01*
X139168579Y-78494497D01*
X138965497Y-78697579D01*
X138828000Y-78903358D01*
X138690503Y-78697579D01*
X138487421Y-78494497D01*
X138248622Y-78334937D01*
X137983283Y-78225030D01*
X137701601Y-78169000D01*
X137414399Y-78169000D01*
X137132717Y-78225030D01*
X136867378Y-78334937D01*
X136628579Y-78494497D01*
X136425497Y-78697579D01*
X136288000Y-78903358D01*
X136150503Y-78697579D01*
X135947421Y-78494497D01*
X135708622Y-78334937D01*
X135443283Y-78225030D01*
X135161601Y-78169000D01*
X134874399Y-78169000D01*
X134592717Y-78225030D01*
X134327378Y-78334937D01*
X134088579Y-78494497D01*
X133885497Y-78697579D01*
X133748000Y-78903358D01*
X133610503Y-78697579D01*
X133407421Y-78494497D01*
X133168622Y-78334937D01*
X132903283Y-78225030D01*
X132621601Y-78169000D01*
X132334399Y-78169000D01*
X132052717Y-78225030D01*
X131787378Y-78334937D01*
X131548579Y-78494497D01*
X131345497Y-78697579D01*
X131185937Y-78936378D01*
X131076030Y-79201717D01*
X131020000Y-79483399D01*
X131020000Y-79770601D01*
X131076030Y-80052283D01*
X131185937Y-80317622D01*
X131345497Y-80556421D01*
X131548579Y-80759503D01*
X131787378Y-80919063D01*
X132052717Y-81028970D01*
X132334399Y-81085000D01*
X132621601Y-81085000D01*
X132903283Y-81028970D01*
X133168622Y-80919063D01*
X133407421Y-80759503D01*
X133610503Y-80556421D01*
X133748000Y-80350642D01*
X133885497Y-80556421D01*
X134088579Y-80759503D01*
X134327378Y-80919063D01*
X134592717Y-81028970D01*
X134874399Y-81085000D01*
X135161601Y-81085000D01*
X135443283Y-81028970D01*
X135708622Y-80919063D01*
X135947421Y-80759503D01*
X136150503Y-80556421D01*
X136288000Y-80350642D01*
X136425497Y-80556421D01*
X136628579Y-80759503D01*
X136867378Y-80919063D01*
X137132717Y-81028970D01*
X137414399Y-81085000D01*
X137701601Y-81085000D01*
X137983283Y-81028970D01*
X138248622Y-80919063D01*
X138487421Y-80759503D01*
X138690503Y-80556421D01*
X138828000Y-80350642D01*
X138965497Y-80556421D01*
X139168579Y-80759503D01*
X139407378Y-80919063D01*
X139672717Y-81028970D01*
X139954399Y-81085000D01*
X140241601Y-81085000D01*
X140523283Y-81028970D01*
X140788622Y-80919063D01*
X141027421Y-80759503D01*
X141230503Y-80556421D01*
X141368000Y-80350642D01*
X141505497Y-80556421D01*
X141708579Y-80759503D01*
X141830001Y-80840634D01*
X141830001Y-81364310D01*
X141826092Y-81404000D01*
X141841692Y-81562396D01*
X141862290Y-81630296D01*
X141887895Y-81714704D01*
X141962923Y-81855072D01*
X142063895Y-81978106D01*
X142094723Y-82003406D01*
X142575593Y-82484277D01*
X142600894Y-82515106D01*
X142723928Y-82616078D01*
X142864296Y-82691106D01*
X143016604Y-82737308D01*
X143135312Y-82749000D01*
X143135320Y-82749000D01*
X143175000Y-82752908D01*
X143214680Y-82749000D01*
X158615320Y-82749000D01*
X158655000Y-82752908D01*
X158694680Y-82749000D01*
X158694688Y-82749000D01*
X158813396Y-82737308D01*
X158965704Y-82691106D01*
X159106072Y-82616078D01*
X159229106Y-82515106D01*
X159254411Y-82484272D01*
X164149279Y-77589405D01*
X164180106Y-77564106D01*
X164281078Y-77441072D01*
X164356106Y-77300704D01*
X164397177Y-77165312D01*
X164402308Y-77148397D01*
X164405685Y-77114106D01*
X164414000Y-77029688D01*
X164414000Y-77029681D01*
X164417908Y-76990001D01*
X164414000Y-76950321D01*
X164414000Y-73870718D01*
X178969000Y-73870718D01*
X178969000Y-74591282D01*
X179109575Y-75297999D01*
X179385323Y-75963713D01*
X179785646Y-76562839D01*
X180295161Y-77072354D01*
X180894287Y-77472677D01*
X181560001Y-77748425D01*
X182266718Y-77889000D01*
X182987282Y-77889000D01*
X183693999Y-77748425D01*
X184359713Y-77472677D01*
X184958839Y-77072354D01*
X185468354Y-76562839D01*
X185868677Y-75963713D01*
X186144425Y-75297999D01*
X186285000Y-74591282D01*
X186285000Y-73870718D01*
X186144425Y-73164001D01*
X185868677Y-72498287D01*
X185468354Y-71899161D01*
X184958839Y-71389646D01*
X184359713Y-70989323D01*
X183693999Y-70713575D01*
X182987282Y-70573000D01*
X182266718Y-70573000D01*
X181560001Y-70713575D01*
X180894287Y-70989323D01*
X180295161Y-71389646D01*
X179785646Y-71899161D01*
X179385323Y-72498287D01*
X179109575Y-73164001D01*
X178969000Y-73870718D01*
X164414000Y-73870718D01*
X164414000Y-55726061D01*
X166452381Y-55726061D01*
X166512237Y-55923390D01*
X166643775Y-56188134D01*
X166824434Y-56422129D01*
X167047272Y-56616383D01*
X167303725Y-56763431D01*
X167583938Y-56857622D01*
X167818000Y-56727913D01*
X167818000Y-55492000D01*
X168026000Y-55492000D01*
X168026000Y-56727913D01*
X168260062Y-56857622D01*
X168540275Y-56763431D01*
X168796728Y-56616383D01*
X169019566Y-56422129D01*
X169200225Y-56188134D01*
X169331763Y-55923390D01*
X169391619Y-55726061D01*
X169261469Y-55492000D01*
X168026000Y-55492000D01*
X167818000Y-55492000D01*
X166582531Y-55492000D01*
X166452381Y-55726061D01*
X164414000Y-55726061D01*
X164414000Y-54592683D01*
X165350684Y-53656000D01*
X166648232Y-53656000D01*
X166750660Y-53809294D01*
X166960706Y-54019340D01*
X167113668Y-54121546D01*
X167047272Y-54159617D01*
X166824434Y-54353871D01*
X166643775Y-54587866D01*
X166512237Y-54852610D01*
X166452381Y-55049939D01*
X166582531Y-55284000D01*
X167818000Y-55284000D01*
X167818000Y-55264000D01*
X168026000Y-55264000D01*
X168026000Y-55284000D01*
X169261469Y-55284000D01*
X169391619Y-55049939D01*
X169331763Y-54852610D01*
X169200225Y-54587866D01*
X169019566Y-54353871D01*
X168796728Y-54159617D01*
X168730332Y-54121546D01*
X168883294Y-54019340D01*
X169093340Y-53809294D01*
X169258373Y-53562306D01*
X169372049Y-53287868D01*
X169430000Y-52996525D01*
X169430000Y-52699475D01*
X169372049Y-52408132D01*
X169258373Y-52133694D01*
X169093340Y-51886706D01*
X168883294Y-51676660D01*
X168735640Y-51578000D01*
X168883294Y-51479340D01*
X169093340Y-51269294D01*
X169258373Y-51022306D01*
X169372049Y-50747868D01*
X169430000Y-50456525D01*
X169430000Y-50159475D01*
X169372049Y-49868132D01*
X169258373Y-49593694D01*
X169093340Y-49346706D01*
X168883294Y-49136660D01*
X168735640Y-49038000D01*
X168883294Y-48939340D01*
X169093340Y-48729294D01*
X169258373Y-48482306D01*
X169372049Y-48207868D01*
X169430000Y-47916525D01*
X169430000Y-47619475D01*
X169372049Y-47328132D01*
X169258373Y-47053694D01*
X169093340Y-46806706D01*
X168883294Y-46596660D01*
X168735640Y-46498000D01*
X168883294Y-46399340D01*
X168896634Y-46386000D01*
X170630341Y-46386000D01*
X172712001Y-48467660D01*
X172712000Y-59472113D01*
X172706397Y-59529000D01*
X172712000Y-59585887D01*
X172712000Y-59585888D01*
X172728755Y-59756007D01*
X172794971Y-59974291D01*
X172902499Y-60175462D01*
X173047208Y-60351792D01*
X173091402Y-60388061D01*
X175395944Y-62692604D01*
X175432208Y-62736792D01*
X175608537Y-62881501D01*
X175809708Y-62989029D01*
X176027992Y-63055245D01*
X176198111Y-63072000D01*
X176198112Y-63072000D01*
X176254999Y-63077603D01*
X176311886Y-63072000D01*
X177781817Y-63072000D01*
X177781817Y-63438000D01*
X177794521Y-63566990D01*
X177832147Y-63691024D01*
X177893246Y-63805334D01*
X177975473Y-63905527D01*
X178075666Y-63987754D01*
X178189976Y-64048853D01*
X178314010Y-64086479D01*
X178443000Y-64099183D01*
X181491000Y-64099183D01*
X181619990Y-64086479D01*
X181744024Y-64048853D01*
X181858334Y-63987754D01*
X181958527Y-63905527D01*
X182040754Y-63805334D01*
X182101853Y-63691024D01*
X182139479Y-63566990D01*
X182152183Y-63438000D01*
X182152183Y-60390000D01*
X182139479Y-60261010D01*
X182101853Y-60136976D01*
X182040754Y-60022666D01*
X181958527Y-59922473D01*
X181858334Y-59840246D01*
X181744024Y-59779147D01*
X181619990Y-59741521D01*
X181491000Y-59728817D01*
X178443000Y-59728817D01*
X178314010Y-59741521D01*
X178189976Y-59779147D01*
X178075666Y-59840246D01*
X177975473Y-59922473D01*
X177893246Y-60022666D01*
X177832147Y-60136976D01*
X177794521Y-60261010D01*
X177781817Y-60390000D01*
X177781817Y-60756000D01*
X176734660Y-60756000D01*
X175028000Y-59049341D01*
X175028000Y-48044886D01*
X175033603Y-47987999D01*
X175026563Y-47916525D01*
X175011245Y-47760992D01*
X174945029Y-47542708D01*
X174837501Y-47341537D01*
X174692792Y-47165208D01*
X174648598Y-47128939D01*
X173957659Y-46438000D01*
X177781816Y-46438000D01*
X177794520Y-46566991D01*
X177832146Y-46691024D01*
X177893246Y-46805334D01*
X177975472Y-46905528D01*
X178075666Y-46987754D01*
X178189976Y-47048854D01*
X178314009Y-47086480D01*
X178443000Y-47099184D01*
X179698500Y-47096000D01*
X179863000Y-46931500D01*
X179863000Y-45018000D01*
X180071000Y-45018000D01*
X180071000Y-46931500D01*
X180235500Y-47096000D01*
X181491000Y-47099184D01*
X181619991Y-47086480D01*
X181744024Y-47048854D01*
X181858334Y-46987754D01*
X181958528Y-46905528D01*
X182040754Y-46805334D01*
X182101854Y-46691024D01*
X182139480Y-46566991D01*
X182152184Y-46438000D01*
X182149000Y-45182500D01*
X181984500Y-45018000D01*
X180071000Y-45018000D01*
X179863000Y-45018000D01*
X177949500Y-45018000D01*
X177785000Y-45182500D01*
X177781816Y-46438000D01*
X173957659Y-46438000D01*
X171969061Y-44449402D01*
X171932792Y-44405208D01*
X171756463Y-44260499D01*
X171555292Y-44152971D01*
X171337008Y-44086755D01*
X171166889Y-44070000D01*
X171166887Y-44070000D01*
X171110000Y-44064397D01*
X171053113Y-44070000D01*
X169160967Y-44070000D01*
X169239527Y-44005527D01*
X169321754Y-43905334D01*
X169382853Y-43791024D01*
X169420479Y-43666990D01*
X169433183Y-43538000D01*
X169433183Y-43390000D01*
X177781816Y-43390000D01*
X177785000Y-44645500D01*
X177949500Y-44810000D01*
X179863000Y-44810000D01*
X179863000Y-42896500D01*
X180071000Y-42896500D01*
X180071000Y-44810000D01*
X181984500Y-44810000D01*
X182149000Y-44645500D01*
X182152184Y-43390000D01*
X182139480Y-43261009D01*
X182101854Y-43136976D01*
X182040754Y-43022666D01*
X181958528Y-42922472D01*
X181858334Y-42840246D01*
X181744024Y-42779146D01*
X181619991Y-42741520D01*
X181491000Y-42728816D01*
X180235500Y-42732000D01*
X180071000Y-42896500D01*
X179863000Y-42896500D01*
X179698500Y-42732000D01*
X178443000Y-42728816D01*
X178314009Y-42741520D01*
X178189976Y-42779146D01*
X178075666Y-42840246D01*
X177975472Y-42922472D01*
X177893246Y-43022666D01*
X177832146Y-43136976D01*
X177794520Y-43261009D01*
X177781816Y-43390000D01*
X169433183Y-43390000D01*
X169433183Y-41838000D01*
X169420479Y-41709010D01*
X169382853Y-41584976D01*
X169321754Y-41470666D01*
X169239527Y-41370473D01*
X169139334Y-41288246D01*
X169025024Y-41227147D01*
X168900990Y-41189521D01*
X168772000Y-41176817D01*
X167072000Y-41176817D01*
X166943010Y-41189521D01*
X166818976Y-41227147D01*
X166704666Y-41288246D01*
X166604473Y-41370473D01*
X166522246Y-41470666D01*
X166461147Y-41584976D01*
X166423521Y-41709010D01*
X166410817Y-41838000D01*
X166410817Y-43538000D01*
X166423521Y-43666990D01*
X166461147Y-43791024D01*
X166522246Y-43905334D01*
X166604473Y-44005527D01*
X166704666Y-44087754D01*
X166818976Y-44148853D01*
X166856983Y-44160383D01*
X166750660Y-44266706D01*
X166585627Y-44513694D01*
X166471951Y-44788132D01*
X166414000Y-45079475D01*
X166414000Y-45376525D01*
X166471951Y-45667868D01*
X166585627Y-45942306D01*
X166750660Y-46189294D01*
X166960706Y-46399340D01*
X167108360Y-46498000D01*
X166960706Y-46596660D01*
X166750660Y-46806706D01*
X166585627Y-47053694D01*
X166471951Y-47328132D01*
X166414000Y-47619475D01*
X166414000Y-47916525D01*
X166471951Y-48207868D01*
X166585627Y-48482306D01*
X166750660Y-48729294D01*
X166960706Y-48939340D01*
X167108360Y-49038000D01*
X166960706Y-49136660D01*
X166750660Y-49346706D01*
X166648232Y-49500000D01*
X164666679Y-49500000D01*
X164626999Y-49496092D01*
X164587319Y-49500000D01*
X164587312Y-49500000D01*
X164483879Y-49510187D01*
X164468603Y-49511692D01*
X164422401Y-49525707D01*
X164316296Y-49557894D01*
X164175928Y-49632922D01*
X164052894Y-49733894D01*
X164027594Y-49764722D01*
X159227728Y-54564589D01*
X159196894Y-54589894D01*
X159095922Y-54712929D01*
X159020894Y-54853297D01*
X158974692Y-55005605D01*
X158963000Y-55124313D01*
X158963000Y-55124320D01*
X158959092Y-55164000D01*
X158963000Y-55203680D01*
X158963001Y-59292314D01*
X156717317Y-61538000D01*
X135211684Y-61538000D01*
X134049382Y-60375699D01*
X134105294Y-60338340D01*
X134315340Y-60128294D01*
X134480373Y-59881306D01*
X134594049Y-59606868D01*
X134652000Y-59315525D01*
X134652000Y-59018475D01*
X134594049Y-58727132D01*
X134480373Y-58452694D01*
X134315340Y-58205706D01*
X134105294Y-57995660D01*
X133957640Y-57897000D01*
X134105294Y-57798340D01*
X134315340Y-57588294D01*
X134480373Y-57341306D01*
X134594049Y-57066868D01*
X134652000Y-56775525D01*
X134652000Y-56478475D01*
X134594049Y-56187132D01*
X134480373Y-55912694D01*
X134315340Y-55665706D01*
X134105294Y-55455660D01*
X133957640Y-55357000D01*
X134105294Y-55258340D01*
X134315340Y-55048294D01*
X134480373Y-54801306D01*
X134594049Y-54526868D01*
X134652000Y-54235525D01*
X134652000Y-53938475D01*
X134594049Y-53647132D01*
X134480373Y-53372694D01*
X134315340Y-53125706D01*
X134105294Y-52915660D01*
X133952332Y-52813454D01*
X134018728Y-52775383D01*
X134241566Y-52581129D01*
X134422225Y-52347134D01*
X134553763Y-52082390D01*
X134613619Y-51885061D01*
X134483469Y-51651000D01*
X133248000Y-51651000D01*
X133248000Y-51671000D01*
X133040000Y-51671000D01*
X133040000Y-51651000D01*
X131804531Y-51651000D01*
X131674381Y-51885061D01*
X131734237Y-52082390D01*
X131865775Y-52347134D01*
X132046434Y-52581129D01*
X132269272Y-52775383D01*
X132335668Y-52813454D01*
X132182706Y-52915660D01*
X131972660Y-53125706D01*
X131872415Y-53275732D01*
X131233000Y-52636317D01*
X131233000Y-45617000D01*
X131632817Y-45617000D01*
X131632817Y-47317000D01*
X131645521Y-47445990D01*
X131683147Y-47570024D01*
X131744246Y-47684334D01*
X131826473Y-47784527D01*
X131926666Y-47866754D01*
X132040976Y-47927853D01*
X132078983Y-47939383D01*
X131972660Y-48045706D01*
X131807627Y-48292694D01*
X131693951Y-48567132D01*
X131636000Y-48858475D01*
X131636000Y-49155525D01*
X131693951Y-49446868D01*
X131807627Y-49721306D01*
X131972660Y-49968294D01*
X132182706Y-50178340D01*
X132335668Y-50280546D01*
X132269272Y-50318617D01*
X132046434Y-50512871D01*
X131865775Y-50746866D01*
X131734237Y-51011610D01*
X131674381Y-51208939D01*
X131804531Y-51443000D01*
X133040000Y-51443000D01*
X133040000Y-51423000D01*
X133248000Y-51423000D01*
X133248000Y-51443000D01*
X134483469Y-51443000D01*
X134613619Y-51208939D01*
X134553763Y-51011610D01*
X134422225Y-50746866D01*
X134241566Y-50512871D01*
X134018728Y-50318617D01*
X133952332Y-50280546D01*
X134105294Y-50178340D01*
X134315340Y-49968294D01*
X134480373Y-49721306D01*
X134594049Y-49446868D01*
X134652000Y-49155525D01*
X134652000Y-48858475D01*
X134594049Y-48567132D01*
X134480373Y-48292694D01*
X134315340Y-48045706D01*
X134209017Y-47939383D01*
X134247024Y-47927853D01*
X134361334Y-47866754D01*
X134461527Y-47784527D01*
X134543754Y-47684334D01*
X134604853Y-47570024D01*
X134642479Y-47445990D01*
X134655183Y-47317000D01*
X134655183Y-45617000D01*
X134642479Y-45488010D01*
X134604853Y-45363976D01*
X134543754Y-45249666D01*
X134461527Y-45149473D01*
X134361334Y-45067246D01*
X134247024Y-45006147D01*
X134122990Y-44968521D01*
X133994000Y-44955817D01*
X132294000Y-44955817D01*
X132165010Y-44968521D01*
X132040976Y-45006147D01*
X131926666Y-45067246D01*
X131826473Y-45149473D01*
X131744246Y-45249666D01*
X131683147Y-45363976D01*
X131645521Y-45488010D01*
X131632817Y-45617000D01*
X131233000Y-45617000D01*
X131233000Y-44378000D01*
X141190817Y-44378000D01*
X141190817Y-46078000D01*
X141203521Y-46206990D01*
X141241147Y-46331024D01*
X141302246Y-46445334D01*
X141384473Y-46545527D01*
X141484666Y-46627754D01*
X141598976Y-46688853D01*
X141636983Y-46700383D01*
X141530660Y-46806706D01*
X141365627Y-47053694D01*
X141251951Y-47328132D01*
X141194000Y-47619475D01*
X141194000Y-47916525D01*
X141251951Y-48207868D01*
X141365627Y-48482306D01*
X141530660Y-48729294D01*
X141740706Y-48939340D01*
X141888360Y-49038000D01*
X141740706Y-49136660D01*
X141530660Y-49346706D01*
X141365627Y-49593694D01*
X141251951Y-49868132D01*
X141194000Y-50159475D01*
X141194000Y-50456525D01*
X141251951Y-50747868D01*
X141365627Y-51022306D01*
X141530660Y-51269294D01*
X141740706Y-51479340D01*
X141888360Y-51578000D01*
X141740706Y-51676660D01*
X141530660Y-51886706D01*
X141365627Y-52133694D01*
X141251951Y-52408132D01*
X141194000Y-52699475D01*
X141194000Y-52996525D01*
X141251951Y-53287868D01*
X141365627Y-53562306D01*
X141530660Y-53809294D01*
X141740706Y-54019340D01*
X141888360Y-54118000D01*
X141740706Y-54216660D01*
X141530660Y-54426706D01*
X141365627Y-54673694D01*
X141251951Y-54948132D01*
X141194000Y-55239475D01*
X141194000Y-55536525D01*
X141251951Y-55827868D01*
X141365627Y-56102306D01*
X141530660Y-56349294D01*
X141740706Y-56559340D01*
X141888360Y-56658000D01*
X141740706Y-56756660D01*
X141530660Y-56966706D01*
X141365627Y-57213694D01*
X141251951Y-57488132D01*
X141194000Y-57779475D01*
X141194000Y-58076525D01*
X141251951Y-58367868D01*
X141365627Y-58642306D01*
X141530660Y-58889294D01*
X141740706Y-59099340D01*
X141987694Y-59264373D01*
X142262132Y-59378049D01*
X142553475Y-59436000D01*
X142850525Y-59436000D01*
X143141868Y-59378049D01*
X143416306Y-59264373D01*
X143663294Y-59099340D01*
X143873340Y-58889294D01*
X144038373Y-58642306D01*
X144152049Y-58367868D01*
X144210000Y-58076525D01*
X144210000Y-57779475D01*
X144152049Y-57488132D01*
X144038373Y-57213694D01*
X143873340Y-56966706D01*
X143663294Y-56756660D01*
X143515640Y-56658000D01*
X143663294Y-56559340D01*
X143873340Y-56349294D01*
X144038373Y-56102306D01*
X144152049Y-55827868D01*
X144210000Y-55536525D01*
X144210000Y-55239475D01*
X144152049Y-54948132D01*
X144038373Y-54673694D01*
X143873340Y-54426706D01*
X143663294Y-54216660D01*
X143515640Y-54118000D01*
X143663294Y-54019340D01*
X143873340Y-53809294D01*
X144038373Y-53562306D01*
X144152049Y-53287868D01*
X144210000Y-52996525D01*
X144210000Y-52699475D01*
X144152049Y-52408132D01*
X144038373Y-52133694D01*
X143873340Y-51886706D01*
X143663294Y-51676660D01*
X143515640Y-51578000D01*
X143663294Y-51479340D01*
X143873340Y-51269294D01*
X144038373Y-51022306D01*
X144152049Y-50747868D01*
X144210000Y-50456525D01*
X144210000Y-50159475D01*
X144152049Y-49868132D01*
X144038373Y-49593694D01*
X143873340Y-49346706D01*
X143663294Y-49136660D01*
X143515640Y-49038000D01*
X143663294Y-48939340D01*
X143873340Y-48729294D01*
X144038373Y-48482306D01*
X144152049Y-48207868D01*
X144210000Y-47916525D01*
X144210000Y-47619475D01*
X144152049Y-47328132D01*
X144038373Y-47053694D01*
X143873340Y-46806706D01*
X143767017Y-46700383D01*
X143805024Y-46688853D01*
X143919334Y-46627754D01*
X144019527Y-46545527D01*
X144101754Y-46445334D01*
X144162853Y-46331024D01*
X144200479Y-46206990D01*
X144213183Y-46078000D01*
X144213183Y-44378000D01*
X144200479Y-44249010D01*
X144162853Y-44124976D01*
X144101754Y-44010666D01*
X144019527Y-43910473D01*
X143919334Y-43828246D01*
X143805024Y-43767147D01*
X143680990Y-43729521D01*
X143552000Y-43716817D01*
X141852000Y-43716817D01*
X141723010Y-43729521D01*
X141598976Y-43767147D01*
X141484666Y-43828246D01*
X141384473Y-43910473D01*
X141302246Y-44010666D01*
X141241147Y-44124976D01*
X141203521Y-44249010D01*
X141190817Y-44378000D01*
X131233000Y-44378000D01*
X131233000Y-44061679D01*
X131236908Y-44021999D01*
X131233000Y-43982319D01*
X131233000Y-43982312D01*
X131221308Y-43863604D01*
X131175106Y-43711296D01*
X131100078Y-43570928D01*
X130999106Y-43447894D01*
X130968278Y-43422594D01*
X129459411Y-41913728D01*
X129434106Y-41882894D01*
X129311072Y-41781922D01*
X129170704Y-41706894D01*
X129018396Y-41660692D01*
X128899688Y-41649000D01*
X128899680Y-41649000D01*
X128860000Y-41645092D01*
X128820320Y-41649000D01*
X115838679Y-41649000D01*
X115798999Y-41645092D01*
X115759319Y-41649000D01*
X115759312Y-41649000D01*
X115655879Y-41659187D01*
X115640603Y-41660692D01*
X115594401Y-41674707D01*
X115488296Y-41706894D01*
X115347928Y-41781922D01*
X115224894Y-41882894D01*
X115199594Y-41913722D01*
X113644728Y-43468589D01*
X113613894Y-43493894D01*
X113512922Y-43616929D01*
X113437894Y-43757297D01*
X113420907Y-43813296D01*
X113391692Y-43909604D01*
X113390187Y-43924880D01*
X113380000Y-44028313D01*
X113380000Y-44028320D01*
X113376092Y-44068000D01*
X113380000Y-44107681D01*
X113380000Y-44509231D01*
X113226706Y-44611660D01*
X113016660Y-44821706D01*
X112851627Y-45068694D01*
X112737951Y-45343132D01*
X112680000Y-45634475D01*
X112680000Y-45931525D01*
X112737951Y-46222868D01*
X112851627Y-46497306D01*
X113016660Y-46744294D01*
X113226706Y-46954340D01*
X113374360Y-47053000D01*
X113226706Y-47151660D01*
X113016660Y-47361706D01*
X112851627Y-47608694D01*
X112737951Y-47883132D01*
X112680000Y-48174475D01*
X112680000Y-48471525D01*
X112737951Y-48762868D01*
X112851627Y-49037306D01*
X113016660Y-49284294D01*
X113226706Y-49494340D01*
X113374360Y-49593000D01*
X113226706Y-49691660D01*
X113016660Y-49901706D01*
X112851627Y-50148694D01*
X112737951Y-50423132D01*
X112680000Y-50714475D01*
X112680000Y-51011525D01*
X112737951Y-51302868D01*
X112851627Y-51577306D01*
X113016660Y-51824294D01*
X113226706Y-52034340D01*
X113374360Y-52133000D01*
X113226706Y-52231660D01*
X113016660Y-52441706D01*
X112851627Y-52688694D01*
X112737951Y-52963132D01*
X112680000Y-53254475D01*
X112680000Y-53551525D01*
X112737951Y-53842868D01*
X112851627Y-54117306D01*
X113016660Y-54364294D01*
X113226706Y-54574340D01*
X113374360Y-54673000D01*
X113226706Y-54771660D01*
X113016660Y-54981706D01*
X112851627Y-55228694D01*
X112737951Y-55503132D01*
X112680000Y-55794475D01*
X112680000Y-56091525D01*
X112737951Y-56382868D01*
X112851627Y-56657306D01*
X113016660Y-56904294D01*
X113226706Y-57114340D01*
X113374360Y-57213000D01*
X113226706Y-57311660D01*
X113016660Y-57521706D01*
X112851627Y-57768694D01*
X112737951Y-58043132D01*
X112680000Y-58334475D01*
X112680000Y-58631525D01*
X112737951Y-58922868D01*
X112851627Y-59197306D01*
X113016660Y-59444294D01*
X113226706Y-59654340D01*
X113374360Y-59753000D01*
X113226706Y-59851660D01*
X113016660Y-60061706D01*
X112851627Y-60308694D01*
X112737951Y-60583132D01*
X112680000Y-60874475D01*
X112680000Y-61171525D01*
X112737951Y-61462868D01*
X112851627Y-61737306D01*
X113016660Y-61984294D01*
X113122983Y-62090617D01*
X113084976Y-62102146D01*
X112970666Y-62163246D01*
X112870472Y-62245472D01*
X112788246Y-62345666D01*
X112727146Y-62459976D01*
X112689520Y-62584009D01*
X112676816Y-62713000D01*
X87759183Y-62713000D01*
X87746479Y-62584010D01*
X87708853Y-62459976D01*
X87647754Y-62345666D01*
X87565527Y-62245473D01*
X87465334Y-62163246D01*
X87351024Y-62102147D01*
X87313017Y-62090617D01*
X87419340Y-61984294D01*
X87584373Y-61737306D01*
X87698049Y-61462868D01*
X87756000Y-61171525D01*
X87756000Y-60874475D01*
X87698049Y-60583132D01*
X87584373Y-60308694D01*
X87419340Y-60061706D01*
X87209294Y-59851660D01*
X87061640Y-59753000D01*
X87209294Y-59654340D01*
X87419340Y-59444294D01*
X87584373Y-59197306D01*
X87698049Y-58922868D01*
X87756000Y-58631525D01*
X87756000Y-58334475D01*
X87698049Y-58043132D01*
X87584373Y-57768694D01*
X87419340Y-57521706D01*
X87209294Y-57311660D01*
X87061640Y-57213000D01*
X87209294Y-57114340D01*
X87419340Y-56904294D01*
X87584373Y-56657306D01*
X87698049Y-56382868D01*
X87756000Y-56091525D01*
X87756000Y-55794475D01*
X87698049Y-55503132D01*
X87584373Y-55228694D01*
X87419340Y-54981706D01*
X87209294Y-54771660D01*
X87061640Y-54673000D01*
X87209294Y-54574340D01*
X87419340Y-54364294D01*
X87584373Y-54117306D01*
X87698049Y-53842868D01*
X87756000Y-53551525D01*
X87756000Y-53254475D01*
X87698049Y-52963132D01*
X87584373Y-52688694D01*
X87419340Y-52441706D01*
X87209294Y-52231660D01*
X87061640Y-52133000D01*
X87209294Y-52034340D01*
X87419340Y-51824294D01*
X87584373Y-51577306D01*
X87698049Y-51302868D01*
X87756000Y-51011525D01*
X87756000Y-50714475D01*
X87698049Y-50423132D01*
X87584373Y-50148694D01*
X87419340Y-49901706D01*
X87209294Y-49691660D01*
X87061640Y-49593000D01*
X87209294Y-49494340D01*
X87419340Y-49284294D01*
X87584373Y-49037306D01*
X87698049Y-48762868D01*
X87756000Y-48471525D01*
X87756000Y-48174475D01*
X87698049Y-47883132D01*
X87584373Y-47608694D01*
X87419340Y-47361706D01*
X87209294Y-47151660D01*
X87061640Y-47053000D01*
X87209294Y-46954340D01*
X87419340Y-46744294D01*
X87584373Y-46497306D01*
X87698049Y-46222868D01*
X87756000Y-45931525D01*
X87756000Y-45634475D01*
X87698049Y-45343132D01*
X87584373Y-45068694D01*
X87419340Y-44821706D01*
X87209294Y-44611660D01*
X86962306Y-44446627D01*
X86687868Y-44332951D01*
X86396525Y-44275000D01*
X86099475Y-44275000D01*
X85808132Y-44332951D01*
X85533694Y-44446627D01*
X85286706Y-44611660D01*
X85076660Y-44821706D01*
X84911627Y-45068694D01*
X84797951Y-45343132D01*
X84740000Y-45634475D01*
X84740000Y-45931525D01*
X84797951Y-46222868D01*
X84911627Y-46497306D01*
X85076660Y-46744294D01*
X85286706Y-46954340D01*
X85434360Y-47053000D01*
X85286706Y-47151660D01*
X85076660Y-47361706D01*
X84911627Y-47608694D01*
X84797951Y-47883132D01*
X84740000Y-48174475D01*
X84740000Y-48471525D01*
X84797951Y-48762868D01*
X84911627Y-49037306D01*
X85076660Y-49284294D01*
X85286706Y-49494340D01*
X85434360Y-49593000D01*
X85286706Y-49691660D01*
X85076660Y-49901706D01*
X84911627Y-50148694D01*
X84797951Y-50423132D01*
X84740000Y-50714475D01*
X84740000Y-51011525D01*
X84797951Y-51302868D01*
X84911627Y-51577306D01*
X85076660Y-51824294D01*
X85286706Y-52034340D01*
X85434360Y-52133000D01*
X85286706Y-52231660D01*
X85076660Y-52441706D01*
X84911627Y-52688694D01*
X84797951Y-52963132D01*
X84740000Y-53254475D01*
X84740000Y-53551525D01*
X84797951Y-53842868D01*
X84911627Y-54117306D01*
X85076660Y-54364294D01*
X85286706Y-54574340D01*
X85434360Y-54673000D01*
X85286706Y-54771660D01*
X85076660Y-54981706D01*
X84911627Y-55228694D01*
X84797951Y-55503132D01*
X84740000Y-55794475D01*
X84740000Y-56091525D01*
X84797951Y-56382868D01*
X84911627Y-56657306D01*
X85076660Y-56904294D01*
X85286706Y-57114340D01*
X85434360Y-57213000D01*
X85286706Y-57311660D01*
X85076660Y-57521706D01*
X84911627Y-57768694D01*
X84797951Y-58043132D01*
X84740000Y-58334475D01*
X84740000Y-58631525D01*
X84797951Y-58922868D01*
X84911627Y-59197306D01*
X85076660Y-59444294D01*
X85286706Y-59654340D01*
X85434360Y-59753000D01*
X85286706Y-59851660D01*
X85076660Y-60061706D01*
X84911627Y-60308694D01*
X84797951Y-60583132D01*
X84740000Y-60874475D01*
X84740000Y-61171525D01*
X84797951Y-61462868D01*
X84911627Y-61737306D01*
X85076660Y-61984294D01*
X85182983Y-62090617D01*
X85144976Y-62102147D01*
X85030666Y-62163246D01*
X84930473Y-62245473D01*
X84848246Y-62345666D01*
X84787147Y-62459976D01*
X84749521Y-62584010D01*
X84736817Y-62713000D01*
X73683000Y-62713000D01*
X73683000Y-34550867D01*
X73758323Y-34732713D01*
X74158646Y-35331839D01*
X74668161Y-35841354D01*
X75267287Y-36241677D01*
X75933001Y-36517425D01*
X76639718Y-36658000D01*
X77360282Y-36658000D01*
X78066999Y-36517425D01*
X78732713Y-36241677D01*
X79331839Y-35841354D01*
X79841354Y-35331839D01*
X80241677Y-34732713D01*
X80517425Y-34066999D01*
X80658000Y-33360282D01*
X80658000Y-32639718D01*
X80517425Y-31933001D01*
X80241677Y-31267287D01*
X79841354Y-30668161D01*
X79331839Y-30158646D01*
X78732713Y-29758323D01*
X78550867Y-29683000D01*
X224449133Y-29683000D01*
X224267287Y-29758323D01*
%TA.AperFunction,Conductor*%
D18*
G36*
X224267287Y-29758323D02*
G01*
X223668161Y-30158646D01*
X223158646Y-30668161D01*
X222758323Y-31267287D01*
X222482575Y-31933001D01*
X222342000Y-32639718D01*
X222342000Y-33360282D01*
X222482575Y-34066999D01*
X222758323Y-34732713D01*
X223158646Y-35331839D01*
X223668161Y-35841354D01*
X224267287Y-36241677D01*
X224933001Y-36517425D01*
X225639718Y-36658000D01*
X226360282Y-36658000D01*
X227066999Y-36517425D01*
X227732713Y-36241677D01*
X228331839Y-35841354D01*
X228841354Y-35331839D01*
X229241677Y-34732713D01*
X229317000Y-34550867D01*
X229317001Y-134449135D01*
X229241677Y-134267287D01*
X228841354Y-133668161D01*
X228331839Y-133158646D01*
X227732713Y-132758323D01*
X227066999Y-132482575D01*
X226360282Y-132342000D01*
X225639718Y-132342000D01*
X224933001Y-132482575D01*
X224267287Y-132758323D01*
X223668161Y-133158646D01*
X223158646Y-133668161D01*
X222758323Y-134267287D01*
X222482575Y-134933001D01*
X222342000Y-135639718D01*
X222342000Y-136360282D01*
X222482575Y-137066999D01*
X222758323Y-137732713D01*
X223158646Y-138331839D01*
X223668161Y-138841354D01*
X224267287Y-139241677D01*
X224449133Y-139317000D01*
X78550867Y-139317000D01*
X78732713Y-139241677D01*
X79331839Y-138841354D01*
X79841354Y-138331839D01*
X80241677Y-137732713D01*
X80517425Y-137066999D01*
X80658000Y-136360282D01*
X80658000Y-135639718D01*
X80517425Y-134933001D01*
X80241677Y-134267287D01*
X79841354Y-133668161D01*
X79331839Y-133158646D01*
X78732713Y-132758323D01*
X78066999Y-132482575D01*
X77360282Y-132342000D01*
X76639718Y-132342000D01*
X75933001Y-132482575D01*
X75267287Y-132758323D01*
X74668161Y-133158646D01*
X74158646Y-133668161D01*
X73758323Y-134267287D01*
X73683000Y-134449133D01*
X73683000Y-62713000D01*
X84736817Y-62713000D01*
X84736817Y-64413000D01*
X84749521Y-64541990D01*
X84787147Y-64666024D01*
X84848246Y-64780334D01*
X84930473Y-64880527D01*
X85030666Y-64962754D01*
X85144976Y-65023853D01*
X85269010Y-65061479D01*
X85398000Y-65074183D01*
X85440001Y-65074183D01*
X85440000Y-110820320D01*
X85436092Y-110860000D01*
X85440000Y-110899680D01*
X85440000Y-110899687D01*
X85450187Y-111003120D01*
X85451692Y-111018396D01*
X85455212Y-111030000D01*
X85497894Y-111170703D01*
X85572922Y-111311071D01*
X85673894Y-111434106D01*
X85704728Y-111459411D01*
X89489594Y-115244278D01*
X89514894Y-115275106D01*
X89637928Y-115376078D01*
X89778296Y-115451106D01*
X89884401Y-115483293D01*
X89930603Y-115497308D01*
X89945879Y-115498813D01*
X90049312Y-115509000D01*
X90049319Y-115509000D01*
X90088999Y-115512908D01*
X90128679Y-115509000D01*
X118269317Y-115509000D01*
X121510001Y-118749685D01*
X121510000Y-121593366D01*
X121388579Y-121674497D01*
X121185497Y-121877579D01*
X121048000Y-122083358D01*
X120910503Y-121877579D01*
X120707421Y-121674497D01*
X120468622Y-121514937D01*
X120203283Y-121405030D01*
X119921601Y-121349000D01*
X119634399Y-121349000D01*
X119352717Y-121405030D01*
X119087378Y-121514937D01*
X118848579Y-121674497D01*
X118645497Y-121877579D01*
X118508000Y-122083358D01*
X118370503Y-121877579D01*
X118167421Y-121674497D01*
X117928622Y-121514937D01*
X117663283Y-121405030D01*
X117381601Y-121349000D01*
X117094399Y-121349000D01*
X116812717Y-121405030D01*
X116547378Y-121514937D01*
X116308579Y-121674497D01*
X116136840Y-121846236D01*
X116108853Y-121753976D01*
X116047754Y-121639666D01*
X115965527Y-121539473D01*
X115865334Y-121457246D01*
X115751024Y-121396147D01*
X115626990Y-121358521D01*
X115498000Y-121345817D01*
X113898000Y-121345817D01*
X113769010Y-121358521D01*
X113644976Y-121396147D01*
X113530666Y-121457246D01*
X113430473Y-121539473D01*
X113348246Y-121639666D01*
X113287147Y-121753976D01*
X113249521Y-121878010D01*
X113236817Y-122007000D01*
X113236817Y-123607000D01*
X113249521Y-123735990D01*
X113287147Y-123860024D01*
X113348246Y-123974334D01*
X113430473Y-124074527D01*
X113530666Y-124156754D01*
X113644976Y-124217853D01*
X113769010Y-124255479D01*
X113898000Y-124268183D01*
X115498000Y-124268183D01*
X115626990Y-124255479D01*
X115751024Y-124217853D01*
X115865334Y-124156754D01*
X115965527Y-124074527D01*
X116047754Y-123974334D01*
X116108853Y-123860024D01*
X116136840Y-123767764D01*
X116308579Y-123939503D01*
X116547378Y-124099063D01*
X116812717Y-124208970D01*
X117094399Y-124265000D01*
X117381601Y-124265000D01*
X117663283Y-124208970D01*
X117928622Y-124099063D01*
X118167421Y-123939503D01*
X118370503Y-123736421D01*
X118508000Y-123530642D01*
X118645497Y-123736421D01*
X118848579Y-123939503D01*
X119087378Y-124099063D01*
X119352717Y-124208970D01*
X119634399Y-124265000D01*
X119921601Y-124265000D01*
X120203283Y-124208970D01*
X120468622Y-124099063D01*
X120707421Y-123939503D01*
X120910503Y-123736421D01*
X121048000Y-123530642D01*
X121185497Y-123736421D01*
X121388579Y-123939503D01*
X121627378Y-124099063D01*
X121892717Y-124208970D01*
X122174399Y-124265000D01*
X122461601Y-124265000D01*
X122743283Y-124208970D01*
X123008622Y-124099063D01*
X123247421Y-123939503D01*
X123450503Y-123736421D01*
X123588000Y-123530642D01*
X123725497Y-123736421D01*
X123928579Y-123939503D01*
X124167378Y-124099063D01*
X124432717Y-124208970D01*
X124714399Y-124265000D01*
X125001601Y-124265000D01*
X125283283Y-124208970D01*
X125548622Y-124099063D01*
X125787421Y-123939503D01*
X125990503Y-123736421D01*
X126134627Y-123520724D01*
X126212354Y-123655540D01*
X126400678Y-123870544D01*
X126627328Y-124044676D01*
X126883595Y-124171245D01*
X127067780Y-124227112D01*
X127294000Y-124096312D01*
X127294000Y-122911000D01*
X127274000Y-122911000D01*
X127274000Y-122703000D01*
X127294000Y-122703000D01*
X127294000Y-121517688D01*
X127067780Y-121386888D01*
X126883595Y-121442755D01*
X126627328Y-121569324D01*
X126400678Y-121743456D01*
X126212354Y-121958460D01*
X126134627Y-122093276D01*
X125990503Y-121877579D01*
X125787421Y-121674497D01*
X125666000Y-121593366D01*
X125666000Y-116065683D01*
X130701685Y-111030000D01*
X155930320Y-111030000D01*
X155970000Y-111033908D01*
X156009680Y-111030000D01*
X156009688Y-111030000D01*
X156128396Y-111018308D01*
X156280704Y-110972106D01*
X156421072Y-110897078D01*
X156544106Y-110796106D01*
X156569411Y-110765272D01*
X159927279Y-107407405D01*
X159958106Y-107382106D01*
X160059078Y-107259072D01*
X160134106Y-107118704D01*
X160180308Y-106966396D01*
X160192000Y-106847688D01*
X160192000Y-106847681D01*
X160195908Y-106808001D01*
X160192000Y-106768321D01*
X160192000Y-85180683D01*
X163124134Y-82248549D01*
X163115817Y-82333000D01*
X163115817Y-83551499D01*
X161351723Y-85315594D01*
X161320895Y-85340894D01*
X161219923Y-85463928D01*
X161170751Y-85555923D01*
X161144895Y-85604296D01*
X161098692Y-85756604D01*
X161083092Y-85915000D01*
X161087001Y-85954690D01*
X161087000Y-109965315D01*
X158762317Y-112290000D01*
X141817679Y-112290000D01*
X141777999Y-112286092D01*
X141738319Y-112290000D01*
X141738312Y-112290000D01*
X141634879Y-112300187D01*
X141619603Y-112301692D01*
X141573401Y-112315707D01*
X141467296Y-112347894D01*
X141326928Y-112422922D01*
X141203894Y-112523894D01*
X141178594Y-112554722D01*
X137014723Y-116718594D01*
X136983895Y-116743894D01*
X136882923Y-116866928D01*
X136827830Y-116970000D01*
X136807895Y-117007296D01*
X136761692Y-117159604D01*
X136746092Y-117318000D01*
X136750001Y-117357690D01*
X136750000Y-121593366D01*
X136628579Y-121674497D01*
X136425497Y-121877579D01*
X136265937Y-122116378D01*
X136156030Y-122381717D01*
X136100000Y-122663399D01*
X136100000Y-122950601D01*
X136156030Y-123232283D01*
X136265937Y-123497622D01*
X136409179Y-123712000D01*
X135020659Y-123712000D01*
X133927047Y-122618388D01*
X133879970Y-122381717D01*
X133770063Y-122116378D01*
X133610503Y-121877579D01*
X133407421Y-121674497D01*
X133168622Y-121514937D01*
X132903283Y-121405030D01*
X132621601Y-121349000D01*
X132334399Y-121349000D01*
X132052717Y-121405030D01*
X131787378Y-121514937D01*
X131548579Y-121674497D01*
X131345497Y-121877579D01*
X131208000Y-122083358D01*
X131070503Y-121877579D01*
X130867421Y-121674497D01*
X130628622Y-121514937D01*
X130363283Y-121405030D01*
X130081601Y-121349000D01*
X129794399Y-121349000D01*
X129512717Y-121405030D01*
X129247378Y-121514937D01*
X129008579Y-121674497D01*
X128805497Y-121877579D01*
X128661373Y-122093276D01*
X128583646Y-121958460D01*
X128395322Y-121743456D01*
X128168672Y-121569324D01*
X127912405Y-121442755D01*
X127728220Y-121386888D01*
X127502000Y-121517688D01*
X127502000Y-122703000D01*
X127522000Y-122703000D01*
X127522000Y-122911000D01*
X127502000Y-122911000D01*
X127502000Y-124096312D01*
X127728220Y-124227112D01*
X127912405Y-124171245D01*
X128168672Y-124044676D01*
X128395322Y-123870544D01*
X128583646Y-123655540D01*
X128661373Y-123520724D01*
X128780000Y-123698262D01*
X128780001Y-128651104D01*
X128774397Y-128708000D01*
X128796756Y-128935008D01*
X128862971Y-129153291D01*
X128970500Y-129354463D01*
X129036006Y-129434282D01*
X129115209Y-129530792D01*
X129159397Y-129567056D01*
X134967939Y-135375598D01*
X135004208Y-135419792D01*
X135180536Y-135564500D01*
X135180537Y-135564501D01*
X135381708Y-135672029D01*
X135599992Y-135738245D01*
X135827000Y-135760603D01*
X135883889Y-135755000D01*
X218578113Y-135755000D01*
X218635000Y-135760603D01*
X218691887Y-135755000D01*
X218691889Y-135755000D01*
X218862008Y-135738245D01*
X219080292Y-135672029D01*
X219281463Y-135564501D01*
X219457792Y-135419792D01*
X219494061Y-135375598D01*
X224725599Y-130144060D01*
X224769792Y-130107792D01*
X224914501Y-129931463D01*
X225022029Y-129730292D01*
X225088245Y-129512008D01*
X225105000Y-129341889D01*
X225105000Y-129341888D01*
X225110603Y-129285001D01*
X225105000Y-129228114D01*
X225105000Y-49950889D01*
X225110603Y-49894000D01*
X225088245Y-49666992D01*
X225066010Y-49593694D01*
X225022029Y-49448708D01*
X224914501Y-49247537D01*
X224769792Y-49071208D01*
X224725598Y-49034939D01*
X221152183Y-45461524D01*
X221152183Y-43390000D01*
X221139479Y-43261010D01*
X221101853Y-43136976D01*
X221040754Y-43022666D01*
X220958527Y-42922473D01*
X220858334Y-42840246D01*
X220744024Y-42779147D01*
X220619990Y-42741521D01*
X220491000Y-42728817D01*
X217443000Y-42728817D01*
X217314010Y-42741521D01*
X217189976Y-42779147D01*
X217075666Y-42840246D01*
X216975473Y-42922473D01*
X216893246Y-43022666D01*
X216832147Y-43136976D01*
X216794521Y-43261010D01*
X216781817Y-43390000D01*
X216781817Y-46438000D01*
X216794521Y-46566990D01*
X216832147Y-46691024D01*
X216893246Y-46805334D01*
X216975473Y-46905527D01*
X217075666Y-46987754D01*
X217189976Y-47048853D01*
X217314010Y-47086479D01*
X217443000Y-47099183D01*
X219514524Y-47099183D01*
X222789001Y-50373660D01*
X222789000Y-128805341D01*
X218155341Y-133439000D01*
X136306659Y-133439000D01*
X131096000Y-128228341D01*
X131096000Y-123698262D01*
X131208000Y-123530642D01*
X131345497Y-123736421D01*
X131548579Y-123939503D01*
X131787378Y-124099063D01*
X132052717Y-124208970D01*
X132289388Y-124256047D01*
X133681939Y-125648598D01*
X133718208Y-125692792D01*
X133888228Y-125832323D01*
X133894537Y-125837501D01*
X134095708Y-125945029D01*
X134313992Y-126011245D01*
X134541000Y-126033603D01*
X134597889Y-126028000D01*
X180466436Y-126028000D01*
X180160161Y-126232646D01*
X179650646Y-126742161D01*
X179250323Y-127341287D01*
X178974575Y-128007001D01*
X178834000Y-128713718D01*
X178834000Y-129434282D01*
X178974575Y-130140999D01*
X179250323Y-130806713D01*
X179650646Y-131405839D01*
X180160161Y-131915354D01*
X180759287Y-132315677D01*
X181425001Y-132591425D01*
X182131718Y-132732000D01*
X182852282Y-132732000D01*
X183558999Y-132591425D01*
X184224713Y-132315677D01*
X184823839Y-131915354D01*
X185333354Y-131405839D01*
X185733677Y-130806713D01*
X186009425Y-130140999D01*
X186150000Y-129434282D01*
X186150000Y-128743718D01*
X208856000Y-128743718D01*
X208856000Y-129464282D01*
X208996575Y-130170999D01*
X209272323Y-130836713D01*
X209672646Y-131435839D01*
X210182161Y-131945354D01*
X210781287Y-132345677D01*
X211447001Y-132621425D01*
X212153718Y-132762000D01*
X212874282Y-132762000D01*
X213580999Y-132621425D01*
X214246713Y-132345677D01*
X214845839Y-131945354D01*
X215355354Y-131435839D01*
X215755677Y-130836713D01*
X216031425Y-130170999D01*
X216172000Y-129464282D01*
X216172000Y-128743718D01*
X216031425Y-128037001D01*
X215755677Y-127371287D01*
X215355354Y-126772161D01*
X214845839Y-126262646D01*
X214246713Y-125862323D01*
X213580999Y-125586575D01*
X212874282Y-125446000D01*
X212153718Y-125446000D01*
X211447001Y-125586575D01*
X210781287Y-125862323D01*
X210182161Y-126262646D01*
X209672646Y-126772161D01*
X209272323Y-127371287D01*
X208996575Y-128037001D01*
X208856000Y-128743718D01*
X186150000Y-128743718D01*
X186150000Y-128713718D01*
X186009425Y-128007001D01*
X185733677Y-127341287D01*
X185333354Y-126742161D01*
X184823839Y-126232646D01*
X184517564Y-126028000D01*
X199912113Y-126028000D01*
X199969000Y-126033603D01*
X200025887Y-126028000D01*
X200025889Y-126028000D01*
X200196008Y-126011245D01*
X200414292Y-125945029D01*
X200615463Y-125837501D01*
X200791792Y-125692792D01*
X200828061Y-125648598D01*
X206800599Y-119676060D01*
X206844792Y-119639792D01*
X206989501Y-119463463D01*
X207097029Y-119262292D01*
X207163245Y-119044008D01*
X207180000Y-118873889D01*
X207180000Y-118873888D01*
X207185603Y-118817000D01*
X207180000Y-118760111D01*
X207180000Y-108901718D01*
X208806000Y-108901718D01*
X208806000Y-109622282D01*
X208946575Y-110328999D01*
X209222323Y-110994713D01*
X209622646Y-111593839D01*
X210132161Y-112103354D01*
X210731287Y-112503677D01*
X211397001Y-112779425D01*
X212103718Y-112920000D01*
X212824282Y-112920000D01*
X213530999Y-112779425D01*
X214196713Y-112503677D01*
X214795839Y-112103354D01*
X215305354Y-111593839D01*
X215705677Y-110994713D01*
X215981425Y-110328999D01*
X216122000Y-109622282D01*
X216122000Y-108901718D01*
X215981425Y-108195001D01*
X215705677Y-107529287D01*
X215305354Y-106930161D01*
X214795839Y-106420646D01*
X214196713Y-106020323D01*
X213530999Y-105744575D01*
X212824282Y-105604000D01*
X212103718Y-105604000D01*
X211397001Y-105744575D01*
X210731287Y-106020323D01*
X210132161Y-106420646D01*
X209622646Y-106930161D01*
X209222323Y-107529287D01*
X208946575Y-108195001D01*
X208806000Y-108901718D01*
X207180000Y-108901718D01*
X207180000Y-97870718D01*
X212969000Y-97870718D01*
X212969000Y-98591282D01*
X213109575Y-99297999D01*
X213385323Y-99963713D01*
X213785646Y-100562839D01*
X214295161Y-101072354D01*
X214894287Y-101472677D01*
X215560001Y-101748425D01*
X216266718Y-101889000D01*
X216987282Y-101889000D01*
X217693999Y-101748425D01*
X218359713Y-101472677D01*
X218958839Y-101072354D01*
X219468354Y-100562839D01*
X219868677Y-99963713D01*
X220144425Y-99297999D01*
X220285000Y-98591282D01*
X220285000Y-97870718D01*
X220144425Y-97164001D01*
X219868677Y-96498287D01*
X219468354Y-95899161D01*
X218958839Y-95389646D01*
X218359713Y-94989323D01*
X217693999Y-94713575D01*
X216987282Y-94573000D01*
X216266718Y-94573000D01*
X215560001Y-94713575D01*
X214894287Y-94989323D01*
X214295161Y-95389646D01*
X213785646Y-95899161D01*
X213385323Y-96498287D01*
X213109575Y-97164001D01*
X212969000Y-97870718D01*
X207180000Y-97870718D01*
X207180000Y-73870718D01*
X212969000Y-73870718D01*
X212969000Y-74591282D01*
X213109575Y-75297999D01*
X213385323Y-75963713D01*
X213785646Y-76562839D01*
X214295161Y-77072354D01*
X214894287Y-77472677D01*
X215560001Y-77748425D01*
X216266718Y-77889000D01*
X216987282Y-77889000D01*
X217693999Y-77748425D01*
X218359713Y-77472677D01*
X218958839Y-77072354D01*
X219468354Y-76562839D01*
X219868677Y-75963713D01*
X220144425Y-75297999D01*
X220285000Y-74591282D01*
X220285000Y-73870718D01*
X220144425Y-73164001D01*
X219868677Y-72498287D01*
X219468354Y-71899161D01*
X218958839Y-71389646D01*
X218359713Y-70989323D01*
X217693999Y-70713575D01*
X216987282Y-70573000D01*
X216266718Y-70573000D01*
X215560001Y-70713575D01*
X214894287Y-70989323D01*
X214295161Y-71389646D01*
X213785646Y-71899161D01*
X213385323Y-72498287D01*
X213109575Y-73164001D01*
X212969000Y-73870718D01*
X207180000Y-73870718D01*
X207180000Y-68401659D01*
X212509660Y-63072000D01*
X216781817Y-63072000D01*
X216781817Y-63438000D01*
X216794521Y-63566990D01*
X216832147Y-63691024D01*
X216893246Y-63805334D01*
X216975473Y-63905527D01*
X217075666Y-63987754D01*
X217189976Y-64048853D01*
X217314010Y-64086479D01*
X217443000Y-64099183D01*
X220491000Y-64099183D01*
X220619990Y-64086479D01*
X220744024Y-64048853D01*
X220858334Y-63987754D01*
X220958527Y-63905527D01*
X221040754Y-63805334D01*
X221101853Y-63691024D01*
X221139479Y-63566990D01*
X221152183Y-63438000D01*
X221152183Y-60390000D01*
X221139479Y-60261010D01*
X221101853Y-60136976D01*
X221040754Y-60022666D01*
X220958527Y-59922473D01*
X220858334Y-59840246D01*
X220744024Y-59779147D01*
X220619990Y-59741521D01*
X220491000Y-59728817D01*
X217443000Y-59728817D01*
X217314010Y-59741521D01*
X217189976Y-59779147D01*
X217075666Y-59840246D01*
X216975473Y-59922473D01*
X216893246Y-60022666D01*
X216832147Y-60136976D01*
X216794521Y-60261010D01*
X216781817Y-60390000D01*
X216781817Y-60756000D01*
X212086886Y-60756000D01*
X212029999Y-60750397D01*
X211973112Y-60756000D01*
X211973111Y-60756000D01*
X211802992Y-60772755D01*
X211584708Y-60838971D01*
X211383537Y-60946499D01*
X211207208Y-61091208D01*
X211170944Y-61135396D01*
X205243397Y-67062944D01*
X205199209Y-67099208D01*
X205162945Y-67143396D01*
X205162944Y-67143397D01*
X205054500Y-67275537D01*
X204946971Y-67476709D01*
X204880756Y-67694992D01*
X204858397Y-67922000D01*
X204864001Y-67978897D01*
X204864000Y-118337341D01*
X199489341Y-123712000D01*
X164481166Y-123712000D01*
X164597024Y-123676854D01*
X164711334Y-123615754D01*
X164811528Y-123533528D01*
X164893754Y-123433334D01*
X164954854Y-123319024D01*
X164992480Y-123194991D01*
X165005184Y-123066000D01*
X165002000Y-122484500D01*
X164837500Y-122320000D01*
X163598000Y-122320000D01*
X163598000Y-122340000D01*
X163390000Y-122340000D01*
X163390000Y-122320000D01*
X162150500Y-122320000D01*
X161986000Y-122484500D01*
X161982816Y-123066000D01*
X161995520Y-123194991D01*
X162033146Y-123319024D01*
X162094246Y-123433334D01*
X162176472Y-123533528D01*
X162276666Y-123615754D01*
X162390976Y-123676854D01*
X162506834Y-123712000D01*
X151406821Y-123712000D01*
X151550063Y-123497622D01*
X151659970Y-123232283D01*
X151716000Y-122950601D01*
X151716000Y-122663399D01*
X151659970Y-122381717D01*
X151550063Y-122116378D01*
X151390503Y-121877579D01*
X151187421Y-121674497D01*
X150948622Y-121514937D01*
X150683283Y-121405030D01*
X150487066Y-121366000D01*
X161982816Y-121366000D01*
X161986000Y-121947500D01*
X162150500Y-122112000D01*
X163390000Y-122112000D01*
X163390000Y-120872500D01*
X163598000Y-120872500D01*
X163598000Y-122112000D01*
X164837500Y-122112000D01*
X165002000Y-121947500D01*
X165005184Y-121366000D01*
X164992480Y-121237009D01*
X164954854Y-121112976D01*
X164893754Y-120998666D01*
X164811528Y-120898472D01*
X164711334Y-120816246D01*
X164597024Y-120755146D01*
X164472991Y-120717520D01*
X164344000Y-120704816D01*
X163762500Y-120708000D01*
X163598000Y-120872500D01*
X163390000Y-120872500D01*
X163225500Y-120708000D01*
X162644000Y-120704816D01*
X162515009Y-120717520D01*
X162390976Y-120755146D01*
X162276666Y-120816246D01*
X162176472Y-120898472D01*
X162094246Y-120998666D01*
X162033146Y-121112976D01*
X161995520Y-121237009D01*
X161982816Y-121366000D01*
X150487066Y-121366000D01*
X150401601Y-121349000D01*
X150114399Y-121349000D01*
X149832717Y-121405030D01*
X149567378Y-121514937D01*
X149328579Y-121674497D01*
X149125497Y-121877579D01*
X148988000Y-122083358D01*
X148850503Y-121877579D01*
X148647421Y-121674497D01*
X148408622Y-121514937D01*
X148143283Y-121405030D01*
X147861601Y-121349000D01*
X147574399Y-121349000D01*
X147292717Y-121405030D01*
X147027378Y-121514937D01*
X146788579Y-121674497D01*
X146585497Y-121877579D01*
X146448000Y-122083358D01*
X146310503Y-121877579D01*
X146107421Y-121674497D01*
X145868622Y-121514937D01*
X145603283Y-121405030D01*
X145321601Y-121349000D01*
X145034399Y-121349000D01*
X144752717Y-121405030D01*
X144487378Y-121514937D01*
X144248579Y-121674497D01*
X144045497Y-121877579D01*
X143908000Y-122083358D01*
X143770503Y-121877579D01*
X143567421Y-121674497D01*
X143328622Y-121514937D01*
X143063283Y-121405030D01*
X142781601Y-121349000D01*
X142494399Y-121349000D01*
X142212717Y-121405030D01*
X141947378Y-121514937D01*
X141708579Y-121674497D01*
X141505497Y-121877579D01*
X141368000Y-122083358D01*
X141230503Y-121877579D01*
X141027421Y-121674497D01*
X140906000Y-121593366D01*
X140906000Y-118645683D01*
X142623684Y-116928000D01*
X161982817Y-116928000D01*
X161982817Y-116970000D01*
X161995521Y-117098990D01*
X162033147Y-117223024D01*
X162094246Y-117337334D01*
X162176473Y-117437527D01*
X162276666Y-117519754D01*
X162390976Y-117580853D01*
X162515010Y-117618479D01*
X162644000Y-117631183D01*
X164344000Y-117631183D01*
X164472990Y-117618479D01*
X164597024Y-117580853D01*
X164711334Y-117519754D01*
X164811527Y-117437527D01*
X164893754Y-117337334D01*
X164954853Y-117223024D01*
X164992479Y-117098990D01*
X165005183Y-116970000D01*
X165005183Y-115270000D01*
X164992479Y-115141010D01*
X164954853Y-115016976D01*
X164893754Y-114902666D01*
X164811527Y-114802473D01*
X164711334Y-114720246D01*
X164597024Y-114659147D01*
X164472990Y-114621521D01*
X164344000Y-114608817D01*
X162644000Y-114608817D01*
X162515010Y-114621521D01*
X162390976Y-114659147D01*
X162276666Y-114720246D01*
X162176473Y-114802473D01*
X162094246Y-114902666D01*
X162033147Y-115016976D01*
X161995521Y-115141010D01*
X161982817Y-115270000D01*
X161982817Y-115312000D01*
X142328680Y-115312000D01*
X142289000Y-115308092D01*
X142249320Y-115312000D01*
X142249312Y-115312000D01*
X142144536Y-115322320D01*
X142130603Y-115323692D01*
X141978295Y-115369894D01*
X141929402Y-115396029D01*
X141837928Y-115444922D01*
X141714894Y-115545894D01*
X141689594Y-115576722D01*
X139554723Y-117711594D01*
X139523895Y-117736894D01*
X139422923Y-117859928D01*
X139392201Y-117917405D01*
X139347895Y-118000296D01*
X139301692Y-118152604D01*
X139286092Y-118311000D01*
X139290001Y-118350690D01*
X139290000Y-121593366D01*
X139168579Y-121674497D01*
X138965497Y-121877579D01*
X138828000Y-122083358D01*
X138690503Y-121877579D01*
X138487421Y-121674497D01*
X138366000Y-121593366D01*
X138366000Y-117652683D01*
X142112684Y-113906000D01*
X159057320Y-113906000D01*
X159097000Y-113909908D01*
X159136680Y-113906000D01*
X159136688Y-113906000D01*
X159255396Y-113894308D01*
X159407704Y-113848106D01*
X159548072Y-113773078D01*
X159671106Y-113672106D01*
X159696411Y-113641272D01*
X162438284Y-110899401D01*
X162469106Y-110874106D01*
X162494402Y-110843283D01*
X162494406Y-110843279D01*
X162533119Y-110796106D01*
X162570078Y-110751072D01*
X162645106Y-110610704D01*
X162691308Y-110458396D01*
X162703000Y-110339688D01*
X162703000Y-110339680D01*
X162706908Y-110300000D01*
X162703000Y-110260320D01*
X162703000Y-90129000D01*
X163115816Y-90129000D01*
X163128520Y-90257991D01*
X163166146Y-90382024D01*
X163227246Y-90496334D01*
X163309472Y-90596528D01*
X163409666Y-90678754D01*
X163523976Y-90739854D01*
X163648009Y-90777480D01*
X163777000Y-90790184D01*
X164358500Y-90787000D01*
X164523000Y-90622500D01*
X164523000Y-89383000D01*
X164731000Y-89383000D01*
X164731000Y-90622500D01*
X164895500Y-90787000D01*
X165477000Y-90790184D01*
X165605991Y-90777480D01*
X165730024Y-90739854D01*
X165844334Y-90678754D01*
X165944528Y-90596528D01*
X166026754Y-90496334D01*
X166087854Y-90382024D01*
X166125480Y-90257991D01*
X166138184Y-90129000D01*
X166135000Y-89547500D01*
X165970500Y-89383000D01*
X164731000Y-89383000D01*
X164523000Y-89383000D01*
X163283500Y-89383000D01*
X163119000Y-89547500D01*
X163115816Y-90129000D01*
X162703000Y-90129000D01*
X162703000Y-88429000D01*
X163115816Y-88429000D01*
X163119000Y-89010500D01*
X163283500Y-89175000D01*
X164523000Y-89175000D01*
X164523000Y-87935500D01*
X164731000Y-87935500D01*
X164731000Y-89175000D01*
X165970500Y-89175000D01*
X166135000Y-89010500D01*
X166138184Y-88429000D01*
X166125480Y-88300009D01*
X166087854Y-88175976D01*
X166026754Y-88061666D01*
X165944528Y-87961472D01*
X165844334Y-87879246D01*
X165730024Y-87818146D01*
X165605991Y-87780520D01*
X165477000Y-87767816D01*
X164895500Y-87771000D01*
X164731000Y-87935500D01*
X164523000Y-87935500D01*
X164358500Y-87771000D01*
X163777000Y-87767816D01*
X163648009Y-87780520D01*
X163523976Y-87818146D01*
X163409666Y-87879246D01*
X163309472Y-87961472D01*
X163227246Y-88061666D01*
X163166146Y-88175976D01*
X163128520Y-88300009D01*
X163115816Y-88429000D01*
X162703000Y-88429000D01*
X162703000Y-86249683D01*
X163115817Y-85836866D01*
X163115817Y-87081000D01*
X163128521Y-87209990D01*
X163166147Y-87334024D01*
X163227246Y-87448334D01*
X163309473Y-87548527D01*
X163409666Y-87630754D01*
X163523976Y-87691853D01*
X163648010Y-87729479D01*
X163777000Y-87742183D01*
X165477000Y-87742183D01*
X165605990Y-87729479D01*
X165730024Y-87691853D01*
X165844334Y-87630754D01*
X165944527Y-87548527D01*
X166019946Y-87456630D01*
X166383001Y-87819686D01*
X166383000Y-116894316D01*
X165001071Y-118276246D01*
X164992479Y-118189010D01*
X164954853Y-118064976D01*
X164893754Y-117950666D01*
X164811527Y-117850473D01*
X164711334Y-117768246D01*
X164597024Y-117707147D01*
X164472990Y-117669521D01*
X164344000Y-117656817D01*
X162644000Y-117656817D01*
X162515010Y-117669521D01*
X162390976Y-117707147D01*
X162276666Y-117768246D01*
X162176473Y-117850473D01*
X162094246Y-117950666D01*
X162033147Y-118064976D01*
X161995521Y-118189010D01*
X161982817Y-118318000D01*
X161982817Y-120018000D01*
X161995521Y-120146990D01*
X162033147Y-120271024D01*
X162094246Y-120385334D01*
X162176473Y-120485527D01*
X162276666Y-120567754D01*
X162390976Y-120628853D01*
X162515010Y-120666479D01*
X162644000Y-120679183D01*
X164344000Y-120679183D01*
X164472990Y-120666479D01*
X164597024Y-120628853D01*
X164711334Y-120567754D01*
X164811527Y-120485527D01*
X164893754Y-120385334D01*
X164954853Y-120271024D01*
X164992479Y-120146990D01*
X165005183Y-120018000D01*
X165005183Y-119976000D01*
X165212320Y-119976000D01*
X165252000Y-119979908D01*
X165291680Y-119976000D01*
X165291688Y-119976000D01*
X165410396Y-119964308D01*
X165562704Y-119918106D01*
X165703072Y-119843078D01*
X165826106Y-119742106D01*
X165851411Y-119711272D01*
X167734279Y-117828405D01*
X167765106Y-117803106D01*
X167866078Y-117680072D01*
X167941106Y-117539704D01*
X167987308Y-117387396D01*
X167999000Y-117268688D01*
X167999000Y-117268681D01*
X168002908Y-117229001D01*
X167999000Y-117189321D01*
X167999000Y-108931718D01*
X178834000Y-108931718D01*
X178834000Y-109652282D01*
X178974575Y-110358999D01*
X179250323Y-111024713D01*
X179650646Y-111623839D01*
X180160161Y-112133354D01*
X180759287Y-112533677D01*
X181425001Y-112809425D01*
X182131718Y-112950000D01*
X182852282Y-112950000D01*
X183558999Y-112809425D01*
X184224713Y-112533677D01*
X184823839Y-112133354D01*
X185333354Y-111623839D01*
X185733677Y-111024713D01*
X186009425Y-110358999D01*
X186150000Y-109652282D01*
X186150000Y-108931718D01*
X186009425Y-108225001D01*
X185733677Y-107559287D01*
X185333354Y-106960161D01*
X184823839Y-106450646D01*
X184224713Y-106050323D01*
X183558999Y-105774575D01*
X182852282Y-105634000D01*
X182131718Y-105634000D01*
X181425001Y-105774575D01*
X180759287Y-106050323D01*
X180160161Y-106450646D01*
X179650646Y-106960161D01*
X179250323Y-107559287D01*
X178974575Y-108225001D01*
X178834000Y-108931718D01*
X167999000Y-108931718D01*
X167999000Y-97870718D01*
X178969000Y-97870718D01*
X178969000Y-98591282D01*
X179109575Y-99297999D01*
X179385323Y-99963713D01*
X179785646Y-100562839D01*
X180295161Y-101072354D01*
X180894287Y-101472677D01*
X181560001Y-101748425D01*
X182266718Y-101889000D01*
X182987282Y-101889000D01*
X183693999Y-101748425D01*
X184359713Y-101472677D01*
X184958839Y-101072354D01*
X185468354Y-100562839D01*
X185868677Y-99963713D01*
X186144425Y-99297999D01*
X186285000Y-98591282D01*
X186285000Y-97870718D01*
X186144425Y-97164001D01*
X185868677Y-96498287D01*
X185468354Y-95899161D01*
X184958839Y-95389646D01*
X184359713Y-94989323D01*
X183693999Y-94713575D01*
X182987282Y-94573000D01*
X182266718Y-94573000D01*
X181560001Y-94713575D01*
X180894287Y-94989323D01*
X180295161Y-95389646D01*
X179785646Y-95899161D01*
X179385323Y-96498287D01*
X179109575Y-97164001D01*
X178969000Y-97870718D01*
X167999000Y-97870718D01*
X167999000Y-87524680D01*
X168002908Y-87485000D01*
X167999000Y-87445320D01*
X167999000Y-81085679D01*
X168002908Y-81045999D01*
X167999000Y-81006319D01*
X167999000Y-81006312D01*
X167987308Y-80887604D01*
X167941106Y-80735296D01*
X167866078Y-80594928D01*
X167765106Y-80471894D01*
X167734279Y-80446595D01*
X166697411Y-79409728D01*
X166672106Y-79378894D01*
X166549072Y-79277922D01*
X166408704Y-79202894D01*
X166256396Y-79156692D01*
X166137688Y-79145000D01*
X166137680Y-79145000D01*
X166098000Y-79141092D01*
X166058320Y-79145000D01*
X164316680Y-79145000D01*
X164277000Y-79141092D01*
X164237320Y-79145000D01*
X164237312Y-79145000D01*
X164132536Y-79155320D01*
X164118603Y-79156692D01*
X164072401Y-79170707D01*
X163966296Y-79202894D01*
X163825928Y-79277922D01*
X163702894Y-79378894D01*
X163677594Y-79409722D01*
X158840723Y-84246594D01*
X158809895Y-84271894D01*
X158708923Y-84394928D01*
X158652479Y-84500527D01*
X158633895Y-84535296D01*
X158587692Y-84687604D01*
X158572092Y-84846000D01*
X158576001Y-84885690D01*
X158576000Y-106473316D01*
X155635317Y-109414000D01*
X130406680Y-109414000D01*
X130367000Y-109410092D01*
X130327320Y-109414000D01*
X130327312Y-109414000D01*
X130208604Y-109425692D01*
X130056296Y-109471894D01*
X129915928Y-109546922D01*
X129823721Y-109622594D01*
X129823717Y-109622598D01*
X129792894Y-109647894D01*
X129767598Y-109678717D01*
X124314723Y-115131594D01*
X124283895Y-115156894D01*
X124182923Y-115279928D01*
X124131530Y-115376078D01*
X124107895Y-115420296D01*
X124061692Y-115572604D01*
X124046092Y-115731000D01*
X124050001Y-115770690D01*
X124050000Y-121593366D01*
X123928579Y-121674497D01*
X123725497Y-121877579D01*
X123588000Y-122083358D01*
X123450503Y-121877579D01*
X123247421Y-121674497D01*
X123126000Y-121593366D01*
X123126000Y-118454679D01*
X123129908Y-118414999D01*
X123126000Y-118375319D01*
X123126000Y-118375312D01*
X123114308Y-118256604D01*
X123068106Y-118104296D01*
X122993078Y-117963928D01*
X122892106Y-117840894D01*
X122861278Y-117815594D01*
X119203411Y-114157728D01*
X119178106Y-114126894D01*
X119055072Y-114025922D01*
X118914704Y-113950894D01*
X118762396Y-113904692D01*
X118643688Y-113893000D01*
X118643680Y-113893000D01*
X118604000Y-113889092D01*
X118564320Y-113893000D01*
X90423684Y-113893000D01*
X87056000Y-110525317D01*
X87056000Y-79483399D01*
X104100000Y-79483399D01*
X104100000Y-79770601D01*
X104156030Y-80052283D01*
X104265937Y-80317622D01*
X104425497Y-80556421D01*
X104628579Y-80759503D01*
X104867378Y-80919063D01*
X105132717Y-81028970D01*
X105414399Y-81085000D01*
X105701601Y-81085000D01*
X105983283Y-81028970D01*
X106248622Y-80919063D01*
X106487421Y-80759503D01*
X106690503Y-80556421D01*
X106828000Y-80350642D01*
X106965497Y-80556421D01*
X107168579Y-80759503D01*
X107407378Y-80919063D01*
X107672717Y-81028970D01*
X107954399Y-81085000D01*
X108241601Y-81085000D01*
X108523283Y-81028970D01*
X108788622Y-80919063D01*
X109027421Y-80759503D01*
X109230503Y-80556421D01*
X109368000Y-80350642D01*
X109505497Y-80556421D01*
X109708579Y-80759503D01*
X109947378Y-80919063D01*
X110212717Y-81028970D01*
X110494399Y-81085000D01*
X110781601Y-81085000D01*
X111063283Y-81028970D01*
X111328622Y-80919063D01*
X111567421Y-80759503D01*
X111770503Y-80556421D01*
X111908000Y-80350642D01*
X112045497Y-80556421D01*
X112248579Y-80759503D01*
X112487378Y-80919063D01*
X112752717Y-81028970D01*
X113034399Y-81085000D01*
X113321601Y-81085000D01*
X113603283Y-81028970D01*
X113868622Y-80919063D01*
X114107421Y-80759503D01*
X114310503Y-80556421D01*
X114448000Y-80350642D01*
X114585497Y-80556421D01*
X114788579Y-80759503D01*
X115027378Y-80919063D01*
X115292717Y-81028970D01*
X115574399Y-81085000D01*
X115861601Y-81085000D01*
X116143283Y-81028970D01*
X116408622Y-80919063D01*
X116647421Y-80759503D01*
X116850503Y-80556421D01*
X116988000Y-80350642D01*
X117125497Y-80556421D01*
X117328579Y-80759503D01*
X117567378Y-80919063D01*
X117832717Y-81028970D01*
X118114399Y-81085000D01*
X118401601Y-81085000D01*
X118683283Y-81028970D01*
X118948622Y-80919063D01*
X119187421Y-80759503D01*
X119390503Y-80556421D01*
X119528000Y-80350642D01*
X119665497Y-80556421D01*
X119868579Y-80759503D01*
X120107378Y-80919063D01*
X120372717Y-81028970D01*
X120654399Y-81085000D01*
X120941601Y-81085000D01*
X121223283Y-81028970D01*
X121488622Y-80919063D01*
X121727421Y-80759503D01*
X121930503Y-80556421D01*
X122068000Y-80350642D01*
X122205497Y-80556421D01*
X122408579Y-80759503D01*
X122647378Y-80919063D01*
X122912717Y-81028970D01*
X123194399Y-81085000D01*
X123481601Y-81085000D01*
X123763283Y-81028970D01*
X124028622Y-80919063D01*
X124267421Y-80759503D01*
X124470503Y-80556421D01*
X124608000Y-80350642D01*
X124745497Y-80556421D01*
X124948579Y-80759503D01*
X125187378Y-80919063D01*
X125452717Y-81028970D01*
X125734399Y-81085000D01*
X126021601Y-81085000D01*
X126303283Y-81028970D01*
X126568622Y-80919063D01*
X126807421Y-80759503D01*
X127010503Y-80556421D01*
X127148000Y-80350642D01*
X127285497Y-80556421D01*
X127488579Y-80759503D01*
X127727378Y-80919063D01*
X127992717Y-81028970D01*
X128274399Y-81085000D01*
X128561601Y-81085000D01*
X128843283Y-81028970D01*
X129108622Y-80919063D01*
X129347421Y-80759503D01*
X129550503Y-80556421D01*
X129710063Y-80317622D01*
X129819970Y-80052283D01*
X129876000Y-79770601D01*
X129876000Y-79483399D01*
X129819970Y-79201717D01*
X129710063Y-78936378D01*
X129550503Y-78697579D01*
X129347421Y-78494497D01*
X129108622Y-78334937D01*
X128843283Y-78225030D01*
X128561601Y-78169000D01*
X128274399Y-78169000D01*
X127992717Y-78225030D01*
X127727378Y-78334937D01*
X127488579Y-78494497D01*
X127285497Y-78697579D01*
X127148000Y-78903358D01*
X127010503Y-78697579D01*
X126807421Y-78494497D01*
X126568622Y-78334937D01*
X126303283Y-78225030D01*
X126021601Y-78169000D01*
X125734399Y-78169000D01*
X125452717Y-78225030D01*
X125187378Y-78334937D01*
X124948579Y-78494497D01*
X124745497Y-78697579D01*
X124608000Y-78903358D01*
X124470503Y-78697579D01*
X124267421Y-78494497D01*
X124028622Y-78334937D01*
X123763283Y-78225030D01*
X123481601Y-78169000D01*
X123194399Y-78169000D01*
X122912717Y-78225030D01*
X122647378Y-78334937D01*
X122408579Y-78494497D01*
X122205497Y-78697579D01*
X122068000Y-78903358D01*
X121930503Y-78697579D01*
X121727421Y-78494497D01*
X121488622Y-78334937D01*
X121223283Y-78225030D01*
X120941601Y-78169000D01*
X120654399Y-78169000D01*
X120372717Y-78225030D01*
X120107378Y-78334937D01*
X119868579Y-78494497D01*
X119665497Y-78697579D01*
X119528000Y-78903358D01*
X119390503Y-78697579D01*
X119187421Y-78494497D01*
X118948622Y-78334937D01*
X118683283Y-78225030D01*
X118401601Y-78169000D01*
X118114399Y-78169000D01*
X117832717Y-78225030D01*
X117567378Y-78334937D01*
X117328579Y-78494497D01*
X117125497Y-78697579D01*
X116988000Y-78903358D01*
X116850503Y-78697579D01*
X116647421Y-78494497D01*
X116408622Y-78334937D01*
X116143283Y-78225030D01*
X115861601Y-78169000D01*
X115574399Y-78169000D01*
X115292717Y-78225030D01*
X115027378Y-78334937D01*
X114788579Y-78494497D01*
X114585497Y-78697579D01*
X114448000Y-78903358D01*
X114310503Y-78697579D01*
X114107421Y-78494497D01*
X113868622Y-78334937D01*
X113603283Y-78225030D01*
X113321601Y-78169000D01*
X113034399Y-78169000D01*
X112752717Y-78225030D01*
X112487378Y-78334937D01*
X112248579Y-78494497D01*
X112045497Y-78697579D01*
X111908000Y-78903358D01*
X111770503Y-78697579D01*
X111567421Y-78494497D01*
X111328622Y-78334937D01*
X111063283Y-78225030D01*
X110781601Y-78169000D01*
X110494399Y-78169000D01*
X110212717Y-78225030D01*
X109947378Y-78334937D01*
X109708579Y-78494497D01*
X109505497Y-78697579D01*
X109368000Y-78903358D01*
X109230503Y-78697579D01*
X109027421Y-78494497D01*
X108788622Y-78334937D01*
X108523283Y-78225030D01*
X108241601Y-78169000D01*
X107954399Y-78169000D01*
X107672717Y-78225030D01*
X107407378Y-78334937D01*
X107168579Y-78494497D01*
X106965497Y-78697579D01*
X106828000Y-78903358D01*
X106690503Y-78697579D01*
X106487421Y-78494497D01*
X106248622Y-78334937D01*
X105983283Y-78225030D01*
X105701601Y-78169000D01*
X105414399Y-78169000D01*
X105132717Y-78225030D01*
X104867378Y-78334937D01*
X104628579Y-78494497D01*
X104425497Y-78697579D01*
X104265937Y-78936378D01*
X104156030Y-79201717D01*
X104100000Y-79483399D01*
X87056000Y-79483399D01*
X87056000Y-65074183D01*
X87098000Y-65074183D01*
X87226990Y-65061479D01*
X87351024Y-65023853D01*
X87465334Y-64962754D01*
X87565527Y-64880527D01*
X87647754Y-64780334D01*
X87708853Y-64666024D01*
X87746479Y-64541990D01*
X87759183Y-64413000D01*
X112676816Y-64413000D01*
X112689520Y-64541991D01*
X112727146Y-64666024D01*
X112788246Y-64780334D01*
X112870472Y-64880528D01*
X112970666Y-64962754D01*
X113084976Y-65023854D01*
X113209009Y-65061480D01*
X113338000Y-65074184D01*
X113919500Y-65071000D01*
X114084000Y-64906500D01*
X114084000Y-63667000D01*
X114292000Y-63667000D01*
X114292000Y-64906500D01*
X114456500Y-65071000D01*
X115038000Y-65074184D01*
X115166991Y-65061480D01*
X115291024Y-65023854D01*
X115405334Y-64962754D01*
X115505528Y-64880528D01*
X115587754Y-64780334D01*
X115648854Y-64666024D01*
X115686480Y-64541991D01*
X115699184Y-64413000D01*
X115696000Y-63831500D01*
X115531500Y-63667000D01*
X114292000Y-63667000D01*
X114084000Y-63667000D01*
X112844500Y-63667000D01*
X112680000Y-63831500D01*
X112676816Y-64413000D01*
X87759183Y-64413000D01*
X87759183Y-62713000D01*
X112676816Y-62713000D01*
X112680000Y-63294500D01*
X112844500Y-63459000D01*
X114084000Y-63459000D01*
X114084000Y-63439000D01*
X114292000Y-63439000D01*
X114292000Y-63459000D01*
X115531500Y-63459000D01*
X115696000Y-63294500D01*
X115699184Y-62713000D01*
X115686480Y-62584009D01*
X115648854Y-62459976D01*
X115587754Y-62345666D01*
X115505528Y-62245472D01*
X115405334Y-62163246D01*
X115291024Y-62102146D01*
X115253017Y-62090617D01*
X115359340Y-61984294D01*
X115524373Y-61737306D01*
X115638049Y-61462868D01*
X115696000Y-61171525D01*
X115696000Y-60874475D01*
X115638049Y-60583132D01*
X115524373Y-60308694D01*
X115359340Y-60061706D01*
X115149294Y-59851660D01*
X115001640Y-59753000D01*
X115149294Y-59654340D01*
X115359340Y-59444294D01*
X115524373Y-59197306D01*
X115638049Y-58922868D01*
X115696000Y-58631525D01*
X115696000Y-58334475D01*
X115638049Y-58043132D01*
X115524373Y-57768694D01*
X115359340Y-57521706D01*
X115149294Y-57311660D01*
X115001640Y-57213000D01*
X115149294Y-57114340D01*
X115359340Y-56904294D01*
X115524373Y-56657306D01*
X115638049Y-56382868D01*
X115696000Y-56091525D01*
X115696000Y-55794475D01*
X115638049Y-55503132D01*
X115524373Y-55228694D01*
X115359340Y-54981706D01*
X115149294Y-54771660D01*
X115001640Y-54673000D01*
X115149294Y-54574340D01*
X115359340Y-54364294D01*
X115524373Y-54117306D01*
X115638049Y-53842868D01*
X115696000Y-53551525D01*
X115696000Y-53254475D01*
X115638049Y-52963132D01*
X115524373Y-52688694D01*
X115359340Y-52441706D01*
X115149294Y-52231660D01*
X115001640Y-52133000D01*
X115149294Y-52034340D01*
X115359340Y-51824294D01*
X115524373Y-51577306D01*
X115638049Y-51302868D01*
X115696000Y-51011525D01*
X115696000Y-50714475D01*
X115638049Y-50423132D01*
X115524373Y-50148694D01*
X115359340Y-49901706D01*
X115149294Y-49691660D01*
X115001640Y-49593000D01*
X115149294Y-49494340D01*
X115359340Y-49284294D01*
X115524373Y-49037306D01*
X115638049Y-48762868D01*
X115647294Y-48716389D01*
X116784283Y-47579402D01*
X116815106Y-47554106D01*
X116840402Y-47523283D01*
X116840406Y-47523279D01*
X116873641Y-47482782D01*
X116916078Y-47431072D01*
X116964971Y-47339598D01*
X116991106Y-47290705D01*
X117037308Y-47138397D01*
X117042421Y-47086480D01*
X117049000Y-47019688D01*
X117049000Y-47019680D01*
X117052908Y-46980000D01*
X117049000Y-46940320D01*
X117049000Y-45750683D01*
X117182683Y-45617000D01*
X121472817Y-45617000D01*
X121472817Y-47317000D01*
X121485521Y-47445990D01*
X121523147Y-47570024D01*
X121584246Y-47684334D01*
X121666473Y-47784527D01*
X121766666Y-47866754D01*
X121880976Y-47927853D01*
X121918983Y-47939383D01*
X121812660Y-48045706D01*
X121647627Y-48292694D01*
X121533951Y-48567132D01*
X121476000Y-48858475D01*
X121476000Y-49155525D01*
X121533951Y-49446868D01*
X121647627Y-49721306D01*
X121812660Y-49968294D01*
X122022706Y-50178340D01*
X122175668Y-50280546D01*
X122109272Y-50318617D01*
X121886434Y-50512871D01*
X121705775Y-50746866D01*
X121574237Y-51011610D01*
X121514381Y-51208939D01*
X121644531Y-51443000D01*
X122880000Y-51443000D01*
X122880000Y-51423000D01*
X123088000Y-51423000D01*
X123088000Y-51443000D01*
X124323469Y-51443000D01*
X124453619Y-51208939D01*
X124393763Y-51011610D01*
X124262225Y-50746866D01*
X124081566Y-50512871D01*
X123858728Y-50318617D01*
X123792332Y-50280546D01*
X123945294Y-50178340D01*
X124155340Y-49968294D01*
X124320373Y-49721306D01*
X124434049Y-49446868D01*
X124492000Y-49155525D01*
X124492000Y-48858475D01*
X124434049Y-48567132D01*
X124320373Y-48292694D01*
X124155340Y-48045706D01*
X124049017Y-47939383D01*
X124087024Y-47927853D01*
X124201334Y-47866754D01*
X124301527Y-47784527D01*
X124383754Y-47684334D01*
X124444853Y-47570024D01*
X124482479Y-47445990D01*
X124495183Y-47317000D01*
X124495183Y-45617000D01*
X124482479Y-45488010D01*
X124444853Y-45363976D01*
X124383754Y-45249666D01*
X124301527Y-45149473D01*
X124201334Y-45067246D01*
X124087024Y-45006147D01*
X123962990Y-44968521D01*
X123834000Y-44955817D01*
X122134000Y-44955817D01*
X122005010Y-44968521D01*
X121880976Y-45006147D01*
X121766666Y-45067246D01*
X121666473Y-45149473D01*
X121584246Y-45249666D01*
X121523147Y-45363976D01*
X121485521Y-45488010D01*
X121472817Y-45617000D01*
X117182683Y-45617000D01*
X117867684Y-44932000D01*
X127743317Y-44932000D01*
X128188001Y-45376685D01*
X128188000Y-54051320D01*
X128184092Y-54091000D01*
X128188000Y-54130680D01*
X128188000Y-54130687D01*
X128199692Y-54249395D01*
X128245894Y-54401703D01*
X128320922Y-54542071D01*
X128421894Y-54665106D01*
X128452728Y-54690411D01*
X130932598Y-57170283D01*
X130957894Y-57201106D01*
X130988717Y-57226402D01*
X130988721Y-57226406D01*
X131029218Y-57259641D01*
X131080928Y-57302078D01*
X131221296Y-57377106D01*
X131373604Y-57423308D01*
X131492312Y-57435000D01*
X131492320Y-57435000D01*
X131532000Y-57438908D01*
X131571680Y-57435000D01*
X131870232Y-57435000D01*
X131972660Y-57588294D01*
X132182706Y-57798340D01*
X132330360Y-57897000D01*
X132182706Y-57995660D01*
X131972660Y-58205706D01*
X131807627Y-58452694D01*
X131693951Y-58727132D01*
X131636000Y-59018475D01*
X131636000Y-59315525D01*
X131693951Y-59606868D01*
X131807627Y-59881306D01*
X131972660Y-60128294D01*
X132182706Y-60338340D01*
X132336000Y-60440768D01*
X132336000Y-60573319D01*
X132332092Y-60613000D01*
X132336000Y-60652680D01*
X132336000Y-60652687D01*
X132345624Y-60750397D01*
X132347692Y-60771396D01*
X132348105Y-60772756D01*
X132393894Y-60923703D01*
X132468922Y-61064071D01*
X132569894Y-61187106D01*
X132600728Y-61212411D01*
X134277594Y-62889278D01*
X134302894Y-62920106D01*
X134425928Y-63021078D01*
X134566296Y-63096106D01*
X134672401Y-63128293D01*
X134718603Y-63142308D01*
X134733879Y-63143813D01*
X134837312Y-63154000D01*
X134837319Y-63154000D01*
X134876999Y-63157908D01*
X134916679Y-63154000D01*
X157012320Y-63154000D01*
X157052000Y-63157908D01*
X157091680Y-63154000D01*
X157091688Y-63154000D01*
X157210396Y-63142308D01*
X157362704Y-63096106D01*
X157503072Y-63021078D01*
X157626106Y-62920106D01*
X157651411Y-62889272D01*
X160314283Y-60226402D01*
X160345106Y-60201106D01*
X160370402Y-60170283D01*
X160370406Y-60170279D01*
X160404862Y-60128294D01*
X160446078Y-60078072D01*
X160521106Y-59937704D01*
X160567308Y-59785396D01*
X160579000Y-59666688D01*
X160579000Y-59666680D01*
X160582908Y-59627000D01*
X160579000Y-59587320D01*
X160579000Y-55498683D01*
X164961684Y-51116000D01*
X166648232Y-51116000D01*
X166750660Y-51269294D01*
X166960706Y-51479340D01*
X167108360Y-51578000D01*
X166960706Y-51676660D01*
X166750660Y-51886706D01*
X166648232Y-52040000D01*
X165055679Y-52040000D01*
X165015999Y-52036092D01*
X164976319Y-52040000D01*
X164976312Y-52040000D01*
X164872879Y-52050187D01*
X164857603Y-52051692D01*
X164811401Y-52065707D01*
X164705296Y-52097894D01*
X164564928Y-52172922D01*
X164441894Y-52273894D01*
X164416594Y-52304722D01*
X163062723Y-53658594D01*
X163031895Y-53683894D01*
X162930923Y-53806928D01*
X162871352Y-53918378D01*
X162855895Y-53947296D01*
X162809692Y-54099604D01*
X162794092Y-54258000D01*
X162798001Y-54297690D01*
X162798000Y-76655316D01*
X158320317Y-81133000D01*
X143509684Y-81133000D01*
X143446000Y-81069317D01*
X143446000Y-80840634D01*
X143567421Y-80759503D01*
X143770503Y-80556421D01*
X143908000Y-80350642D01*
X144045497Y-80556421D01*
X144248579Y-80759503D01*
X144487378Y-80919063D01*
X144752717Y-81028970D01*
X145034399Y-81085000D01*
X145321601Y-81085000D01*
X145603283Y-81028970D01*
X145868622Y-80919063D01*
X146107421Y-80759503D01*
X146310503Y-80556421D01*
X146448000Y-80350642D01*
X146585497Y-80556421D01*
X146788579Y-80759503D01*
X147027378Y-80919063D01*
X147292717Y-81028970D01*
X147574399Y-81085000D01*
X147861601Y-81085000D01*
X148143283Y-81028970D01*
X148408622Y-80919063D01*
X148647421Y-80759503D01*
X148850503Y-80556421D01*
X148988000Y-80350642D01*
X149125497Y-80556421D01*
X149328579Y-80759503D01*
X149567378Y-80919063D01*
X149832717Y-81028970D01*
X150114399Y-81085000D01*
X150401601Y-81085000D01*
X150683283Y-81028970D01*
X150948622Y-80919063D01*
X151187421Y-80759503D01*
X151390503Y-80556421D01*
X151550063Y-80317622D01*
X151659970Y-80052283D01*
X151716000Y-79770601D01*
X151716000Y-79483399D01*
X151659970Y-79201717D01*
X151550063Y-78936378D01*
X151390503Y-78697579D01*
X151187421Y-78494497D01*
X151066000Y-78413366D01*
X151066000Y-76403680D01*
X151069908Y-76364000D01*
X151066000Y-76324320D01*
X151066000Y-76324312D01*
X151054308Y-76205604D01*
X151008106Y-76053296D01*
X150933078Y-75912928D01*
X150890641Y-75861218D01*
X150857406Y-75820721D01*
X150857402Y-75820717D01*
X150832106Y-75789894D01*
X150801283Y-75764598D01*
X146658411Y-71621728D01*
X146633106Y-71590894D01*
X146510072Y-71489922D01*
X146369704Y-71414894D01*
X146217396Y-71368692D01*
X146098688Y-71357000D01*
X146098680Y-71357000D01*
X146059000Y-71353092D01*
X146019320Y-71357000D01*
X129249684Y-71357000D01*
X127512000Y-69619317D01*
X127512000Y-57846677D01*
X127515908Y-57806999D01*
X127512000Y-57767321D01*
X127512000Y-57767312D01*
X127500308Y-57648604D01*
X127454106Y-57496296D01*
X127379078Y-57355928D01*
X127278106Y-57232894D01*
X127247278Y-57207594D01*
X124456032Y-54416349D01*
X124492000Y-54235525D01*
X124492000Y-53938475D01*
X124434049Y-53647132D01*
X124320373Y-53372694D01*
X124155340Y-53125706D01*
X123945294Y-52915660D01*
X123792332Y-52813454D01*
X123858728Y-52775383D01*
X124081566Y-52581129D01*
X124262225Y-52347134D01*
X124393763Y-52082390D01*
X124453619Y-51885061D01*
X124323469Y-51651000D01*
X123088000Y-51651000D01*
X123088000Y-51671000D01*
X122880000Y-51671000D01*
X122880000Y-51651000D01*
X121644531Y-51651000D01*
X121514381Y-51885061D01*
X121574237Y-52082390D01*
X121705775Y-52347134D01*
X121886434Y-52581129D01*
X122109272Y-52775383D01*
X122175668Y-52813454D01*
X122022706Y-52915660D01*
X121812660Y-53125706D01*
X121647627Y-53372694D01*
X121533951Y-53647132D01*
X121476000Y-53938475D01*
X121476000Y-54235525D01*
X121533951Y-54526868D01*
X121647627Y-54801306D01*
X121812660Y-55048294D01*
X122022706Y-55258340D01*
X122170360Y-55357000D01*
X122022706Y-55455660D01*
X121812660Y-55665706D01*
X121647627Y-55912694D01*
X121533951Y-56187132D01*
X121476000Y-56478475D01*
X121476000Y-56775525D01*
X121533951Y-57066868D01*
X121647627Y-57341306D01*
X121812660Y-57588294D01*
X122022706Y-57798340D01*
X122170360Y-57897000D01*
X122022706Y-57995660D01*
X121812660Y-58205706D01*
X121647627Y-58452694D01*
X121533951Y-58727132D01*
X121476000Y-59018475D01*
X121476000Y-59315525D01*
X121533951Y-59606868D01*
X121647627Y-59881306D01*
X121812660Y-60128294D01*
X122022706Y-60338340D01*
X122176001Y-60440769D01*
X122176000Y-74495320D01*
X122172092Y-74535000D01*
X122176000Y-74574680D01*
X122176000Y-74574687D01*
X122187692Y-74693395D01*
X122233894Y-74845703D01*
X122308922Y-74986071D01*
X122409894Y-75109106D01*
X122440728Y-75134411D01*
X123485594Y-76179278D01*
X123510894Y-76210106D01*
X123633928Y-76311078D01*
X123774296Y-76386106D01*
X123872494Y-76415894D01*
X123926603Y-76432308D01*
X123941879Y-76433813D01*
X124045312Y-76444000D01*
X124045319Y-76444000D01*
X124084999Y-76447908D01*
X124124679Y-76444000D01*
X143274317Y-76444000D01*
X144370001Y-77539685D01*
X144370001Y-78413366D01*
X144248579Y-78494497D01*
X144045497Y-78697579D01*
X143908000Y-78903358D01*
X143770503Y-78697579D01*
X143567421Y-78494497D01*
X143328622Y-78334937D01*
X143063283Y-78225030D01*
X142781601Y-78169000D01*
X142494399Y-78169000D01*
X142212717Y-78225030D01*
X141947378Y-78334937D01*
X141708579Y-78494497D01*
X141505497Y-78697579D01*
X141368000Y-78903358D01*
X141230503Y-78697579D01*
X141027421Y-78494497D01*
X140788622Y-78334937D01*
X140523283Y-78225030D01*
X140241601Y-78169000D01*
X139954399Y-78169000D01*
X139672717Y-78225030D01*
X139407378Y-78334937D01*
X139168579Y-78494497D01*
X138965497Y-78697579D01*
X138828000Y-78903358D01*
X138690503Y-78697579D01*
X138487421Y-78494497D01*
X138248622Y-78334937D01*
X137983283Y-78225030D01*
X137701601Y-78169000D01*
X137414399Y-78169000D01*
X137132717Y-78225030D01*
X136867378Y-78334937D01*
X136628579Y-78494497D01*
X136425497Y-78697579D01*
X136288000Y-78903358D01*
X136150503Y-78697579D01*
X135947421Y-78494497D01*
X135708622Y-78334937D01*
X135443283Y-78225030D01*
X135161601Y-78169000D01*
X134874399Y-78169000D01*
X134592717Y-78225030D01*
X134327378Y-78334937D01*
X134088579Y-78494497D01*
X133885497Y-78697579D01*
X133748000Y-78903358D01*
X133610503Y-78697579D01*
X133407421Y-78494497D01*
X133168622Y-78334937D01*
X132903283Y-78225030D01*
X132621601Y-78169000D01*
X132334399Y-78169000D01*
X132052717Y-78225030D01*
X131787378Y-78334937D01*
X131548579Y-78494497D01*
X131345497Y-78697579D01*
X131185937Y-78936378D01*
X131076030Y-79201717D01*
X131020000Y-79483399D01*
X131020000Y-79770601D01*
X131076030Y-80052283D01*
X131185937Y-80317622D01*
X131345497Y-80556421D01*
X131548579Y-80759503D01*
X131787378Y-80919063D01*
X132052717Y-81028970D01*
X132334399Y-81085000D01*
X132621601Y-81085000D01*
X132903283Y-81028970D01*
X133168622Y-80919063D01*
X133407421Y-80759503D01*
X133610503Y-80556421D01*
X133748000Y-80350642D01*
X133885497Y-80556421D01*
X134088579Y-80759503D01*
X134327378Y-80919063D01*
X134592717Y-81028970D01*
X134874399Y-81085000D01*
X135161601Y-81085000D01*
X135443283Y-81028970D01*
X135708622Y-80919063D01*
X135947421Y-80759503D01*
X136150503Y-80556421D01*
X136288000Y-80350642D01*
X136425497Y-80556421D01*
X136628579Y-80759503D01*
X136867378Y-80919063D01*
X137132717Y-81028970D01*
X137414399Y-81085000D01*
X137701601Y-81085000D01*
X137983283Y-81028970D01*
X138248622Y-80919063D01*
X138487421Y-80759503D01*
X138690503Y-80556421D01*
X138828000Y-80350642D01*
X138965497Y-80556421D01*
X139168579Y-80759503D01*
X139407378Y-80919063D01*
X139672717Y-81028970D01*
X139954399Y-81085000D01*
X140241601Y-81085000D01*
X140523283Y-81028970D01*
X140788622Y-80919063D01*
X141027421Y-80759503D01*
X141230503Y-80556421D01*
X141368000Y-80350642D01*
X141505497Y-80556421D01*
X141708579Y-80759503D01*
X141830001Y-80840634D01*
X141830001Y-81364310D01*
X141826092Y-81404000D01*
X141841692Y-81562396D01*
X141862290Y-81630296D01*
X141887895Y-81714704D01*
X141962923Y-81855072D01*
X142063895Y-81978106D01*
X142094723Y-82003406D01*
X142575593Y-82484277D01*
X142600894Y-82515106D01*
X142723928Y-82616078D01*
X142864296Y-82691106D01*
X143016604Y-82737308D01*
X143135312Y-82749000D01*
X143135320Y-82749000D01*
X143175000Y-82752908D01*
X143214680Y-82749000D01*
X158615320Y-82749000D01*
X158655000Y-82752908D01*
X158694680Y-82749000D01*
X158694688Y-82749000D01*
X158813396Y-82737308D01*
X158965704Y-82691106D01*
X159106072Y-82616078D01*
X159229106Y-82515106D01*
X159254411Y-82484272D01*
X164149279Y-77589405D01*
X164180106Y-77564106D01*
X164281078Y-77441072D01*
X164356106Y-77300704D01*
X164397177Y-77165312D01*
X164402308Y-77148397D01*
X164405685Y-77114106D01*
X164414000Y-77029688D01*
X164414000Y-77029681D01*
X164417908Y-76990001D01*
X164414000Y-76950321D01*
X164414000Y-73870718D01*
X178969000Y-73870718D01*
X178969000Y-74591282D01*
X179109575Y-75297999D01*
X179385323Y-75963713D01*
X179785646Y-76562839D01*
X180295161Y-77072354D01*
X180894287Y-77472677D01*
X181560001Y-77748425D01*
X182266718Y-77889000D01*
X182987282Y-77889000D01*
X183693999Y-77748425D01*
X184359713Y-77472677D01*
X184958839Y-77072354D01*
X185468354Y-76562839D01*
X185868677Y-75963713D01*
X186144425Y-75297999D01*
X186285000Y-74591282D01*
X186285000Y-73870718D01*
X186144425Y-73164001D01*
X185868677Y-72498287D01*
X185468354Y-71899161D01*
X184958839Y-71389646D01*
X184359713Y-70989323D01*
X183693999Y-70713575D01*
X182987282Y-70573000D01*
X182266718Y-70573000D01*
X181560001Y-70713575D01*
X180894287Y-70989323D01*
X180295161Y-71389646D01*
X179785646Y-71899161D01*
X179385323Y-72498287D01*
X179109575Y-73164001D01*
X178969000Y-73870718D01*
X164414000Y-73870718D01*
X164414000Y-55726061D01*
X166452381Y-55726061D01*
X166512237Y-55923390D01*
X166643775Y-56188134D01*
X166824434Y-56422129D01*
X167047272Y-56616383D01*
X167303725Y-56763431D01*
X167583938Y-56857622D01*
X167818000Y-56727913D01*
X167818000Y-55492000D01*
X168026000Y-55492000D01*
X168026000Y-56727913D01*
X168260062Y-56857622D01*
X168540275Y-56763431D01*
X168796728Y-56616383D01*
X169019566Y-56422129D01*
X169200225Y-56188134D01*
X169331763Y-55923390D01*
X169391619Y-55726061D01*
X169261469Y-55492000D01*
X168026000Y-55492000D01*
X167818000Y-55492000D01*
X166582531Y-55492000D01*
X166452381Y-55726061D01*
X164414000Y-55726061D01*
X164414000Y-54592683D01*
X165350684Y-53656000D01*
X166648232Y-53656000D01*
X166750660Y-53809294D01*
X166960706Y-54019340D01*
X167113668Y-54121546D01*
X167047272Y-54159617D01*
X166824434Y-54353871D01*
X166643775Y-54587866D01*
X166512237Y-54852610D01*
X166452381Y-55049939D01*
X166582531Y-55284000D01*
X167818000Y-55284000D01*
X167818000Y-55264000D01*
X168026000Y-55264000D01*
X168026000Y-55284000D01*
X169261469Y-55284000D01*
X169391619Y-55049939D01*
X169331763Y-54852610D01*
X169200225Y-54587866D01*
X169019566Y-54353871D01*
X168796728Y-54159617D01*
X168730332Y-54121546D01*
X168883294Y-54019340D01*
X169093340Y-53809294D01*
X169258373Y-53562306D01*
X169372049Y-53287868D01*
X169430000Y-52996525D01*
X169430000Y-52699475D01*
X169372049Y-52408132D01*
X169258373Y-52133694D01*
X169093340Y-51886706D01*
X168883294Y-51676660D01*
X168735640Y-51578000D01*
X168883294Y-51479340D01*
X169093340Y-51269294D01*
X169258373Y-51022306D01*
X169372049Y-50747868D01*
X169430000Y-50456525D01*
X169430000Y-50159475D01*
X169372049Y-49868132D01*
X169258373Y-49593694D01*
X169093340Y-49346706D01*
X168883294Y-49136660D01*
X168735640Y-49038000D01*
X168883294Y-48939340D01*
X169093340Y-48729294D01*
X169258373Y-48482306D01*
X169372049Y-48207868D01*
X169430000Y-47916525D01*
X169430000Y-47619475D01*
X169372049Y-47328132D01*
X169258373Y-47053694D01*
X169093340Y-46806706D01*
X168883294Y-46596660D01*
X168735640Y-46498000D01*
X168883294Y-46399340D01*
X168896634Y-46386000D01*
X170630341Y-46386000D01*
X172712001Y-48467660D01*
X172712000Y-59472113D01*
X172706397Y-59529000D01*
X172712000Y-59585887D01*
X172712000Y-59585888D01*
X172728755Y-59756007D01*
X172794971Y-59974291D01*
X172902499Y-60175462D01*
X173047208Y-60351792D01*
X173091402Y-60388061D01*
X175395944Y-62692604D01*
X175432208Y-62736792D01*
X175608537Y-62881501D01*
X175809708Y-62989029D01*
X176027992Y-63055245D01*
X176198111Y-63072000D01*
X176198112Y-63072000D01*
X176254999Y-63077603D01*
X176311886Y-63072000D01*
X177781817Y-63072000D01*
X177781817Y-63438000D01*
X177794521Y-63566990D01*
X177832147Y-63691024D01*
X177893246Y-63805334D01*
X177975473Y-63905527D01*
X178075666Y-63987754D01*
X178189976Y-64048853D01*
X178314010Y-64086479D01*
X178443000Y-64099183D01*
X181491000Y-64099183D01*
X181619990Y-64086479D01*
X181744024Y-64048853D01*
X181858334Y-63987754D01*
X181958527Y-63905527D01*
X182040754Y-63805334D01*
X182101853Y-63691024D01*
X182139479Y-63566990D01*
X182152183Y-63438000D01*
X182152183Y-60390000D01*
X182139479Y-60261010D01*
X182101853Y-60136976D01*
X182040754Y-60022666D01*
X181958527Y-59922473D01*
X181858334Y-59840246D01*
X181744024Y-59779147D01*
X181619990Y-59741521D01*
X181491000Y-59728817D01*
X178443000Y-59728817D01*
X178314010Y-59741521D01*
X178189976Y-59779147D01*
X178075666Y-59840246D01*
X177975473Y-59922473D01*
X177893246Y-60022666D01*
X177832147Y-60136976D01*
X177794521Y-60261010D01*
X177781817Y-60390000D01*
X177781817Y-60756000D01*
X176734660Y-60756000D01*
X175028000Y-59049341D01*
X175028000Y-48044886D01*
X175033603Y-47987999D01*
X175026563Y-47916525D01*
X175011245Y-47760992D01*
X174945029Y-47542708D01*
X174837501Y-47341537D01*
X174692792Y-47165208D01*
X174648598Y-47128939D01*
X173957659Y-46438000D01*
X177781816Y-46438000D01*
X177794520Y-46566991D01*
X177832146Y-46691024D01*
X177893246Y-46805334D01*
X177975472Y-46905528D01*
X178075666Y-46987754D01*
X178189976Y-47048854D01*
X178314009Y-47086480D01*
X178443000Y-47099184D01*
X179698500Y-47096000D01*
X179863000Y-46931500D01*
X179863000Y-45018000D01*
X180071000Y-45018000D01*
X180071000Y-46931500D01*
X180235500Y-47096000D01*
X181491000Y-47099184D01*
X181619991Y-47086480D01*
X181744024Y-47048854D01*
X181858334Y-46987754D01*
X181958528Y-46905528D01*
X182040754Y-46805334D01*
X182101854Y-46691024D01*
X182139480Y-46566991D01*
X182152184Y-46438000D01*
X182149000Y-45182500D01*
X181984500Y-45018000D01*
X180071000Y-45018000D01*
X179863000Y-45018000D01*
X177949500Y-45018000D01*
X177785000Y-45182500D01*
X177781816Y-46438000D01*
X173957659Y-46438000D01*
X171969061Y-44449402D01*
X171932792Y-44405208D01*
X171756463Y-44260499D01*
X171555292Y-44152971D01*
X171337008Y-44086755D01*
X171166889Y-44070000D01*
X171166887Y-44070000D01*
X171110000Y-44064397D01*
X171053113Y-44070000D01*
X169160967Y-44070000D01*
X169239527Y-44005527D01*
X169321754Y-43905334D01*
X169382853Y-43791024D01*
X169420479Y-43666990D01*
X169433183Y-43538000D01*
X169433183Y-43390000D01*
X177781816Y-43390000D01*
X177785000Y-44645500D01*
X177949500Y-44810000D01*
X179863000Y-44810000D01*
X179863000Y-42896500D01*
X180071000Y-42896500D01*
X180071000Y-44810000D01*
X181984500Y-44810000D01*
X182149000Y-44645500D01*
X182152184Y-43390000D01*
X182139480Y-43261009D01*
X182101854Y-43136976D01*
X182040754Y-43022666D01*
X181958528Y-42922472D01*
X181858334Y-42840246D01*
X181744024Y-42779146D01*
X181619991Y-42741520D01*
X181491000Y-42728816D01*
X180235500Y-42732000D01*
X180071000Y-42896500D01*
X179863000Y-42896500D01*
X179698500Y-42732000D01*
X178443000Y-42728816D01*
X178314009Y-42741520D01*
X178189976Y-42779146D01*
X178075666Y-42840246D01*
X177975472Y-42922472D01*
X177893246Y-43022666D01*
X177832146Y-43136976D01*
X177794520Y-43261009D01*
X177781816Y-43390000D01*
X169433183Y-43390000D01*
X169433183Y-41838000D01*
X169420479Y-41709010D01*
X169382853Y-41584976D01*
X169321754Y-41470666D01*
X169239527Y-41370473D01*
X169139334Y-41288246D01*
X169025024Y-41227147D01*
X168900990Y-41189521D01*
X168772000Y-41176817D01*
X167072000Y-41176817D01*
X166943010Y-41189521D01*
X166818976Y-41227147D01*
X166704666Y-41288246D01*
X166604473Y-41370473D01*
X166522246Y-41470666D01*
X166461147Y-41584976D01*
X166423521Y-41709010D01*
X166410817Y-41838000D01*
X166410817Y-43538000D01*
X166423521Y-43666990D01*
X166461147Y-43791024D01*
X166522246Y-43905334D01*
X166604473Y-44005527D01*
X166704666Y-44087754D01*
X166818976Y-44148853D01*
X166856983Y-44160383D01*
X166750660Y-44266706D01*
X166585627Y-44513694D01*
X166471951Y-44788132D01*
X166414000Y-45079475D01*
X166414000Y-45376525D01*
X166471951Y-45667868D01*
X166585627Y-45942306D01*
X166750660Y-46189294D01*
X166960706Y-46399340D01*
X167108360Y-46498000D01*
X166960706Y-46596660D01*
X166750660Y-46806706D01*
X166585627Y-47053694D01*
X166471951Y-47328132D01*
X166414000Y-47619475D01*
X166414000Y-47916525D01*
X166471951Y-48207868D01*
X166585627Y-48482306D01*
X166750660Y-48729294D01*
X166960706Y-48939340D01*
X167108360Y-49038000D01*
X166960706Y-49136660D01*
X166750660Y-49346706D01*
X166648232Y-49500000D01*
X164666679Y-49500000D01*
X164626999Y-49496092D01*
X164587319Y-49500000D01*
X164587312Y-49500000D01*
X164483879Y-49510187D01*
X164468603Y-49511692D01*
X164422401Y-49525707D01*
X164316296Y-49557894D01*
X164175928Y-49632922D01*
X164052894Y-49733894D01*
X164027594Y-49764722D01*
X159227728Y-54564589D01*
X159196894Y-54589894D01*
X159095922Y-54712929D01*
X159020894Y-54853297D01*
X158974692Y-55005605D01*
X158963000Y-55124313D01*
X158963000Y-55124320D01*
X158959092Y-55164000D01*
X158963000Y-55203680D01*
X158963001Y-59292314D01*
X156717317Y-61538000D01*
X135211684Y-61538000D01*
X134049382Y-60375699D01*
X134105294Y-60338340D01*
X134315340Y-60128294D01*
X134480373Y-59881306D01*
X134594049Y-59606868D01*
X134652000Y-59315525D01*
X134652000Y-59018475D01*
X134594049Y-58727132D01*
X134480373Y-58452694D01*
X134315340Y-58205706D01*
X134105294Y-57995660D01*
X133957640Y-57897000D01*
X134105294Y-57798340D01*
X134315340Y-57588294D01*
X134480373Y-57341306D01*
X134594049Y-57066868D01*
X134652000Y-56775525D01*
X134652000Y-56478475D01*
X134594049Y-56187132D01*
X134480373Y-55912694D01*
X134315340Y-55665706D01*
X134105294Y-55455660D01*
X133957640Y-55357000D01*
X134105294Y-55258340D01*
X134315340Y-55048294D01*
X134480373Y-54801306D01*
X134594049Y-54526868D01*
X134652000Y-54235525D01*
X134652000Y-53938475D01*
X134594049Y-53647132D01*
X134480373Y-53372694D01*
X134315340Y-53125706D01*
X134105294Y-52915660D01*
X133952332Y-52813454D01*
X134018728Y-52775383D01*
X134241566Y-52581129D01*
X134422225Y-52347134D01*
X134553763Y-52082390D01*
X134613619Y-51885061D01*
X134483469Y-51651000D01*
X133248000Y-51651000D01*
X133248000Y-51671000D01*
X133040000Y-51671000D01*
X133040000Y-51651000D01*
X131804531Y-51651000D01*
X131674381Y-51885061D01*
X131734237Y-52082390D01*
X131865775Y-52347134D01*
X132046434Y-52581129D01*
X132269272Y-52775383D01*
X132335668Y-52813454D01*
X132182706Y-52915660D01*
X131972660Y-53125706D01*
X131872415Y-53275732D01*
X131233000Y-52636317D01*
X131233000Y-45617000D01*
X131632817Y-45617000D01*
X131632817Y-47317000D01*
X131645521Y-47445990D01*
X131683147Y-47570024D01*
X131744246Y-47684334D01*
X131826473Y-47784527D01*
X131926666Y-47866754D01*
X132040976Y-47927853D01*
X132078983Y-47939383D01*
X131972660Y-48045706D01*
X131807627Y-48292694D01*
X131693951Y-48567132D01*
X131636000Y-48858475D01*
X131636000Y-49155525D01*
X131693951Y-49446868D01*
X131807627Y-49721306D01*
X131972660Y-49968294D01*
X132182706Y-50178340D01*
X132335668Y-50280546D01*
X132269272Y-50318617D01*
X132046434Y-50512871D01*
X131865775Y-50746866D01*
X131734237Y-51011610D01*
X131674381Y-51208939D01*
X131804531Y-51443000D01*
X133040000Y-51443000D01*
X133040000Y-51423000D01*
X133248000Y-51423000D01*
X133248000Y-51443000D01*
X134483469Y-51443000D01*
X134613619Y-51208939D01*
X134553763Y-51011610D01*
X134422225Y-50746866D01*
X134241566Y-50512871D01*
X134018728Y-50318617D01*
X133952332Y-50280546D01*
X134105294Y-50178340D01*
X134315340Y-49968294D01*
X134480373Y-49721306D01*
X134594049Y-49446868D01*
X134652000Y-49155525D01*
X134652000Y-48858475D01*
X134594049Y-48567132D01*
X134480373Y-48292694D01*
X134315340Y-48045706D01*
X134209017Y-47939383D01*
X134247024Y-47927853D01*
X134361334Y-47866754D01*
X134461527Y-47784527D01*
X134543754Y-47684334D01*
X134604853Y-47570024D01*
X134642479Y-47445990D01*
X134655183Y-47317000D01*
X134655183Y-45617000D01*
X134642479Y-45488010D01*
X134604853Y-45363976D01*
X134543754Y-45249666D01*
X134461527Y-45149473D01*
X134361334Y-45067246D01*
X134247024Y-45006147D01*
X134122990Y-44968521D01*
X133994000Y-44955817D01*
X132294000Y-44955817D01*
X132165010Y-44968521D01*
X132040976Y-45006147D01*
X131926666Y-45067246D01*
X131826473Y-45149473D01*
X131744246Y-45249666D01*
X131683147Y-45363976D01*
X131645521Y-45488010D01*
X131632817Y-45617000D01*
X131233000Y-45617000D01*
X131233000Y-44378000D01*
X141190817Y-44378000D01*
X141190817Y-46078000D01*
X141203521Y-46206990D01*
X141241147Y-46331024D01*
X141302246Y-46445334D01*
X141384473Y-46545527D01*
X141484666Y-46627754D01*
X141598976Y-46688853D01*
X141636983Y-46700383D01*
X141530660Y-46806706D01*
X141365627Y-47053694D01*
X141251951Y-47328132D01*
X141194000Y-47619475D01*
X141194000Y-47916525D01*
X141251951Y-48207868D01*
X141365627Y-48482306D01*
X141530660Y-48729294D01*
X141740706Y-48939340D01*
X141888360Y-49038000D01*
X141740706Y-49136660D01*
X141530660Y-49346706D01*
X141365627Y-49593694D01*
X141251951Y-49868132D01*
X141194000Y-50159475D01*
X141194000Y-50456525D01*
X141251951Y-50747868D01*
X141365627Y-51022306D01*
X141530660Y-51269294D01*
X141740706Y-51479340D01*
X141888360Y-51578000D01*
X141740706Y-51676660D01*
X141530660Y-51886706D01*
X141365627Y-52133694D01*
X141251951Y-52408132D01*
X141194000Y-52699475D01*
X141194000Y-52996525D01*
X141251951Y-53287868D01*
X141365627Y-53562306D01*
X141530660Y-53809294D01*
X141740706Y-54019340D01*
X141888360Y-54118000D01*
X141740706Y-54216660D01*
X141530660Y-54426706D01*
X141365627Y-54673694D01*
X141251951Y-54948132D01*
X141194000Y-55239475D01*
X141194000Y-55536525D01*
X141251951Y-55827868D01*
X141365627Y-56102306D01*
X141530660Y-56349294D01*
X141740706Y-56559340D01*
X141888360Y-56658000D01*
X141740706Y-56756660D01*
X141530660Y-56966706D01*
X141365627Y-57213694D01*
X141251951Y-57488132D01*
X141194000Y-57779475D01*
X141194000Y-58076525D01*
X141251951Y-58367868D01*
X141365627Y-58642306D01*
X141530660Y-58889294D01*
X141740706Y-59099340D01*
X141987694Y-59264373D01*
X142262132Y-59378049D01*
X142553475Y-59436000D01*
X142850525Y-59436000D01*
X143141868Y-59378049D01*
X143416306Y-59264373D01*
X143663294Y-59099340D01*
X143873340Y-58889294D01*
X144038373Y-58642306D01*
X144152049Y-58367868D01*
X144210000Y-58076525D01*
X144210000Y-57779475D01*
X144152049Y-57488132D01*
X144038373Y-57213694D01*
X143873340Y-56966706D01*
X143663294Y-56756660D01*
X143515640Y-56658000D01*
X143663294Y-56559340D01*
X143873340Y-56349294D01*
X144038373Y-56102306D01*
X144152049Y-55827868D01*
X144210000Y-55536525D01*
X144210000Y-55239475D01*
X144152049Y-54948132D01*
X144038373Y-54673694D01*
X143873340Y-54426706D01*
X143663294Y-54216660D01*
X143515640Y-54118000D01*
X143663294Y-54019340D01*
X143873340Y-53809294D01*
X144038373Y-53562306D01*
X144152049Y-53287868D01*
X144210000Y-52996525D01*
X144210000Y-52699475D01*
X144152049Y-52408132D01*
X144038373Y-52133694D01*
X143873340Y-51886706D01*
X143663294Y-51676660D01*
X143515640Y-51578000D01*
X143663294Y-51479340D01*
X143873340Y-51269294D01*
X144038373Y-51022306D01*
X144152049Y-50747868D01*
X144210000Y-50456525D01*
X144210000Y-50159475D01*
X144152049Y-49868132D01*
X144038373Y-49593694D01*
X143873340Y-49346706D01*
X143663294Y-49136660D01*
X143515640Y-49038000D01*
X143663294Y-48939340D01*
X143873340Y-48729294D01*
X144038373Y-48482306D01*
X144152049Y-48207868D01*
X144210000Y-47916525D01*
X144210000Y-47619475D01*
X144152049Y-47328132D01*
X144038373Y-47053694D01*
X143873340Y-46806706D01*
X143767017Y-46700383D01*
X143805024Y-46688853D01*
X143919334Y-46627754D01*
X144019527Y-46545527D01*
X144101754Y-46445334D01*
X144162853Y-46331024D01*
X144200479Y-46206990D01*
X144213183Y-46078000D01*
X144213183Y-44378000D01*
X144200479Y-44249010D01*
X144162853Y-44124976D01*
X144101754Y-44010666D01*
X144019527Y-43910473D01*
X143919334Y-43828246D01*
X143805024Y-43767147D01*
X143680990Y-43729521D01*
X143552000Y-43716817D01*
X141852000Y-43716817D01*
X141723010Y-43729521D01*
X141598976Y-43767147D01*
X141484666Y-43828246D01*
X141384473Y-43910473D01*
X141302246Y-44010666D01*
X141241147Y-44124976D01*
X141203521Y-44249010D01*
X141190817Y-44378000D01*
X131233000Y-44378000D01*
X131233000Y-44061679D01*
X131236908Y-44021999D01*
X131233000Y-43982319D01*
X131233000Y-43982312D01*
X131221308Y-43863604D01*
X131175106Y-43711296D01*
X131100078Y-43570928D01*
X130999106Y-43447894D01*
X130968278Y-43422594D01*
X129459411Y-41913728D01*
X129434106Y-41882894D01*
X129311072Y-41781922D01*
X129170704Y-41706894D01*
X129018396Y-41660692D01*
X128899688Y-41649000D01*
X128899680Y-41649000D01*
X128860000Y-41645092D01*
X128820320Y-41649000D01*
X115838679Y-41649000D01*
X115798999Y-41645092D01*
X115759319Y-41649000D01*
X115759312Y-41649000D01*
X115655879Y-41659187D01*
X115640603Y-41660692D01*
X115594401Y-41674707D01*
X115488296Y-41706894D01*
X115347928Y-41781922D01*
X115224894Y-41882894D01*
X115199594Y-41913722D01*
X113644728Y-43468589D01*
X113613894Y-43493894D01*
X113512922Y-43616929D01*
X113437894Y-43757297D01*
X113420907Y-43813296D01*
X113391692Y-43909604D01*
X113390187Y-43924880D01*
X113380000Y-44028313D01*
X113380000Y-44028320D01*
X113376092Y-44068000D01*
X113380000Y-44107681D01*
X113380000Y-44509231D01*
X113226706Y-44611660D01*
X113016660Y-44821706D01*
X112851627Y-45068694D01*
X112737951Y-45343132D01*
X112680000Y-45634475D01*
X112680000Y-45931525D01*
X112737951Y-46222868D01*
X112851627Y-46497306D01*
X113016660Y-46744294D01*
X113226706Y-46954340D01*
X113374360Y-47053000D01*
X113226706Y-47151660D01*
X113016660Y-47361706D01*
X112851627Y-47608694D01*
X112737951Y-47883132D01*
X112680000Y-48174475D01*
X112680000Y-48471525D01*
X112737951Y-48762868D01*
X112851627Y-49037306D01*
X113016660Y-49284294D01*
X113226706Y-49494340D01*
X113374360Y-49593000D01*
X113226706Y-49691660D01*
X113016660Y-49901706D01*
X112851627Y-50148694D01*
X112737951Y-50423132D01*
X112680000Y-50714475D01*
X112680000Y-51011525D01*
X112737951Y-51302868D01*
X112851627Y-51577306D01*
X113016660Y-51824294D01*
X113226706Y-52034340D01*
X113374360Y-52133000D01*
X113226706Y-52231660D01*
X113016660Y-52441706D01*
X112851627Y-52688694D01*
X112737951Y-52963132D01*
X112680000Y-53254475D01*
X112680000Y-53551525D01*
X112737951Y-53842868D01*
X112851627Y-54117306D01*
X113016660Y-54364294D01*
X113226706Y-54574340D01*
X113374360Y-54673000D01*
X113226706Y-54771660D01*
X113016660Y-54981706D01*
X112851627Y-55228694D01*
X112737951Y-55503132D01*
X112680000Y-55794475D01*
X112680000Y-56091525D01*
X112737951Y-56382868D01*
X112851627Y-56657306D01*
X113016660Y-56904294D01*
X113226706Y-57114340D01*
X113374360Y-57213000D01*
X113226706Y-57311660D01*
X113016660Y-57521706D01*
X112851627Y-57768694D01*
X112737951Y-58043132D01*
X112680000Y-58334475D01*
X112680000Y-58631525D01*
X112737951Y-58922868D01*
X112851627Y-59197306D01*
X113016660Y-59444294D01*
X113226706Y-59654340D01*
X113374360Y-59753000D01*
X113226706Y-59851660D01*
X113016660Y-60061706D01*
X112851627Y-60308694D01*
X112737951Y-60583132D01*
X112680000Y-60874475D01*
X112680000Y-61171525D01*
X112737951Y-61462868D01*
X112851627Y-61737306D01*
X113016660Y-61984294D01*
X113122983Y-62090617D01*
X113084976Y-62102146D01*
X112970666Y-62163246D01*
X112870472Y-62245472D01*
X112788246Y-62345666D01*
X112727146Y-62459976D01*
X112689520Y-62584009D01*
X112676816Y-62713000D01*
X87759183Y-62713000D01*
X87746479Y-62584010D01*
X87708853Y-62459976D01*
X87647754Y-62345666D01*
X87565527Y-62245473D01*
X87465334Y-62163246D01*
X87351024Y-62102147D01*
X87313017Y-62090617D01*
X87419340Y-61984294D01*
X87584373Y-61737306D01*
X87698049Y-61462868D01*
X87756000Y-61171525D01*
X87756000Y-60874475D01*
X87698049Y-60583132D01*
X87584373Y-60308694D01*
X87419340Y-60061706D01*
X87209294Y-59851660D01*
X87061640Y-59753000D01*
X87209294Y-59654340D01*
X87419340Y-59444294D01*
X87584373Y-59197306D01*
X87698049Y-58922868D01*
X87756000Y-58631525D01*
X87756000Y-58334475D01*
X87698049Y-58043132D01*
X87584373Y-57768694D01*
X87419340Y-57521706D01*
X87209294Y-57311660D01*
X87061640Y-57213000D01*
X87209294Y-57114340D01*
X87419340Y-56904294D01*
X87584373Y-56657306D01*
X87698049Y-56382868D01*
X87756000Y-56091525D01*
X87756000Y-55794475D01*
X87698049Y-55503132D01*
X87584373Y-55228694D01*
X87419340Y-54981706D01*
X87209294Y-54771660D01*
X87061640Y-54673000D01*
X87209294Y-54574340D01*
X87419340Y-54364294D01*
X87584373Y-54117306D01*
X87698049Y-53842868D01*
X87756000Y-53551525D01*
X87756000Y-53254475D01*
X87698049Y-52963132D01*
X87584373Y-52688694D01*
X87419340Y-52441706D01*
X87209294Y-52231660D01*
X87061640Y-52133000D01*
X87209294Y-52034340D01*
X87419340Y-51824294D01*
X87584373Y-51577306D01*
X87698049Y-51302868D01*
X87756000Y-51011525D01*
X87756000Y-50714475D01*
X87698049Y-50423132D01*
X87584373Y-50148694D01*
X87419340Y-49901706D01*
X87209294Y-49691660D01*
X87061640Y-49593000D01*
X87209294Y-49494340D01*
X87419340Y-49284294D01*
X87584373Y-49037306D01*
X87698049Y-48762868D01*
X87756000Y-48471525D01*
X87756000Y-48174475D01*
X87698049Y-47883132D01*
X87584373Y-47608694D01*
X87419340Y-47361706D01*
X87209294Y-47151660D01*
X87061640Y-47053000D01*
X87209294Y-46954340D01*
X87419340Y-46744294D01*
X87584373Y-46497306D01*
X87698049Y-46222868D01*
X87756000Y-45931525D01*
X87756000Y-45634475D01*
X87698049Y-45343132D01*
X87584373Y-45068694D01*
X87419340Y-44821706D01*
X87209294Y-44611660D01*
X86962306Y-44446627D01*
X86687868Y-44332951D01*
X86396525Y-44275000D01*
X86099475Y-44275000D01*
X85808132Y-44332951D01*
X85533694Y-44446627D01*
X85286706Y-44611660D01*
X85076660Y-44821706D01*
X84911627Y-45068694D01*
X84797951Y-45343132D01*
X84740000Y-45634475D01*
X84740000Y-45931525D01*
X84797951Y-46222868D01*
X84911627Y-46497306D01*
X85076660Y-46744294D01*
X85286706Y-46954340D01*
X85434360Y-47053000D01*
X85286706Y-47151660D01*
X85076660Y-47361706D01*
X84911627Y-47608694D01*
X84797951Y-47883132D01*
X84740000Y-48174475D01*
X84740000Y-48471525D01*
X84797951Y-48762868D01*
X84911627Y-49037306D01*
X85076660Y-49284294D01*
X85286706Y-49494340D01*
X85434360Y-49593000D01*
X85286706Y-49691660D01*
X85076660Y-49901706D01*
X84911627Y-50148694D01*
X84797951Y-50423132D01*
X84740000Y-50714475D01*
X84740000Y-51011525D01*
X84797951Y-51302868D01*
X84911627Y-51577306D01*
X85076660Y-51824294D01*
X85286706Y-52034340D01*
X85434360Y-52133000D01*
X85286706Y-52231660D01*
X85076660Y-52441706D01*
X84911627Y-52688694D01*
X84797951Y-52963132D01*
X84740000Y-53254475D01*
X84740000Y-53551525D01*
X84797951Y-53842868D01*
X84911627Y-54117306D01*
X85076660Y-54364294D01*
X85286706Y-54574340D01*
X85434360Y-54673000D01*
X85286706Y-54771660D01*
X85076660Y-54981706D01*
X84911627Y-55228694D01*
X84797951Y-55503132D01*
X84740000Y-55794475D01*
X84740000Y-56091525D01*
X84797951Y-56382868D01*
X84911627Y-56657306D01*
X85076660Y-56904294D01*
X85286706Y-57114340D01*
X85434360Y-57213000D01*
X85286706Y-57311660D01*
X85076660Y-57521706D01*
X84911627Y-57768694D01*
X84797951Y-58043132D01*
X84740000Y-58334475D01*
X84740000Y-58631525D01*
X84797951Y-58922868D01*
X84911627Y-59197306D01*
X85076660Y-59444294D01*
X85286706Y-59654340D01*
X85434360Y-59753000D01*
X85286706Y-59851660D01*
X85076660Y-60061706D01*
X84911627Y-60308694D01*
X84797951Y-60583132D01*
X84740000Y-60874475D01*
X84740000Y-61171525D01*
X84797951Y-61462868D01*
X84911627Y-61737306D01*
X85076660Y-61984294D01*
X85182983Y-62090617D01*
X85144976Y-62102147D01*
X85030666Y-62163246D01*
X84930473Y-62245473D01*
X84848246Y-62345666D01*
X84787147Y-62459976D01*
X84749521Y-62584010D01*
X84736817Y-62713000D01*
X73683000Y-62713000D01*
X73683000Y-34550867D01*
X73758323Y-34732713D01*
X74158646Y-35331839D01*
X74668161Y-35841354D01*
X75267287Y-36241677D01*
X75933001Y-36517425D01*
X76639718Y-36658000D01*
X77360282Y-36658000D01*
X78066999Y-36517425D01*
X78732713Y-36241677D01*
X79331839Y-35841354D01*
X79841354Y-35331839D01*
X80241677Y-34732713D01*
X80517425Y-34066999D01*
X80658000Y-33360282D01*
X80658000Y-32639718D01*
X80517425Y-31933001D01*
X80241677Y-31267287D01*
X79841354Y-30668161D01*
X79331839Y-30158646D01*
X78732713Y-29758323D01*
X78550867Y-29683000D01*
X224449133Y-29683000D01*
X224267287Y-29758323D01*
G37*
%TD.AperFunction*%
%TD*%
M02*
