M48
; DRILL file {KiCad (5.1.10)-1} date 01/13/22 07:12:23
; FORMAT={-:-/ absolute / metric / decimal}
; #@! TF.CreationDate,2022-01-13T07:12:23+07:00
; #@! TF.GenerationSoftware,Kicad,Pcbnew,(5.1.10)-1
; #@! TF.FileFunction,Plated,1,2,PTH
FMAT,2
METRIC
T1C1.000
T2C3.000
%
G90
G05
T1
X86.248Y-45.783
X86.248Y-48.323
X86.248Y-50.863
X86.248Y-53.403
X86.248Y-55.943
X86.248Y-58.483
X86.248Y-61.023
X86.248Y-63.563
X105.558Y-79.627
X108.098Y-79.627
X110.638Y-79.627
X113.178Y-79.627
X114.188Y-45.783
X114.188Y-48.323
X114.188Y-50.863
X114.188Y-53.403
X114.188Y-55.943
X114.188Y-58.483
X114.188Y-61.023
X114.188Y-63.563
X114.698Y-122.807
X115.718Y-79.627
X117.238Y-122.807
X118.258Y-79.627
X119.778Y-122.807
X120.798Y-79.627
X122.318Y-122.807
X122.984Y-46.467
X122.984Y-49.007
X122.984Y-51.547
X122.984Y-54.087
X122.984Y-56.627
X122.984Y-59.167
X123.338Y-79.627
X124.858Y-122.807
X125.878Y-79.627
X127.398Y-122.807
X128.418Y-79.627
X129.938Y-122.807
X132.478Y-79.627
X132.478Y-122.807
X133.144Y-46.467
X133.144Y-49.007
X133.144Y-51.547
X133.144Y-54.087
X133.144Y-56.627
X133.144Y-59.167
X135.018Y-79.627
X137.558Y-79.627
X137.558Y-122.807
X140.098Y-79.627
X140.098Y-122.807
X142.638Y-79.627
X142.638Y-122.807
X142.702Y-45.228
X142.702Y-47.768
X142.702Y-50.308
X142.702Y-52.848
X142.702Y-55.388
X142.702Y-57.928
X145.178Y-79.627
X145.178Y-122.807
X147.718Y-79.627
X147.718Y-122.807
X150.258Y-79.627
X150.258Y-122.807
X163.494Y-116.12
X163.494Y-119.168
X163.494Y-122.216
X164.627Y-83.183
X164.627Y-86.231
X164.627Y-89.279
X167.922Y-42.688
X167.922Y-45.228
X167.922Y-47.768
X167.922Y-50.308
X167.922Y-52.848
X167.922Y-55.388
X179.967Y-44.914
X179.967Y-61.914
X218.967Y-44.914
X218.967Y-61.914
T2
X77.0Y-33.0
X77.0Y-136.0
X182.492Y-109.292
X182.492Y-129.074
X182.627Y-74.231
X182.627Y-98.231
X212.464Y-109.262
X212.514Y-129.104
X216.627Y-74.231
X216.627Y-98.231
X226.0Y-33.0
X226.0Y-136.0
T0
M30
