%TF.GenerationSoftware,KiCad,Pcbnew,(5.1.10)-1*%
%TF.CreationDate,2022-01-13T07:12:19+07:00*%
%TF.ProjectId,Atuph,41747570-682e-46b6-9963-61645f706362,rev?*%
%TF.SameCoordinates,Original*%
%TF.FileFunction,Legend,Top*%
%TF.FilePolarity,Positive*%
%FSLAX46Y46*%
G04 Gerber Fmt 4.6, Leading zero omitted, Abs format (unit mm)*
G04 Created by KiCad (PCBNEW (5.1.10)-1) date 2022-01-13 07:12:19*
%MOMM*%
%LPD*%
G01*
G04 APERTURE LIST*
%ADD10C,0.150000*%
%ADD11C,0.300000*%
%ADD12C,0.120000*%
G04 APERTURE END LIST*
D10*
X167108952Y-71449571D02*
X166775619Y-71449571D01*
X166775619Y-71973380D02*
X166775619Y-70973380D01*
X167251809Y-70973380D01*
X168061333Y-71973380D02*
X168061333Y-71449571D01*
X168013714Y-71354333D01*
X167918476Y-71306714D01*
X167728000Y-71306714D01*
X167632761Y-71354333D01*
X168061333Y-71925761D02*
X167966095Y-71973380D01*
X167728000Y-71973380D01*
X167632761Y-71925761D01*
X167585142Y-71830523D01*
X167585142Y-71735285D01*
X167632761Y-71640047D01*
X167728000Y-71592428D01*
X167966095Y-71592428D01*
X168061333Y-71544809D01*
X168537523Y-71973380D02*
X168537523Y-71306714D01*
X168537523Y-70973380D02*
X168489904Y-71021000D01*
X168537523Y-71068619D01*
X168585142Y-71021000D01*
X168537523Y-70973380D01*
X168537523Y-71068619D01*
X168966095Y-71925761D02*
X169061333Y-71973380D01*
X169251809Y-71973380D01*
X169347047Y-71925761D01*
X169394666Y-71830523D01*
X169394666Y-71782904D01*
X169347047Y-71687666D01*
X169251809Y-71640047D01*
X169108952Y-71640047D01*
X169013714Y-71592428D01*
X168966095Y-71497190D01*
X168966095Y-71449571D01*
X169013714Y-71354333D01*
X169108952Y-71306714D01*
X169251809Y-71306714D01*
X169347047Y-71354333D01*
X169823238Y-71973380D02*
X169823238Y-70973380D01*
X170251809Y-71973380D02*
X170251809Y-71449571D01*
X170204190Y-71354333D01*
X170108952Y-71306714D01*
X169966095Y-71306714D01*
X169870857Y-71354333D01*
X169823238Y-71401952D01*
X171156571Y-71973380D02*
X171156571Y-71449571D01*
X171108952Y-71354333D01*
X171013714Y-71306714D01*
X170823238Y-71306714D01*
X170728000Y-71354333D01*
X171156571Y-71925761D02*
X171061333Y-71973380D01*
X170823238Y-71973380D01*
X170728000Y-71925761D01*
X170680380Y-71830523D01*
X170680380Y-71735285D01*
X170728000Y-71640047D01*
X170823238Y-71592428D01*
X171061333Y-71592428D01*
X171156571Y-71544809D01*
X171775619Y-71973380D02*
X171680380Y-71925761D01*
X171632761Y-71830523D01*
X171632761Y-70973380D01*
X168251809Y-73623380D02*
X167918476Y-73147190D01*
X167680380Y-73623380D02*
X167680380Y-72623380D01*
X168061333Y-72623380D01*
X168156571Y-72671000D01*
X168204190Y-72718619D01*
X168251809Y-72813857D01*
X168251809Y-72956714D01*
X168204190Y-73051952D01*
X168156571Y-73099571D01*
X168061333Y-73147190D01*
X167680380Y-73147190D01*
X168680380Y-73623380D02*
X168680380Y-72956714D01*
X168680380Y-72623380D02*
X168632761Y-72671000D01*
X168680380Y-72718619D01*
X168728000Y-72671000D01*
X168680380Y-72623380D01*
X168680380Y-72718619D01*
X169061333Y-72956714D02*
X169585142Y-72956714D01*
X169061333Y-73623380D01*
X169585142Y-73623380D01*
X169966095Y-73623380D02*
X169966095Y-72623380D01*
X170061333Y-73242428D02*
X170347047Y-73623380D01*
X170347047Y-72956714D02*
X169966095Y-73337666D01*
X170775619Y-73623380D02*
X170775619Y-72956714D01*
X170775619Y-72623380D02*
X170728000Y-72671000D01*
X170775619Y-72718619D01*
X170823238Y-72671000D01*
X170775619Y-72623380D01*
X170775619Y-72718619D01*
X166847047Y-74273380D02*
X167513714Y-74273380D01*
X166847047Y-75273380D01*
X167513714Y-75273380D01*
X168323238Y-75273380D02*
X168323238Y-74749571D01*
X168275619Y-74654333D01*
X168180380Y-74606714D01*
X167989904Y-74606714D01*
X167894666Y-74654333D01*
X168323238Y-75225761D02*
X168228000Y-75273380D01*
X167989904Y-75273380D01*
X167894666Y-75225761D01*
X167847047Y-75130523D01*
X167847047Y-75035285D01*
X167894666Y-74940047D01*
X167989904Y-74892428D01*
X168228000Y-74892428D01*
X168323238Y-74844809D01*
X168799428Y-75273380D02*
X168799428Y-74606714D01*
X168799428Y-74273380D02*
X168751809Y-74321000D01*
X168799428Y-74368619D01*
X168847047Y-74321000D01*
X168799428Y-74273380D01*
X168799428Y-74368619D01*
X169704190Y-75273380D02*
X169704190Y-74273380D01*
X169704190Y-75225761D02*
X169608952Y-75273380D01*
X169418476Y-75273380D01*
X169323238Y-75225761D01*
X169275619Y-75178142D01*
X169228000Y-75082904D01*
X169228000Y-74797190D01*
X169275619Y-74701952D01*
X169323238Y-74654333D01*
X169418476Y-74606714D01*
X169608952Y-74606714D01*
X169704190Y-74654333D01*
X170608952Y-75273380D02*
X170608952Y-74749571D01*
X170561333Y-74654333D01*
X170466095Y-74606714D01*
X170275619Y-74606714D01*
X170180380Y-74654333D01*
X170608952Y-75225761D02*
X170513714Y-75273380D01*
X170275619Y-75273380D01*
X170180380Y-75225761D01*
X170132761Y-75130523D01*
X170132761Y-75035285D01*
X170180380Y-74940047D01*
X170275619Y-74892428D01*
X170513714Y-74892428D01*
X170608952Y-74844809D01*
X171085142Y-74606714D02*
X171085142Y-75273380D01*
X171085142Y-74701952D02*
X171132761Y-74654333D01*
X171228000Y-74606714D01*
X171370857Y-74606714D01*
X171466095Y-74654333D01*
X171513714Y-74749571D01*
X171513714Y-75273380D01*
X113329238Y-100814666D02*
X113805428Y-100814666D01*
X113234000Y-101100380D02*
X113567333Y-100100380D01*
X113900666Y-101100380D01*
X114234000Y-101100380D02*
X114234000Y-100433714D01*
X114234000Y-100624190D02*
X114281619Y-100528952D01*
X114329238Y-100481333D01*
X114424476Y-100433714D01*
X114519714Y-100433714D01*
X115281619Y-101100380D02*
X115281619Y-100100380D01*
X115281619Y-101052761D02*
X115186380Y-101100380D01*
X114995904Y-101100380D01*
X114900666Y-101052761D01*
X114853047Y-101005142D01*
X114805428Y-100909904D01*
X114805428Y-100624190D01*
X114853047Y-100528952D01*
X114900666Y-100481333D01*
X114995904Y-100433714D01*
X115186380Y-100433714D01*
X115281619Y-100481333D01*
X116186380Y-100433714D02*
X116186380Y-101100380D01*
X115757809Y-100433714D02*
X115757809Y-100957523D01*
X115805428Y-101052761D01*
X115900666Y-101100380D01*
X116043523Y-101100380D01*
X116138761Y-101052761D01*
X116186380Y-101005142D01*
X116662571Y-101100380D02*
X116662571Y-100433714D01*
X116662571Y-100100380D02*
X116614952Y-100148000D01*
X116662571Y-100195619D01*
X116710190Y-100148000D01*
X116662571Y-100100380D01*
X116662571Y-100195619D01*
X117138761Y-100433714D02*
X117138761Y-101100380D01*
X117138761Y-100528952D02*
X117186380Y-100481333D01*
X117281619Y-100433714D01*
X117424476Y-100433714D01*
X117519714Y-100481333D01*
X117567333Y-100576571D01*
X117567333Y-101100380D01*
X118186380Y-101100380D02*
X118091142Y-101052761D01*
X118043523Y-101005142D01*
X117995904Y-100909904D01*
X117995904Y-100624190D01*
X118043523Y-100528952D01*
X118091142Y-100481333D01*
X118186380Y-100433714D01*
X118329238Y-100433714D01*
X118424476Y-100481333D01*
X118472095Y-100528952D01*
X118519714Y-100624190D01*
X118519714Y-100909904D01*
X118472095Y-101005142D01*
X118424476Y-101052761D01*
X118329238Y-101100380D01*
X118186380Y-101100380D01*
X119710190Y-100100380D02*
X119710190Y-100909904D01*
X119757809Y-101005142D01*
X119805428Y-101052761D01*
X119900666Y-101100380D01*
X120091142Y-101100380D01*
X120186380Y-101052761D01*
X120234000Y-101005142D01*
X120281619Y-100909904D01*
X120281619Y-100100380D01*
X120757809Y-100433714D02*
X120757809Y-101100380D01*
X120757809Y-100528952D02*
X120805428Y-100481333D01*
X120900666Y-100433714D01*
X121043523Y-100433714D01*
X121138761Y-100481333D01*
X121186380Y-100576571D01*
X121186380Y-101100380D01*
X121805428Y-101100380D02*
X121710190Y-101052761D01*
X121662571Y-101005142D01*
X121614952Y-100909904D01*
X121614952Y-100624190D01*
X121662571Y-100528952D01*
X121710190Y-100481333D01*
X121805428Y-100433714D01*
X121948285Y-100433714D01*
X122043523Y-100481333D01*
X122091142Y-100528952D01*
X122138761Y-100624190D01*
X122138761Y-100909904D01*
X122091142Y-101005142D01*
X122043523Y-101052761D01*
X121948285Y-101100380D01*
X121805428Y-101100380D01*
X191532000Y-118700380D02*
X192103428Y-118700380D01*
X191817714Y-119700380D02*
X191817714Y-118700380D01*
X192865333Y-119033714D02*
X192865333Y-119700380D01*
X192436761Y-119033714D02*
X192436761Y-119557523D01*
X192484380Y-119652761D01*
X192579619Y-119700380D01*
X192722476Y-119700380D01*
X192817714Y-119652761D01*
X192865333Y-119605142D01*
X193341523Y-119700380D02*
X193341523Y-119033714D01*
X193341523Y-119224190D02*
X193389142Y-119128952D01*
X193436761Y-119081333D01*
X193532000Y-119033714D01*
X193627238Y-119033714D01*
X193960571Y-119700380D02*
X193960571Y-118700380D01*
X193960571Y-119081333D02*
X194055809Y-119033714D01*
X194246285Y-119033714D01*
X194341523Y-119081333D01*
X194389142Y-119128952D01*
X194436761Y-119224190D01*
X194436761Y-119509904D01*
X194389142Y-119605142D01*
X194341523Y-119652761D01*
X194246285Y-119700380D01*
X194055809Y-119700380D01*
X193960571Y-119652761D01*
X194865333Y-119700380D02*
X194865333Y-119033714D01*
X194865333Y-118700380D02*
X194817714Y-118748000D01*
X194865333Y-118795619D01*
X194912952Y-118748000D01*
X194865333Y-118700380D01*
X194865333Y-118795619D01*
X195770095Y-119700380D02*
X195770095Y-118700380D01*
X195770095Y-119652761D02*
X195674857Y-119700380D01*
X195484380Y-119700380D01*
X195389142Y-119652761D01*
X195341523Y-119605142D01*
X195293904Y-119509904D01*
X195293904Y-119224190D01*
X195341523Y-119128952D01*
X195389142Y-119081333D01*
X195484380Y-119033714D01*
X195674857Y-119033714D01*
X195770095Y-119081333D01*
X196246285Y-119700380D02*
X196246285Y-119033714D01*
X196246285Y-118700380D02*
X196198666Y-118748000D01*
X196246285Y-118795619D01*
X196293904Y-118748000D01*
X196246285Y-118700380D01*
X196246285Y-118795619D01*
X196579619Y-119033714D02*
X196960571Y-119033714D01*
X196722476Y-118700380D02*
X196722476Y-119557523D01*
X196770095Y-119652761D01*
X196865333Y-119700380D01*
X196960571Y-119700380D01*
X197198666Y-119033714D02*
X197436761Y-119700380D01*
X197674857Y-119033714D02*
X197436761Y-119700380D01*
X197341523Y-119938476D01*
X197293904Y-119986095D01*
X197198666Y-120033714D01*
X198770095Y-119652761D02*
X198912952Y-119700380D01*
X199151047Y-119700380D01*
X199246285Y-119652761D01*
X199293904Y-119605142D01*
X199341523Y-119509904D01*
X199341523Y-119414666D01*
X199293904Y-119319428D01*
X199246285Y-119271809D01*
X199151047Y-119224190D01*
X198960571Y-119176571D01*
X198865333Y-119128952D01*
X198817714Y-119081333D01*
X198770095Y-118986095D01*
X198770095Y-118890857D01*
X198817714Y-118795619D01*
X198865333Y-118748000D01*
X198960571Y-118700380D01*
X199198666Y-118700380D01*
X199341523Y-118748000D01*
X200151047Y-119652761D02*
X200055809Y-119700380D01*
X199865333Y-119700380D01*
X199770095Y-119652761D01*
X199722476Y-119557523D01*
X199722476Y-119176571D01*
X199770095Y-119081333D01*
X199865333Y-119033714D01*
X200055809Y-119033714D01*
X200151047Y-119081333D01*
X200198666Y-119176571D01*
X200198666Y-119271809D01*
X199722476Y-119367047D01*
X200627238Y-119033714D02*
X200627238Y-119700380D01*
X200627238Y-119128952D02*
X200674857Y-119081333D01*
X200770095Y-119033714D01*
X200912952Y-119033714D01*
X201008190Y-119081333D01*
X201055809Y-119176571D01*
X201055809Y-119700380D01*
X201484380Y-119652761D02*
X201579619Y-119700380D01*
X201770095Y-119700380D01*
X201865333Y-119652761D01*
X201912952Y-119557523D01*
X201912952Y-119509904D01*
X201865333Y-119414666D01*
X201770095Y-119367047D01*
X201627238Y-119367047D01*
X201532000Y-119319428D01*
X201484380Y-119224190D01*
X201484380Y-119176571D01*
X201532000Y-119081333D01*
X201627238Y-119033714D01*
X201770095Y-119033714D01*
X201865333Y-119081333D01*
X202484380Y-119700380D02*
X202389142Y-119652761D01*
X202341523Y-119605142D01*
X202293904Y-119509904D01*
X202293904Y-119224190D01*
X202341523Y-119128952D01*
X202389142Y-119081333D01*
X202484380Y-119033714D01*
X202627238Y-119033714D01*
X202722476Y-119081333D01*
X202770095Y-119128952D01*
X202817714Y-119224190D01*
X202817714Y-119509904D01*
X202770095Y-119605142D01*
X202722476Y-119652761D01*
X202627238Y-119700380D01*
X202484380Y-119700380D01*
X203246285Y-119700380D02*
X203246285Y-119033714D01*
X203246285Y-119224190D02*
X203293904Y-119128952D01*
X203341523Y-119081333D01*
X203436761Y-119033714D01*
X203532000Y-119033714D01*
X195669523Y-86475380D02*
X195669523Y-85475380D01*
X196050476Y-85475380D01*
X196145714Y-85523000D01*
X196193333Y-85570619D01*
X196240952Y-85665857D01*
X196240952Y-85808714D01*
X196193333Y-85903952D01*
X196145714Y-85951571D01*
X196050476Y-85999190D01*
X195669523Y-85999190D01*
X196669523Y-86475380D02*
X196669523Y-85475380D01*
X196669523Y-85951571D02*
X197240952Y-85951571D01*
X197240952Y-86475380D02*
X197240952Y-85475380D01*
X198431428Y-86427761D02*
X198574285Y-86475380D01*
X198812380Y-86475380D01*
X198907619Y-86427761D01*
X198955238Y-86380142D01*
X199002857Y-86284904D01*
X199002857Y-86189666D01*
X198955238Y-86094428D01*
X198907619Y-86046809D01*
X198812380Y-85999190D01*
X198621904Y-85951571D01*
X198526666Y-85903952D01*
X198479047Y-85856333D01*
X198431428Y-85761095D01*
X198431428Y-85665857D01*
X198479047Y-85570619D01*
X198526666Y-85523000D01*
X198621904Y-85475380D01*
X198860000Y-85475380D01*
X199002857Y-85523000D01*
X199812380Y-86427761D02*
X199717142Y-86475380D01*
X199526666Y-86475380D01*
X199431428Y-86427761D01*
X199383809Y-86332523D01*
X199383809Y-85951571D01*
X199431428Y-85856333D01*
X199526666Y-85808714D01*
X199717142Y-85808714D01*
X199812380Y-85856333D01*
X199860000Y-85951571D01*
X199860000Y-86046809D01*
X199383809Y-86142047D01*
X200288571Y-85808714D02*
X200288571Y-86475380D01*
X200288571Y-85903952D02*
X200336190Y-85856333D01*
X200431428Y-85808714D01*
X200574285Y-85808714D01*
X200669523Y-85856333D01*
X200717142Y-85951571D01*
X200717142Y-86475380D01*
X201145714Y-86427761D02*
X201240952Y-86475380D01*
X201431428Y-86475380D01*
X201526666Y-86427761D01*
X201574285Y-86332523D01*
X201574285Y-86284904D01*
X201526666Y-86189666D01*
X201431428Y-86142047D01*
X201288571Y-86142047D01*
X201193333Y-86094428D01*
X201145714Y-85999190D01*
X201145714Y-85951571D01*
X201193333Y-85856333D01*
X201288571Y-85808714D01*
X201431428Y-85808714D01*
X201526666Y-85856333D01*
X202145714Y-86475380D02*
X202050476Y-86427761D01*
X202002857Y-86380142D01*
X201955238Y-86284904D01*
X201955238Y-85999190D01*
X202002857Y-85903952D01*
X202050476Y-85856333D01*
X202145714Y-85808714D01*
X202288571Y-85808714D01*
X202383809Y-85856333D01*
X202431428Y-85903952D01*
X202479047Y-85999190D01*
X202479047Y-86284904D01*
X202431428Y-86380142D01*
X202383809Y-86427761D01*
X202288571Y-86475380D01*
X202145714Y-86475380D01*
X202907619Y-86475380D02*
X202907619Y-85808714D01*
X202907619Y-85999190D02*
X202955238Y-85903952D01*
X203002857Y-85856333D01*
X203098095Y-85808714D01*
X203193333Y-85808714D01*
X196905142Y-53346380D02*
X196428952Y-53346380D01*
X196428952Y-52346380D01*
X197238476Y-53346380D02*
X197238476Y-52346380D01*
X197571809Y-53060666D01*
X197905142Y-52346380D01*
X197905142Y-53346380D01*
X198333714Y-52441619D02*
X198381333Y-52394000D01*
X198476571Y-52346380D01*
X198714666Y-52346380D01*
X198809904Y-52394000D01*
X198857523Y-52441619D01*
X198905142Y-52536857D01*
X198905142Y-52632095D01*
X198857523Y-52774952D01*
X198286095Y-53346380D01*
X198905142Y-53346380D01*
X199809904Y-52346380D02*
X199333714Y-52346380D01*
X199286095Y-52822571D01*
X199333714Y-52774952D01*
X199428952Y-52727333D01*
X199667047Y-52727333D01*
X199762285Y-52774952D01*
X199809904Y-52822571D01*
X199857523Y-52917809D01*
X199857523Y-53155904D01*
X199809904Y-53251142D01*
X199762285Y-53298761D01*
X199667047Y-53346380D01*
X199428952Y-53346380D01*
X199333714Y-53298761D01*
X199286095Y-53251142D01*
X200333714Y-53346380D02*
X200524190Y-53346380D01*
X200619428Y-53298761D01*
X200667047Y-53251142D01*
X200762285Y-53108285D01*
X200809904Y-52917809D01*
X200809904Y-52536857D01*
X200762285Y-52441619D01*
X200714666Y-52394000D01*
X200619428Y-52346380D01*
X200428952Y-52346380D01*
X200333714Y-52394000D01*
X200286095Y-52441619D01*
X200238476Y-52536857D01*
X200238476Y-52774952D01*
X200286095Y-52870190D01*
X200333714Y-52917809D01*
X200428952Y-52965428D01*
X200619428Y-52965428D01*
X200714666Y-52917809D01*
X200762285Y-52870190D01*
X200809904Y-52774952D01*
X201667047Y-52346380D02*
X201476571Y-52346380D01*
X201381333Y-52394000D01*
X201333714Y-52441619D01*
X201238476Y-52584476D01*
X201190857Y-52774952D01*
X201190857Y-53155904D01*
X201238476Y-53251142D01*
X201286095Y-53298761D01*
X201381333Y-53346380D01*
X201571809Y-53346380D01*
X201667047Y-53298761D01*
X201714666Y-53251142D01*
X201762285Y-53155904D01*
X201762285Y-52917809D01*
X201714666Y-52822571D01*
X201667047Y-52774952D01*
X201571809Y-52727333D01*
X201381333Y-52727333D01*
X201286095Y-52774952D01*
X201238476Y-52822571D01*
X201190857Y-52917809D01*
X202143238Y-53298761D02*
X202286095Y-53346380D01*
X202524190Y-53346380D01*
X202619428Y-53298761D01*
X202667047Y-53251142D01*
X202714666Y-53155904D01*
X202714666Y-53060666D01*
X202667047Y-52965428D01*
X202619428Y-52917809D01*
X202524190Y-52870190D01*
X202333714Y-52822571D01*
X202238476Y-52774952D01*
X202190857Y-52727333D01*
X202143238Y-52632095D01*
X202143238Y-52536857D01*
X202190857Y-52441619D01*
X202238476Y-52394000D01*
X202333714Y-52346380D01*
X202571809Y-52346380D01*
X202714666Y-52394000D01*
D11*
X150274142Y-49552142D02*
X150488428Y-49623571D01*
X150845571Y-49623571D01*
X150988428Y-49552142D01*
X151059857Y-49480714D01*
X151131285Y-49337857D01*
X151131285Y-49195000D01*
X151059857Y-49052142D01*
X150988428Y-48980714D01*
X150845571Y-48909285D01*
X150559857Y-48837857D01*
X150417000Y-48766428D01*
X150345571Y-48695000D01*
X150274142Y-48552142D01*
X150274142Y-48409285D01*
X150345571Y-48266428D01*
X150417000Y-48195000D01*
X150559857Y-48123571D01*
X150917000Y-48123571D01*
X151131285Y-48195000D01*
X151774142Y-49623571D02*
X151774142Y-48123571D01*
X152488428Y-49623571D02*
X152488428Y-48123571D01*
X152988428Y-49195000D01*
X153488428Y-48123571D01*
X153488428Y-49623571D01*
X154417000Y-48766428D02*
X154274142Y-48695000D01*
X154202714Y-48623571D01*
X154131285Y-48480714D01*
X154131285Y-48409285D01*
X154202714Y-48266428D01*
X154274142Y-48195000D01*
X154417000Y-48123571D01*
X154702714Y-48123571D01*
X154845571Y-48195000D01*
X154917000Y-48266428D01*
X154988428Y-48409285D01*
X154988428Y-48480714D01*
X154917000Y-48623571D01*
X154845571Y-48695000D01*
X154702714Y-48766428D01*
X154417000Y-48766428D01*
X154274142Y-48837857D01*
X154202714Y-48909285D01*
X154131285Y-49052142D01*
X154131285Y-49337857D01*
X154202714Y-49480714D01*
X154274142Y-49552142D01*
X154417000Y-49623571D01*
X154702714Y-49623571D01*
X154845571Y-49552142D01*
X154917000Y-49480714D01*
X154988428Y-49337857D01*
X154988428Y-49052142D01*
X154917000Y-48909285D01*
X154845571Y-48837857D01*
X154702714Y-48766428D01*
X155917000Y-48123571D02*
X156059857Y-48123571D01*
X156202714Y-48195000D01*
X156274142Y-48266428D01*
X156345571Y-48409285D01*
X156417000Y-48695000D01*
X156417000Y-49052142D01*
X156345571Y-49337857D01*
X156274142Y-49480714D01*
X156202714Y-49552142D01*
X156059857Y-49623571D01*
X155917000Y-49623571D01*
X155774142Y-49552142D01*
X155702714Y-49480714D01*
X155631285Y-49337857D01*
X155559857Y-49052142D01*
X155559857Y-48695000D01*
X155631285Y-48409285D01*
X155702714Y-48266428D01*
X155774142Y-48195000D01*
X155917000Y-48123571D01*
X157345571Y-48123571D02*
X157488428Y-48123571D01*
X157631285Y-48195000D01*
X157702714Y-48266428D01*
X157774142Y-48409285D01*
X157845571Y-48695000D01*
X157845571Y-49052142D01*
X157774142Y-49337857D01*
X157702714Y-49480714D01*
X157631285Y-49552142D01*
X157488428Y-49623571D01*
X157345571Y-49623571D01*
X157202714Y-49552142D01*
X157131285Y-49480714D01*
X157059857Y-49337857D01*
X156988428Y-49052142D01*
X156988428Y-48695000D01*
X157059857Y-48409285D01*
X157131285Y-48266428D01*
X157202714Y-48195000D01*
X157345571Y-48123571D01*
X159202714Y-49623571D02*
X158488428Y-49623571D01*
X158488428Y-48123571D01*
X95325142Y-50949857D02*
X95825142Y-50949857D01*
X96039428Y-51735571D02*
X95325142Y-51735571D01*
X95325142Y-50235571D01*
X96039428Y-50235571D01*
X96610857Y-51664142D02*
X96825142Y-51735571D01*
X97182285Y-51735571D01*
X97325142Y-51664142D01*
X97396571Y-51592714D01*
X97468000Y-51449857D01*
X97468000Y-51307000D01*
X97396571Y-51164142D01*
X97325142Y-51092714D01*
X97182285Y-51021285D01*
X96896571Y-50949857D01*
X96753714Y-50878428D01*
X96682285Y-50807000D01*
X96610857Y-50664142D01*
X96610857Y-50521285D01*
X96682285Y-50378428D01*
X96753714Y-50307000D01*
X96896571Y-50235571D01*
X97253714Y-50235571D01*
X97468000Y-50307000D01*
X98110857Y-51735571D02*
X98110857Y-50235571D01*
X98682285Y-50235571D01*
X98825142Y-50307000D01*
X98896571Y-50378428D01*
X98968000Y-50521285D01*
X98968000Y-50735571D01*
X98896571Y-50878428D01*
X98825142Y-50949857D01*
X98682285Y-51021285D01*
X98110857Y-51021285D01*
X99610857Y-51164142D02*
X100753714Y-51164142D01*
X102253714Y-51735571D02*
X101396571Y-51735571D01*
X101825142Y-51735571D02*
X101825142Y-50235571D01*
X101682285Y-50449857D01*
X101539428Y-50592714D01*
X101396571Y-50664142D01*
X102825142Y-50378428D02*
X102896571Y-50307000D01*
X103039428Y-50235571D01*
X103396571Y-50235571D01*
X103539428Y-50307000D01*
X103610857Y-50378428D01*
X103682285Y-50521285D01*
X103682285Y-50664142D01*
X103610857Y-50878428D01*
X102753714Y-51735571D01*
X103682285Y-51735571D01*
D12*
%TO.C,A1*%
X155468000Y-122807000D02*
X155468000Y-90037000D01*
X152928000Y-76067000D02*
X151278000Y-74417000D01*
X86628000Y-74417000D02*
X151278000Y-74417000D01*
X86628000Y-124837000D02*
X86628000Y-128017000D01*
X86628000Y-95625000D02*
X86628000Y-115695000D01*
X80278000Y-95625000D02*
X86628000Y-95625000D01*
X84728000Y-115695000D02*
X86628000Y-115695000D01*
X155468000Y-122807000D02*
X152928000Y-125347000D01*
X152928000Y-87497000D02*
X152928000Y-76067000D01*
X84726000Y-115695000D02*
X84726000Y-124835000D01*
X152928000Y-128017000D02*
X152928000Y-125347000D01*
X86626000Y-124841000D02*
X84726000Y-124841000D01*
X86628000Y-74417000D02*
X86628000Y-83947000D01*
X80278000Y-83945000D02*
X80278000Y-95625000D01*
X155468000Y-90037000D02*
X152928000Y-87497000D01*
X86628000Y-83945000D02*
X80278000Y-83945000D01*
X86628000Y-128017000D02*
X152928000Y-128017000D01*
%TO.C,L1*%
X121714000Y-45167000D02*
X121714000Y-60467000D01*
X121714000Y-45167000D02*
X134414000Y-45167000D01*
X134414000Y-45167000D02*
X134414000Y-60467000D01*
X134414000Y-60467000D02*
X121714000Y-60467000D01*
%TO.C,E1*%
X115968000Y-65317000D02*
X115968000Y-36917000D01*
X115968000Y-65317000D02*
X84468000Y-65317000D01*
X84468000Y-65317000D02*
X84468000Y-36917000D01*
X84468000Y-36917000D02*
X115968000Y-36917000D01*
%TO.C,D1*%
X178627000Y-102231000D02*
X178627000Y-70231000D01*
X220627000Y-70231000D02*
X178627000Y-70231000D01*
X220627000Y-102231000D02*
X220627000Y-70231000D01*
X220627000Y-102231000D02*
X178627000Y-102231000D01*
%TO.C,D2*%
X216478000Y-133168000D02*
X216478000Y-105168000D01*
X216478000Y-105168000D02*
X178478000Y-105168000D01*
X178478000Y-133168000D02*
X178478000Y-105168000D01*
X216478000Y-133168000D02*
X178478000Y-133168000D01*
%TO.C,L3*%
X166622000Y-43958000D02*
X166622000Y-56718000D01*
X166742000Y-42688000D02*
X166742000Y-41358000D01*
X166622000Y-43958000D02*
X169282000Y-43958000D01*
X169282000Y-43958000D02*
X169282000Y-56718000D01*
X166742000Y-41358000D02*
X168072000Y-41358000D01*
X166622000Y-56718000D02*
X169282000Y-56718000D01*
X140162000Y-37388000D02*
X170462000Y-37388000D01*
X170462000Y-37388000D02*
X170462000Y-60688000D01*
X170462000Y-60688000D02*
X140162000Y-60688000D01*
X140162000Y-60688000D02*
X140162000Y-37388000D01*
X141222000Y-59258000D02*
X143882000Y-59258000D01*
X141342000Y-43898000D02*
X142672000Y-43898000D01*
X143882000Y-46498000D02*
X143882000Y-59258000D01*
X141222000Y-46498000D02*
X143882000Y-46498000D01*
X141342000Y-45228000D02*
X141342000Y-43898000D01*
X141222000Y-46498000D02*
X141222000Y-59258000D01*
%TO.C,L2*%
X220967000Y-63914000D02*
X177967000Y-63914000D01*
X177967000Y-63914000D02*
X177967000Y-42914000D01*
X220967000Y-42914000D02*
X177967000Y-42914000D01*
X220967000Y-63914000D02*
X220967000Y-42914000D01*
%TO.C,A1*%
D10*
X113983714Y-73443666D02*
X114459904Y-73443666D01*
X113888476Y-73729380D02*
X114221809Y-72729380D01*
X114555142Y-73729380D01*
X115412285Y-73729380D02*
X114840857Y-73729380D01*
X115126571Y-73729380D02*
X115126571Y-72729380D01*
X115031333Y-72872238D01*
X114936095Y-72967476D01*
X114840857Y-73015095D01*
%TO.C,L1*%
X127897333Y-44625380D02*
X127421142Y-44625380D01*
X127421142Y-43625380D01*
X128754476Y-44625380D02*
X128183047Y-44625380D01*
X128468761Y-44625380D02*
X128468761Y-43625380D01*
X128373523Y-43768238D01*
X128278285Y-43863476D01*
X128183047Y-43911095D01*
%TO.C,E1*%
X99527523Y-66031571D02*
X99860857Y-66031571D01*
X100003714Y-66555380D02*
X99527523Y-66555380D01*
X99527523Y-65555380D01*
X100003714Y-65555380D01*
X100956095Y-66555380D02*
X100384666Y-66555380D01*
X100670380Y-66555380D02*
X100670380Y-65555380D01*
X100575142Y-65698238D01*
X100479904Y-65793476D01*
X100384666Y-65841095D01*
%TO.C,H4*%
X76238095Y-29452380D02*
X76238095Y-28452380D01*
X76238095Y-28928571D02*
X76809523Y-28928571D01*
X76809523Y-29452380D02*
X76809523Y-28452380D01*
X77714285Y-28785714D02*
X77714285Y-29452380D01*
X77476190Y-28404761D02*
X77238095Y-29119047D01*
X77857142Y-29119047D01*
%TO.C,H3*%
X225238095Y-29452380D02*
X225238095Y-28452380D01*
X225238095Y-28928571D02*
X225809523Y-28928571D01*
X225809523Y-29452380D02*
X225809523Y-28452380D01*
X226190476Y-28452380D02*
X226809523Y-28452380D01*
X226476190Y-28833333D01*
X226619047Y-28833333D01*
X226714285Y-28880952D01*
X226761904Y-28928571D01*
X226809523Y-29023809D01*
X226809523Y-29261904D01*
X226761904Y-29357142D01*
X226714285Y-29404761D01*
X226619047Y-29452380D01*
X226333333Y-29452380D01*
X226238095Y-29404761D01*
X226190476Y-29357142D01*
%TO.C,H2*%
X225238095Y-132452380D02*
X225238095Y-131452380D01*
X225238095Y-131928571D02*
X225809523Y-131928571D01*
X225809523Y-132452380D02*
X225809523Y-131452380D01*
X226238095Y-131547619D02*
X226285714Y-131500000D01*
X226380952Y-131452380D01*
X226619047Y-131452380D01*
X226714285Y-131500000D01*
X226761904Y-131547619D01*
X226809523Y-131642857D01*
X226809523Y-131738095D01*
X226761904Y-131880952D01*
X226190476Y-132452380D01*
X226809523Y-132452380D01*
%TO.C,H1*%
X76238095Y-132452380D02*
X76238095Y-131452380D01*
X76238095Y-131928571D02*
X76809523Y-131928571D01*
X76809523Y-132452380D02*
X76809523Y-131452380D01*
X77809523Y-132452380D02*
X77238095Y-132452380D01*
X77523809Y-132452380D02*
X77523809Y-131452380D01*
X77428571Y-131595238D01*
X77333333Y-131690476D01*
X77238095Y-131738095D01*
%TO.C,D1*%
X198888904Y-104717380D02*
X198888904Y-103717380D01*
X199127000Y-103717380D01*
X199269857Y-103765000D01*
X199365095Y-103860238D01*
X199412714Y-103955476D01*
X199460333Y-104145952D01*
X199460333Y-104288809D01*
X199412714Y-104479285D01*
X199365095Y-104574523D01*
X199269857Y-104669761D01*
X199127000Y-104717380D01*
X198888904Y-104717380D01*
X200412714Y-104717380D02*
X199841285Y-104717380D01*
X200127000Y-104717380D02*
X200127000Y-103717380D01*
X200031761Y-103860238D01*
X199936523Y-103955476D01*
X199841285Y-104003095D01*
X165972047Y-89350428D02*
X166733952Y-89350428D01*
X165972047Y-86302428D02*
X166733952Y-86302428D01*
X166353000Y-86683380D02*
X166353000Y-85921476D01*
X166114904Y-83349666D02*
X166591095Y-83349666D01*
X166019666Y-83635380D02*
X166353000Y-82635380D01*
X166686333Y-83635380D01*
X212930619Y-86588142D02*
X212883000Y-86635761D01*
X212740142Y-86683380D01*
X212644904Y-86683380D01*
X212502047Y-86635761D01*
X212406809Y-86540523D01*
X212359190Y-86445285D01*
X212311571Y-86254809D01*
X212311571Y-86111952D01*
X212359190Y-85921476D01*
X212406809Y-85826238D01*
X212502047Y-85731000D01*
X212644904Y-85683380D01*
X212740142Y-85683380D01*
X212883000Y-85731000D01*
X212930619Y-85778619D01*
X213502047Y-86683380D02*
X213406809Y-86635761D01*
X213359190Y-86588142D01*
X213311571Y-86492904D01*
X213311571Y-86207190D01*
X213359190Y-86111952D01*
X213406809Y-86064333D01*
X213502047Y-86016714D01*
X213644904Y-86016714D01*
X213740142Y-86064333D01*
X213787761Y-86111952D01*
X213835380Y-86207190D01*
X213835380Y-86492904D01*
X213787761Y-86588142D01*
X213740142Y-86635761D01*
X213644904Y-86683380D01*
X213502047Y-86683380D01*
X214263952Y-86016714D02*
X214263952Y-86683380D01*
X214263952Y-86111952D02*
X214311571Y-86064333D01*
X214406809Y-86016714D01*
X214549666Y-86016714D01*
X214644904Y-86064333D01*
X214692523Y-86159571D01*
X214692523Y-86683380D01*
X215168714Y-86016714D02*
X215168714Y-86683380D01*
X215168714Y-86111952D02*
X215216333Y-86064333D01*
X215311571Y-86016714D01*
X215454428Y-86016714D01*
X215549666Y-86064333D01*
X215597285Y-86159571D01*
X215597285Y-86683380D01*
X216454428Y-86635761D02*
X216359190Y-86683380D01*
X216168714Y-86683380D01*
X216073476Y-86635761D01*
X216025857Y-86540523D01*
X216025857Y-86159571D01*
X216073476Y-86064333D01*
X216168714Y-86016714D01*
X216359190Y-86016714D01*
X216454428Y-86064333D01*
X216502047Y-86159571D01*
X216502047Y-86254809D01*
X216025857Y-86350047D01*
X217359190Y-86635761D02*
X217263952Y-86683380D01*
X217073476Y-86683380D01*
X216978238Y-86635761D01*
X216930619Y-86588142D01*
X216883000Y-86492904D01*
X216883000Y-86207190D01*
X216930619Y-86111952D01*
X216978238Y-86064333D01*
X217073476Y-86016714D01*
X217263952Y-86016714D01*
X217359190Y-86064333D01*
X217644904Y-86016714D02*
X218025857Y-86016714D01*
X217787761Y-85683380D02*
X217787761Y-86540523D01*
X217835380Y-86635761D01*
X217930619Y-86683380D01*
X218025857Y-86683380D01*
X218502047Y-86683380D02*
X218406809Y-86635761D01*
X218359190Y-86588142D01*
X218311571Y-86492904D01*
X218311571Y-86207190D01*
X218359190Y-86111952D01*
X218406809Y-86064333D01*
X218502047Y-86016714D01*
X218644904Y-86016714D01*
X218740142Y-86064333D01*
X218787761Y-86111952D01*
X218835380Y-86207190D01*
X218835380Y-86492904D01*
X218787761Y-86588142D01*
X218740142Y-86635761D01*
X218644904Y-86683380D01*
X218502047Y-86683380D01*
X219263952Y-86683380D02*
X219263952Y-86016714D01*
X219263952Y-86207190D02*
X219311571Y-86111952D01*
X219359190Y-86064333D01*
X219454428Y-86016714D01*
X219549666Y-86016714D01*
X180672619Y-86588142D02*
X180625000Y-86635761D01*
X180482142Y-86683380D01*
X180386904Y-86683380D01*
X180244047Y-86635761D01*
X180148809Y-86540523D01*
X180101190Y-86445285D01*
X180053571Y-86254809D01*
X180053571Y-86111952D01*
X180101190Y-85921476D01*
X180148809Y-85826238D01*
X180244047Y-85731000D01*
X180386904Y-85683380D01*
X180482142Y-85683380D01*
X180625000Y-85731000D01*
X180672619Y-85778619D01*
X181244047Y-86683380D02*
X181148809Y-86635761D01*
X181101190Y-86588142D01*
X181053571Y-86492904D01*
X181053571Y-86207190D01*
X181101190Y-86111952D01*
X181148809Y-86064333D01*
X181244047Y-86016714D01*
X181386904Y-86016714D01*
X181482142Y-86064333D01*
X181529761Y-86111952D01*
X181577380Y-86207190D01*
X181577380Y-86492904D01*
X181529761Y-86588142D01*
X181482142Y-86635761D01*
X181386904Y-86683380D01*
X181244047Y-86683380D01*
X182005952Y-86016714D02*
X182005952Y-86683380D01*
X182005952Y-86111952D02*
X182053571Y-86064333D01*
X182148809Y-86016714D01*
X182291666Y-86016714D01*
X182386904Y-86064333D01*
X182434523Y-86159571D01*
X182434523Y-86683380D01*
X182910714Y-86016714D02*
X182910714Y-86683380D01*
X182910714Y-86111952D02*
X182958333Y-86064333D01*
X183053571Y-86016714D01*
X183196428Y-86016714D01*
X183291666Y-86064333D01*
X183339285Y-86159571D01*
X183339285Y-86683380D01*
X184196428Y-86635761D02*
X184101190Y-86683380D01*
X183910714Y-86683380D01*
X183815476Y-86635761D01*
X183767857Y-86540523D01*
X183767857Y-86159571D01*
X183815476Y-86064333D01*
X183910714Y-86016714D01*
X184101190Y-86016714D01*
X184196428Y-86064333D01*
X184244047Y-86159571D01*
X184244047Y-86254809D01*
X183767857Y-86350047D01*
X185101190Y-86635761D02*
X185005952Y-86683380D01*
X184815476Y-86683380D01*
X184720238Y-86635761D01*
X184672619Y-86588142D01*
X184625000Y-86492904D01*
X184625000Y-86207190D01*
X184672619Y-86111952D01*
X184720238Y-86064333D01*
X184815476Y-86016714D01*
X185005952Y-86016714D01*
X185101190Y-86064333D01*
X185386904Y-86016714D02*
X185767857Y-86016714D01*
X185529761Y-85683380D02*
X185529761Y-86540523D01*
X185577380Y-86635761D01*
X185672619Y-86683380D01*
X185767857Y-86683380D01*
X186244047Y-86683380D02*
X186148809Y-86635761D01*
X186101190Y-86588142D01*
X186053571Y-86492904D01*
X186053571Y-86207190D01*
X186101190Y-86111952D01*
X186148809Y-86064333D01*
X186244047Y-86016714D01*
X186386904Y-86016714D01*
X186482142Y-86064333D01*
X186529761Y-86111952D01*
X186577380Y-86207190D01*
X186577380Y-86492904D01*
X186529761Y-86588142D01*
X186482142Y-86635761D01*
X186386904Y-86683380D01*
X186244047Y-86683380D01*
X187005952Y-86683380D02*
X187005952Y-86016714D01*
X187005952Y-86207190D02*
X187053571Y-86111952D01*
X187101190Y-86064333D01*
X187196428Y-86016714D01*
X187291666Y-86016714D01*
%TO.C,D2*%
X196739904Y-135622380D02*
X196739904Y-134622380D01*
X196978000Y-134622380D01*
X197120857Y-134670000D01*
X197216095Y-134765238D01*
X197263714Y-134860476D01*
X197311333Y-135050952D01*
X197311333Y-135193809D01*
X197263714Y-135384285D01*
X197216095Y-135479523D01*
X197120857Y-135574761D01*
X196978000Y-135622380D01*
X196739904Y-135622380D01*
X197692285Y-134717619D02*
X197739904Y-134670000D01*
X197835142Y-134622380D01*
X198073238Y-134622380D01*
X198168476Y-134670000D01*
X198216095Y-134717619D01*
X198263714Y-134812857D01*
X198263714Y-134908095D01*
X198216095Y-135050952D01*
X197644666Y-135622380D01*
X198263714Y-135622380D01*
X166109047Y-122287428D02*
X166870952Y-122287428D01*
X166251904Y-116286666D02*
X166728095Y-116286666D01*
X166156666Y-116572380D02*
X166490000Y-115572380D01*
X166823333Y-116572380D01*
X166109047Y-119239428D02*
X166870952Y-119239428D01*
X166490000Y-119620380D02*
X166490000Y-118858476D01*
X208241619Y-119525142D02*
X208194000Y-119572761D01*
X208051142Y-119620380D01*
X207955904Y-119620380D01*
X207813047Y-119572761D01*
X207717809Y-119477523D01*
X207670190Y-119382285D01*
X207622571Y-119191809D01*
X207622571Y-119048952D01*
X207670190Y-118858476D01*
X207717809Y-118763238D01*
X207813047Y-118668000D01*
X207955904Y-118620380D01*
X208051142Y-118620380D01*
X208194000Y-118668000D01*
X208241619Y-118715619D01*
X208813047Y-119620380D02*
X208717809Y-119572761D01*
X208670190Y-119525142D01*
X208622571Y-119429904D01*
X208622571Y-119144190D01*
X208670190Y-119048952D01*
X208717809Y-119001333D01*
X208813047Y-118953714D01*
X208955904Y-118953714D01*
X209051142Y-119001333D01*
X209098761Y-119048952D01*
X209146380Y-119144190D01*
X209146380Y-119429904D01*
X209098761Y-119525142D01*
X209051142Y-119572761D01*
X208955904Y-119620380D01*
X208813047Y-119620380D01*
X209574952Y-118953714D02*
X209574952Y-119620380D01*
X209574952Y-119048952D02*
X209622571Y-119001333D01*
X209717809Y-118953714D01*
X209860666Y-118953714D01*
X209955904Y-119001333D01*
X210003523Y-119096571D01*
X210003523Y-119620380D01*
X210479714Y-118953714D02*
X210479714Y-119620380D01*
X210479714Y-119048952D02*
X210527333Y-119001333D01*
X210622571Y-118953714D01*
X210765428Y-118953714D01*
X210860666Y-119001333D01*
X210908285Y-119096571D01*
X210908285Y-119620380D01*
X211765428Y-119572761D02*
X211670190Y-119620380D01*
X211479714Y-119620380D01*
X211384476Y-119572761D01*
X211336857Y-119477523D01*
X211336857Y-119096571D01*
X211384476Y-119001333D01*
X211479714Y-118953714D01*
X211670190Y-118953714D01*
X211765428Y-119001333D01*
X211813047Y-119096571D01*
X211813047Y-119191809D01*
X211336857Y-119287047D01*
X212670190Y-119572761D02*
X212574952Y-119620380D01*
X212384476Y-119620380D01*
X212289238Y-119572761D01*
X212241619Y-119525142D01*
X212194000Y-119429904D01*
X212194000Y-119144190D01*
X212241619Y-119048952D01*
X212289238Y-119001333D01*
X212384476Y-118953714D01*
X212574952Y-118953714D01*
X212670190Y-119001333D01*
X212955904Y-118953714D02*
X213336857Y-118953714D01*
X213098761Y-118620380D02*
X213098761Y-119477523D01*
X213146380Y-119572761D01*
X213241619Y-119620380D01*
X213336857Y-119620380D01*
X213813047Y-119620380D02*
X213717809Y-119572761D01*
X213670190Y-119525142D01*
X213622571Y-119429904D01*
X213622571Y-119144190D01*
X213670190Y-119048952D01*
X213717809Y-119001333D01*
X213813047Y-118953714D01*
X213955904Y-118953714D01*
X214051142Y-119001333D01*
X214098761Y-119048952D01*
X214146380Y-119144190D01*
X214146380Y-119429904D01*
X214098761Y-119525142D01*
X214051142Y-119572761D01*
X213955904Y-119620380D01*
X213813047Y-119620380D01*
X214574952Y-119620380D02*
X214574952Y-118953714D01*
X214574952Y-119144190D02*
X214622571Y-119048952D01*
X214670190Y-119001333D01*
X214765428Y-118953714D01*
X214860666Y-118953714D01*
X179793619Y-119525142D02*
X179746000Y-119572761D01*
X179603142Y-119620380D01*
X179507904Y-119620380D01*
X179365047Y-119572761D01*
X179269809Y-119477523D01*
X179222190Y-119382285D01*
X179174571Y-119191809D01*
X179174571Y-119048952D01*
X179222190Y-118858476D01*
X179269809Y-118763238D01*
X179365047Y-118668000D01*
X179507904Y-118620380D01*
X179603142Y-118620380D01*
X179746000Y-118668000D01*
X179793619Y-118715619D01*
X180365047Y-119620380D02*
X180269809Y-119572761D01*
X180222190Y-119525142D01*
X180174571Y-119429904D01*
X180174571Y-119144190D01*
X180222190Y-119048952D01*
X180269809Y-119001333D01*
X180365047Y-118953714D01*
X180507904Y-118953714D01*
X180603142Y-119001333D01*
X180650761Y-119048952D01*
X180698380Y-119144190D01*
X180698380Y-119429904D01*
X180650761Y-119525142D01*
X180603142Y-119572761D01*
X180507904Y-119620380D01*
X180365047Y-119620380D01*
X181126952Y-118953714D02*
X181126952Y-119620380D01*
X181126952Y-119048952D02*
X181174571Y-119001333D01*
X181269809Y-118953714D01*
X181412666Y-118953714D01*
X181507904Y-119001333D01*
X181555523Y-119096571D01*
X181555523Y-119620380D01*
X182031714Y-118953714D02*
X182031714Y-119620380D01*
X182031714Y-119048952D02*
X182079333Y-119001333D01*
X182174571Y-118953714D01*
X182317428Y-118953714D01*
X182412666Y-119001333D01*
X182460285Y-119096571D01*
X182460285Y-119620380D01*
X183317428Y-119572761D02*
X183222190Y-119620380D01*
X183031714Y-119620380D01*
X182936476Y-119572761D01*
X182888857Y-119477523D01*
X182888857Y-119096571D01*
X182936476Y-119001333D01*
X183031714Y-118953714D01*
X183222190Y-118953714D01*
X183317428Y-119001333D01*
X183365047Y-119096571D01*
X183365047Y-119191809D01*
X182888857Y-119287047D01*
X184222190Y-119572761D02*
X184126952Y-119620380D01*
X183936476Y-119620380D01*
X183841238Y-119572761D01*
X183793619Y-119525142D01*
X183746000Y-119429904D01*
X183746000Y-119144190D01*
X183793619Y-119048952D01*
X183841238Y-119001333D01*
X183936476Y-118953714D01*
X184126952Y-118953714D01*
X184222190Y-119001333D01*
X184507904Y-118953714D02*
X184888857Y-118953714D01*
X184650761Y-118620380D02*
X184650761Y-119477523D01*
X184698380Y-119572761D01*
X184793619Y-119620380D01*
X184888857Y-119620380D01*
X185365047Y-119620380D02*
X185269809Y-119572761D01*
X185222190Y-119525142D01*
X185174571Y-119429904D01*
X185174571Y-119144190D01*
X185222190Y-119048952D01*
X185269809Y-119001333D01*
X185365047Y-118953714D01*
X185507904Y-118953714D01*
X185603142Y-119001333D01*
X185650761Y-119048952D01*
X185698380Y-119144190D01*
X185698380Y-119429904D01*
X185650761Y-119525142D01*
X185603142Y-119572761D01*
X185507904Y-119620380D01*
X185365047Y-119620380D01*
X186126952Y-119620380D02*
X186126952Y-118953714D01*
X186126952Y-119144190D02*
X186174571Y-119048952D01*
X186222190Y-119001333D01*
X186317428Y-118953714D01*
X186412666Y-118953714D01*
%TO.C,L3*%
X155145333Y-36536380D02*
X154669142Y-36536380D01*
X154669142Y-35536380D01*
X155383428Y-35536380D02*
X156002476Y-35536380D01*
X155669142Y-35917333D01*
X155812000Y-35917333D01*
X155907238Y-35964952D01*
X155954857Y-36012571D01*
X156002476Y-36107809D01*
X156002476Y-36345904D01*
X155954857Y-36441142D01*
X155907238Y-36488761D01*
X155812000Y-36536380D01*
X155526285Y-36536380D01*
X155431047Y-36488761D01*
X155383428Y-36441142D01*
%TO.C,L2*%
X199300333Y-65550380D02*
X198824142Y-65550380D01*
X198824142Y-64550380D01*
X199586047Y-64645619D02*
X199633666Y-64598000D01*
X199728904Y-64550380D01*
X199967000Y-64550380D01*
X200062238Y-64598000D01*
X200109857Y-64645619D01*
X200157476Y-64740857D01*
X200157476Y-64836095D01*
X200109857Y-64978952D01*
X199538428Y-65550380D01*
X200157476Y-65550380D01*
X217628142Y-59962380D02*
X217628142Y-58962380D01*
X218104333Y-59962380D02*
X218104333Y-58962380D01*
X218675761Y-59962380D01*
X218675761Y-58962380D01*
X219151952Y-59581428D02*
X219913857Y-59581428D01*
X219532904Y-59962380D02*
X219532904Y-59200476D01*
X217628142Y-47770380D02*
X217628142Y-46770380D01*
X218104333Y-47770380D02*
X218104333Y-46770380D01*
X218675761Y-47770380D01*
X218675761Y-46770380D01*
X219151952Y-47389428D02*
X219913857Y-47389428D01*
X178543952Y-58962380D02*
X178734428Y-58962380D01*
X178829666Y-59010000D01*
X178924904Y-59105238D01*
X178972523Y-59295714D01*
X178972523Y-59629047D01*
X178924904Y-59819523D01*
X178829666Y-59914761D01*
X178734428Y-59962380D01*
X178543952Y-59962380D01*
X178448714Y-59914761D01*
X178353476Y-59819523D01*
X178305857Y-59629047D01*
X178305857Y-59295714D01*
X178353476Y-59105238D01*
X178448714Y-59010000D01*
X178543952Y-58962380D01*
X179401095Y-58962380D02*
X179401095Y-59771904D01*
X179448714Y-59867142D01*
X179496333Y-59914761D01*
X179591571Y-59962380D01*
X179782047Y-59962380D01*
X179877285Y-59914761D01*
X179924904Y-59867142D01*
X179972523Y-59771904D01*
X179972523Y-58962380D01*
X180305857Y-58962380D02*
X180877285Y-58962380D01*
X180591571Y-59962380D02*
X180591571Y-58962380D01*
X181210619Y-59581428D02*
X181972523Y-59581428D01*
X181591571Y-59962380D02*
X181591571Y-59200476D01*
X178543952Y-46770380D02*
X178734428Y-46770380D01*
X178829666Y-46818000D01*
X178924904Y-46913238D01*
X178972523Y-47103714D01*
X178972523Y-47437047D01*
X178924904Y-47627523D01*
X178829666Y-47722761D01*
X178734428Y-47770380D01*
X178543952Y-47770380D01*
X178448714Y-47722761D01*
X178353476Y-47627523D01*
X178305857Y-47437047D01*
X178305857Y-47103714D01*
X178353476Y-46913238D01*
X178448714Y-46818000D01*
X178543952Y-46770380D01*
X179401095Y-46770380D02*
X179401095Y-47579904D01*
X179448714Y-47675142D01*
X179496333Y-47722761D01*
X179591571Y-47770380D01*
X179782047Y-47770380D01*
X179877285Y-47722761D01*
X179924904Y-47675142D01*
X179972523Y-47579904D01*
X179972523Y-46770380D01*
X180305857Y-46770380D02*
X180877285Y-46770380D01*
X180591571Y-47770380D02*
X180591571Y-46770380D01*
X181210619Y-47389428D02*
X181972523Y-47389428D01*
%TD*%
M02*
