%TF.GenerationSoftware,KiCad,Pcbnew,(5.1.10)-1*%
%TF.CreationDate,2022-01-13T05:40:57+07:00*%
%TF.ProjectId,Atuph,41747570-682e-46b6-9963-61645f706362,rev?*%
%TF.SameCoordinates,Original*%
%TF.FileFunction,Soldermask,Top*%
%TF.FilePolarity,Negative*%
%FSLAX46Y46*%
G04 Gerber Fmt 4.6, Leading zero omitted, Abs format (unit mm)*
G04 Created by KiCad (PCBNEW (5.1.10)-1) date 2022-01-13 05:40:57*
%MOMM*%
%LPD*%
G01*
G04 APERTURE LIST*
%ADD10O,1.600000X1.600000*%
%ADD11R,1.600000X1.600000*%
%ADD12O,1.700000X1.700000*%
%ADD13R,1.700000X1.700000*%
%ADD14C,6.000000*%
%ADD15R,3.048000X3.048000*%
G04 APERTURE END LIST*
D10*
%TO.C,A1*%
X137558000Y-79627000D03*
X115718000Y-79627000D03*
X125878000Y-79627000D03*
X113178000Y-79627000D03*
X110638000Y-79627000D03*
X150258000Y-79627000D03*
X132478000Y-79627000D03*
X135018000Y-79627000D03*
X142638000Y-79627000D03*
X147718000Y-79627000D03*
X145178000Y-79627000D03*
X140098000Y-79627000D03*
X108098000Y-79627000D03*
X105558000Y-79627000D03*
X120798000Y-79627000D03*
X123338000Y-79627000D03*
X128418000Y-79627000D03*
X118258000Y-79627000D03*
X117238000Y-122807000D03*
X132478000Y-122807000D03*
D11*
X114698000Y-122807000D03*
D10*
X127398000Y-122807000D03*
X119778000Y-122807000D03*
X129938000Y-122807000D03*
X150258000Y-122807000D03*
X122318000Y-122807000D03*
X124858000Y-122807000D03*
X142638000Y-122807000D03*
X137558000Y-122807000D03*
X140098000Y-122807000D03*
X145178000Y-122807000D03*
X147718000Y-122807000D03*
%TD*%
D12*
%TO.C,L1*%
X133144000Y-49007000D03*
D13*
X133144000Y-46467000D03*
D12*
X133144000Y-56627000D03*
X133144000Y-51547000D03*
X133144000Y-59167000D03*
X133144000Y-54087000D03*
X122984000Y-51547000D03*
X122984000Y-56627000D03*
D13*
X122984000Y-46467000D03*
D12*
X122984000Y-59167000D03*
X122984000Y-49007000D03*
X122984000Y-54087000D03*
%TD*%
%TO.C,E1*%
X86248000Y-50863000D03*
D13*
X86248000Y-63563000D03*
D12*
X86248000Y-45783000D03*
X86248000Y-55943000D03*
X86248000Y-58483000D03*
X86248000Y-61023000D03*
X86248000Y-48323000D03*
X86248000Y-53403000D03*
X114188000Y-48323000D03*
X114188000Y-53403000D03*
X114188000Y-61023000D03*
X114188000Y-58483000D03*
X114188000Y-55943000D03*
X114188000Y-45783000D03*
D13*
X114188000Y-63563000D03*
D12*
X114188000Y-50863000D03*
%TD*%
D14*
%TO.C,H4*%
X77000000Y-33000000D03*
%TD*%
%TO.C,H3*%
X226000000Y-33000000D03*
%TD*%
%TO.C,H2*%
X226000000Y-136000000D03*
%TD*%
%TO.C,H1*%
X77000000Y-136000000D03*
%TD*%
D13*
%TO.C,D1*%
X164627000Y-83183000D03*
X164627000Y-86231000D03*
X164627000Y-89279000D03*
D14*
X216627000Y-74231000D03*
X182627000Y-74231000D03*
X182627000Y-98231000D03*
X216627000Y-98231000D03*
%TD*%
D13*
%TO.C,D2*%
X163494000Y-119168000D03*
X163494000Y-122216000D03*
X163494000Y-116120000D03*
D14*
X182492000Y-129074000D03*
X182492000Y-109292000D03*
X212514000Y-129104000D03*
X212464000Y-109262000D03*
%TD*%
D12*
%TO.C,L3*%
X167922000Y-55388000D03*
X167922000Y-50308000D03*
X167922000Y-45228000D03*
D13*
X167922000Y-42688000D03*
D12*
X167922000Y-52848000D03*
X167922000Y-47768000D03*
X142702000Y-57928000D03*
X142702000Y-52848000D03*
X142702000Y-47768000D03*
D13*
X142702000Y-45228000D03*
D12*
X142702000Y-55388000D03*
X142702000Y-50308000D03*
%TD*%
D15*
%TO.C,L2*%
X218967000Y-61914000D03*
X218967000Y-44914000D03*
X179967000Y-44914000D03*
X179967000Y-61914000D03*
%TD*%
M02*
